<svg xmlns="http://www.w3.org/2000/svg" xmlns:xlink="http://www.w3.org/1999/xlink" width="500" zoomAndPan="magnify" viewBox="0 0 375 374.999991" height="500" preserveAspectRatio="xMidYMid meet" version="1.0"><defs><clipPath id="id1"><path d="M 82.96875 82.96875 L 292.21875 82.96875 L 292.21875 292.21875 L 82.96875 292.21875 Z M 82.96875 82.96875 " clip-rule="nonzero"/></clipPath></defs><g clip-path="url(#id1)"><path fill="#74927a" d="M 187.59375 82.96875 C 129.816406 82.96875 82.96875 129.816406 82.96875 187.59375 C 82.96875 245.375 129.816406 292.21875 187.59375 292.21875 C 245.375 292.21875 292.21875 245.375 292.21875 187.59375 C 292.21875 129.816406 245.375 82.96875 187.59375 82.96875 Z M 242.84375 235.628906 L 234.46875 244.007812 C 232.972656 245.5 228.59375 246.433594 228.453125 246.433594 C 201.949219 246.664062 176.433594 236.253906 157.683594 217.507812 C 138.882812 198.695312 128.460938 173.085938 128.742188 146.496094 C 128.742188 146.484375 129.703125 142.230469 131.195312 140.75 L 139.574219 132.371094 C 142.640625 129.292969 148.527344 127.902344 152.652344 129.28125 L 154.414062 129.867188 C 158.527344 131.246094 162.84375 135.792969 163.980469 139.984375 L 168.195312 155.449219 C 169.332031 159.652344 167.800781 165.628906 164.734375 168.691406 L 159.140625 174.289062 C 164.632812 194.621094 180.582031 210.570312 200.917969 216.074219 L 206.511719 210.480469 C 209.585938 207.402344 215.566406 205.871094 219.753906 207.007812 L 235.21875 211.234375 C 239.410156 212.386719 243.957031 216.675781 245.335938 220.789062 L 245.921875 222.578125 C 247.289062 226.6875 245.910156 232.578125 242.84375 235.628906 Z M 242.84375 235.628906 " fill-opacity="1" fill-rule="nonzero"/></g></svg>