<svg width="1288" height="179" viewBox="0 0 1288 179" fill="none" xmlns="http://www.w3.org/2000/svg">
<path d="M24 38H1105V179H24V38Z" fill="#D1877D" fill-opacity="0.5"/>
<path d="M51.84 97.6C51.84 95.952 52.208 94.48 52.944 93.184C53.696 91.872 54.712 90.856 55.992 90.136C57.288 89.4 58.736 89.032 60.336 89.032C62.208 89.032 63.848 89.512 65.256 90.472C66.664 91.432 67.648 92.76 68.208 94.456H64.344C63.96 93.656 63.416 93.056 62.712 92.656C62.024 92.256 61.224 92.056 60.312 92.056C59.336 92.056 58.464 92.288 57.696 92.752C56.944 93.2 56.352 93.84 55.92 94.672C55.504 95.504 55.296 96.48 55.296 97.6C55.296 98.704 55.504 99.68 55.92 100.528C56.352 101.36 56.944 102.008 57.696 102.472C58.464 102.92 59.336 103.144 60.312 103.144C61.224 103.144 62.024 102.944 62.712 102.544C63.416 102.128 63.96 101.52 64.344 100.72H68.208C67.648 102.432 66.664 103.768 65.256 104.728C63.864 105.672 62.224 106.144 60.336 106.144C58.736 106.144 57.288 105.784 55.992 105.064C54.712 104.328 53.696 103.312 52.944 102.016C52.208 100.72 51.84 99.248 51.84 97.6ZM70.4539 99.304C70.4539 97.96 70.7179 96.768 71.2459 95.728C71.7899 94.688 72.5179 93.888 73.4299 93.328C74.3579 92.768 75.3899 92.488 76.5259 92.488C77.5179 92.488 78.3819 92.688 79.1179 93.088C79.8699 93.488 80.4699 93.992 80.9179 94.6V92.704H84.3019V106H80.9179V104.056C80.4859 104.68 79.8859 105.2 79.1179 105.616C78.3659 106.016 77.4939 106.216 76.5019 106.216C75.3819 106.216 74.3579 105.928 73.4299 105.352C72.5179 104.776 71.7899 103.968 71.2459 102.928C70.7179 101.872 70.4539 100.664 70.4539 99.304ZM80.9179 99.352C80.9179 98.536 80.7579 97.84 80.4379 97.264C80.1179 96.672 79.6859 96.224 79.1419 95.92C78.5979 95.6 78.0139 95.44 77.3899 95.44C76.7659 95.44 76.1899 95.592 75.6619 95.896C75.1339 96.2 74.7019 96.648 74.3659 97.24C74.0459 97.816 73.8859 98.504 73.8859 99.304C73.8859 100.104 74.0459 100.808 74.3659 101.416C74.7019 102.008 75.1339 102.464 75.6619 102.784C76.2059 103.104 76.7819 103.264 77.3899 103.264C78.0139 103.264 78.5979 103.112 79.1419 102.808C79.6859 102.488 80.1179 102.04 80.4379 101.464C80.7579 100.872 80.9179 100.168 80.9179 99.352ZM91.1835 94.768C91.6155 94.064 92.1755 93.512 92.8635 93.112C93.5675 92.712 94.3675 92.512 95.2635 92.512V96.04H94.3755C93.3195 96.04 92.5195 96.288 91.9755 96.784C91.4475 97.28 91.1835 98.144 91.1835 99.376V106H87.8235V92.704H91.1835V94.768ZM99.4706 91.12C98.8786 91.12 98.3826 90.936 97.9826 90.568C97.5986 90.184 97.4066 89.712 97.4066 89.152C97.4066 88.592 97.5986 88.128 97.9826 87.76C98.3826 87.376 98.8786 87.184 99.4706 87.184C100.063 87.184 100.551 87.376 100.935 87.76C101.335 88.128 101.535 88.592 101.535 89.152C101.535 89.712 101.335 90.184 100.935 90.568C100.551 90.936 100.063 91.12 99.4706 91.12ZM101.127 92.704V106H97.7666V92.704H101.127ZM108.046 88.24V106H104.686V88.24H108.046ZM110.742 99.304C110.742 97.96 111.006 96.768 111.534 95.728C112.078 94.688 112.806 93.888 113.718 93.328C114.646 92.768 115.678 92.488 116.814 92.488C117.806 92.488 118.67 92.688 119.406 93.088C120.158 93.488 120.758 93.992 121.206 94.6V92.704H124.59V106H121.206V104.056C120.774 104.68 120.174 105.2 119.406 105.616C118.654 106.016 117.782 106.216 116.79 106.216C115.67 106.216 114.646 105.928 113.718 105.352C112.806 104.776 112.078 103.968 111.534 102.928C111.006 101.872 110.742 100.664 110.742 99.304ZM121.206 99.352C121.206 98.536 121.046 97.84 120.726 97.264C120.406 96.672 119.974 96.224 119.43 95.92C118.886 95.6 118.302 95.44 117.678 95.44C117.054 95.44 116.478 95.592 115.95 95.896C115.422 96.2 114.99 96.648 114.654 97.24C114.334 97.816 114.174 98.504 114.174 99.304C114.174 100.104 114.334 100.808 114.654 101.416C114.99 102.008 115.422 102.464 115.95 102.784C116.494 103.104 117.07 103.264 117.678 103.264C118.302 103.264 118.886 103.112 119.43 102.808C119.974 102.488 120.406 102.04 120.726 101.464C121.046 100.872 121.206 100.168 121.206 99.352ZM135.6 92.512C136.608 92.512 137.504 92.736 138.288 93.184C139.072 93.616 139.68 94.264 140.112 95.128C140.56 95.976 140.784 97 140.784 98.2V106H137.424V98.656C137.424 97.6 137.16 96.792 136.632 96.232C136.104 95.656 135.384 95.368 134.472 95.368C133.544 95.368 132.808 95.656 132.264 96.232C131.736 96.792 131.472 97.6 131.472 98.656V106H128.112V88.24H131.472V94.36C131.904 93.784 132.48 93.336 133.2 93.016C133.92 92.68 134.72 92.512 135.6 92.512ZM151.882 91.12C151.29 91.12 150.794 90.936 150.394 90.568C150.01 90.184 149.818 89.712 149.818 89.152C149.818 88.592 150.01 88.128 150.394 87.76C150.794 87.376 151.29 87.184 151.882 87.184C152.474 87.184 152.962 87.376 153.346 87.76C153.746 88.128 153.946 88.592 153.946 89.152C153.946 89.712 153.746 90.184 153.346 90.568C152.962 90.936 152.474 91.12 151.882 91.12ZM153.538 92.704V106H150.178V92.704H153.538ZM164.465 92.512C166.049 92.512 167.329 93.016 168.305 94.024C169.281 95.016 169.769 96.408 169.769 98.2V106H166.409V98.656C166.409 97.6 166.145 96.792 165.617 96.232C165.089 95.656 164.369 95.368 163.457 95.368C162.529 95.368 161.793 95.656 161.249 96.232C160.721 96.792 160.457 97.6 160.457 98.656V106H157.097V92.704H160.457V94.36C160.905 93.784 161.473 93.336 162.161 93.016C162.865 92.68 163.633 92.512 164.465 92.512ZM179.3 95.464H176.972V106H173.564V95.464H172.052V92.704H173.564V92.032C173.564 90.4 174.028 89.2 174.956 88.432C175.884 87.664 177.284 87.304 179.156 87.352V90.184C178.34 90.168 177.772 90.304 177.452 90.592C177.132 90.88 176.972 91.4 176.972 92.152V92.704H179.3V95.464ZM187.622 106.216C186.342 106.216 185.19 105.936 184.166 105.376C183.142 104.8 182.334 103.992 181.742 102.952C181.166 101.912 180.878 100.712 180.878 99.352C180.878 97.992 181.174 96.792 181.766 95.752C182.374 94.712 183.198 93.912 184.238 93.352C185.278 92.776 186.438 92.488 187.718 92.488C188.998 92.488 190.158 92.776 191.198 93.352C192.238 93.912 193.054 94.712 193.646 95.752C194.254 96.792 194.558 97.992 194.558 99.352C194.558 100.712 194.246 101.912 193.622 102.952C193.014 103.992 192.182 104.8 191.126 105.376C190.086 105.936 188.918 106.216 187.622 106.216ZM187.622 103.288C188.23 103.288 188.798 103.144 189.326 102.856C189.87 102.552 190.302 102.104 190.622 101.512C190.942 100.92 191.102 100.2 191.102 99.352C191.102 98.088 190.766 97.12 190.094 96.448C189.438 95.76 188.63 95.416 187.67 95.416C186.71 95.416 185.902 95.76 185.246 96.448C184.606 97.12 184.286 98.088 184.286 99.352C184.286 100.616 184.598 101.592 185.222 102.28C185.862 102.952 186.662 103.288 187.622 103.288ZM200.623 94.768C201.055 94.064 201.615 93.512 202.303 93.112C203.007 92.712 203.807 92.512 204.703 92.512V96.04H203.815C202.759 96.04 201.959 96.288 201.415 96.784C200.887 97.28 200.623 98.144 200.623 99.376V106H197.263V92.704H200.623V94.768ZM223.718 92.512C225.35 92.512 226.662 93.016 227.654 94.024C228.662 95.016 229.166 96.408 229.166 98.2V106H225.806V98.656C225.806 97.616 225.542 96.824 225.014 96.28C224.486 95.72 223.766 95.44 222.854 95.44C221.942 95.44 221.214 95.72 220.67 96.28C220.142 96.824 219.878 97.616 219.878 98.656V106H216.518V98.656C216.518 97.616 216.254 96.824 215.726 96.28C215.198 95.72 214.478 95.44 213.566 95.44C212.638 95.44 211.902 95.72 211.358 96.28C210.83 96.824 210.566 97.616 210.566 98.656V106H207.206V92.704H210.566V94.312C210.998 93.752 211.55 93.312 212.222 92.992C212.91 92.672 213.662 92.512 214.478 92.512C215.518 92.512 216.446 92.736 217.262 93.184C218.078 93.616 218.71 94.24 219.158 95.056C219.59 94.288 220.214 93.672 221.03 93.208C221.862 92.744 222.758 92.512 223.718 92.512ZM231.73 99.304C231.73 97.96 231.994 96.768 232.522 95.728C233.066 94.688 233.794 93.888 234.706 93.328C235.634 92.768 236.666 92.488 237.802 92.488C238.794 92.488 239.658 92.688 240.394 93.088C241.146 93.488 241.746 93.992 242.194 94.6V92.704H245.578V106H242.194V104.056C241.762 104.68 241.162 105.2 240.394 105.616C239.642 106.016 238.77 106.216 237.778 106.216C236.658 106.216 235.634 105.928 234.706 105.352C233.794 104.776 233.066 103.968 232.522 102.928C231.994 101.872 231.73 100.664 231.73 99.304ZM242.194 99.352C242.194 98.536 242.034 97.84 241.714 97.264C241.394 96.672 240.962 96.224 240.418 95.92C239.874 95.6 239.29 95.44 238.666 95.44C238.042 95.44 237.466 95.592 236.938 95.896C236.41 96.2 235.978 96.648 235.642 97.24C235.322 97.816 235.162 98.504 235.162 99.304C235.162 100.104 235.322 100.808 235.642 101.416C235.978 102.008 236.41 102.464 236.938 102.784C237.482 103.104 238.058 103.264 238.666 103.264C239.29 103.264 239.874 103.112 240.418 102.808C240.962 102.488 241.394 102.04 241.714 101.464C242.034 100.872 242.194 100.168 242.194 99.352ZM254.188 106.216C253.1 106.216 252.124 106.024 251.26 105.64C250.396 105.24 249.708 104.704 249.196 104.032C248.7 103.36 248.428 102.616 248.38 101.8H251.764C251.828 102.312 252.076 102.736 252.508 103.072C252.956 103.408 253.508 103.576 254.164 103.576C254.804 103.576 255.3 103.448 255.652 103.192C256.02 102.936 256.204 102.608 256.204 102.208C256.204 101.776 255.98 101.456 255.532 101.248C255.1 101.024 254.404 100.784 253.444 100.528C252.452 100.288 251.636 100.04 250.996 99.784C250.372 99.528 249.828 99.136 249.364 98.608C248.916 98.08 248.692 97.368 248.692 96.472C248.692 95.736 248.9 95.064 249.316 94.456C249.748 93.848 250.356 93.368 251.14 93.016C251.94 92.664 252.876 92.488 253.948 92.488C255.532 92.488 256.796 92.888 257.74 93.688C258.684 94.472 259.204 95.536 259.3 96.88H256.084C256.036 96.352 255.812 95.936 255.412 95.632C255.028 95.312 254.508 95.152 253.852 95.152C253.244 95.152 252.772 95.264 252.436 95.488C252.116 95.712 251.956 96.024 251.956 96.424C251.956 96.872 252.18 97.216 252.628 97.456C253.076 97.68 253.772 97.912 254.716 98.152C255.676 98.392 256.468 98.64 257.092 98.896C257.716 99.152 258.252 99.552 258.7 100.096C259.164 100.624 259.404 101.328 259.42 102.208C259.42 102.976 259.204 103.664 258.772 104.272C258.356 104.88 257.748 105.36 256.948 105.712C256.164 106.048 255.244 106.216 254.188 106.216ZM264.122 91.12C263.53 91.12 263.034 90.936 262.634 90.568C262.25 90.184 262.058 89.712 262.058 89.152C262.058 88.592 262.25 88.128 262.634 87.76C263.034 87.376 263.53 87.184 264.122 87.184C264.714 87.184 265.202 87.376 265.586 87.76C265.986 88.128 266.186 88.592 266.186 89.152C266.186 89.712 265.986 90.184 265.586 90.568C265.202 90.936 264.714 91.12 264.122 91.12ZM265.778 92.704V106H262.418V92.704H265.778ZM279.208 95.464V101.896C279.208 102.344 279.312 102.672 279.52 102.88C279.744 103.072 280.112 103.168 280.624 103.168H282.184V106H280.072C277.24 106 275.824 104.624 275.824 101.872V95.464H274.24V92.704H275.824V89.416H279.208V92.704H282.184V95.464H279.208ZM297.201 99.064C297.201 99.544 297.169 99.976 297.105 100.36H287.385C287.465 101.32 287.801 102.072 288.393 102.616C288.985 103.16 289.713 103.432 290.577 103.432C291.825 103.432 292.713 102.896 293.241 101.824H296.865C296.481 103.104 295.745 104.16 294.657 104.992C293.569 105.808 292.233 106.216 290.649 106.216C289.369 106.216 288.217 105.936 287.193 105.376C286.185 104.8 285.393 103.992 284.817 102.952C284.257 101.912 283.977 100.712 283.977 99.352C283.977 97.976 284.257 96.768 284.817 95.728C285.377 94.688 286.161 93.888 287.169 93.328C288.177 92.768 289.337 92.488 290.649 92.488C291.913 92.488 293.041 92.76 294.033 93.304C295.041 93.848 295.817 94.624 296.361 95.632C296.921 96.624 297.201 97.768 297.201 99.064ZM293.721 98.104C293.705 97.24 293.393 96.552 292.785 96.04C292.177 95.512 291.433 95.248 290.553 95.248C289.721 95.248 289.017 95.504 288.441 96.016C287.881 96.512 287.537 97.208 287.409 98.104H293.721ZM307.262 92.512C308.846 92.512 310.126 93.016 311.102 94.024C312.078 95.016 312.566 96.408 312.566 98.2V106H309.206V98.656C309.206 97.6 308.942 96.792 308.414 96.232C307.886 95.656 307.166 95.368 306.254 95.368C305.326 95.368 304.59 95.656 304.046 96.232C303.518 96.792 303.254 97.6 303.254 98.656V106H299.894V92.704H303.254V94.36C303.702 93.784 304.27 93.336 304.958 93.016C305.662 92.68 306.43 92.512 307.262 92.512ZM319.913 95.464V101.896C319.913 102.344 320.017 102.672 320.225 102.88C320.449 103.072 320.817 103.168 321.329 103.168H322.889V106H320.777C317.945 106 316.529 104.624 316.529 101.872V95.464H314.945V92.704H316.529V89.416H319.913V92.704H322.889V95.464H319.913ZM324.681 99.304C324.681 97.96 324.945 96.768 325.473 95.728C326.017 94.688 326.745 93.888 327.657 93.328C328.585 92.768 329.617 92.488 330.753 92.488C331.745 92.488 332.609 92.688 333.345 93.088C334.097 93.488 334.697 93.992 335.145 94.6V92.704H338.529V106H335.145V104.056C334.713 104.68 334.113 105.2 333.345 105.616C332.593 106.016 331.721 106.216 330.729 106.216C329.609 106.216 328.585 105.928 327.657 105.352C326.745 104.776 326.017 103.968 325.473 102.928C324.945 101.872 324.681 100.664 324.681 99.304ZM335.145 99.352C335.145 98.536 334.985 97.84 334.665 97.264C334.345 96.672 333.913 96.224 333.369 95.92C332.825 95.6 332.241 95.44 331.617 95.44C330.993 95.44 330.417 95.592 329.889 95.896C329.361 96.2 328.929 96.648 328.593 97.24C328.273 97.816 328.113 98.504 328.113 99.304C328.113 100.104 328.273 100.808 328.593 101.416C328.929 102.008 329.361 102.464 329.889 102.784C330.433 103.104 331.009 103.264 331.617 103.264C332.241 103.264 332.825 103.112 333.369 102.808C333.913 102.488 334.345 102.04 334.665 101.464C334.985 100.872 335.145 100.168 335.145 99.352ZM349.419 92.512C351.003 92.512 352.283 93.016 353.259 94.024C354.235 95.016 354.723 96.408 354.723 98.2V106H351.363V98.656C351.363 97.6 351.099 96.792 350.571 96.232C350.043 95.656 349.323 95.368 348.411 95.368C347.483 95.368 346.747 95.656 346.203 96.232C345.675 96.792 345.411 97.6 345.411 98.656V106H342.051V92.704H345.411V94.36C345.859 93.784 346.427 93.336 347.115 93.016C347.819 92.68 348.587 92.512 349.419 92.512ZM363.366 92.488C364.358 92.488 365.23 92.688 365.982 93.088C366.734 93.472 367.326 93.976 367.758 94.6V92.704H371.142V106.096C371.142 107.328 370.894 108.424 370.398 109.384C369.902 110.36 369.158 111.128 368.166 111.688C367.174 112.264 365.974 112.552 364.566 112.552C362.678 112.552 361.126 112.112 359.91 111.232C358.71 110.352 358.03 109.152 357.87 107.632H361.206C361.382 108.24 361.758 108.72 362.334 109.072C362.926 109.44 363.638 109.624 364.47 109.624C365.446 109.624 366.238 109.328 366.846 108.736C367.454 108.16 367.758 107.28 367.758 106.096V104.032C367.326 104.656 366.726 105.176 365.958 105.592C365.206 106.008 364.342 106.216 363.366 106.216C362.246 106.216 361.222 105.928 360.294 105.352C359.366 104.776 358.63 103.968 358.086 102.928C357.558 101.872 357.294 100.664 357.294 99.304C357.294 97.96 357.558 96.768 358.086 95.728C358.63 94.688 359.358 93.888 360.27 93.328C361.198 92.768 362.23 92.488 363.366 92.488ZM367.758 99.352C367.758 98.536 367.598 97.84 367.278 97.264C366.958 96.672 366.526 96.224 365.982 95.92C365.438 95.6 364.854 95.44 364.23 95.44C363.606 95.44 363.03 95.592 362.502 95.896C361.974 96.2 361.542 96.648 361.206 97.24C360.886 97.816 360.726 98.504 360.726 99.304C360.726 100.104 360.886 100.808 361.206 101.416C361.542 102.008 361.974 102.464 362.502 102.784C363.046 103.104 363.622 103.264 364.23 103.264C364.854 103.264 365.438 103.112 365.982 102.808C366.526 102.488 366.958 102.04 367.278 101.464C367.598 100.872 367.758 100.168 367.758 99.352ZM385.711 106.216C384.623 106.216 383.647 106.024 382.783 105.64C381.919 105.24 381.231 104.704 380.719 104.032C380.223 103.36 379.951 102.616 379.903 101.8H383.287C383.351 102.312 383.599 102.736 384.031 103.072C384.479 103.408 385.031 103.576 385.687 103.576C386.327 103.576 386.823 103.448 387.175 103.192C387.543 102.936 387.727 102.608 387.727 102.208C387.727 101.776 387.503 101.456 387.055 101.248C386.623 101.024 385.927 100.784 384.967 100.528C383.975 100.288 383.159 100.04 382.519 99.784C381.895 99.528 381.351 99.136 380.887 98.608C380.439 98.08 380.215 97.368 380.215 96.472C380.215 95.736 380.423 95.064 380.839 94.456C381.271 93.848 381.879 93.368 382.663 93.016C383.463 92.664 384.399 92.488 385.471 92.488C387.055 92.488 388.319 92.888 389.263 93.688C390.207 94.472 390.727 95.536 390.823 96.88H387.607C387.559 96.352 387.335 95.936 386.935 95.632C386.551 95.312 386.031 95.152 385.375 95.152C384.767 95.152 384.295 95.264 383.959 95.488C383.639 95.712 383.479 96.024 383.479 96.424C383.479 96.872 383.703 97.216 384.151 97.456C384.599 97.68 385.295 97.912 386.239 98.152C387.199 98.392 387.991 98.64 388.615 98.896C389.239 99.152 389.775 99.552 390.223 100.096C390.687 100.624 390.927 101.328 390.943 102.208C390.943 102.976 390.727 103.664 390.295 104.272C389.879 104.88 389.271 105.36 388.471 105.712C387.687 106.048 386.767 106.216 385.711 106.216ZM397.853 95.464V101.896C397.853 102.344 397.957 102.672 398.165 102.88C398.389 103.072 398.757 103.168 399.269 103.168H400.829V106H398.717C395.885 106 394.469 104.624 394.469 101.872V95.464H392.885V92.704H394.469V89.416H397.853V92.704H400.829V95.464H397.853ZM402.621 99.304C402.621 97.96 402.885 96.768 403.413 95.728C403.957 94.688 404.685 93.888 405.597 93.328C406.525 92.768 407.557 92.488 408.693 92.488C409.685 92.488 410.549 92.688 411.285 93.088C412.037 93.488 412.637 93.992 413.085 94.6V92.704H416.469V106H413.085V104.056C412.653 104.68 412.053 105.2 411.285 105.616C410.533 106.016 409.661 106.216 408.669 106.216C407.549 106.216 406.525 105.928 405.597 105.352C404.685 104.776 403.957 103.968 403.413 102.928C402.885 101.872 402.621 100.664 402.621 99.304ZM413.085 99.352C413.085 98.536 412.925 97.84 412.605 97.264C412.285 96.672 411.853 96.224 411.309 95.92C410.765 95.6 410.181 95.44 409.557 95.44C408.933 95.44 408.357 95.592 407.829 95.896C407.301 96.2 406.869 96.648 406.533 97.24C406.213 97.816 406.053 98.504 406.053 99.304C406.053 100.104 406.213 100.808 406.533 101.416C406.869 102.008 407.301 102.464 407.829 102.784C408.373 103.104 408.949 103.264 409.557 103.264C410.181 103.264 410.765 103.112 411.309 102.808C411.853 102.488 412.285 102.04 412.605 101.464C412.925 100.872 413.085 100.168 413.085 99.352ZM427.359 92.512C428.943 92.512 430.223 93.016 431.199 94.024C432.175 95.016 432.663 96.408 432.663 98.2V106H429.303V98.656C429.303 97.6 429.039 96.792 428.511 96.232C427.983 95.656 427.263 95.368 426.351 95.368C425.423 95.368 424.687 95.656 424.143 96.232C423.615 96.792 423.351 97.6 423.351 98.656V106H419.991V92.704H423.351V94.36C423.799 93.784 424.367 93.336 425.055 93.016C425.759 92.68 426.527 92.512 427.359 92.512ZM435.234 99.304C435.234 97.96 435.498 96.768 436.026 95.728C436.57 94.688 437.306 93.888 438.234 93.328C439.162 92.768 440.194 92.488 441.33 92.488C442.194 92.488 443.018 92.68 443.802 93.064C444.586 93.432 445.21 93.928 445.674 94.552V88.24H449.082V106H445.674V104.032C445.258 104.688 444.674 105.216 443.922 105.616C443.17 106.016 442.298 106.216 441.306 106.216C440.186 106.216 439.162 105.928 438.234 105.352C437.306 104.776 436.57 103.968 436.026 102.928C435.498 101.872 435.234 100.664 435.234 99.304ZM445.698 99.352C445.698 98.536 445.538 97.84 445.218 97.264C444.898 96.672 444.466 96.224 443.922 95.92C443.378 95.6 442.794 95.44 442.17 95.44C441.546 95.44 440.97 95.592 440.442 95.896C439.914 96.2 439.482 96.648 439.146 97.24C438.826 97.816 438.666 98.504 438.666 99.304C438.666 100.104 438.826 100.808 439.146 101.416C439.482 102.008 439.914 102.464 440.442 102.784C440.986 103.104 441.562 103.264 442.17 103.264C442.794 103.264 443.378 103.112 443.922 102.808C444.466 102.488 444.898 102.04 445.218 101.464C445.538 100.872 445.698 100.168 445.698 99.352ZM451.74 99.304C451.74 97.96 452.004 96.768 452.532 95.728C453.076 94.688 453.804 93.888 454.716 93.328C455.644 92.768 456.676 92.488 457.812 92.488C458.804 92.488 459.668 92.688 460.404 93.088C461.156 93.488 461.756 93.992 462.204 94.6V92.704H465.588V106H462.204V104.056C461.772 104.68 461.172 105.2 460.404 105.616C459.652 106.016 458.78 106.216 457.788 106.216C456.668 106.216 455.644 105.928 454.716 105.352C453.804 104.776 453.076 103.968 452.532 102.928C452.004 101.872 451.74 100.664 451.74 99.304ZM462.204 99.352C462.204 98.536 462.044 97.84 461.724 97.264C461.404 96.672 460.972 96.224 460.428 95.92C459.884 95.6 459.3 95.44 458.676 95.44C458.052 95.44 457.476 95.592 456.948 95.896C456.42 96.2 455.988 96.648 455.652 97.24C455.332 97.816 455.172 98.504 455.172 99.304C455.172 100.104 455.332 100.808 455.652 101.416C455.988 102.008 456.42 102.464 456.948 102.784C457.492 103.104 458.068 103.264 458.676 103.264C459.3 103.264 459.884 103.112 460.428 102.808C460.972 102.488 461.404 102.04 461.724 101.464C462.044 100.872 462.204 100.168 462.204 99.352ZM472.469 94.768C472.901 94.064 473.461 93.512 474.149 93.112C474.853 92.712 475.653 92.512 476.549 92.512V96.04H475.661C474.605 96.04 473.805 96.288 473.261 96.784C472.733 97.28 472.469 98.144 472.469 99.376V106H469.109V92.704H472.469V94.768ZM488.371 94.624C488.803 94.016 489.395 93.512 490.147 93.112C490.915 92.696 491.787 92.488 492.763 92.488C493.899 92.488 494.923 92.768 495.835 93.328C496.763 93.888 497.491 94.688 498.019 95.728C498.563 96.752 498.835 97.944 498.835 99.304C498.835 100.664 498.563 101.872 498.019 102.928C497.491 103.968 496.763 104.776 495.835 105.352C494.923 105.928 493.899 106.216 492.763 106.216C491.787 106.216 490.923 106.016 490.171 105.616C489.435 105.216 488.835 104.712 488.371 104.104V112.336H485.011V92.704H488.371V94.624ZM495.403 99.304C495.403 98.504 495.235 97.816 494.899 97.24C494.579 96.648 494.147 96.2 493.603 95.896C493.075 95.592 492.499 95.44 491.875 95.44C491.267 95.44 490.691 95.6 490.147 95.92C489.619 96.224 489.187 96.672 488.851 97.264C488.531 97.856 488.371 98.552 488.371 99.352C488.371 100.152 488.531 100.848 488.851 101.44C489.187 102.032 489.619 102.488 490.147 102.808C490.691 103.112 491.267 103.264 491.875 103.264C492.499 103.264 493.075 103.104 493.603 102.784C494.147 102.464 494.579 102.008 494.899 101.416C495.235 100.824 495.403 100.12 495.403 99.304ZM513.877 99.064C513.877 99.544 513.845 99.976 513.781 100.36H504.061C504.141 101.32 504.477 102.072 505.069 102.616C505.661 103.16 506.389 103.432 507.253 103.432C508.501 103.432 509.389 102.896 509.917 101.824H513.541C513.157 103.104 512.421 104.16 511.333 104.992C510.245 105.808 508.909 106.216 507.325 106.216C506.045 106.216 504.893 105.936 503.869 105.376C502.861 104.8 502.069 103.992 501.493 102.952C500.933 101.912 500.653 100.712 500.653 99.352C500.653 97.976 500.933 96.768 501.493 95.728C502.053 94.688 502.837 93.888 503.845 93.328C504.853 92.768 506.013 92.488 507.325 92.488C508.589 92.488 509.717 92.76 510.709 93.304C511.717 93.848 512.493 94.624 513.037 95.632C513.597 96.624 513.877 97.768 513.877 99.064ZM510.397 98.104C510.381 97.24 510.069 96.552 509.461 96.04C508.853 95.512 508.109 95.248 507.229 95.248C506.397 95.248 505.693 95.504 505.117 96.016C504.557 96.512 504.213 97.208 504.085 98.104H510.397ZM523.937 92.512C525.521 92.512 526.801 93.016 527.777 94.024C528.753 95.016 529.241 96.408 529.241 98.2V106H525.881V98.656C525.881 97.6 525.617 96.792 525.089 96.232C524.561 95.656 523.841 95.368 522.929 95.368C522.001 95.368 521.265 95.656 520.721 96.232C520.193 96.792 519.929 97.6 519.929 98.656V106H516.569V92.704H519.929V94.36C520.377 93.784 520.945 93.336 521.633 93.016C522.337 92.68 523.105 92.512 523.937 92.512ZM537.885 92.488C538.877 92.488 539.749 92.688 540.501 93.088C541.253 93.472 541.845 93.976 542.277 94.6V92.704H545.661V106.096C545.661 107.328 545.413 108.424 544.917 109.384C544.421 110.36 543.677 111.128 542.685 111.688C541.693 112.264 540.493 112.552 539.085 112.552C537.197 112.552 535.645 112.112 534.429 111.232C533.229 110.352 532.549 109.152 532.389 107.632H535.725C535.901 108.24 536.277 108.72 536.853 109.072C537.445 109.44 538.157 109.624 538.989 109.624C539.965 109.624 540.757 109.328 541.365 108.736C541.973 108.16 542.277 107.28 542.277 106.096V104.032C541.845 104.656 541.245 105.176 540.477 105.592C539.725 106.008 538.861 106.216 537.885 106.216C536.765 106.216 535.741 105.928 534.813 105.352C533.885 104.776 533.149 103.968 532.605 102.928C532.077 101.872 531.813 100.664 531.813 99.304C531.813 97.96 532.077 96.768 532.605 95.728C533.149 94.688 533.877 93.888 534.789 93.328C535.717 92.768 536.749 92.488 537.885 92.488ZM542.277 99.352C542.277 98.536 542.117 97.84 541.797 97.264C541.477 96.672 541.045 96.224 540.501 95.92C539.957 95.6 539.373 95.44 538.749 95.44C538.125 95.44 537.549 95.592 537.021 95.896C536.493 96.2 536.061 96.648 535.725 97.24C535.405 97.816 535.245 98.504 535.245 99.304C535.245 100.104 535.405 100.808 535.725 101.416C536.061 102.008 536.493 102.464 537.021 102.784C537.565 103.104 538.141 103.264 538.749 103.264C539.373 103.264 539.957 103.112 540.501 102.808C541.045 102.488 541.477 102.04 541.797 101.464C542.117 100.872 542.277 100.168 542.277 99.352ZM554.39 92.488C555.382 92.488 556.254 92.688 557.006 93.088C557.758 93.472 558.35 93.976 558.782 94.6V92.704H562.166V106.096C562.166 107.328 561.918 108.424 561.422 109.384C560.926 110.36 560.182 111.128 559.19 111.688C558.198 112.264 556.998 112.552 555.59 112.552C553.702 112.552 552.15 112.112 550.934 111.232C549.734 110.352 549.054 109.152 548.894 107.632H552.23C552.406 108.24 552.782 108.72 553.358 109.072C553.95 109.44 554.662 109.624 555.494 109.624C556.47 109.624 557.262 109.328 557.87 108.736C558.478 108.16 558.782 107.28 558.782 106.096V104.032C558.35 104.656 557.75 105.176 556.982 105.592C556.23 106.008 555.366 106.216 554.39 106.216C553.27 106.216 552.246 105.928 551.318 105.352C550.39 104.776 549.654 103.968 549.11 102.928C548.582 101.872 548.318 100.664 548.318 99.304C548.318 97.96 548.582 96.768 549.11 95.728C549.654 94.688 550.382 93.888 551.294 93.328C552.222 92.768 553.254 92.488 554.39 92.488ZM558.782 99.352C558.782 98.536 558.622 97.84 558.302 97.264C557.982 96.672 557.55 96.224 557.006 95.92C556.462 95.6 555.878 95.44 555.254 95.44C554.63 95.44 554.054 95.592 553.526 95.896C552.998 96.2 552.566 96.648 552.23 97.24C551.91 97.816 551.75 98.504 551.75 99.304C551.75 100.104 551.91 100.808 552.23 101.416C552.566 102.008 552.998 102.464 553.526 102.784C554.07 103.104 554.646 103.264 555.254 103.264C555.878 103.264 556.462 103.112 557.006 102.808C557.55 102.488 557.982 102.04 558.302 101.464C558.622 100.872 558.782 100.168 558.782 99.352ZM578.24 92.704V106H574.856V104.32C574.424 104.896 573.856 105.352 573.152 105.688C572.464 106.008 571.712 106.168 570.896 106.168C569.856 106.168 568.936 105.952 568.136 105.52C567.336 105.072 566.704 104.424 566.24 103.576C565.792 102.712 565.568 101.688 565.568 100.504V92.704H568.928V100.024C568.928 101.08 569.192 101.896 569.72 102.472C570.248 103.032 570.968 103.312 571.88 103.312C572.808 103.312 573.536 103.032 574.064 102.472C574.592 101.896 574.856 101.08 574.856 100.024V92.704H578.24ZM589.163 92.512C590.747 92.512 592.027 93.016 593.003 94.024C593.979 95.016 594.467 96.408 594.467 98.2V106H591.107V98.656C591.107 97.6 590.843 96.792 590.315 96.232C589.787 95.656 589.067 95.368 588.155 95.368C587.227 95.368 586.491 95.656 585.947 96.232C585.419 96.792 585.155 97.6 585.155 98.656V106H581.795V92.704H585.155V94.36C585.603 93.784 586.171 93.336 586.859 93.016C587.563 92.68 588.331 92.512 589.163 92.512ZM597.038 99.304C597.038 97.96 597.302 96.768 597.83 95.728C598.374 94.688 599.102 93.888 600.014 93.328C600.942 92.768 601.974 92.488 603.11 92.488C604.102 92.488 604.966 92.688 605.702 93.088C606.454 93.488 607.054 93.992 607.502 94.6V92.704H610.886V106H607.502V104.056C607.07 104.68 606.47 105.2 605.702 105.616C604.95 106.016 604.078 106.216 603.086 106.216C601.966 106.216 600.942 105.928 600.014 105.352C599.102 104.776 598.374 103.968 597.83 102.928C597.302 101.872 597.038 100.664 597.038 99.304ZM607.502 99.352C607.502 98.536 607.342 97.84 607.022 97.264C606.702 96.672 606.27 96.224 605.726 95.92C605.182 95.6 604.598 95.44 603.974 95.44C603.35 95.44 602.774 95.592 602.246 95.896C601.718 96.2 601.286 96.648 600.95 97.24C600.63 97.816 600.47 98.504 600.47 99.304C600.47 100.104 600.63 100.808 600.95 101.416C601.286 102.008 601.718 102.464 602.246 102.784C602.79 103.104 603.366 103.264 603.974 103.264C604.598 103.264 605.182 103.112 605.726 102.808C606.27 102.488 606.702 102.04 607.022 101.464C607.342 100.872 607.502 100.168 607.502 99.352ZM613.544 99.304C613.544 97.96 613.808 96.768 614.336 95.728C614.88 94.688 615.608 93.888 616.52 93.328C617.448 92.768 618.48 92.488 619.616 92.488C620.608 92.488 621.472 92.688 622.208 93.088C622.96 93.488 623.56 93.992 624.008 94.6V92.704H627.392V106H624.008V104.056C623.576 104.68 622.976 105.2 622.208 105.616C621.456 106.016 620.584 106.216 619.592 106.216C618.472 106.216 617.448 105.928 616.52 105.352C615.608 104.776 614.88 103.968 614.336 102.928C613.808 101.872 613.544 100.664 613.544 99.304ZM624.008 99.352C624.008 98.536 623.848 97.84 623.528 97.264C623.208 96.672 622.776 96.224 622.232 95.92C621.688 95.6 621.104 95.44 620.48 95.44C619.856 95.44 619.28 95.592 618.752 95.896C618.224 96.2 617.792 96.648 617.456 97.24C617.136 97.816 616.976 98.504 616.976 99.304C616.976 100.104 617.136 100.808 617.456 101.416C617.792 102.008 618.224 102.464 618.752 102.784C619.296 103.104 619.872 103.264 620.48 103.264C621.104 103.264 621.688 103.112 622.232 102.808C622.776 102.488 623.208 102.04 623.528 101.464C623.848 100.872 624.008 100.168 624.008 99.352ZM638.282 92.512C639.866 92.512 641.146 93.016 642.122 94.024C643.098 95.016 643.586 96.408 643.586 98.2V106H640.226V98.656C640.226 97.6 639.962 96.792 639.434 96.232C638.906 95.656 638.186 95.368 637.274 95.368C636.346 95.368 635.61 95.656 635.066 96.232C634.538 96.792 634.274 97.6 634.274 98.656V106H630.914V92.704H634.274V94.36C634.722 93.784 635.29 93.336 635.978 93.016C636.682 92.68 637.45 92.512 638.282 92.512ZM652.115 99.304C652.115 97.96 652.379 96.768 652.907 95.728C653.451 94.688 654.179 93.888 655.091 93.328C656.019 92.768 657.051 92.488 658.187 92.488C659.179 92.488 660.043 92.688 660.779 93.088C661.531 93.488 662.131 93.992 662.579 94.6V92.704H665.963V106H662.579V104.056C662.147 104.68 661.547 105.2 660.779 105.616C660.027 106.016 659.155 106.216 658.163 106.216C657.043 106.216 656.019 105.928 655.091 105.352C654.179 104.776 653.451 103.968 652.907 102.928C652.379 101.872 652.115 100.664 652.115 99.304ZM662.579 99.352C662.579 98.536 662.419 97.84 662.099 97.264C661.779 96.672 661.347 96.224 660.803 95.92C660.259 95.6 659.675 95.44 659.051 95.44C658.427 95.44 657.851 95.592 657.323 95.896C656.795 96.2 656.363 96.648 656.027 97.24C655.707 97.816 655.547 98.504 655.547 99.304C655.547 100.104 655.707 100.808 656.027 101.416C656.363 102.008 656.795 102.464 657.323 102.784C657.867 103.104 658.443 103.264 659.051 103.264C659.675 103.264 660.259 103.112 660.803 102.808C661.347 102.488 661.779 102.04 662.099 101.464C662.419 100.872 662.579 100.168 662.579 99.352ZM677.357 106L672.845 100.336V106H669.485V88.24H672.845V98.344L677.309 92.704H681.677L675.821 99.376L681.725 106H677.357ZM696.293 92.704V106H692.909V104.32C692.477 104.896 691.909 105.352 691.205 105.688C690.517 106.008 689.765 106.168 688.949 106.168C687.909 106.168 686.989 105.952 686.189 105.52C685.389 105.072 684.757 104.424 684.293 103.576C683.845 102.712 683.621 101.688 683.621 100.504V92.704H686.981V100.024C686.981 101.08 687.245 101.896 687.773 102.472C688.301 103.032 689.021 103.312 689.933 103.312C690.861 103.312 691.589 103.032 692.117 102.472C692.645 101.896 692.909 101.08 692.909 100.024V92.704H696.293ZM704.936 106.216C703.848 106.216 702.872 106.024 702.008 105.64C701.144 105.24 700.456 104.704 699.944 104.032C699.448 103.36 699.176 102.616 699.128 101.8H702.512C702.576 102.312 702.824 102.736 703.256 103.072C703.704 103.408 704.256 103.576 704.912 103.576C705.552 103.576 706.048 103.448 706.4 103.192C706.768 102.936 706.952 102.608 706.952 102.208C706.952 101.776 706.728 101.456 706.28 101.248C705.848 101.024 705.152 100.784 704.192 100.528C703.2 100.288 702.384 100.04 701.744 99.784C701.12 99.528 700.576 99.136 700.112 98.608C699.664 98.08 699.44 97.368 699.44 96.472C699.44 95.736 699.648 95.064 700.064 94.456C700.496 93.848 701.104 93.368 701.888 93.016C702.688 92.664 703.624 92.488 704.696 92.488C706.28 92.488 707.544 92.888 708.488 93.688C709.432 94.472 709.952 95.536 710.048 96.88H706.832C706.784 96.352 706.56 95.936 706.16 95.632C705.776 95.312 705.256 95.152 704.6 95.152C703.992 95.152 703.52 95.264 703.184 95.488C702.864 95.712 702.704 96.024 702.704 96.424C702.704 96.872 702.928 97.216 703.376 97.456C703.824 97.68 704.52 97.912 705.464 98.152C706.424 98.392 707.216 98.64 707.84 98.896C708.464 99.152 709 99.552 709.448 100.096C709.912 100.624 710.152 101.328 710.168 102.208C710.168 102.976 709.952 103.664 709.52 104.272C709.104 104.88 708.496 105.36 707.696 105.712C706.912 106.048 705.992 106.216 704.936 106.216ZM717.078 95.464V101.896C717.078 102.344 717.182 102.672 717.39 102.88C717.614 103.072 717.982 103.168 718.494 103.168H720.054V106H717.942C715.11 106 713.694 104.624 713.694 101.872V95.464H712.11V92.704H713.694V89.416H717.078V92.704H720.054V95.464H717.078ZM724.415 91.12C723.823 91.12 723.327 90.936 722.927 90.568C722.543 90.184 722.351 89.712 722.351 89.152C722.351 88.592 722.543 88.128 722.927 87.76C723.327 87.376 723.823 87.184 724.415 87.184C725.007 87.184 725.495 87.376 725.879 87.76C726.279 88.128 726.479 88.592 726.479 89.152C726.479 89.712 726.279 90.184 725.879 90.568C725.495 90.936 725.007 91.12 724.415 91.12ZM726.071 92.704V106H722.711V92.704H726.071ZM737.502 106L732.99 100.336V106H729.63V88.24H732.99V98.344L737.454 92.704H741.822L735.966 99.376L741.87 106H737.502ZM753.205 94.768C753.637 94.064 754.197 93.512 754.885 93.112C755.589 92.712 756.389 92.512 757.285 92.512V96.04H756.397C755.341 96.04 754.541 96.288 753.997 96.784C753.469 97.28 753.205 98.144 753.205 99.376V106H749.845V92.704H753.205V94.768ZM772.34 92.704V106H768.956V104.32C768.524 104.896 767.956 105.352 767.252 105.688C766.564 106.008 765.812 106.168 764.996 106.168C763.956 106.168 763.036 105.952 762.236 105.52C761.436 105.072 760.804 104.424 760.34 103.576C759.892 102.712 759.668 101.688 759.668 100.504V92.704H763.028V100.024C763.028 101.08 763.292 101.896 763.82 102.472C764.348 103.032 765.068 103.312 765.98 103.312C766.908 103.312 767.636 103.032 768.164 102.472C768.692 101.896 768.956 101.08 768.956 100.024V92.704H772.34ZM775.031 99.304C775.031 97.96 775.295 96.768 775.823 95.728C776.367 94.688 777.095 93.888 778.007 93.328C778.935 92.768 779.967 92.488 781.103 92.488C782.095 92.488 782.959 92.688 783.695 93.088C784.447 93.488 785.047 93.992 785.495 94.6V92.704H788.879V106H785.495V104.056C785.063 104.68 784.463 105.2 783.695 105.616C782.943 106.016 782.071 106.216 781.079 106.216C779.959 106.216 778.935 105.928 778.007 105.352C777.095 104.776 776.367 103.968 775.823 102.928C775.295 101.872 775.031 100.664 775.031 99.304ZM785.495 99.352C785.495 98.536 785.335 97.84 785.015 97.264C784.695 96.672 784.263 96.224 783.719 95.92C783.175 95.6 782.591 95.44 781.967 95.44C781.343 95.44 780.767 95.592 780.239 95.896C779.711 96.2 779.279 96.648 778.943 97.24C778.623 97.816 778.463 98.504 778.463 99.304C778.463 100.104 778.623 100.808 778.943 101.416C779.279 102.008 779.711 102.464 780.239 102.784C780.783 103.104 781.359 103.264 781.967 103.264C782.591 103.264 783.175 103.112 783.719 102.808C784.263 102.488 784.695 102.04 785.015 101.464C785.335 100.872 785.495 100.168 785.495 99.352ZM799.769 92.512C801.353 92.512 802.633 93.016 803.609 94.024C804.585 95.016 805.073 96.408 805.073 98.2V106H801.713V98.656C801.713 97.6 801.449 96.792 800.921 96.232C800.393 95.656 799.673 95.368 798.761 95.368C797.833 95.368 797.097 95.656 796.553 96.232C796.025 96.792 795.761 97.6 795.761 98.656V106H792.401V92.704H795.761V94.36C796.209 93.784 796.777 93.336 797.465 93.016C798.169 92.68 798.937 92.512 799.769 92.512ZM813.716 92.488C814.708 92.488 815.58 92.688 816.332 93.088C817.084 93.472 817.676 93.976 818.108 94.6V92.704H821.492V106.096C821.492 107.328 821.244 108.424 820.748 109.384C820.252 110.36 819.508 111.128 818.516 111.688C817.524 112.264 816.324 112.552 814.916 112.552C813.028 112.552 811.476 112.112 810.26 111.232C809.06 110.352 808.38 109.152 808.22 107.632H811.556C811.732 108.24 812.108 108.72 812.684 109.072C813.276 109.44 813.988 109.624 814.82 109.624C815.796 109.624 816.588 109.328 817.196 108.736C817.804 108.16 818.108 107.28 818.108 106.096V104.032C817.676 104.656 817.076 105.176 816.308 105.592C815.556 106.008 814.692 106.216 813.716 106.216C812.596 106.216 811.572 105.928 810.644 105.352C809.716 104.776 808.98 103.968 808.436 102.928C807.908 101.872 807.644 100.664 807.644 99.304C807.644 97.96 807.908 96.768 808.436 95.728C808.98 94.688 809.708 93.888 810.62 93.328C811.548 92.768 812.58 92.488 813.716 92.488ZM818.108 99.352C818.108 98.536 817.948 97.84 817.628 97.264C817.308 96.672 816.876 96.224 816.332 95.92C815.788 95.6 815.204 95.44 814.58 95.44C813.956 95.44 813.38 95.592 812.852 95.896C812.324 96.2 811.892 96.648 811.556 97.24C811.236 97.816 811.076 98.504 811.076 99.304C811.076 100.104 811.236 100.808 811.556 101.416C811.892 102.008 812.324 102.464 812.852 102.784C813.396 103.104 813.972 103.264 814.58 103.264C815.204 103.264 815.788 103.112 816.332 102.808C816.876 102.488 817.308 102.04 817.628 101.464C817.948 100.872 818.108 100.168 818.108 99.352ZM834.332 94.624C834.764 94.016 835.356 93.512 836.108 93.112C836.876 92.696 837.748 92.488 838.724 92.488C839.86 92.488 840.884 92.768 841.796 93.328C842.724 93.888 843.452 94.688 843.98 95.728C844.524 96.752 844.796 97.944 844.796 99.304C844.796 100.664 844.524 101.872 843.98 102.928C843.452 103.968 842.724 104.776 841.796 105.352C840.884 105.928 839.86 106.216 838.724 106.216C837.748 106.216 836.884 106.016 836.132 105.616C835.396 105.216 834.796 104.712 834.332 104.104V112.336H830.972V92.704H834.332V94.624ZM841.364 99.304C841.364 98.504 841.196 97.816 840.86 97.24C840.54 96.648 840.108 96.2 839.564 95.896C839.036 95.592 838.46 95.44 837.836 95.44C837.228 95.44 836.652 95.6 836.108 95.92C835.58 96.224 835.148 96.672 834.812 97.264C834.492 97.856 834.332 98.552 834.332 99.352C834.332 100.152 834.492 100.848 834.812 101.44C835.148 102.032 835.58 102.488 836.108 102.808C836.652 103.112 837.228 103.264 837.836 103.264C838.46 103.264 839.036 103.104 839.564 102.784C840.108 102.464 840.54 102.008 840.86 101.416C841.196 100.824 841.364 100.12 841.364 99.304ZM846.614 99.304C846.614 97.96 846.878 96.768 847.406 95.728C847.95 94.688 848.678 93.888 849.59 93.328C850.518 92.768 851.55 92.488 852.686 92.488C853.678 92.488 854.542 92.688 855.278 93.088C856.03 93.488 856.63 93.992 857.078 94.6V92.704H860.462V106H857.078V104.056C856.646 104.68 856.046 105.2 855.278 105.616C854.526 106.016 853.654 106.216 852.662 106.216C851.542 106.216 850.518 105.928 849.59 105.352C848.678 104.776 847.95 103.968 847.406 102.928C846.878 101.872 846.614 100.664 846.614 99.304ZM857.078 99.352C857.078 98.536 856.918 97.84 856.598 97.264C856.278 96.672 855.846 96.224 855.302 95.92C854.758 95.6 854.174 95.44 853.55 95.44C852.926 95.44 852.35 95.592 851.822 95.896C851.294 96.2 850.862 96.648 850.526 97.24C850.206 97.816 850.046 98.504 850.046 99.304C850.046 100.104 850.206 100.808 850.526 101.416C850.862 102.008 851.294 102.464 851.822 102.784C852.366 103.104 852.942 103.264 853.55 103.264C854.174 103.264 854.758 103.112 855.302 102.808C855.846 102.488 856.278 102.04 856.598 101.464C856.918 100.872 857.078 100.168 857.078 99.352ZM863.12 99.304C863.12 97.96 863.384 96.768 863.912 95.728C864.456 94.688 865.192 93.888 866.12 93.328C867.048 92.768 868.08 92.488 869.216 92.488C870.08 92.488 870.904 92.68 871.688 93.064C872.472 93.432 873.096 93.928 873.56 94.552V88.24H876.968V106H873.56V104.032C873.144 104.688 872.56 105.216 871.808 105.616C871.056 106.016 870.184 106.216 869.192 106.216C868.072 106.216 867.048 105.928 866.12 105.352C865.192 104.776 864.456 103.968 863.912 102.928C863.384 101.872 863.12 100.664 863.12 99.304ZM873.584 99.352C873.584 98.536 873.424 97.84 873.104 97.264C872.784 96.672 872.352 96.224 871.808 95.92C871.264 95.6 870.68 95.44 870.056 95.44C869.432 95.44 868.856 95.592 868.328 95.896C867.8 96.2 867.368 96.648 867.032 97.24C866.712 97.816 866.552 98.504 866.552 99.304C866.552 100.104 866.712 100.808 867.032 101.416C867.368 102.008 867.8 102.464 868.328 102.784C868.872 103.104 869.448 103.264 870.056 103.264C870.68 103.264 871.264 103.112 871.808 102.808C872.352 102.488 872.784 102.04 873.104 101.464C873.424 100.872 873.584 100.168 873.584 99.352ZM879.625 99.304C879.625 97.96 879.889 96.768 880.417 95.728C880.961 94.688 881.689 93.888 882.601 93.328C883.529 92.768 884.561 92.488 885.697 92.488C886.689 92.488 887.553 92.688 888.289 93.088C889.041 93.488 889.641 93.992 890.089 94.6V92.704H893.473V106H890.089V104.056C889.657 104.68 889.057 105.2 888.289 105.616C887.537 106.016 886.665 106.216 885.673 106.216C884.553 106.216 883.529 105.928 882.601 105.352C881.689 104.776 880.961 103.968 880.417 102.928C879.889 101.872 879.625 100.664 879.625 99.304ZM890.089 99.352C890.089 98.536 889.929 97.84 889.609 97.264C889.289 96.672 888.857 96.224 888.313 95.92C887.769 95.6 887.185 95.44 886.561 95.44C885.937 95.44 885.361 95.592 884.833 95.896C884.305 96.2 883.873 96.648 883.537 97.24C883.217 97.816 883.057 98.504 883.057 99.304C883.057 100.104 883.217 100.808 883.537 101.416C883.873 102.008 884.305 102.464 884.833 102.784C885.377 103.104 885.953 103.264 886.561 103.264C887.185 103.264 887.769 103.112 888.313 102.808C888.857 102.488 889.289 102.04 889.609 101.464C889.929 100.872 890.089 100.168 890.089 99.352ZM906.313 94.648C906.745 94.008 907.337 93.488 908.089 93.088C908.857 92.688 909.729 92.488 910.705 92.488C911.841 92.488 912.865 92.768 913.777 93.328C914.705 93.888 915.433 94.688 915.961 95.728C916.505 96.752 916.777 97.944 916.777 99.304C916.777 100.664 916.505 101.872 915.961 102.928C915.433 103.968 914.705 104.776 913.777 105.352C912.865 105.928 911.841 106.216 910.705 106.216C909.713 106.216 908.841 106.024 908.089 105.64C907.353 105.24 906.761 104.728 906.313 104.104V106H902.953V88.24H906.313V94.648ZM913.345 99.304C913.345 98.504 913.177 97.816 912.841 97.24C912.521 96.648 912.089 96.2 911.545 95.896C911.017 95.592 910.441 95.44 909.817 95.44C909.209 95.44 908.633 95.6 908.089 95.92C907.561 96.224 907.129 96.672 906.793 97.264C906.473 97.856 906.313 98.552 906.313 99.352C906.313 100.152 906.473 100.848 906.793 101.44C907.129 102.032 907.561 102.488 908.089 102.808C908.633 103.112 909.209 103.264 909.817 103.264C910.441 103.264 911.017 103.104 911.545 102.784C912.089 102.464 912.521 102.008 912.841 101.416C913.177 100.824 913.345 100.12 913.345 99.304ZM921.163 91.12C920.571 91.12 920.075 90.936 919.675 90.568C919.291 90.184 919.099 89.712 919.099 89.152C919.099 88.592 919.291 88.128 919.675 87.76C920.075 87.376 920.571 87.184 921.163 87.184C921.755 87.184 922.243 87.376 922.627 87.76C923.027 88.128 923.227 88.592 923.227 89.152C923.227 89.712 923.027 90.184 922.627 90.568C922.243 90.936 921.755 91.12 921.163 91.12ZM922.819 92.704V106H919.459V92.704H922.819ZM932.283 106.216C931.003 106.216 929.851 105.936 928.827 105.376C927.803 104.8 926.995 103.992 926.403 102.952C925.827 101.912 925.539 100.712 925.539 99.352C925.539 97.992 925.835 96.792 926.427 95.752C927.035 94.712 927.859 93.912 928.899 93.352C929.939 92.776 931.099 92.488 932.379 92.488C933.659 92.488 934.819 92.776 935.859 93.352C936.899 93.912 937.715 94.712 938.307 95.752C938.915 96.792 939.219 97.992 939.219 99.352C939.219 100.712 938.907 101.912 938.283 102.952C937.675 103.992 936.843 104.8 935.787 105.376C934.747 105.936 933.579 106.216 932.283 106.216ZM932.283 103.288C932.891 103.288 933.459 103.144 933.987 102.856C934.531 102.552 934.963 102.104 935.283 101.512C935.603 100.92 935.763 100.2 935.763 99.352C935.763 98.088 935.427 97.12 934.755 96.448C934.099 95.76 933.291 95.416 932.331 95.416C931.371 95.416 930.563 95.76 929.907 96.448C929.267 97.12 928.947 98.088 928.947 99.352C928.947 100.616 929.259 101.592 929.883 102.28C930.523 102.952 931.323 103.288 932.283 103.288ZM947.012 106.216C945.924 106.216 944.948 106.024 944.084 105.64C943.22 105.24 942.532 104.704 942.02 104.032C941.524 103.36 941.252 102.616 941.204 101.8H944.588C944.652 102.312 944.9 102.736 945.332 103.072C945.78 103.408 946.332 103.576 946.988 103.576C947.628 103.576 948.124 103.448 948.476 103.192C948.844 102.936 949.028 102.608 949.028 102.208C949.028 101.776 948.804 101.456 948.356 101.248C947.924 101.024 947.228 100.784 946.268 100.528C945.276 100.288 944.46 100.04 943.82 99.784C943.196 99.528 942.652 99.136 942.188 98.608C941.74 98.08 941.516 97.368 941.516 96.472C941.516 95.736 941.724 95.064 942.14 94.456C942.572 93.848 943.18 93.368 943.964 93.016C944.764 92.664 945.7 92.488 946.772 92.488C948.356 92.488 949.62 92.888 950.564 93.688C951.508 94.472 952.028 95.536 952.124 96.88H948.908C948.86 96.352 948.636 95.936 948.236 95.632C947.852 95.312 947.332 95.152 946.676 95.152C946.068 95.152 945.596 95.264 945.26 95.488C944.94 95.712 944.78 96.024 944.78 96.424C944.78 96.872 945.004 97.216 945.452 97.456C945.9 97.68 946.596 97.912 947.54 98.152C948.5 98.392 949.292 98.64 949.916 98.896C950.54 99.152 951.076 99.552 951.524 100.096C951.988 100.624 952.228 101.328 952.244 102.208C952.244 102.976 952.028 103.664 951.596 104.272C951.18 104.88 950.572 105.36 949.772 105.712C948.988 106.048 948.068 106.216 947.012 106.216ZM963.114 106L958.602 100.336V106H955.242V88.24H958.602V98.344L963.066 92.704H967.434L961.578 99.376L967.482 106H963.114ZM975.401 106.216C974.121 106.216 972.969 105.936 971.945 105.376C970.921 104.8 970.113 103.992 969.521 102.952C968.945 101.912 968.657 100.712 968.657 99.352C968.657 97.992 968.953 96.792 969.545 95.752C970.153 94.712 970.977 93.912 972.017 93.352C973.057 92.776 974.217 92.488 975.497 92.488C976.777 92.488 977.937 92.776 978.977 93.352C980.017 93.912 980.833 94.712 981.425 95.752C982.033 96.792 982.337 97.992 982.337 99.352C982.337 100.712 982.025 101.912 981.401 102.952C980.793 103.992 979.961 104.8 978.905 105.376C977.865 105.936 976.697 106.216 975.401 106.216ZM975.401 103.288C976.009 103.288 976.577 103.144 977.105 102.856C977.649 102.552 978.081 102.104 978.401 101.512C978.721 100.92 978.881 100.2 978.881 99.352C978.881 98.088 978.545 97.12 977.873 96.448C977.217 95.76 976.409 95.416 975.449 95.416C974.489 95.416 973.681 95.76 973.025 96.448C972.385 97.12 972.065 98.088 972.065 99.352C972.065 100.616 972.377 101.592 973.001 102.28C973.641 102.952 974.441 103.288 975.401 103.288ZM988.402 94.624C988.834 94.016 989.426 93.512 990.178 93.112C990.946 92.696 991.818 92.488 992.794 92.488C993.93 92.488 994.954 92.768 995.866 93.328C996.794 93.888 997.522 94.688 998.05 95.728C998.594 96.752 998.866 97.944 998.866 99.304C998.866 100.664 998.594 101.872 998.05 102.928C997.522 103.968 996.794 104.776 995.866 105.352C994.954 105.928 993.93 106.216 992.794 106.216C991.818 106.216 990.954 106.016 990.202 105.616C989.466 105.216 988.866 104.712 988.402 104.104V112.336H985.042V92.704H988.402V94.624ZM995.434 99.304C995.434 98.504 995.266 97.816 994.93 97.24C994.61 96.648 994.178 96.2 993.634 95.896C993.106 95.592 992.53 95.44 991.906 95.44C991.298 95.44 990.722 95.6 990.178 95.92C989.65 96.224 989.218 96.672 988.882 97.264C988.562 97.856 988.402 98.552 988.402 99.352C988.402 100.152 988.562 100.848 988.882 101.44C989.218 102.032 989.65 102.488 990.178 102.808C990.722 103.112 991.298 103.264 991.906 103.264C992.53 103.264 993.106 103.104 993.634 102.784C994.178 102.464 994.61 102.008 994.93 101.416C995.266 100.824 995.434 100.12 995.434 99.304ZM1005.89 88.96L1005.51 100.552H1002.68L1002.27 88.96H1005.89ZM1004.16 106.168C1003.56 106.168 1003.05 105.984 1002.65 105.616C1002.27 105.232 1002.08 104.76 1002.08 104.2C1002.08 103.64 1002.27 103.176 1002.65 102.808C1003.05 102.424 1003.56 102.232 1004.16 102.232C1004.76 102.232 1005.24 102.424 1005.63 102.808C1006.01 103.176 1006.2 103.64 1006.2 104.2C1006.2 104.76 1006.01 105.232 1005.63 105.616C1005.24 105.984 1004.76 106.168 1004.16 106.168ZM64.32 139.288C63.936 138.584 63.408 138.048 62.736 137.68C62.064 137.312 61.28 137.128 60.384 137.128C59.392 137.128 58.512 137.352 57.744 137.8C56.976 138.248 56.376 138.888 55.944 139.72C55.512 140.552 55.296 141.512 55.296 142.6C55.296 143.72 55.512 144.696 55.944 145.528C56.392 146.36 57.008 147 57.792 147.448C58.576 147.896 59.488 148.12 60.528 148.12C61.808 148.12 62.856 147.784 63.672 147.112C64.488 146.424 65.024 145.472 65.28 144.256H59.52V141.688H68.592V144.616C68.368 145.784 67.888 146.864 67.152 147.856C66.416 148.848 65.464 149.648 64.296 150.256C63.144 150.848 61.848 151.144 60.408 151.144C58.792 151.144 57.328 150.784 56.016 150.064C54.72 149.328 53.696 148.312 52.944 147.016C52.208 145.72 51.84 144.248 51.84 142.6C51.84 140.952 52.208 139.48 52.944 138.184C53.696 136.872 54.72 135.856 56.016 135.136C57.328 134.4 58.784 134.032 60.384 134.032C62.272 134.032 63.912 134.496 65.304 135.424C66.696 136.336 67.656 137.624 68.184 139.288H64.32ZM83.8699 137.704V151H80.4859V149.32C80.0539 149.896 79.4859 150.352 78.7819 150.688C78.0939 151.008 77.3419 151.168 76.5259 151.168C75.4859 151.168 74.5659 150.952 73.7659 150.52C72.9659 150.072 72.3339 149.424 71.8699 148.576C71.4219 147.712 71.1979 146.688 71.1979 145.504V137.704H74.5579V145.024C74.5579 146.08 74.8219 146.896 75.3499 147.472C75.8779 148.032 76.5979 148.312 77.5099 148.312C78.4379 148.312 79.1659 148.032 79.6939 147.472C80.2219 146.896 80.4859 146.08 80.4859 145.024V137.704H83.8699ZM94.7931 137.512C96.3771 137.512 97.6571 138.016 98.6331 139.024C99.6091 140.016 100.097 141.408 100.097 143.2V151H96.7371V143.656C96.7371 142.6 96.4731 141.792 95.9451 141.232C95.4171 140.656 94.6971 140.368 93.7851 140.368C92.8571 140.368 92.1211 140.656 91.5771 141.232C91.0491 141.792 90.7851 142.6 90.7851 143.656V151H87.4251V137.704H90.7851V139.36C91.2331 138.784 91.8011 138.336 92.4891 138.016C93.1931 137.68 93.9611 137.512 94.7931 137.512ZM102.668 144.304C102.668 142.96 102.932 141.768 103.46 140.728C104.004 139.688 104.732 138.888 105.644 138.328C106.572 137.768 107.604 137.488 108.74 137.488C109.732 137.488 110.596 137.688 111.332 138.088C112.084 138.488 112.684 138.992 113.132 139.6V137.704H116.516V151H113.132V149.056C112.7 149.68 112.1 150.2 111.332 150.616C110.58 151.016 109.708 151.216 108.716 151.216C107.596 151.216 106.572 150.928 105.644 150.352C104.732 149.776 104.004 148.968 103.46 147.928C102.932 146.872 102.668 145.664 102.668 144.304ZM113.132 144.352C113.132 143.536 112.972 142.84 112.652 142.264C112.332 141.672 111.9 141.224 111.356 140.92C110.812 140.6 110.228 140.44 109.604 140.44C108.98 140.44 108.404 140.592 107.876 140.896C107.348 141.2 106.916 141.648 106.58 142.24C106.26 142.816 106.1 143.504 106.1 144.304C106.1 145.104 106.26 145.808 106.58 146.416C106.916 147.008 107.348 147.464 107.876 147.784C108.42 148.104 108.996 148.264 109.604 148.264C110.228 148.264 110.812 148.112 111.356 147.808C111.9 147.488 112.332 147.04 112.652 146.464C112.972 145.872 113.132 145.168 113.132 144.352ZM127.91 151L123.398 145.336V151H120.038V133.24H123.398V143.344L127.862 137.704H132.23L126.374 144.376L132.278 151H127.91ZM133.429 144.304C133.429 142.96 133.693 141.768 134.221 140.728C134.765 139.688 135.493 138.888 136.405 138.328C137.333 137.768 138.365 137.488 139.501 137.488C140.493 137.488 141.357 137.688 142.093 138.088C142.845 138.488 143.445 138.992 143.893 139.6V137.704H147.277V151H143.893V149.056C143.461 149.68 142.861 150.2 142.093 150.616C141.341 151.016 140.469 151.216 139.477 151.216C138.357 151.216 137.333 150.928 136.405 150.352C135.493 149.776 134.765 148.968 134.221 147.928C133.693 146.872 133.429 145.664 133.429 144.304ZM143.893 144.352C143.893 143.536 143.733 142.84 143.413 142.264C143.093 141.672 142.661 141.224 142.117 140.92C141.573 140.6 140.989 140.44 140.365 140.44C139.741 140.44 139.165 140.592 138.637 140.896C138.109 141.2 137.677 141.648 137.341 142.24C137.021 142.816 136.861 143.504 136.861 144.304C136.861 145.104 137.021 145.808 137.341 146.416C137.677 147.008 138.109 147.464 138.637 147.784C139.181 148.104 139.757 148.264 140.365 148.264C140.989 148.264 141.573 148.112 142.117 147.808C142.661 147.488 143.093 147.04 143.413 146.464C143.733 145.872 143.893 145.168 143.893 144.352ZM158.167 137.512C159.751 137.512 161.031 138.016 162.007 139.024C162.983 140.016 163.471 141.408 163.471 143.2V151H160.111V143.656C160.111 142.6 159.847 141.792 159.319 141.232C158.791 140.656 158.071 140.368 157.159 140.368C156.231 140.368 155.495 140.656 154.951 141.232C154.423 141.792 154.159 142.6 154.159 143.656V151H150.799V137.704H154.159V139.36C154.607 138.784 155.175 138.336 155.863 138.016C156.567 137.68 157.335 137.512 158.167 137.512ZM176.225 139.768C176.657 139.064 177.217 138.512 177.905 138.112C178.609 137.712 179.409 137.512 180.305 137.512V141.04H179.417C178.361 141.04 177.561 141.288 177.017 141.784C176.489 142.28 176.225 143.144 176.225 144.376V151H172.865V137.704H176.225V139.768ZM195.168 144.064C195.168 144.544 195.136 144.976 195.072 145.36H185.352C185.432 146.32 185.768 147.072 186.36 147.616C186.952 148.16 187.68 148.432 188.544 148.432C189.792 148.432 190.68 147.896 191.208 146.824H194.832C194.448 148.104 193.712 149.16 192.624 149.992C191.536 150.808 190.2 151.216 188.616 151.216C187.336 151.216 186.184 150.936 185.16 150.376C184.152 149.8 183.36 148.992 182.784 147.952C182.224 146.912 181.944 145.712 181.944 144.352C181.944 142.976 182.224 141.768 182.784 140.728C183.344 139.688 184.128 138.888 185.136 138.328C186.144 137.768 187.304 137.488 188.616 137.488C189.88 137.488 191.008 137.76 192 138.304C193.008 138.848 193.784 139.624 194.328 140.632C194.888 141.624 195.168 142.768 195.168 144.064ZM191.688 143.104C191.672 142.24 191.36 141.552 190.752 141.04C190.144 140.512 189.4 140.248 188.52 140.248C187.688 140.248 186.984 140.504 186.408 141.016C185.848 141.512 185.504 142.208 185.376 143.104H191.688ZM203.957 140.464H201.629V151H198.221V140.464H196.709V137.704H198.221V137.032C198.221 135.4 198.685 134.2 199.613 133.432C200.541 132.664 201.941 132.304 203.813 132.352V135.184C202.997 135.168 202.429 135.304 202.109 135.592C201.789 135.88 201.629 136.4 201.629 137.152V137.704H203.957V140.464ZM218.734 144.064C218.734 144.544 218.702 144.976 218.638 145.36H208.918C208.998 146.32 209.334 147.072 209.926 147.616C210.518 148.16 211.246 148.432 212.11 148.432C213.358 148.432 214.246 147.896 214.774 146.824H218.398C218.014 148.104 217.278 149.16 216.19 149.992C215.102 150.808 213.766 151.216 212.182 151.216C210.902 151.216 209.75 150.936 208.726 150.376C207.718 149.8 206.926 148.992 206.35 147.952C205.79 146.912 205.51 145.712 205.51 144.352C205.51 142.976 205.79 141.768 206.35 140.728C206.91 139.688 207.694 138.888 208.702 138.328C209.71 137.768 210.87 137.488 212.182 137.488C213.446 137.488 214.574 137.76 215.566 138.304C216.574 138.848 217.35 139.624 217.894 140.632C218.454 141.624 218.734 142.768 218.734 144.064ZM215.254 143.104C215.238 142.24 214.926 141.552 214.318 141.04C213.71 140.512 212.966 140.248 212.086 140.248C211.254 140.248 210.55 140.504 209.974 141.016C209.414 141.512 209.07 142.208 208.942 143.104H215.254ZM224.787 139.768C225.219 139.064 225.779 138.512 226.467 138.112C227.171 137.712 227.971 137.512 228.867 137.512V141.04H227.979C226.923 141.04 226.123 141.288 225.579 141.784C225.051 142.28 224.787 143.144 224.787 144.376V151H221.427V137.704H224.787V139.768ZM243.73 144.064C243.73 144.544 243.698 144.976 243.634 145.36H233.914C233.994 146.32 234.33 147.072 234.922 147.616C235.514 148.16 236.242 148.432 237.106 148.432C238.354 148.432 239.242 147.896 239.77 146.824H243.394C243.01 148.104 242.274 149.16 241.186 149.992C240.098 150.808 238.762 151.216 237.178 151.216C235.898 151.216 234.746 150.936 233.722 150.376C232.714 149.8 231.922 148.992 231.346 147.952C230.786 146.912 230.506 145.712 230.506 144.352C230.506 142.976 230.786 141.768 231.346 140.728C231.906 139.688 232.69 138.888 233.698 138.328C234.706 137.768 235.866 137.488 237.178 137.488C238.442 137.488 239.57 137.76 240.562 138.304C241.57 138.848 242.346 139.624 242.89 140.632C243.45 141.624 243.73 142.768 243.73 144.064ZM240.25 143.104C240.234 142.24 239.922 141.552 239.314 141.04C238.706 140.512 237.962 140.248 237.082 140.248C236.25 140.248 235.546 140.504 234.97 141.016C234.41 141.512 234.066 142.208 233.938 143.104H240.25ZM253.79 137.512C255.374 137.512 256.654 138.016 257.63 139.024C258.606 140.016 259.094 141.408 259.094 143.2V151H255.734V143.656C255.734 142.6 255.47 141.792 254.942 141.232C254.414 140.656 253.694 140.368 252.782 140.368C251.854 140.368 251.118 140.656 250.574 141.232C250.046 141.792 249.782 142.6 249.782 143.656V151H246.422V137.704H249.782V139.36C250.23 138.784 250.798 138.336 251.486 138.016C252.19 137.68 252.958 137.512 253.79 137.512ZM267.617 151.216C266.529 151.216 265.553 151.024 264.689 150.64C263.825 150.24 263.137 149.704 262.625 149.032C262.129 148.36 261.857 147.616 261.809 146.8H265.193C265.257 147.312 265.505 147.736 265.937 148.072C266.385 148.408 266.937 148.576 267.593 148.576C268.233 148.576 268.729 148.448 269.081 148.192C269.449 147.936 269.633 147.608 269.633 147.208C269.633 146.776 269.409 146.456 268.961 146.248C268.529 146.024 267.833 145.784 266.873 145.528C265.881 145.288 265.065 145.04 264.425 144.784C263.801 144.528 263.257 144.136 262.793 143.608C262.345 143.08 262.121 142.368 262.121 141.472C262.121 140.736 262.329 140.064 262.745 139.456C263.177 138.848 263.785 138.368 264.569 138.016C265.369 137.664 266.305 137.488 267.377 137.488C268.961 137.488 270.225 137.888 271.169 138.688C272.113 139.472 272.633 140.536 272.729 141.88H269.513C269.465 141.352 269.241 140.936 268.841 140.632C268.457 140.312 267.937 140.152 267.281 140.152C266.673 140.152 266.201 140.264 265.865 140.488C265.545 140.712 265.385 141.024 265.385 141.424C265.385 141.872 265.609 142.216 266.057 142.456C266.505 142.68 267.201 142.912 268.145 143.152C269.105 143.392 269.897 143.64 270.521 143.896C271.145 144.152 271.681 144.552 272.129 145.096C272.593 145.624 272.833 146.328 272.849 147.208C272.849 147.976 272.633 148.664 272.201 149.272C271.785 149.88 271.177 150.36 270.377 150.712C269.593 151.048 268.673 151.216 267.617 151.216ZM277.552 136.12C276.96 136.12 276.464 135.936 276.064 135.568C275.68 135.184 275.488 134.712 275.488 134.152C275.488 133.592 275.68 133.128 276.064 132.76C276.464 132.376 276.96 132.184 277.552 132.184C278.144 132.184 278.632 132.376 279.016 132.76C279.416 133.128 279.616 133.592 279.616 134.152C279.616 134.712 279.416 135.184 279.016 135.568C278.632 135.936 278.144 136.12 277.552 136.12ZM279.208 137.704V151H275.848V137.704H279.208ZM287.862 144.304C287.862 142.96 288.126 141.768 288.654 140.728C289.198 139.688 289.934 138.888 290.862 138.328C291.79 137.768 292.822 137.488 293.958 137.488C294.822 137.488 295.646 137.68 296.43 138.064C297.214 138.432 297.838 138.928 298.302 139.552V133.24H301.71V151H298.302V149.032C297.886 149.688 297.302 150.216 296.55 150.616C295.798 151.016 294.926 151.216 293.934 151.216C292.814 151.216 291.79 150.928 290.862 150.352C289.934 149.776 289.198 148.968 288.654 147.928C288.126 146.872 287.862 145.664 287.862 144.304ZM298.326 144.352C298.326 143.536 298.166 142.84 297.846 142.264C297.526 141.672 297.094 141.224 296.55 140.92C296.006 140.6 295.422 140.44 294.798 140.44C294.174 140.44 293.598 140.592 293.07 140.896C292.542 141.2 292.11 141.648 291.774 142.24C291.454 142.816 291.294 143.504 291.294 144.304C291.294 145.104 291.454 145.808 291.774 146.416C292.11 147.008 292.542 147.464 293.07 147.784C293.614 148.104 294.19 148.264 294.798 148.264C295.422 148.264 296.006 148.112 296.55 147.808C297.094 147.488 297.526 147.04 297.846 146.464C298.166 145.872 298.326 145.168 298.326 144.352ZM304.368 144.304C304.368 142.96 304.632 141.768 305.16 140.728C305.704 139.688 306.432 138.888 307.344 138.328C308.272 137.768 309.304 137.488 310.44 137.488C311.432 137.488 312.296 137.688 313.032 138.088C313.784 138.488 314.384 138.992 314.832 139.6V137.704H318.216V151H314.832V149.056C314.4 149.68 313.8 150.2 313.032 150.616C312.28 151.016 311.408 151.216 310.416 151.216C309.296 151.216 308.272 150.928 307.344 150.352C306.432 149.776 305.704 148.968 305.16 147.928C304.632 146.872 304.368 145.664 304.368 144.304ZM314.832 144.352C314.832 143.536 314.672 142.84 314.352 142.264C314.032 141.672 313.6 141.224 313.056 140.92C312.512 140.6 311.928 140.44 311.304 140.44C310.68 140.44 310.104 140.592 309.576 140.896C309.048 141.2 308.616 141.648 308.28 142.24C307.96 142.816 307.8 143.504 307.8 144.304C307.8 145.104 307.96 145.808 308.28 146.416C308.616 147.008 309.048 147.464 309.576 147.784C310.12 148.104 310.696 148.264 311.304 148.264C311.928 148.264 312.512 148.112 313.056 147.808C313.6 147.488 314.032 147.04 314.352 146.464C314.672 145.872 314.832 145.168 314.832 144.352ZM325.097 139.768C325.529 139.064 326.089 138.512 326.777 138.112C327.481 137.712 328.281 137.512 329.177 137.512V141.04H328.289C327.233 141.04 326.433 141.288 325.889 141.784C325.361 142.28 325.097 143.144 325.097 144.376V151H321.737V137.704H325.097V139.768ZM333.384 136.12C332.792 136.12 332.296 135.936 331.896 135.568C331.512 135.184 331.32 134.712 331.32 134.152C331.32 133.592 331.512 133.128 331.896 132.76C332.296 132.376 332.792 132.184 333.384 132.184C333.976 132.184 334.464 132.376 334.848 132.76C335.248 133.128 335.448 133.592 335.448 134.152C335.448 134.712 335.248 135.184 334.848 135.568C334.464 135.936 333.976 136.12 333.384 136.12ZM335.04 137.704V151H331.68V137.704H335.04ZM347.919 139.648C348.351 139.008 348.943 138.488 349.695 138.088C350.463 137.688 351.335 137.488 352.311 137.488C353.447 137.488 354.471 137.768 355.383 138.328C356.311 138.888 357.039 139.688 357.567 140.728C358.111 141.752 358.383 142.944 358.383 144.304C358.383 145.664 358.111 146.872 357.567 147.928C357.039 148.968 356.311 149.776 355.383 150.352C354.471 150.928 353.447 151.216 352.311 151.216C351.319 151.216 350.447 151.024 349.695 150.64C348.959 150.24 348.367 149.728 347.919 149.104V151H344.559V133.24H347.919V139.648ZM354.951 144.304C354.951 143.504 354.783 142.816 354.447 142.24C354.127 141.648 353.695 141.2 353.151 140.896C352.623 140.592 352.047 140.44 351.423 140.44C350.815 140.44 350.239 140.6 349.695 140.92C349.167 141.224 348.735 141.672 348.399 142.264C348.079 142.856 347.919 143.552 347.919 144.352C347.919 145.152 348.079 145.848 348.399 146.44C348.735 147.032 349.167 147.488 349.695 147.808C350.239 148.112 350.815 148.264 351.423 148.264C352.047 148.264 352.623 148.104 353.151 147.784C353.695 147.464 354.127 147.008 354.447 146.416C354.783 145.824 354.951 145.12 354.951 144.304ZM373.424 144.064C373.424 144.544 373.392 144.976 373.328 145.36H363.608C363.688 146.32 364.024 147.072 364.616 147.616C365.208 148.16 365.936 148.432 366.8 148.432C368.048 148.432 368.936 147.896 369.464 146.824H373.088C372.704 148.104 371.968 149.16 370.88 149.992C369.792 150.808 368.456 151.216 366.872 151.216C365.592 151.216 364.44 150.936 363.416 150.376C362.408 149.8 361.616 148.992 361.04 147.952C360.48 146.912 360.2 145.712 360.2 144.352C360.2 142.976 360.48 141.768 361.04 140.728C361.6 139.688 362.384 138.888 363.392 138.328C364.4 137.768 365.56 137.488 366.872 137.488C368.136 137.488 369.264 137.76 370.256 138.304C371.264 138.848 372.04 139.624 372.584 140.632C373.144 141.624 373.424 142.768 373.424 144.064ZM369.944 143.104C369.928 142.24 369.616 141.552 369.008 141.04C368.4 140.512 367.656 140.248 366.776 140.248C365.944 140.248 365.24 140.504 364.664 141.016C364.104 141.512 363.76 142.208 363.632 143.104H369.944ZM379.477 139.648C379.909 139.008 380.501 138.488 381.253 138.088C382.021 137.688 382.893 137.488 383.869 137.488C385.005 137.488 386.029 137.768 386.941 138.328C387.869 138.888 388.597 139.688 389.125 140.728C389.669 141.752 389.941 142.944 389.941 144.304C389.941 145.664 389.669 146.872 389.125 147.928C388.597 148.968 387.869 149.776 386.941 150.352C386.029 150.928 385.005 151.216 383.869 151.216C382.877 151.216 382.005 151.024 381.253 150.64C380.517 150.24 379.925 149.728 379.477 149.104V151H376.117V133.24H379.477V139.648ZM386.509 144.304C386.509 143.504 386.341 142.816 386.005 142.24C385.685 141.648 385.253 141.2 384.709 140.896C384.181 140.592 383.605 140.44 382.981 140.44C382.373 140.44 381.797 140.6 381.253 140.92C380.725 141.224 380.293 141.672 379.957 142.264C379.637 142.856 379.477 143.552 379.477 144.352C379.477 145.152 379.637 145.848 379.957 146.44C380.293 147.032 380.725 147.488 381.253 147.808C381.797 148.112 382.373 148.264 382.981 148.264C383.605 148.264 384.181 148.104 384.709 147.784C385.253 147.464 385.685 147.008 386.005 146.416C386.341 145.824 386.509 145.12 386.509 144.304ZM404.983 144.064C404.983 144.544 404.951 144.976 404.887 145.36H395.167C395.247 146.32 395.583 147.072 396.175 147.616C396.767 148.16 397.495 148.432 398.359 148.432C399.607 148.432 400.495 147.896 401.023 146.824H404.647C404.263 148.104 403.527 149.16 402.439 149.992C401.351 150.808 400.015 151.216 398.431 151.216C397.151 151.216 395.999 150.936 394.975 150.376C393.967 149.8 393.175 148.992 392.599 147.952C392.039 146.912 391.759 145.712 391.759 144.352C391.759 142.976 392.039 141.768 392.599 140.728C393.159 139.688 393.943 138.888 394.951 138.328C395.959 137.768 397.119 137.488 398.431 137.488C399.695 137.488 400.823 137.76 401.815 138.304C402.823 138.848 403.599 139.624 404.143 140.632C404.703 141.624 404.983 142.768 404.983 144.064ZM401.503 143.104C401.487 142.24 401.175 141.552 400.567 141.04C399.959 140.512 399.215 140.248 398.335 140.248C397.503 140.248 396.799 140.504 396.223 141.016C395.663 141.512 395.319 142.208 395.191 143.104H401.503ZM411.035 139.768C411.467 139.064 412.027 138.512 412.715 138.112C413.419 137.712 414.219 137.512 415.115 137.512V141.04H414.227C413.171 141.04 412.371 141.288 411.827 141.784C411.299 142.28 411.035 143.144 411.035 144.376V151H407.675V137.704H411.035V139.768ZM416.754 144.304C416.754 142.96 417.018 141.768 417.546 140.728C418.09 139.688 418.818 138.888 419.73 138.328C420.658 137.768 421.69 137.488 422.826 137.488C423.818 137.488 424.682 137.688 425.418 138.088C426.17 138.488 426.77 138.992 427.218 139.6V137.704H430.602V151H427.218V149.056C426.786 149.68 426.186 150.2 425.418 150.616C424.666 151.016 423.794 151.216 422.802 151.216C421.682 151.216 420.658 150.928 419.73 150.352C418.818 149.776 418.09 148.968 417.546 147.928C417.018 146.872 416.754 145.664 416.754 144.304ZM427.218 144.352C427.218 143.536 427.058 142.84 426.738 142.264C426.418 141.672 425.986 141.224 425.442 140.92C424.898 140.6 424.314 140.44 423.69 140.44C423.066 140.44 422.49 140.592 421.962 140.896C421.434 141.2 421.002 141.648 420.666 142.24C420.346 142.816 420.186 143.504 420.186 144.304C420.186 145.104 420.346 145.808 420.666 146.416C421.002 147.008 421.434 147.464 421.962 147.784C422.506 148.104 423.082 148.264 423.69 148.264C424.314 148.264 424.898 148.112 425.442 147.808C425.986 147.488 426.418 147.04 426.738 146.464C427.058 145.872 427.218 145.168 427.218 144.352ZM437.484 139.624C437.916 139.016 438.508 138.512 439.26 138.112C440.028 137.696 440.9 137.488 441.876 137.488C443.012 137.488 444.036 137.768 444.948 138.328C445.876 138.888 446.604 139.688 447.132 140.728C447.676 141.752 447.948 142.944 447.948 144.304C447.948 145.664 447.676 146.872 447.132 147.928C446.604 148.968 445.876 149.776 444.948 150.352C444.036 150.928 443.012 151.216 441.876 151.216C440.9 151.216 440.036 151.016 439.284 150.616C438.548 150.216 437.948 149.712 437.484 149.104V157.336H434.124V137.704H437.484V139.624ZM444.516 144.304C444.516 143.504 444.348 142.816 444.012 142.24C443.692 141.648 443.26 141.2 442.716 140.896C442.188 140.592 441.612 140.44 440.988 140.44C440.38 140.44 439.804 140.6 439.26 140.92C438.732 141.224 438.3 141.672 437.964 142.264C437.644 142.856 437.484 143.552 437.484 144.352C437.484 145.152 437.644 145.848 437.964 146.44C438.3 147.032 438.732 147.488 439.26 147.808C439.804 148.112 440.38 148.264 440.988 148.264C441.612 148.264 442.188 148.104 442.716 147.784C443.26 147.464 443.692 147.008 444.012 146.416C444.348 145.824 444.516 145.12 444.516 144.304ZM449.765 144.304C449.765 142.96 450.029 141.768 450.557 140.728C451.101 139.688 451.829 138.888 452.741 138.328C453.669 137.768 454.701 137.488 455.837 137.488C456.829 137.488 457.693 137.688 458.429 138.088C459.181 138.488 459.781 138.992 460.229 139.6V137.704H463.613V151H460.229V149.056C459.797 149.68 459.197 150.2 458.429 150.616C457.677 151.016 456.805 151.216 455.813 151.216C454.693 151.216 453.669 150.928 452.741 150.352C451.829 149.776 451.101 148.968 450.557 147.928C450.029 146.872 449.765 145.664 449.765 144.304ZM460.229 144.352C460.229 143.536 460.069 142.84 459.749 142.264C459.429 141.672 458.997 141.224 458.453 140.92C457.909 140.6 457.325 140.44 456.701 140.44C456.077 140.44 455.501 140.592 454.973 140.896C454.445 141.2 454.013 141.648 453.677 142.24C453.357 142.816 453.197 143.504 453.197 144.304C453.197 145.104 453.357 145.808 453.677 146.416C454.013 147.008 454.445 147.464 454.973 147.784C455.517 148.104 456.093 148.264 456.701 148.264C457.325 148.264 457.909 148.112 458.453 147.808C458.997 147.488 459.429 147.04 459.749 146.464C460.069 145.872 460.229 145.168 460.229 144.352ZM478.182 151.216C477.094 151.216 476.118 151.024 475.254 150.64C474.39 150.24 473.702 149.704 473.19 149.032C472.694 148.36 472.422 147.616 472.374 146.8H475.758C475.822 147.312 476.07 147.736 476.502 148.072C476.95 148.408 477.502 148.576 478.158 148.576C478.798 148.576 479.294 148.448 479.646 148.192C480.014 147.936 480.198 147.608 480.198 147.208C480.198 146.776 479.974 146.456 479.526 146.248C479.094 146.024 478.398 145.784 477.438 145.528C476.446 145.288 475.63 145.04 474.99 144.784C474.366 144.528 473.822 144.136 473.358 143.608C472.91 143.08 472.686 142.368 472.686 141.472C472.686 140.736 472.894 140.064 473.31 139.456C473.742 138.848 474.35 138.368 475.134 138.016C475.934 137.664 476.87 137.488 477.942 137.488C479.526 137.488 480.79 137.888 481.734 138.688C482.678 139.472 483.198 140.536 483.294 141.88H480.078C480.03 141.352 479.806 140.936 479.406 140.632C479.022 140.312 478.502 140.152 477.846 140.152C477.238 140.152 476.766 140.264 476.43 140.488C476.11 140.712 475.95 141.024 475.95 141.424C475.95 141.872 476.174 142.216 476.622 142.456C477.07 142.68 477.766 142.912 478.71 143.152C479.67 143.392 480.462 143.64 481.086 143.896C481.71 144.152 482.246 144.552 482.694 145.096C483.158 145.624 483.398 146.328 483.414 147.208C483.414 147.976 483.198 148.664 482.766 149.272C482.35 149.88 481.742 150.36 480.942 150.712C480.158 151.048 479.238 151.216 478.182 151.216ZM498.964 137.704V151H495.58V149.32C495.148 149.896 494.58 150.352 493.876 150.688C493.188 151.008 492.436 151.168 491.62 151.168C490.58 151.168 489.66 150.952 488.86 150.52C488.06 150.072 487.428 149.424 486.964 148.576C486.516 147.712 486.292 146.688 486.292 145.504V137.704H489.652V145.024C489.652 146.08 489.916 146.896 490.444 147.472C490.972 148.032 491.692 148.312 492.604 148.312C493.532 148.312 494.26 148.032 494.788 147.472C495.316 146.896 495.58 146.08 495.58 145.024V137.704H498.964ZM519.031 137.512C520.663 137.512 521.975 138.016 522.967 139.024C523.975 140.016 524.479 141.408 524.479 143.2V151H521.119V143.656C521.119 142.616 520.855 141.824 520.327 141.28C519.799 140.72 519.079 140.44 518.167 140.44C517.255 140.44 516.527 140.72 515.983 141.28C515.455 141.824 515.191 142.616 515.191 143.656V151H511.831V143.656C511.831 142.616 511.567 141.824 511.039 141.28C510.511 140.72 509.791 140.44 508.879 140.44C507.951 140.44 507.215 140.72 506.671 141.28C506.143 141.824 505.879 142.616 505.879 143.656V151H502.519V137.704H505.879V139.312C506.311 138.752 506.863 138.312 507.535 137.992C508.223 137.672 508.975 137.512 509.791 137.512C510.831 137.512 511.759 137.736 512.575 138.184C513.391 138.616 514.023 139.24 514.471 140.056C514.903 139.288 515.527 138.672 516.343 138.208C517.175 137.744 518.071 137.512 519.031 137.512ZM531.268 139.648C531.7 139.008 532.292 138.488 533.044 138.088C533.812 137.688 534.684 137.488 535.66 137.488C536.796 137.488 537.82 137.768 538.732 138.328C539.66 138.888 540.388 139.688 540.916 140.728C541.46 141.752 541.732 142.944 541.732 144.304C541.732 145.664 541.46 146.872 540.916 147.928C540.388 148.968 539.66 149.776 538.732 150.352C537.82 150.928 536.796 151.216 535.66 151.216C534.668 151.216 533.796 151.024 533.044 150.64C532.308 150.24 531.716 149.728 531.268 149.104V151H527.908V133.24H531.268V139.648ZM538.3 144.304C538.3 143.504 538.132 142.816 537.796 142.24C537.476 141.648 537.044 141.2 536.5 140.896C535.972 140.592 535.396 140.44 534.772 140.44C534.164 140.44 533.588 140.6 533.044 140.92C532.516 141.224 532.084 141.672 531.748 142.264C531.428 142.856 531.268 143.552 531.268 144.352C531.268 145.152 531.428 145.848 531.748 146.44C532.084 147.032 532.516 147.488 533.044 147.808C533.588 148.112 534.164 148.264 534.772 148.264C535.396 148.264 535.972 148.104 536.5 147.784C537.044 147.464 537.476 147.008 537.796 146.416C538.132 145.824 538.3 145.12 538.3 144.304ZM556.773 144.064C556.773 144.544 556.741 144.976 556.677 145.36H546.957C547.037 146.32 547.373 147.072 547.965 147.616C548.557 148.16 549.285 148.432 550.149 148.432C551.397 148.432 552.285 147.896 552.813 146.824H556.437C556.053 148.104 555.317 149.16 554.229 149.992C553.141 150.808 551.805 151.216 550.221 151.216C548.941 151.216 547.789 150.936 546.765 150.376C545.757 149.8 544.965 148.992 544.389 147.952C543.829 146.912 543.549 145.712 543.549 144.352C543.549 142.976 543.829 141.768 544.389 140.728C544.949 139.688 545.733 138.888 546.741 138.328C547.749 137.768 548.909 137.488 550.221 137.488C551.485 137.488 552.613 137.76 553.605 138.304C554.613 138.848 555.389 139.624 555.933 140.632C556.493 141.624 556.773 142.768 556.773 144.064ZM553.293 143.104C553.277 142.24 552.965 141.552 552.357 141.04C551.749 140.512 551.005 140.248 550.125 140.248C549.293 140.248 548.589 140.504 548.013 141.016C547.453 141.512 547.109 142.208 546.981 143.104H553.293ZM562.826 139.768C563.258 139.064 563.818 138.512 564.506 138.112C565.21 137.712 566.01 137.512 566.906 137.512V141.04H566.018C564.962 141.04 564.162 141.288 563.618 141.784C563.09 142.28 562.826 143.144 562.826 144.376V151H559.466V137.704H562.826V139.768Z" fill="black"/>
<path d="M0 15C0 6.71573 6.71573 0 15 0H286C294.284 0 301 6.71573 301 15V41C301 49.2843 294.284 56 286 56H15C6.71573 56 0 49.2843 0 41V15Z" fill="#D1877D"/>
<path d="M69.92 18.248V35H66.56V24.104L62.072 35H59.528L55.016 24.104V35H51.656V18.248H55.472L60.8 30.704L66.128 18.248H69.92ZM85.8419 28.064C85.8419 28.544 85.8099 28.976 85.7459 29.36H76.0259C76.1059 30.32 76.4419 31.072 77.0339 31.616C77.6259 32.16 78.3539 32.432 79.2179 32.432C80.4659 32.432 81.3539 31.896 81.8819 30.824H85.5059C85.1219 32.104 84.3859 33.16 83.2979 33.992C82.2099 34.808 80.8739 35.216 79.2899 35.216C78.0099 35.216 76.8579 34.936 75.8339 34.376C74.8259 33.8 74.0339 32.992 73.4579 31.952C72.8979 30.912 72.6179 29.712 72.6179 28.352C72.6179 26.976 72.8979 25.768 73.4579 24.728C74.0179 23.688 74.8019 22.888 75.8099 22.328C76.8179 21.768 77.9779 21.488 79.2899 21.488C80.5539 21.488 81.6819 21.76 82.6739 22.304C83.6819 22.848 84.4579 23.624 85.0019 24.632C85.5619 25.624 85.8419 26.768 85.8419 28.064ZM82.3619 27.104C82.3459 26.24 82.0339 25.552 81.4259 25.04C80.8179 24.512 80.0739 24.248 79.1939 24.248C78.3619 24.248 77.6579 24.504 77.0819 25.016C76.5219 25.512 76.1779 26.208 76.0499 27.104H82.3619ZM95.9024 21.512C97.4864 21.512 98.7664 22.016 99.7424 23.024C100.718 24.016 101.206 25.408 101.206 27.2V35H97.8464V27.656C97.8464 26.6 97.5824 25.792 97.0544 25.232C96.5264 24.656 95.8064 24.368 94.8944 24.368C93.9664 24.368 93.2304 24.656 92.6864 25.232C92.1584 25.792 91.8944 26.6 91.8944 27.656V35H88.5344V21.704H91.8944V23.36C92.3424 22.784 92.9104 22.336 93.5984 22.016C94.3024 21.68 95.0704 21.512 95.9024 21.512ZM109.85 21.488C110.842 21.488 111.714 21.688 112.466 22.088C113.218 22.472 113.81 22.976 114.242 23.6V21.704H117.626V35.096C117.626 36.328 117.378 37.424 116.882 38.384C116.386 39.36 115.642 40.128 114.65 40.688C113.658 41.264 112.458 41.552 111.05 41.552C109.162 41.552 107.61 41.112 106.394 40.232C105.194 39.352 104.514 38.152 104.354 36.632H107.69C107.866 37.24 108.242 37.72 108.818 38.072C109.41 38.44 110.122 38.624 110.954 38.624C111.93 38.624 112.722 38.328 113.33 37.736C113.938 37.16 114.242 36.28 114.242 35.096V33.032C113.81 33.656 113.21 34.176 112.442 34.592C111.69 35.008 110.826 35.216 109.85 35.216C108.73 35.216 107.706 34.928 106.778 34.352C105.85 33.776 105.114 32.968 104.57 31.928C104.042 30.872 103.778 29.664 103.778 28.304C103.778 26.96 104.042 25.768 104.57 24.728C105.114 23.688 105.842 22.888 106.754 22.328C107.682 21.768 108.714 21.488 109.85 21.488ZM114.242 28.352C114.242 27.536 114.082 26.84 113.762 26.264C113.442 25.672 113.01 25.224 112.466 24.92C111.922 24.6 111.338 24.44 110.714 24.44C110.09 24.44 109.514 24.592 108.986 24.896C108.458 25.2 108.026 25.648 107.69 26.24C107.37 26.816 107.21 27.504 107.21 28.304C107.21 29.104 107.37 29.808 107.69 30.416C108.026 31.008 108.458 31.464 108.986 31.784C109.53 32.104 110.106 32.264 110.714 32.264C111.338 32.264 111.922 32.112 112.466 31.808C113.01 31.488 113.442 31.04 113.762 30.464C114.082 29.872 114.242 29.168 114.242 28.352ZM133.507 28.064C133.507 28.544 133.475 28.976 133.411 29.36H123.691C123.771 30.32 124.107 31.072 124.699 31.616C125.291 32.16 126.019 32.432 126.883 32.432C128.131 32.432 129.019 31.896 129.547 30.824H133.171C132.787 32.104 132.051 33.16 130.963 33.992C129.875 34.808 128.539 35.216 126.955 35.216C125.675 35.216 124.523 34.936 123.499 34.376C122.491 33.8 121.699 32.992 121.123 31.952C120.563 30.912 120.283 29.712 120.283 28.352C120.283 26.976 120.563 25.768 121.123 24.728C121.683 23.688 122.467 22.888 123.475 22.328C124.483 21.768 125.643 21.488 126.955 21.488C128.219 21.488 129.347 21.76 130.339 22.304C131.347 22.848 132.123 23.624 132.667 24.632C133.227 25.624 133.507 26.768 133.507 28.064ZM130.027 27.104C130.011 26.24 129.699 25.552 129.091 25.04C128.483 24.512 127.739 24.248 126.859 24.248C126.027 24.248 125.323 24.504 124.747 25.016C124.187 25.512 123.843 26.208 123.715 27.104H130.027ZM144.072 35L139.56 29.336V35H136.2V17.24H139.56V27.344L144.024 21.704H148.392L142.536 28.376L148.44 35H144.072ZM155.543 35.216C154.455 35.216 153.479 35.024 152.615 34.64C151.751 34.24 151.063 33.704 150.551 33.032C150.055 32.36 149.783 31.616 149.735 30.8H153.119C153.183 31.312 153.431 31.736 153.863 32.072C154.311 32.408 154.863 32.576 155.519 32.576C156.159 32.576 156.655 32.448 157.007 32.192C157.375 31.936 157.559 31.608 157.559 31.208C157.559 30.776 157.335 30.456 156.887 30.248C156.455 30.024 155.759 29.784 154.799 29.528C153.807 29.288 152.991 29.04 152.351 28.784C151.727 28.528 151.183 28.136 150.719 27.608C150.271 27.08 150.047 26.368 150.047 25.472C150.047 24.736 150.255 24.064 150.671 23.456C151.103 22.848 151.711 22.368 152.495 22.016C153.295 21.664 154.231 21.488 155.303 21.488C156.887 21.488 158.151 21.888 159.095 22.688C160.039 23.472 160.559 24.536 160.655 25.88H157.439C157.391 25.352 157.167 24.936 156.767 24.632C156.383 24.312 155.863 24.152 155.207 24.152C154.599 24.152 154.127 24.264 153.791 24.488C153.471 24.712 153.311 25.024 153.311 25.424C153.311 25.872 153.535 26.216 153.983 26.456C154.431 26.68 155.127 26.912 156.071 27.152C157.031 27.392 157.823 27.64 158.447 27.896C159.071 28.152 159.607 28.552 160.055 29.096C160.519 29.624 160.759 30.328 160.775 31.208C160.775 31.976 160.559 32.664 160.127 33.272C159.711 33.88 159.103 34.36 158.303 34.712C157.519 35.048 156.599 35.216 155.543 35.216ZM167.134 23.624C167.566 23.016 168.158 22.512 168.91 22.112C169.678 21.696 170.55 21.488 171.526 21.488C172.662 21.488 173.686 21.768 174.598 22.328C175.526 22.888 176.254 23.688 176.782 24.728C177.326 25.752 177.598 26.944 177.598 28.304C177.598 29.664 177.326 30.872 176.782 31.928C176.254 32.968 175.526 33.776 174.598 34.352C173.686 34.928 172.662 35.216 171.526 35.216C170.55 35.216 169.686 35.016 168.934 34.616C168.198 34.216 167.598 33.712 167.134 33.104V41.336H163.774V21.704H167.134V23.624ZM174.166 28.304C174.166 27.504 173.998 26.816 173.662 26.24C173.342 25.648 172.91 25.2 172.366 24.896C171.838 24.592 171.262 24.44 170.638 24.44C170.03 24.44 169.454 24.6 168.91 24.92C168.382 25.224 167.95 25.672 167.614 26.264C167.294 26.856 167.134 27.552 167.134 28.352C167.134 29.152 167.294 29.848 167.614 30.44C167.95 31.032 168.382 31.488 168.91 31.808C169.454 32.112 170.03 32.264 170.638 32.264C171.262 32.264 171.838 32.104 172.366 31.784C172.91 31.464 173.342 31.008 173.662 30.416C173.998 29.824 174.166 29.12 174.166 28.304ZM183.639 17.24V35H180.279V17.24H183.639ZM193.103 35.216C191.823 35.216 190.671 34.936 189.647 34.376C188.623 33.8 187.815 32.992 187.223 31.952C186.647 30.912 186.359 29.712 186.359 28.352C186.359 26.992 186.655 25.792 187.247 24.752C187.855 23.712 188.679 22.912 189.719 22.352C190.759 21.776 191.919 21.488 193.199 21.488C194.479 21.488 195.639 21.776 196.679 22.352C197.719 22.912 198.535 23.712 199.127 24.752C199.735 25.792 200.039 26.992 200.039 28.352C200.039 29.712 199.727 30.912 199.103 31.952C198.495 32.992 197.663 33.8 196.607 34.376C195.567 34.936 194.399 35.216 193.103 35.216ZM193.103 32.288C193.711 32.288 194.279 32.144 194.807 31.856C195.351 31.552 195.783 31.104 196.103 30.512C196.423 29.92 196.583 29.2 196.583 28.352C196.583 27.088 196.247 26.12 195.575 25.448C194.919 24.76 194.111 24.416 193.151 24.416C192.191 24.416 191.383 24.76 190.727 25.448C190.087 26.12 189.767 27.088 189.767 28.352C189.767 29.616 190.079 30.592 190.703 31.28C191.343 31.952 192.143 32.288 193.103 32.288ZM206.103 23.768C206.535 23.064 207.095 22.512 207.783 22.112C208.487 21.712 209.287 21.512 210.183 21.512V25.04H209.295C208.239 25.04 207.439 25.288 206.895 25.784C206.367 26.28 206.103 27.144 206.103 28.376V35H202.743V21.704H206.103V23.768ZM211.823 28.304C211.823 26.96 212.087 25.768 212.615 24.728C213.159 23.688 213.887 22.888 214.799 22.328C215.727 21.768 216.759 21.488 217.895 21.488C218.887 21.488 219.751 21.688 220.487 22.088C221.239 22.488 221.839 22.992 222.287 23.6V21.704H225.671V35H222.287V33.056C221.855 33.68 221.255 34.2 220.487 34.616C219.735 35.016 218.863 35.216 217.871 35.216C216.751 35.216 215.727 34.928 214.799 34.352C213.887 33.776 213.159 32.968 212.615 31.928C212.087 30.872 211.823 29.664 211.823 28.304ZM222.287 28.352C222.287 27.536 222.127 26.84 221.807 26.264C221.487 25.672 221.055 25.224 220.511 24.92C219.967 24.6 219.383 24.44 218.759 24.44C218.135 24.44 217.559 24.592 217.031 24.896C216.503 25.2 216.071 25.648 215.735 26.24C215.415 26.816 215.255 27.504 215.255 28.304C215.255 29.104 215.415 29.808 215.735 30.416C216.071 31.008 216.503 31.464 217.031 31.784C217.575 32.104 218.151 32.264 218.759 32.264C219.383 32.264 219.967 32.112 220.511 31.808C221.055 31.488 221.487 31.04 221.807 30.464C222.127 29.872 222.287 29.168 222.287 28.352ZM234.28 35.216C233.192 35.216 232.216 35.024 231.352 34.64C230.488 34.24 229.8 33.704 229.288 33.032C228.792 32.36 228.52 31.616 228.472 30.8H231.856C231.92 31.312 232.168 31.736 232.6 32.072C233.048 32.408 233.6 32.576 234.256 32.576C234.896 32.576 235.392 32.448 235.744 32.192C236.112 31.936 236.296 31.608 236.296 31.208C236.296 30.776 236.072 30.456 235.624 30.248C235.192 30.024 234.496 29.784 233.536 29.528C232.544 29.288 231.728 29.04 231.088 28.784C230.464 28.528 229.92 28.136 229.456 27.608C229.008 27.08 228.784 26.368 228.784 25.472C228.784 24.736 228.992 24.064 229.408 23.456C229.84 22.848 230.448 22.368 231.232 22.016C232.032 21.664 232.968 21.488 234.04 21.488C235.624 21.488 236.888 21.888 237.832 22.688C238.776 23.472 239.296 24.536 239.392 25.88H236.176C236.128 25.352 235.904 24.936 235.504 24.632C235.12 24.312 234.6 24.152 233.944 24.152C233.336 24.152 232.864 24.264 232.528 24.488C232.208 24.712 232.048 25.024 232.048 25.424C232.048 25.872 232.272 26.216 232.72 26.456C233.168 26.68 233.864 26.912 234.808 27.152C235.768 27.392 236.56 27.64 237.184 27.896C237.808 28.152 238.344 28.552 238.792 29.096C239.256 29.624 239.496 30.328 239.512 31.208C239.512 31.976 239.296 32.664 238.864 33.272C238.448 33.88 237.84 34.36 237.04 34.712C236.256 35.048 235.336 35.216 234.28 35.216ZM244.214 20.12C243.622 20.12 243.126 19.936 242.726 19.568C242.342 19.184 242.15 18.712 242.15 18.152C242.15 17.592 242.342 17.128 242.726 16.76C243.126 16.376 243.622 16.184 244.214 16.184C244.806 16.184 245.294 16.376 245.678 16.76C246.078 17.128 246.278 17.592 246.278 18.152C246.278 18.712 246.078 19.184 245.678 19.568C245.294 19.936 244.806 20.12 244.214 20.12ZM245.87 21.704V35H242.51V21.704H245.87Z" fill="black"/>
</svg>
