<svg width="1273" height="179" viewBox="0 0 1273 179" fill="none" xmlns="http://www.w3.org/2000/svg">
<path d="M24 38H1105V179H24V38Z" fill="#9EBBA4" fill-opacity="0.4"/>
<path d="M51.84 97.6C51.84 95.952 52.208 94.48 52.944 93.184C53.696 91.872 54.712 90.856 55.992 90.136C57.288 89.4 58.736 89.032 60.336 89.032C62.208 89.032 63.848 89.512 65.256 90.472C66.664 91.432 67.648 92.76 68.208 94.456H64.344C63.96 93.656 63.416 93.056 62.712 92.656C62.024 92.256 61.224 92.056 60.312 92.056C59.336 92.056 58.464 92.288 57.696 92.752C56.944 93.2 56.352 93.84 55.92 94.672C55.504 95.504 55.296 96.48 55.296 97.6C55.296 98.704 55.504 99.68 55.92 100.528C56.352 101.36 56.944 102.008 57.696 102.472C58.464 102.92 59.336 103.144 60.312 103.144C61.224 103.144 62.024 102.944 62.712 102.544C63.416 102.128 63.96 101.52 64.344 100.72H68.208C67.648 102.432 66.664 103.768 65.256 104.728C63.864 105.672 62.224 106.144 60.336 106.144C58.736 106.144 57.288 105.784 55.992 105.064C54.712 104.328 53.696 103.312 52.944 102.016C52.208 100.72 51.84 99.248 51.84 97.6ZM70.4539 99.304C70.4539 97.96 70.7179 96.768 71.2459 95.728C71.7899 94.688 72.5179 93.888 73.4299 93.328C74.3579 92.768 75.3899 92.488 76.5259 92.488C77.5179 92.488 78.3819 92.688 79.1179 93.088C79.8699 93.488 80.4699 93.992 80.9179 94.6V92.704H84.3019V106H80.9179V104.056C80.4859 104.68 79.8859 105.2 79.1179 105.616C78.3659 106.016 77.4939 106.216 76.5019 106.216C75.3819 106.216 74.3579 105.928 73.4299 105.352C72.5179 104.776 71.7899 103.968 71.2459 102.928C70.7179 101.872 70.4539 100.664 70.4539 99.304ZM80.9179 99.352C80.9179 98.536 80.7579 97.84 80.4379 97.264C80.1179 96.672 79.6859 96.224 79.1419 95.92C78.5979 95.6 78.0139 95.44 77.3899 95.44C76.7659 95.44 76.1899 95.592 75.6619 95.896C75.1339 96.2 74.7019 96.648 74.3659 97.24C74.0459 97.816 73.8859 98.504 73.8859 99.304C73.8859 100.104 74.0459 100.808 74.3659 101.416C74.7019 102.008 75.1339 102.464 75.6619 102.784C76.2059 103.104 76.7819 103.264 77.3899 103.264C78.0139 103.264 78.5979 103.112 79.1419 102.808C79.6859 102.488 80.1179 102.04 80.4379 101.464C80.7579 100.872 80.9179 100.168 80.9179 99.352ZM91.1835 94.768C91.6155 94.064 92.1755 93.512 92.8635 93.112C93.5675 92.712 94.3675 92.512 95.2635 92.512V96.04H94.3755C93.3195 96.04 92.5195 96.288 91.9755 96.784C91.4475 97.28 91.1835 98.144 91.1835 99.376V106H87.8235V92.704H91.1835V94.768ZM99.4706 91.12C98.8786 91.12 98.3826 90.936 97.9826 90.568C97.5986 90.184 97.4066 89.712 97.4066 89.152C97.4066 88.592 97.5986 88.128 97.9826 87.76C98.3826 87.376 98.8786 87.184 99.4706 87.184C100.063 87.184 100.551 87.376 100.935 87.76C101.335 88.128 101.535 88.592 101.535 89.152C101.535 89.712 101.335 90.184 100.935 90.568C100.551 90.936 100.063 91.12 99.4706 91.12ZM101.127 92.704V106H97.7666V92.704H101.127ZM108.046 88.24V106H104.686V88.24H108.046ZM110.742 99.304C110.742 97.96 111.006 96.768 111.534 95.728C112.078 94.688 112.806 93.888 113.718 93.328C114.646 92.768 115.678 92.488 116.814 92.488C117.806 92.488 118.67 92.688 119.406 93.088C120.158 93.488 120.758 93.992 121.206 94.6V92.704H124.59V106H121.206V104.056C120.774 104.68 120.174 105.2 119.406 105.616C118.654 106.016 117.782 106.216 116.79 106.216C115.67 106.216 114.646 105.928 113.718 105.352C112.806 104.776 112.078 103.968 111.534 102.928C111.006 101.872 110.742 100.664 110.742 99.304ZM121.206 99.352C121.206 98.536 121.046 97.84 120.726 97.264C120.406 96.672 119.974 96.224 119.43 95.92C118.886 95.6 118.302 95.44 117.678 95.44C117.054 95.44 116.478 95.592 115.95 95.896C115.422 96.2 114.99 96.648 114.654 97.24C114.334 97.816 114.174 98.504 114.174 99.304C114.174 100.104 114.334 100.808 114.654 101.416C114.99 102.008 115.422 102.464 115.95 102.784C116.494 103.104 117.07 103.264 117.678 103.264C118.302 103.264 118.886 103.112 119.43 102.808C119.974 102.488 120.406 102.04 120.726 101.464C121.046 100.872 121.206 100.168 121.206 99.352ZM135.6 92.512C136.608 92.512 137.504 92.736 138.288 93.184C139.072 93.616 139.68 94.264 140.112 95.128C140.56 95.976 140.784 97 140.784 98.2V106H137.424V98.656C137.424 97.6 137.16 96.792 136.632 96.232C136.104 95.656 135.384 95.368 134.472 95.368C133.544 95.368 132.808 95.656 132.264 96.232C131.736 96.792 131.472 97.6 131.472 98.656V106H128.112V88.24H131.472V94.36C131.904 93.784 132.48 93.336 133.2 93.016C133.92 92.68 134.72 92.512 135.6 92.512ZM151.882 91.12C151.29 91.12 150.794 90.936 150.394 90.568C150.01 90.184 149.818 89.712 149.818 89.152C149.818 88.592 150.01 88.128 150.394 87.76C150.794 87.376 151.29 87.184 151.882 87.184C152.474 87.184 152.962 87.376 153.346 87.76C153.746 88.128 153.946 88.592 153.946 89.152C153.946 89.712 153.746 90.184 153.346 90.568C152.962 90.936 152.474 91.12 151.882 91.12ZM153.538 92.704V106H150.178V92.704H153.538ZM164.465 92.512C166.049 92.512 167.329 93.016 168.305 94.024C169.281 95.016 169.769 96.408 169.769 98.2V106H166.409V98.656C166.409 97.6 166.145 96.792 165.617 96.232C165.089 95.656 164.369 95.368 163.457 95.368C162.529 95.368 161.793 95.656 161.249 96.232C160.721 96.792 160.457 97.6 160.457 98.656V106H157.097V92.704H160.457V94.36C160.905 93.784 161.473 93.336 162.161 93.016C162.865 92.68 163.633 92.512 164.465 92.512ZM179.3 95.464H176.972V106H173.564V95.464H172.052V92.704H173.564V92.032C173.564 90.4 174.028 89.2 174.956 88.432C175.884 87.664 177.284 87.304 179.156 87.352V90.184C178.34 90.168 177.772 90.304 177.452 90.592C177.132 90.88 176.972 91.4 176.972 92.152V92.704H179.3V95.464ZM187.622 106.216C186.342 106.216 185.19 105.936 184.166 105.376C183.142 104.8 182.334 103.992 181.742 102.952C181.166 101.912 180.878 100.712 180.878 99.352C180.878 97.992 181.174 96.792 181.766 95.752C182.374 94.712 183.198 93.912 184.238 93.352C185.278 92.776 186.438 92.488 187.718 92.488C188.998 92.488 190.158 92.776 191.198 93.352C192.238 93.912 193.054 94.712 193.646 95.752C194.254 96.792 194.558 97.992 194.558 99.352C194.558 100.712 194.246 101.912 193.622 102.952C193.014 103.992 192.182 104.8 191.126 105.376C190.086 105.936 188.918 106.216 187.622 106.216ZM187.622 103.288C188.23 103.288 188.798 103.144 189.326 102.856C189.87 102.552 190.302 102.104 190.622 101.512C190.942 100.92 191.102 100.2 191.102 99.352C191.102 98.088 190.766 97.12 190.094 96.448C189.438 95.76 188.63 95.416 187.67 95.416C186.71 95.416 185.902 95.76 185.246 96.448C184.606 97.12 184.286 98.088 184.286 99.352C184.286 100.616 184.598 101.592 185.222 102.28C185.862 102.952 186.662 103.288 187.622 103.288ZM200.623 94.768C201.055 94.064 201.615 93.512 202.303 93.112C203.007 92.712 203.807 92.512 204.703 92.512V96.04H203.815C202.759 96.04 201.959 96.288 201.415 96.784C200.887 97.28 200.623 98.144 200.623 99.376V106H197.263V92.704H200.623V94.768ZM223.718 92.512C225.35 92.512 226.662 93.016 227.654 94.024C228.662 95.016 229.166 96.408 229.166 98.2V106H225.806V98.656C225.806 97.616 225.542 96.824 225.014 96.28C224.486 95.72 223.766 95.44 222.854 95.44C221.942 95.44 221.214 95.72 220.67 96.28C220.142 96.824 219.878 97.616 219.878 98.656V106H216.518V98.656C216.518 97.616 216.254 96.824 215.726 96.28C215.198 95.72 214.478 95.44 213.566 95.44C212.638 95.44 211.902 95.72 211.358 96.28C210.83 96.824 210.566 97.616 210.566 98.656V106H207.206V92.704H210.566V94.312C210.998 93.752 211.55 93.312 212.222 92.992C212.91 92.672 213.662 92.512 214.478 92.512C215.518 92.512 216.446 92.736 217.262 93.184C218.078 93.616 218.71 94.24 219.158 95.056C219.59 94.288 220.214 93.672 221.03 93.208C221.862 92.744 222.758 92.512 223.718 92.512ZM231.73 99.304C231.73 97.96 231.994 96.768 232.522 95.728C233.066 94.688 233.794 93.888 234.706 93.328C235.634 92.768 236.666 92.488 237.802 92.488C238.794 92.488 239.658 92.688 240.394 93.088C241.146 93.488 241.746 93.992 242.194 94.6V92.704H245.578V106H242.194V104.056C241.762 104.68 241.162 105.2 240.394 105.616C239.642 106.016 238.77 106.216 237.778 106.216C236.658 106.216 235.634 105.928 234.706 105.352C233.794 104.776 233.066 103.968 232.522 102.928C231.994 101.872 231.73 100.664 231.73 99.304ZM242.194 99.352C242.194 98.536 242.034 97.84 241.714 97.264C241.394 96.672 240.962 96.224 240.418 95.92C239.874 95.6 239.29 95.44 238.666 95.44C238.042 95.44 237.466 95.592 236.938 95.896C236.41 96.2 235.978 96.648 235.642 97.24C235.322 97.816 235.162 98.504 235.162 99.304C235.162 100.104 235.322 100.808 235.642 101.416C235.978 102.008 236.41 102.464 236.938 102.784C237.482 103.104 238.058 103.264 238.666 103.264C239.29 103.264 239.874 103.112 240.418 102.808C240.962 102.488 241.394 102.04 241.714 101.464C242.034 100.872 242.194 100.168 242.194 99.352ZM254.188 106.216C253.1 106.216 252.124 106.024 251.26 105.64C250.396 105.24 249.708 104.704 249.196 104.032C248.7 103.36 248.428 102.616 248.38 101.8H251.764C251.828 102.312 252.076 102.736 252.508 103.072C252.956 103.408 253.508 103.576 254.164 103.576C254.804 103.576 255.3 103.448 255.652 103.192C256.02 102.936 256.204 102.608 256.204 102.208C256.204 101.776 255.98 101.456 255.532 101.248C255.1 101.024 254.404 100.784 253.444 100.528C252.452 100.288 251.636 100.04 250.996 99.784C250.372 99.528 249.828 99.136 249.364 98.608C248.916 98.08 248.692 97.368 248.692 96.472C248.692 95.736 248.9 95.064 249.316 94.456C249.748 93.848 250.356 93.368 251.14 93.016C251.94 92.664 252.876 92.488 253.948 92.488C255.532 92.488 256.796 92.888 257.74 93.688C258.684 94.472 259.204 95.536 259.3 96.88H256.084C256.036 96.352 255.812 95.936 255.412 95.632C255.028 95.312 254.508 95.152 253.852 95.152C253.244 95.152 252.772 95.264 252.436 95.488C252.116 95.712 251.956 96.024 251.956 96.424C251.956 96.872 252.18 97.216 252.628 97.456C253.076 97.68 253.772 97.912 254.716 98.152C255.676 98.392 256.468 98.64 257.092 98.896C257.716 99.152 258.252 99.552 258.7 100.096C259.164 100.624 259.404 101.328 259.42 102.208C259.42 102.976 259.204 103.664 258.772 104.272C258.356 104.88 257.748 105.36 256.948 105.712C256.164 106.048 255.244 106.216 254.188 106.216ZM264.122 91.12C263.53 91.12 263.034 90.936 262.634 90.568C262.25 90.184 262.058 89.712 262.058 89.152C262.058 88.592 262.25 88.128 262.634 87.76C263.034 87.376 263.53 87.184 264.122 87.184C264.714 87.184 265.202 87.376 265.586 87.76C265.986 88.128 266.186 88.592 266.186 89.152C266.186 89.712 265.986 90.184 265.586 90.568C265.202 90.936 264.714 91.12 264.122 91.12ZM265.778 92.704V106H262.418V92.704H265.778ZM291.808 92.512C293.44 92.512 294.752 93.016 295.744 94.024C296.752 95.016 297.256 96.408 297.256 98.2V106H293.896V98.656C293.896 97.616 293.632 96.824 293.104 96.28C292.576 95.72 291.856 95.44 290.944 95.44C290.032 95.44 289.304 95.72 288.76 96.28C288.232 96.824 287.968 97.616 287.968 98.656V106H284.608V98.656C284.608 97.616 284.344 96.824 283.816 96.28C283.288 95.72 282.568 95.44 281.656 95.44C280.728 95.44 279.992 95.72 279.448 96.28C278.92 96.824 278.656 97.616 278.656 98.656V106H275.296V92.704H278.656V94.312C279.088 93.752 279.64 93.312 280.312 92.992C281 92.672 281.752 92.512 282.568 92.512C283.608 92.512 284.536 92.736 285.352 93.184C286.168 93.616 286.8 94.24 287.248 95.056C287.68 94.288 288.304 93.672 289.12 93.208C289.952 92.744 290.848 92.512 291.808 92.512ZM313.045 99.064C313.045 99.544 313.013 99.976 312.949 100.36H303.229C303.309 101.32 303.645 102.072 304.237 102.616C304.829 103.16 305.557 103.432 306.421 103.432C307.669 103.432 308.557 102.896 309.085 101.824H312.709C312.325 103.104 311.589 104.16 310.501 104.992C309.413 105.808 308.077 106.216 306.493 106.216C305.213 106.216 304.061 105.936 303.037 105.376C302.029 104.8 301.237 103.992 300.661 102.952C300.101 101.912 299.821 100.712 299.821 99.352C299.821 97.976 300.101 96.768 300.661 95.728C301.221 94.688 302.005 93.888 303.013 93.328C304.021 92.768 305.181 92.488 306.493 92.488C307.757 92.488 308.885 92.76 309.877 93.304C310.885 93.848 311.661 94.624 312.205 95.632C312.765 96.624 313.045 97.768 313.045 99.064ZM309.565 98.104C309.549 97.24 309.237 96.552 308.629 96.04C308.021 95.512 307.277 95.248 306.397 95.248C305.565 95.248 304.861 95.504 304.285 96.016C303.725 96.512 303.381 97.208 303.253 98.104H309.565ZM323.105 92.512C324.689 92.512 325.969 93.016 326.945 94.024C327.921 95.016 328.409 96.408 328.409 98.2V106H325.049V98.656C325.049 97.6 324.785 96.792 324.257 96.232C323.729 95.656 323.009 95.368 322.097 95.368C321.169 95.368 320.433 95.656 319.889 96.232C319.361 96.792 319.097 97.6 319.097 98.656V106H315.737V92.704H319.097V94.36C319.545 93.784 320.113 93.336 320.801 93.016C321.505 92.68 322.273 92.512 323.105 92.512ZM337.052 92.488C338.044 92.488 338.916 92.688 339.668 93.088C340.42 93.472 341.012 93.976 341.444 94.6V92.704H344.828V106.096C344.828 107.328 344.58 108.424 344.084 109.384C343.588 110.36 342.844 111.128 341.852 111.688C340.86 112.264 339.66 112.552 338.252 112.552C336.364 112.552 334.812 112.112 333.596 111.232C332.396 110.352 331.716 109.152 331.556 107.632H334.892C335.068 108.24 335.444 108.72 336.02 109.072C336.612 109.44 337.324 109.624 338.156 109.624C339.132 109.624 339.924 109.328 340.532 108.736C341.14 108.16 341.444 107.28 341.444 106.096V104.032C341.012 104.656 340.412 105.176 339.644 105.592C338.892 106.008 338.028 106.216 337.052 106.216C335.932 106.216 334.908 105.928 333.98 105.352C333.052 104.776 332.316 103.968 331.772 102.928C331.244 101.872 330.98 100.664 330.98 99.304C330.98 97.96 331.244 96.768 331.772 95.728C332.316 94.688 333.044 93.888 333.956 93.328C334.884 92.768 335.916 92.488 337.052 92.488ZM341.444 99.352C341.444 98.536 341.284 97.84 340.964 97.264C340.644 96.672 340.212 96.224 339.668 95.92C339.124 95.6 338.54 95.44 337.916 95.44C337.292 95.44 336.716 95.592 336.188 95.896C335.66 96.2 335.228 96.648 334.892 97.24C334.572 97.816 334.412 98.504 334.412 99.304C334.412 100.104 334.572 100.808 334.892 101.416C335.228 102.008 335.66 102.464 336.188 102.784C336.732 103.104 337.308 103.264 337.916 103.264C338.54 103.264 339.124 103.112 339.668 102.808C340.212 102.488 340.644 102.04 340.964 101.464C341.284 100.872 341.444 100.168 341.444 99.352ZM360.71 99.064C360.71 99.544 360.678 99.976 360.614 100.36H350.894C350.974 101.32 351.31 102.072 351.902 102.616C352.494 103.16 353.222 103.432 354.086 103.432C355.334 103.432 356.222 102.896 356.75 101.824H360.374C359.99 103.104 359.254 104.16 358.166 104.992C357.078 105.808 355.742 106.216 354.158 106.216C352.878 106.216 351.726 105.936 350.702 105.376C349.694 104.8 348.902 103.992 348.326 102.952C347.766 101.912 347.486 100.712 347.486 99.352C347.486 97.976 347.766 96.768 348.326 95.728C348.886 94.688 349.67 93.888 350.678 93.328C351.686 92.768 352.846 92.488 354.158 92.488C355.422 92.488 356.55 92.76 357.542 93.304C358.55 93.848 359.326 94.624 359.87 95.632C360.43 96.624 360.71 97.768 360.71 99.064ZM357.23 98.104C357.214 97.24 356.902 96.552 356.294 96.04C355.686 95.512 354.942 95.248 354.062 95.248C353.23 95.248 352.526 95.504 351.95 96.016C351.39 96.512 351.046 97.208 350.918 98.104H357.23ZM370.771 92.512C372.355 92.512 373.635 93.016 374.611 94.024C375.587 95.016 376.075 96.408 376.075 98.2V106H372.715V98.656C372.715 97.6 372.451 96.792 371.923 96.232C371.395 95.656 370.675 95.368 369.763 95.368C368.835 95.368 368.099 95.656 367.555 96.232C367.027 96.792 366.763 97.6 366.763 98.656V106H363.403V92.704H366.763V94.36C367.211 93.784 367.779 93.336 368.467 93.016C369.171 92.68 369.939 92.512 370.771 92.512ZM378.646 99.304C378.646 97.96 378.91 96.768 379.438 95.728C379.982 94.688 380.71 93.888 381.622 93.328C382.55 92.768 383.582 92.488 384.718 92.488C385.71 92.488 386.574 92.688 387.31 93.088C388.062 93.488 388.662 93.992 389.11 94.6V92.704H392.494V106H389.11V104.056C388.678 104.68 388.078 105.2 387.31 105.616C386.558 106.016 385.686 106.216 384.694 106.216C383.574 106.216 382.55 105.928 381.622 105.352C380.71 104.776 379.982 103.968 379.438 102.928C378.91 101.872 378.646 100.664 378.646 99.304ZM389.11 99.352C389.11 98.536 388.95 97.84 388.63 97.264C388.31 96.672 387.878 96.224 387.334 95.92C386.79 95.6 386.206 95.44 385.582 95.44C384.958 95.44 384.382 95.592 383.854 95.896C383.326 96.2 382.894 96.648 382.558 97.24C382.238 97.816 382.078 98.504 382.078 99.304C382.078 100.104 382.238 100.808 382.558 101.416C382.894 102.008 383.326 102.464 383.854 102.784C384.398 103.104 384.974 103.264 385.582 103.264C386.206 103.264 386.79 103.112 387.334 102.808C387.878 102.488 388.31 102.04 388.63 101.464C388.95 100.872 389.11 100.168 389.11 99.352ZM397.719 91.12C397.127 91.12 396.631 90.936 396.231 90.568C395.847 90.184 395.655 89.712 395.655 89.152C395.655 88.592 395.847 88.128 396.231 87.76C396.631 87.376 397.127 87.184 397.719 87.184C398.311 87.184 398.799 87.376 399.183 87.76C399.583 88.128 399.783 88.592 399.783 89.152C399.783 89.712 399.583 90.184 399.183 90.568C398.799 90.936 398.311 91.12 397.719 91.12ZM399.375 92.704V106H396.015V92.704H399.375ZM412.254 94.624C412.686 94.016 413.278 93.512 414.03 93.112C414.798 92.696 415.67 92.488 416.646 92.488C417.782 92.488 418.806 92.768 419.718 93.328C420.646 93.888 421.374 94.688 421.902 95.728C422.446 96.752 422.718 97.944 422.718 99.304C422.718 100.664 422.446 101.872 421.902 102.928C421.374 103.968 420.646 104.776 419.718 105.352C418.806 105.928 417.782 106.216 416.646 106.216C415.67 106.216 414.806 106.016 414.054 105.616C413.318 105.216 412.718 104.712 412.254 104.104V112.336H408.894V92.704H412.254V94.624ZM419.286 99.304C419.286 98.504 419.118 97.816 418.782 97.24C418.462 96.648 418.03 96.2 417.486 95.896C416.958 95.592 416.382 95.44 415.758 95.44C415.15 95.44 414.574 95.6 414.03 95.92C413.502 96.224 413.07 96.672 412.734 97.264C412.414 97.856 412.254 98.552 412.254 99.352C412.254 100.152 412.414 100.848 412.734 101.44C413.07 102.032 413.502 102.488 414.03 102.808C414.574 103.112 415.15 103.264 415.758 103.264C416.382 103.264 416.958 103.104 417.486 102.784C418.03 102.464 418.462 102.008 418.782 101.416C419.118 100.824 419.286 100.12 419.286 99.304ZM437.759 99.064C437.759 99.544 437.727 99.976 437.663 100.36H427.943C428.023 101.32 428.359 102.072 428.951 102.616C429.543 103.16 430.271 103.432 431.135 103.432C432.383 103.432 433.271 102.896 433.799 101.824H437.423C437.039 103.104 436.303 104.16 435.215 104.992C434.127 105.808 432.791 106.216 431.207 106.216C429.927 106.216 428.775 105.936 427.751 105.376C426.743 104.8 425.951 103.992 425.375 102.952C424.815 101.912 424.535 100.712 424.535 99.352C424.535 97.976 424.815 96.768 425.375 95.728C425.935 94.688 426.719 93.888 427.727 93.328C428.735 92.768 429.895 92.488 431.207 92.488C432.471 92.488 433.599 92.76 434.591 93.304C435.599 93.848 436.375 94.624 436.919 95.632C437.479 96.624 437.759 97.768 437.759 99.064ZM434.279 98.104C434.263 97.24 433.951 96.552 433.343 96.04C432.735 95.512 431.991 95.248 431.111 95.248C430.279 95.248 429.575 95.504 428.999 96.016C428.439 96.512 428.095 97.208 427.967 98.104H434.279ZM447.82 92.512C449.404 92.512 450.684 93.016 451.66 94.024C452.636 95.016 453.124 96.408 453.124 98.2V106H449.764V98.656C449.764 97.6 449.5 96.792 448.972 96.232C448.444 95.656 447.724 95.368 446.812 95.368C445.884 95.368 445.148 95.656 444.604 96.232C444.076 96.792 443.812 97.6 443.812 98.656V106H440.452V92.704H443.812V94.36C444.26 93.784 444.828 93.336 445.516 93.016C446.22 92.68 446.988 92.512 447.82 92.512ZM461.767 92.488C462.759 92.488 463.631 92.688 464.383 93.088C465.135 93.472 465.727 93.976 466.159 94.6V92.704H469.543V106.096C469.543 107.328 469.295 108.424 468.799 109.384C468.303 110.36 467.559 111.128 466.567 111.688C465.575 112.264 464.375 112.552 462.967 112.552C461.079 112.552 459.527 112.112 458.311 111.232C457.111 110.352 456.431 109.152 456.271 107.632H459.607C459.783 108.24 460.159 108.72 460.735 109.072C461.327 109.44 462.039 109.624 462.871 109.624C463.847 109.624 464.639 109.328 465.247 108.736C465.855 108.16 466.159 107.28 466.159 106.096V104.032C465.727 104.656 465.127 105.176 464.359 105.592C463.607 106.008 462.743 106.216 461.767 106.216C460.647 106.216 459.623 105.928 458.695 105.352C457.767 104.776 457.031 103.968 456.487 102.928C455.959 101.872 455.695 100.664 455.695 99.304C455.695 97.96 455.959 96.768 456.487 95.728C457.031 94.688 457.759 93.888 458.671 93.328C459.599 92.768 460.631 92.488 461.767 92.488ZM466.159 99.352C466.159 98.536 465.999 97.84 465.679 97.264C465.359 96.672 464.927 96.224 464.383 95.92C463.839 95.6 463.255 95.44 462.631 95.44C462.007 95.44 461.431 95.592 460.903 95.896C460.375 96.2 459.943 96.648 459.607 97.24C459.287 97.816 459.127 98.504 459.127 99.304C459.127 100.104 459.287 100.808 459.607 101.416C459.943 102.008 460.375 102.464 460.903 102.784C461.447 103.104 462.023 103.264 462.631 103.264C463.255 103.264 463.839 103.112 464.383 102.808C464.927 102.488 465.359 102.04 465.679 101.464C465.999 100.872 466.159 100.168 466.159 99.352ZM478.273 92.488C479.265 92.488 480.137 92.688 480.889 93.088C481.641 93.472 482.233 93.976 482.665 94.6V92.704H486.049V106.096C486.049 107.328 485.801 108.424 485.305 109.384C484.809 110.36 484.065 111.128 483.073 111.688C482.081 112.264 480.881 112.552 479.473 112.552C477.585 112.552 476.033 112.112 474.817 111.232C473.617 110.352 472.937 109.152 472.777 107.632H476.113C476.289 108.24 476.665 108.72 477.241 109.072C477.833 109.44 478.545 109.624 479.377 109.624C480.353 109.624 481.145 109.328 481.753 108.736C482.361 108.16 482.665 107.28 482.665 106.096V104.032C482.233 104.656 481.633 105.176 480.865 105.592C480.113 106.008 479.249 106.216 478.273 106.216C477.153 106.216 476.129 105.928 475.201 105.352C474.273 104.776 473.537 103.968 472.993 102.928C472.465 101.872 472.201 100.664 472.201 99.304C472.201 97.96 472.465 96.768 472.993 95.728C473.537 94.688 474.265 93.888 475.177 93.328C476.105 92.768 477.137 92.488 478.273 92.488ZM482.665 99.352C482.665 98.536 482.505 97.84 482.185 97.264C481.865 96.672 481.433 96.224 480.889 95.92C480.345 95.6 479.761 95.44 479.137 95.44C478.513 95.44 477.937 95.592 477.409 95.896C476.881 96.2 476.449 96.648 476.113 97.24C475.793 97.816 475.633 98.504 475.633 99.304C475.633 100.104 475.793 100.808 476.113 101.416C476.449 102.008 476.881 102.464 477.409 102.784C477.953 103.104 478.529 103.264 479.137 103.264C479.761 103.264 480.345 103.112 480.889 102.808C481.433 102.488 481.865 102.04 482.185 101.464C482.505 100.872 482.665 100.168 482.665 99.352ZM502.122 92.704V106H498.738V104.32C498.306 104.896 497.738 105.352 497.034 105.688C496.346 106.008 495.594 106.168 494.778 106.168C493.738 106.168 492.818 105.952 492.018 105.52C491.218 105.072 490.586 104.424 490.122 103.576C489.674 102.712 489.45 101.688 489.45 100.504V92.704H492.81V100.024C492.81 101.08 493.074 101.896 493.602 102.472C494.13 103.032 494.85 103.312 495.762 103.312C496.69 103.312 497.418 103.032 497.946 102.472C498.474 101.896 498.738 101.08 498.738 100.024V92.704H502.122ZM513.046 92.512C514.63 92.512 515.91 93.016 516.886 94.024C517.862 95.016 518.35 96.408 518.35 98.2V106H514.99V98.656C514.99 97.6 514.726 96.792 514.198 96.232C513.67 95.656 512.95 95.368 512.038 95.368C511.11 95.368 510.374 95.656 509.83 96.232C509.302 96.792 509.038 97.6 509.038 98.656V106H505.678V92.704H509.038V94.36C509.486 93.784 510.054 93.336 510.742 93.016C511.446 92.68 512.214 92.512 513.046 92.512ZM520.921 99.304C520.921 97.96 521.185 96.768 521.713 95.728C522.257 94.688 522.985 93.888 523.897 93.328C524.825 92.768 525.857 92.488 526.993 92.488C527.985 92.488 528.849 92.688 529.585 93.088C530.337 93.488 530.937 93.992 531.385 94.6V92.704H534.769V106H531.385V104.056C530.953 104.68 530.353 105.2 529.585 105.616C528.833 106.016 527.961 106.216 526.969 106.216C525.849 106.216 524.825 105.928 523.897 105.352C522.985 104.776 522.257 103.968 521.713 102.928C521.185 101.872 520.921 100.664 520.921 99.304ZM531.385 99.352C531.385 98.536 531.225 97.84 530.905 97.264C530.585 96.672 530.153 96.224 529.609 95.92C529.065 95.6 528.481 95.44 527.857 95.44C527.233 95.44 526.657 95.592 526.129 95.896C525.601 96.2 525.169 96.648 524.833 97.24C524.513 97.816 524.353 98.504 524.353 99.304C524.353 100.104 524.513 100.808 524.833 101.416C525.169 102.008 525.601 102.464 526.129 102.784C526.673 103.104 527.249 103.264 527.857 103.264C528.481 103.264 529.065 103.112 529.609 102.808C530.153 102.488 530.585 102.04 530.905 101.464C531.225 100.872 531.385 100.168 531.385 99.352ZM537.426 99.304C537.426 97.96 537.69 96.768 538.218 95.728C538.762 94.688 539.49 93.888 540.402 93.328C541.33 92.768 542.362 92.488 543.498 92.488C544.49 92.488 545.354 92.688 546.09 93.088C546.842 93.488 547.442 93.992 547.89 94.6V92.704H551.274V106H547.89V104.056C547.458 104.68 546.858 105.2 546.09 105.616C545.338 106.016 544.466 106.216 543.474 106.216C542.354 106.216 541.33 105.928 540.402 105.352C539.49 104.776 538.762 103.968 538.218 102.928C537.69 101.872 537.426 100.664 537.426 99.304ZM547.89 99.352C547.89 98.536 547.73 97.84 547.41 97.264C547.09 96.672 546.658 96.224 546.114 95.92C545.57 95.6 544.986 95.44 544.362 95.44C543.738 95.44 543.162 95.592 542.634 95.896C542.106 96.2 541.674 96.648 541.338 97.24C541.018 97.816 540.858 98.504 540.858 99.304C540.858 100.104 541.018 100.808 541.338 101.416C541.674 102.008 542.106 102.464 542.634 102.784C543.178 103.104 543.754 103.264 544.362 103.264C544.986 103.264 545.57 103.112 546.114 102.808C546.658 102.488 547.09 102.04 547.41 101.464C547.73 100.872 547.89 100.168 547.89 99.352ZM562.164 92.512C563.748 92.512 565.028 93.016 566.004 94.024C566.98 95.016 567.468 96.408 567.468 98.2V106H564.108V98.656C564.108 97.6 563.844 96.792 563.316 96.232C562.788 95.656 562.068 95.368 561.156 95.368C560.228 95.368 559.492 95.656 558.948 96.232C558.42 96.792 558.156 97.6 558.156 98.656V106H554.796V92.704H558.156V94.36C558.604 93.784 559.172 93.336 559.86 93.016C560.564 92.68 561.332 92.512 562.164 92.512ZM582.07 92.488C583.062 92.488 583.934 92.688 584.686 93.088C585.438 93.472 586.03 93.976 586.462 94.6V92.704H589.846V106.096C589.846 107.328 589.598 108.424 589.102 109.384C588.606 110.36 587.862 111.128 586.87 111.688C585.878 112.264 584.678 112.552 583.27 112.552C581.382 112.552 579.83 112.112 578.614 111.232C577.414 110.352 576.734 109.152 576.574 107.632H579.91C580.086 108.24 580.462 108.72 581.038 109.072C581.63 109.44 582.342 109.624 583.174 109.624C584.15 109.624 584.942 109.328 585.55 108.736C586.158 108.16 586.462 107.28 586.462 106.096V104.032C586.03 104.656 585.43 105.176 584.662 105.592C583.91 106.008 583.046 106.216 582.07 106.216C580.95 106.216 579.926 105.928 578.998 105.352C578.07 104.776 577.334 103.968 576.79 102.928C576.262 101.872 575.998 100.664 575.998 99.304C575.998 97.96 576.262 96.768 576.79 95.728C577.334 94.688 578.062 93.888 578.974 93.328C579.902 92.768 580.934 92.488 582.07 92.488ZM586.462 99.352C586.462 98.536 586.302 97.84 585.982 97.264C585.662 96.672 585.23 96.224 584.686 95.92C584.142 95.6 583.558 95.44 582.934 95.44C582.31 95.44 581.734 95.592 581.206 95.896C580.678 96.2 580.246 96.648 579.91 97.24C579.59 97.816 579.43 98.504 579.43 99.304C579.43 100.104 579.59 100.808 579.91 101.416C580.246 102.008 580.678 102.464 581.206 102.784C581.75 103.104 582.326 103.264 582.934 103.264C583.558 103.264 584.142 103.112 584.686 102.808C585.23 102.488 585.662 102.04 585.982 101.464C586.302 100.872 586.462 100.168 586.462 99.352ZM605.728 99.064C605.728 99.544 605.696 99.976 605.632 100.36H595.912C595.992 101.32 596.328 102.072 596.92 102.616C597.512 103.16 598.24 103.432 599.104 103.432C600.352 103.432 601.24 102.896 601.768 101.824H605.392C605.008 103.104 604.272 104.16 603.184 104.992C602.096 105.808 600.76 106.216 599.176 106.216C597.896 106.216 596.744 105.936 595.72 105.376C594.712 104.8 593.92 103.992 593.344 102.952C592.784 101.912 592.504 100.712 592.504 99.352C592.504 97.976 592.784 96.768 593.344 95.728C593.904 94.688 594.688 93.888 595.696 93.328C596.704 92.768 597.864 92.488 599.176 92.488C600.44 92.488 601.568 92.76 602.56 93.304C603.568 93.848 604.344 94.624 604.888 95.632C605.448 96.624 605.728 97.768 605.728 99.064ZM602.248 98.104C602.232 97.24 601.92 96.552 601.312 96.04C600.704 95.512 599.96 95.248 599.08 95.248C598.248 95.248 597.544 95.504 596.968 96.016C596.408 96.512 596.064 97.208 595.936 98.104H602.248ZM611.78 88.24V106H608.42V88.24H611.78ZM621.244 106.216C619.964 106.216 618.812 105.936 617.788 105.376C616.764 104.8 615.956 103.992 615.364 102.952C614.788 101.912 614.5 100.712 614.5 99.352C614.5 97.992 614.796 96.792 615.388 95.752C615.996 94.712 616.82 93.912 617.86 93.352C618.9 92.776 620.06 92.488 621.34 92.488C622.62 92.488 623.78 92.776 624.82 93.352C625.86 93.912 626.676 94.712 627.268 95.752C627.876 96.792 628.18 97.992 628.18 99.352C628.18 100.712 627.868 101.912 627.244 102.952C626.636 103.992 625.804 104.8 624.748 105.376C623.708 105.936 622.54 106.216 621.244 106.216ZM621.244 103.288C621.852 103.288 622.42 103.144 622.948 102.856C623.492 102.552 623.924 102.104 624.244 101.512C624.564 100.92 624.724 100.2 624.724 99.352C624.724 98.088 624.388 97.12 623.716 96.448C623.06 95.76 622.252 95.416 621.292 95.416C620.332 95.416 619.524 95.76 618.868 96.448C618.228 97.12 617.908 98.088 617.908 99.352C617.908 100.616 618.22 101.592 618.844 102.28C619.484 102.952 620.284 103.288 621.244 103.288ZM647.396 92.512C649.028 92.512 650.34 93.016 651.332 94.024C652.34 95.016 652.844 96.408 652.844 98.2V106H649.484V98.656C649.484 97.616 649.22 96.824 648.692 96.28C648.164 95.72 647.444 95.44 646.532 95.44C645.62 95.44 644.892 95.72 644.348 96.28C643.82 96.824 643.556 97.616 643.556 98.656V106H640.196V98.656C640.196 97.616 639.932 96.824 639.404 96.28C638.876 95.72 638.156 95.44 637.244 95.44C636.316 95.44 635.58 95.72 635.036 96.28C634.508 96.824 634.244 97.616 634.244 98.656V106H630.884V92.704H634.244V94.312C634.676 93.752 635.228 93.312 635.9 92.992C636.588 92.672 637.34 92.512 638.156 92.512C639.196 92.512 640.124 92.736 640.94 93.184C641.756 93.616 642.388 94.24 642.836 95.056C643.268 94.288 643.892 93.672 644.708 93.208C645.54 92.744 646.436 92.512 647.396 92.512ZM659.633 94.648C660.065 94.008 660.657 93.488 661.409 93.088C662.177 92.688 663.049 92.488 664.025 92.488C665.161 92.488 666.185 92.768 667.097 93.328C668.025 93.888 668.753 94.688 669.281 95.728C669.825 96.752 670.097 97.944 670.097 99.304C670.097 100.664 669.825 101.872 669.281 102.928C668.753 103.968 668.025 104.776 667.097 105.352C666.185 105.928 665.161 106.216 664.025 106.216C663.033 106.216 662.161 106.024 661.409 105.64C660.673 105.24 660.081 104.728 659.633 104.104V106H656.273V88.24H659.633V94.648ZM666.665 99.304C666.665 98.504 666.497 97.816 666.161 97.24C665.841 96.648 665.409 96.2 664.865 95.896C664.337 95.592 663.761 95.44 663.137 95.44C662.529 95.44 661.953 95.6 661.409 95.92C660.881 96.224 660.449 96.672 660.113 97.264C659.793 97.856 659.633 98.552 659.633 99.352C659.633 100.152 659.793 100.848 660.113 101.44C660.449 102.032 660.881 102.488 661.409 102.808C661.953 103.112 662.529 103.264 663.137 103.264C663.761 103.264 664.337 103.104 664.865 102.784C665.409 102.464 665.841 102.008 666.161 101.416C666.497 100.824 666.665 100.12 666.665 99.304ZM671.914 99.304C671.914 97.96 672.178 96.768 672.706 95.728C673.25 94.688 673.978 93.888 674.89 93.328C675.818 92.768 676.85 92.488 677.986 92.488C678.978 92.488 679.842 92.688 680.578 93.088C681.33 93.488 681.93 93.992 682.378 94.6V92.704H685.762V106H682.378V104.056C681.946 104.68 681.346 105.2 680.578 105.616C679.826 106.016 678.954 106.216 677.962 106.216C676.842 106.216 675.818 105.928 674.89 105.352C673.978 104.776 673.25 103.968 672.706 102.928C672.178 101.872 671.914 100.664 671.914 99.304ZM682.378 99.352C682.378 98.536 682.218 97.84 681.898 97.264C681.578 96.672 681.146 96.224 680.602 95.92C680.058 95.6 679.474 95.44 678.85 95.44C678.226 95.44 677.65 95.592 677.122 95.896C676.594 96.2 676.162 96.648 675.826 97.24C675.506 97.816 675.346 98.504 675.346 99.304C675.346 100.104 675.506 100.808 675.826 101.416C676.162 102.008 676.594 102.464 677.122 102.784C677.666 103.104 678.242 103.264 678.85 103.264C679.474 103.264 680.058 103.112 680.602 102.808C681.146 102.488 681.578 102.04 681.898 101.464C682.218 100.872 682.378 100.168 682.378 99.352ZM696.652 92.512C698.236 92.512 699.516 93.016 700.492 94.024C701.468 95.016 701.956 96.408 701.956 98.2V106H698.596V98.656C698.596 97.6 698.332 96.792 697.804 96.232C697.276 95.656 696.556 95.368 695.644 95.368C694.716 95.368 693.98 95.656 693.436 96.232C692.908 96.792 692.644 97.6 692.644 98.656V106H689.284V92.704H692.644V94.36C693.092 93.784 693.66 93.336 694.348 93.016C695.052 92.68 695.82 92.512 696.652 92.512ZM710.599 92.488C711.591 92.488 712.463 92.688 713.215 93.088C713.967 93.472 714.559 93.976 714.991 94.6V92.704H718.375V106.096C718.375 107.328 718.127 108.424 717.631 109.384C717.135 110.36 716.391 111.128 715.399 111.688C714.407 112.264 713.207 112.552 711.799 112.552C709.911 112.552 708.359 112.112 707.143 111.232C705.943 110.352 705.263 109.152 705.103 107.632H708.439C708.615 108.24 708.991 108.72 709.567 109.072C710.159 109.44 710.871 109.624 711.703 109.624C712.679 109.624 713.471 109.328 714.079 108.736C714.687 108.16 714.991 107.28 714.991 106.096V104.032C714.559 104.656 713.959 105.176 713.191 105.592C712.439 106.008 711.575 106.216 710.599 106.216C709.479 106.216 708.455 105.928 707.527 105.352C706.599 104.776 705.863 103.968 705.319 102.928C704.791 101.872 704.527 100.664 704.527 99.304C704.527 97.96 704.791 96.768 705.319 95.728C705.863 94.688 706.591 93.888 707.503 93.328C708.431 92.768 709.463 92.488 710.599 92.488ZM714.991 99.352C714.991 98.536 714.831 97.84 714.511 97.264C714.191 96.672 713.759 96.224 713.215 95.92C712.671 95.6 712.087 95.44 711.463 95.44C710.839 95.44 710.263 95.592 709.735 95.896C709.207 96.2 708.775 96.648 708.439 97.24C708.119 97.816 707.959 98.504 707.959 99.304C707.959 100.104 708.119 100.808 708.439 101.416C708.775 102.008 709.207 102.464 709.735 102.784C710.279 103.104 710.855 103.264 711.463 103.264C712.087 103.264 712.671 103.112 713.215 102.808C713.759 102.488 714.191 102.04 714.511 101.464C714.831 100.872 714.991 100.168 714.991 99.352ZM732.944 106.216C731.856 106.216 730.88 106.024 730.016 105.64C729.152 105.24 728.464 104.704 727.952 104.032C727.456 103.36 727.184 102.616 727.136 101.8H730.52C730.584 102.312 730.832 102.736 731.264 103.072C731.712 103.408 732.264 103.576 732.92 103.576C733.56 103.576 734.056 103.448 734.408 103.192C734.776 102.936 734.96 102.608 734.96 102.208C734.96 101.776 734.736 101.456 734.288 101.248C733.856 101.024 733.16 100.784 732.2 100.528C731.208 100.288 730.392 100.04 729.752 99.784C729.128 99.528 728.584 99.136 728.12 98.608C727.672 98.08 727.448 97.368 727.448 96.472C727.448 95.736 727.656 95.064 728.072 94.456C728.504 93.848 729.112 93.368 729.896 93.016C730.696 92.664 731.632 92.488 732.704 92.488C734.288 92.488 735.552 92.888 736.496 93.688C737.44 94.472 737.96 95.536 738.056 96.88H734.84C734.792 96.352 734.568 95.936 734.168 95.632C733.784 95.312 733.264 95.152 732.608 95.152C732 95.152 731.528 95.264 731.192 95.488C730.872 95.712 730.712 96.024 730.712 96.424C730.712 96.872 730.936 97.216 731.384 97.456C731.832 97.68 732.528 97.912 733.472 98.152C734.432 98.392 735.224 98.64 735.848 98.896C736.472 99.152 737.008 99.552 737.456 100.096C737.92 100.624 738.16 101.328 738.176 102.208C738.176 102.976 737.96 103.664 737.528 104.272C737.112 104.88 736.504 105.36 735.704 105.712C734.92 106.048 734 106.216 732.944 106.216ZM753.726 92.704V106H750.342V104.32C749.91 104.896 749.342 105.352 748.638 105.688C747.95 106.008 747.198 106.168 746.382 106.168C745.342 106.168 744.422 105.952 743.622 105.52C742.822 105.072 742.19 104.424 741.726 103.576C741.278 102.712 741.054 101.688 741.054 100.504V92.704H744.414V100.024C744.414 101.08 744.678 101.896 745.206 102.472C745.734 103.032 746.454 103.312 747.366 103.312C748.294 103.312 749.022 103.032 749.55 102.472C750.078 101.896 750.342 101.08 750.342 100.024V92.704H753.726ZM756.417 99.304C756.417 97.96 756.681 96.768 757.209 95.728C757.753 94.688 758.481 93.888 759.393 93.328C760.321 92.768 761.353 92.488 762.489 92.488C763.481 92.488 764.345 92.688 765.081 93.088C765.833 93.488 766.433 93.992 766.881 94.6V92.704H770.265V106H766.881V104.056C766.449 104.68 765.849 105.2 765.081 105.616C764.329 106.016 763.457 106.216 762.465 106.216C761.345 106.216 760.321 105.928 759.393 105.352C758.481 104.776 757.753 103.968 757.209 102.928C756.681 101.872 756.417 100.664 756.417 99.304ZM766.881 99.352C766.881 98.536 766.721 97.84 766.401 97.264C766.081 96.672 765.649 96.224 765.105 95.92C764.561 95.6 763.977 95.44 763.353 95.44C762.729 95.44 762.153 95.592 761.625 95.896C761.097 96.2 760.665 96.648 760.329 97.24C760.009 97.816 759.849 98.504 759.849 99.304C759.849 100.104 760.009 100.808 760.329 101.416C760.665 102.008 761.097 102.464 761.625 102.784C762.169 103.104 762.745 103.264 763.353 103.264C763.977 103.264 764.561 103.112 765.105 102.808C765.649 102.488 766.081 102.04 766.401 101.464C766.721 100.872 766.881 100.168 766.881 99.352ZM777.147 94.768C777.579 94.064 778.139 93.512 778.827 93.112C779.531 92.712 780.331 92.512 781.227 92.512V96.04H780.339C779.283 96.04 778.483 96.288 777.939 96.784C777.411 97.28 777.147 98.144 777.147 99.376V106H773.787V92.704H777.147V94.768ZM782.866 99.304C782.866 97.96 783.13 96.768 783.658 95.728C784.202 94.688 784.93 93.888 785.842 93.328C786.77 92.768 787.802 92.488 788.938 92.488C789.93 92.488 790.794 92.688 791.53 93.088C792.282 93.488 792.882 93.992 793.33 94.6V92.704H796.714V106H793.33V104.056C792.898 104.68 792.298 105.2 791.53 105.616C790.778 106.016 789.906 106.216 788.914 106.216C787.794 106.216 786.77 105.928 785.842 105.352C784.93 104.776 784.202 103.968 783.658 102.928C783.13 101.872 782.866 100.664 782.866 99.304ZM793.33 99.352C793.33 98.536 793.17 97.84 792.85 97.264C792.53 96.672 792.098 96.224 791.554 95.92C791.01 95.6 790.426 95.44 789.802 95.44C789.178 95.44 788.602 95.592 788.074 95.896C787.546 96.2 787.114 96.648 786.778 97.24C786.458 97.816 786.298 98.504 786.298 99.304C786.298 100.104 786.458 100.808 786.778 101.416C787.114 102.008 787.546 102.464 788.074 102.784C788.618 103.104 789.194 103.264 789.802 103.264C790.426 103.264 791.01 103.112 791.554 102.808C792.098 102.488 792.53 102.04 792.85 101.464C793.17 100.872 793.33 100.168 793.33 99.352ZM805.33 99.304C805.33 97.96 805.594 96.768 806.122 95.728C806.666 94.688 807.402 93.888 808.33 93.328C809.258 92.768 810.29 92.488 811.426 92.488C812.29 92.488 813.114 92.68 813.898 93.064C814.682 93.432 815.306 93.928 815.77 94.552V88.24H819.178V106H815.77V104.032C815.354 104.688 814.77 105.216 814.018 105.616C813.266 106.016 812.394 106.216 811.402 106.216C810.282 106.216 809.258 105.928 808.33 105.352C807.402 104.776 806.666 103.968 806.122 102.928C805.594 101.872 805.33 100.664 805.33 99.304ZM815.794 99.352C815.794 98.536 815.634 97.84 815.314 97.264C814.994 96.672 814.562 96.224 814.018 95.92C813.474 95.6 812.89 95.44 812.266 95.44C811.642 95.44 811.066 95.592 810.538 95.896C810.01 96.2 809.578 96.648 809.242 97.24C808.922 97.816 808.762 98.504 808.762 99.304C808.762 100.104 808.922 100.808 809.242 101.416C809.578 102.008 810.01 102.464 810.538 102.784C811.082 103.104 811.658 103.264 812.266 103.264C812.89 103.264 813.474 103.112 814.018 102.808C814.562 102.488 814.994 102.04 815.314 101.464C815.634 100.872 815.794 100.168 815.794 99.352ZM821.836 99.304C821.836 97.96 822.1 96.768 822.628 95.728C823.172 94.688 823.9 93.888 824.812 93.328C825.74 92.768 826.772 92.488 827.908 92.488C828.9 92.488 829.764 92.688 830.5 93.088C831.252 93.488 831.852 93.992 832.3 94.6V92.704H835.684V106H832.3V104.056C831.868 104.68 831.268 105.2 830.5 105.616C829.748 106.016 828.876 106.216 827.884 106.216C826.764 106.216 825.74 105.928 824.812 105.352C823.9 104.776 823.172 103.968 822.628 102.928C822.1 101.872 821.836 100.664 821.836 99.304ZM832.3 99.352C832.3 98.536 832.14 97.84 831.82 97.264C831.5 96.672 831.068 96.224 830.524 95.92C829.98 95.6 829.396 95.44 828.772 95.44C828.148 95.44 827.572 95.592 827.044 95.896C826.516 96.2 826.084 96.648 825.748 97.24C825.428 97.816 825.268 98.504 825.268 99.304C825.268 100.104 825.428 100.808 825.748 101.416C826.084 102.008 826.516 102.464 827.044 102.784C827.588 103.104 828.164 103.264 828.772 103.264C829.396 103.264 829.98 103.112 830.524 102.808C831.068 102.488 831.5 102.04 831.82 101.464C832.14 100.872 832.3 100.168 832.3 99.352ZM842.565 88.24V106H839.205V88.24H842.565ZM845.261 99.304C845.261 97.96 845.525 96.768 846.053 95.728C846.597 94.688 847.325 93.888 848.237 93.328C849.165 92.768 850.197 92.488 851.333 92.488C852.325 92.488 853.189 92.688 853.925 93.088C854.677 93.488 855.277 93.992 855.725 94.6V92.704H859.109V106H855.725V104.056C855.293 104.68 854.693 105.2 853.925 105.616C853.173 106.016 852.301 106.216 851.309 106.216C850.189 106.216 849.165 105.928 848.237 105.352C847.325 104.776 846.597 103.968 846.053 102.928C845.525 101.872 845.261 100.664 845.261 99.304ZM855.725 99.352C855.725 98.536 855.565 97.84 855.245 97.264C854.925 96.672 854.493 96.224 853.949 95.92C853.405 95.6 852.821 95.44 852.197 95.44C851.573 95.44 850.997 95.592 850.469 95.896C849.941 96.2 849.509 96.648 849.173 97.24C848.853 97.816 848.693 98.504 848.693 99.304C848.693 100.104 848.853 100.808 849.173 101.416C849.509 102.008 849.941 102.464 850.469 102.784C851.013 103.104 851.589 103.264 852.197 103.264C852.821 103.264 853.405 103.112 853.949 102.808C854.493 102.488 854.925 102.04 855.245 101.464C855.565 100.872 855.725 100.168 855.725 99.352ZM879.143 92.512C880.775 92.512 882.087 93.016 883.079 94.024C884.087 95.016 884.591 96.408 884.591 98.2V106H881.231V98.656C881.231 97.616 880.967 96.824 880.439 96.28C879.911 95.72 879.191 95.44 878.279 95.44C877.367 95.44 876.639 95.72 876.095 96.28C875.567 96.824 875.303 97.616 875.303 98.656V106H871.943V98.656C871.943 97.616 871.679 96.824 871.151 96.28C870.623 95.72 869.903 95.44 868.991 95.44C868.063 95.44 867.327 95.72 866.783 96.28C866.255 96.824 865.991 97.616 865.991 98.656V106H862.631V92.704H865.991V94.312C866.423 93.752 866.975 93.312 867.647 92.992C868.335 92.672 869.087 92.512 869.903 92.512C870.943 92.512 871.871 92.736 872.687 93.184C873.503 93.616 874.135 94.24 874.583 95.056C875.015 94.288 875.639 93.672 876.455 93.208C877.287 92.744 878.183 92.512 879.143 92.512ZM56.016 139.624C56.448 139.016 57.04 138.512 57.792 138.112C58.56 137.696 59.432 137.488 60.408 137.488C61.544 137.488 62.568 137.768 63.48 138.328C64.408 138.888 65.136 139.688 65.664 140.728C66.208 141.752 66.48 142.944 66.48 144.304C66.48 145.664 66.208 146.872 65.664 147.928C65.136 148.968 64.408 149.776 63.48 150.352C62.568 150.928 61.544 151.216 60.408 151.216C59.432 151.216 58.568 151.016 57.816 150.616C57.08 150.216 56.48 149.712 56.016 149.104V157.336H52.656V137.704H56.016V139.624ZM63.048 144.304C63.048 143.504 62.88 142.816 62.544 142.24C62.224 141.648 61.792 141.2 61.248 140.896C60.72 140.592 60.144 140.44 59.52 140.44C58.912 140.44 58.336 140.6 57.792 140.92C57.264 141.224 56.832 141.672 56.496 142.264C56.176 142.856 56.016 143.552 56.016 144.352C56.016 145.152 56.176 145.848 56.496 146.44C56.832 147.032 57.264 147.488 57.792 147.808C58.336 148.112 58.912 148.264 59.52 148.264C60.144 148.264 60.72 148.104 61.248 147.784C61.792 147.464 62.224 147.008 62.544 146.416C62.88 145.824 63.048 145.12 63.048 144.304ZM81.5216 144.064C81.5216 144.544 81.4896 144.976 81.4256 145.36H71.7056C71.7856 146.32 72.1216 147.072 72.7136 147.616C73.3056 148.16 74.0336 148.432 74.8976 148.432C76.1456 148.432 77.0336 147.896 77.5616 146.824H81.1856C80.8016 148.104 80.0656 149.16 78.9776 149.992C77.8896 150.808 76.5536 151.216 74.9696 151.216C73.6896 151.216 72.5376 150.936 71.5136 150.376C70.5056 149.8 69.7136 148.992 69.1376 147.952C68.5776 146.912 68.2976 145.712 68.2976 144.352C68.2976 142.976 68.5776 141.768 69.1376 140.728C69.6976 139.688 70.4816 138.888 71.4896 138.328C72.4976 137.768 73.6576 137.488 74.9696 137.488C76.2336 137.488 77.3616 137.76 78.3536 138.304C79.3616 138.848 80.1376 139.624 80.6816 140.632C81.2416 141.624 81.5216 142.768 81.5216 144.064ZM78.0416 143.104C78.0256 142.24 77.7136 141.552 77.1056 141.04C76.4976 140.512 75.7536 140.248 74.8736 140.248C74.0416 140.248 73.3376 140.504 72.7616 141.016C72.2016 141.512 71.8576 142.208 71.7296 143.104H78.0416ZM91.5821 137.512C93.1661 137.512 94.4461 138.016 95.4221 139.024C96.3981 140.016 96.8861 141.408 96.8861 143.2V151H93.5261V143.656C93.5261 142.6 93.2621 141.792 92.7341 141.232C92.2061 140.656 91.4861 140.368 90.5741 140.368C89.6461 140.368 88.9101 140.656 88.3661 141.232C87.8381 141.792 87.5741 142.6 87.5741 143.656V151H84.2141V137.704H87.5741V139.36C88.0221 138.784 88.5901 138.336 89.2781 138.016C89.9821 137.68 90.7501 137.512 91.5821 137.512ZM99.4573 144.352C99.4573 142.976 99.7373 141.776 100.297 140.752C100.857 139.712 101.633 138.912 102.625 138.352C103.617 137.776 104.753 137.488 106.033 137.488C107.681 137.488 109.041 137.904 110.113 138.736C111.201 139.552 111.929 140.704 112.297 142.192H108.673C108.481 141.616 108.153 141.168 107.689 140.848C107.241 140.512 106.681 140.344 106.009 140.344C105.049 140.344 104.289 140.696 103.729 141.4C103.169 142.088 102.889 143.072 102.889 144.352C102.889 145.616 103.169 146.6 103.729 147.304C104.289 147.992 105.049 148.336 106.009 148.336C107.369 148.336 108.257 147.728 108.673 146.512H112.297C111.929 147.952 111.201 149.096 110.113 149.944C109.025 150.792 107.665 151.216 106.033 151.216C104.753 151.216 103.617 150.936 102.625 150.376C101.633 149.8 100.857 149 100.297 147.976C99.7373 146.936 99.4573 145.728 99.4573 144.352ZM114.135 144.304C114.135 142.96 114.399 141.768 114.927 140.728C115.471 139.688 116.199 138.888 117.111 138.328C118.039 137.768 119.071 137.488 120.207 137.488C121.199 137.488 122.063 137.688 122.799 138.088C123.551 138.488 124.151 138.992 124.599 139.6V137.704H127.983V151H124.599V149.056C124.167 149.68 123.567 150.2 122.799 150.616C122.047 151.016 121.175 151.216 120.183 151.216C119.063 151.216 118.039 150.928 117.111 150.352C116.199 149.776 115.471 148.968 114.927 147.928C114.399 146.872 114.135 145.664 114.135 144.304ZM124.599 144.352C124.599 143.536 124.439 142.84 124.119 142.264C123.799 141.672 123.367 141.224 122.823 140.92C122.279 140.6 121.695 140.44 121.071 140.44C120.447 140.44 119.871 140.592 119.343 140.896C118.815 141.2 118.383 141.648 118.047 142.24C117.727 142.816 117.567 143.504 117.567 144.304C117.567 145.104 117.727 145.808 118.047 146.416C118.383 147.008 118.815 147.464 119.343 147.784C119.887 148.104 120.463 148.264 121.071 148.264C121.695 148.264 122.279 148.112 122.823 147.808C123.367 147.488 123.799 147.04 124.119 146.464C124.439 145.872 124.599 145.168 124.599 144.352ZM134.864 139.768C135.296 139.064 135.856 138.512 136.544 138.112C137.248 137.712 138.048 137.512 138.944 137.512V141.04H138.056C137 141.04 136.2 141.288 135.656 141.784C135.128 142.28 134.864 143.144 134.864 144.376V151H131.504V137.704H134.864V139.768ZM143.152 136.12C142.56 136.12 142.064 135.936 141.664 135.568C141.28 135.184 141.088 134.712 141.088 134.152C141.088 133.592 141.28 133.128 141.664 132.76C142.064 132.376 142.56 132.184 143.152 132.184C143.744 132.184 144.232 132.376 144.616 132.76C145.016 133.128 145.216 133.592 145.216 134.152C145.216 134.712 145.016 135.184 144.616 135.568C144.232 135.936 143.744 136.12 143.152 136.12ZM144.808 137.704V151H141.448V137.704H144.808ZM147.503 144.304C147.503 142.96 147.767 141.768 148.295 140.728C148.839 139.688 149.567 138.888 150.479 138.328C151.407 137.768 152.439 137.488 153.575 137.488C154.567 137.488 155.431 137.688 156.167 138.088C156.919 138.488 157.519 138.992 157.967 139.6V137.704H161.351V151H157.967V149.056C157.535 149.68 156.935 150.2 156.167 150.616C155.415 151.016 154.543 151.216 153.551 151.216C152.431 151.216 151.407 150.928 150.479 150.352C149.567 149.776 148.839 148.968 148.295 147.928C147.767 146.872 147.503 145.664 147.503 144.304ZM157.967 144.352C157.967 143.536 157.807 142.84 157.487 142.264C157.167 141.672 156.735 141.224 156.191 140.92C155.647 140.6 155.063 140.44 154.439 140.44C153.815 140.44 153.239 140.592 152.711 140.896C152.183 141.2 151.751 141.648 151.415 142.24C151.095 142.816 150.935 143.504 150.935 144.304C150.935 145.104 151.095 145.808 151.415 146.416C151.751 147.008 152.183 147.464 152.711 147.784C153.255 148.104 153.831 148.264 154.439 148.264C155.063 148.264 155.647 148.112 156.191 147.808C156.735 147.488 157.167 147.04 157.487 146.464C157.807 145.872 157.967 145.168 157.967 144.352ZM172.241 137.512C173.825 137.512 175.105 138.016 176.081 139.024C177.057 140.016 177.545 141.408 177.545 143.2V151H174.185V143.656C174.185 142.6 173.921 141.792 173.393 141.232C172.865 140.656 172.145 140.368 171.233 140.368C170.305 140.368 169.569 140.656 169.025 141.232C168.497 141.792 168.233 142.6 168.233 143.656V151H164.873V137.704H168.233V139.36C168.681 138.784 169.249 138.336 169.937 138.016C170.641 137.68 171.409 137.512 172.241 137.512ZM190.299 139.648C190.731 139.008 191.323 138.488 192.075 138.088C192.843 137.688 193.715 137.488 194.691 137.488C195.827 137.488 196.851 137.768 197.763 138.328C198.691 138.888 199.419 139.688 199.947 140.728C200.491 141.752 200.763 142.944 200.763 144.304C200.763 145.664 200.491 146.872 199.947 147.928C199.419 148.968 198.691 149.776 197.763 150.352C196.851 150.928 195.827 151.216 194.691 151.216C193.699 151.216 192.827 151.024 192.075 150.64C191.339 150.24 190.747 149.728 190.299 149.104V151H186.939V133.24H190.299V139.648ZM197.331 144.304C197.331 143.504 197.163 142.816 196.827 142.24C196.507 141.648 196.075 141.2 195.531 140.896C195.003 140.592 194.427 140.44 193.803 140.44C193.195 140.44 192.619 140.6 192.075 140.92C191.547 141.224 191.115 141.672 190.779 142.264C190.459 142.856 190.299 143.552 190.299 144.352C190.299 145.152 190.459 145.848 190.779 146.44C191.115 147.032 191.547 147.488 192.075 147.808C192.619 148.112 193.195 148.264 193.803 148.264C194.427 148.264 195.003 148.104 195.531 147.784C196.075 147.464 196.507 147.008 196.827 146.416C197.163 145.824 197.331 145.12 197.331 144.304ZM215.804 144.064C215.804 144.544 215.772 144.976 215.708 145.36H205.988C206.068 146.32 206.404 147.072 206.996 147.616C207.588 148.16 208.316 148.432 209.18 148.432C210.428 148.432 211.316 147.896 211.844 146.824H215.468C215.084 148.104 214.348 149.16 213.26 149.992C212.172 150.808 210.836 151.216 209.252 151.216C207.972 151.216 206.82 150.936 205.796 150.376C204.788 149.8 203.996 148.992 203.42 147.952C202.86 146.912 202.58 145.712 202.58 144.352C202.58 142.976 202.86 141.768 203.42 140.728C203.98 139.688 204.764 138.888 205.772 138.328C206.78 137.768 207.94 137.488 209.252 137.488C210.516 137.488 211.644 137.76 212.636 138.304C213.644 138.848 214.42 139.624 214.964 140.632C215.524 141.624 215.804 142.768 215.804 144.064ZM212.324 143.104C212.308 142.24 211.996 141.552 211.388 141.04C210.78 140.512 210.036 140.248 209.156 140.248C208.324 140.248 207.62 140.504 207.044 141.016C206.484 141.512 206.14 142.208 206.012 143.104H212.324ZM225.865 137.512C227.449 137.512 228.729 138.016 229.705 139.024C230.681 140.016 231.169 141.408 231.169 143.2V151H227.809V143.656C227.809 142.6 227.545 141.792 227.017 141.232C226.489 140.656 225.769 140.368 224.857 140.368C223.929 140.368 223.193 140.656 222.649 141.232C222.121 141.792 221.857 142.6 221.857 143.656V151H218.497V137.704H221.857V139.36C222.305 138.784 222.873 138.336 223.561 138.016C224.265 137.68 225.033 137.512 225.865 137.512ZM233.74 144.304C233.74 142.96 234.004 141.768 234.532 140.728C235.076 139.688 235.812 138.888 236.74 138.328C237.668 137.768 238.7 137.488 239.836 137.488C240.7 137.488 241.524 137.68 242.308 138.064C243.092 138.432 243.716 138.928 244.18 139.552V133.24H247.588V151H244.18V149.032C243.764 149.688 243.18 150.216 242.428 150.616C241.676 151.016 240.804 151.216 239.812 151.216C238.692 151.216 237.668 150.928 236.74 150.352C235.812 149.776 235.076 148.968 234.532 147.928C234.004 146.872 233.74 145.664 233.74 144.304ZM244.204 144.352C244.204 143.536 244.044 142.84 243.724 142.264C243.404 141.672 242.972 141.224 242.428 140.92C241.884 140.6 241.3 140.44 240.676 140.44C240.052 140.44 239.476 140.592 238.948 140.896C238.42 141.2 237.988 141.648 237.652 142.24C237.332 142.816 237.172 143.504 237.172 144.304C237.172 145.104 237.332 145.808 237.652 146.416C237.988 147.008 238.42 147.464 238.948 147.784C239.492 148.104 240.068 148.264 240.676 148.264C241.3 148.264 241.884 148.112 242.428 147.808C242.972 147.488 243.404 147.04 243.724 146.464C244.044 145.872 244.204 145.168 244.204 144.352ZM250.246 144.304C250.246 142.96 250.51 141.768 251.038 140.728C251.582 139.688 252.31 138.888 253.222 138.328C254.15 137.768 255.182 137.488 256.318 137.488C257.31 137.488 258.174 137.688 258.91 138.088C259.662 138.488 260.262 138.992 260.71 139.6V137.704H264.094V151H260.71V149.056C260.278 149.68 259.678 150.2 258.91 150.616C258.158 151.016 257.286 151.216 256.294 151.216C255.174 151.216 254.15 150.928 253.222 150.352C252.31 149.776 251.582 148.968 251.038 147.928C250.51 146.872 250.246 145.664 250.246 144.304ZM260.71 144.352C260.71 143.536 260.55 142.84 260.23 142.264C259.91 141.672 259.478 141.224 258.934 140.92C258.39 140.6 257.806 140.44 257.182 140.44C256.558 140.44 255.982 140.592 255.454 140.896C254.926 141.2 254.494 141.648 254.158 142.24C253.838 142.816 253.678 143.504 253.678 144.304C253.678 145.104 253.838 145.808 254.158 146.416C254.494 147.008 254.926 147.464 255.454 147.784C255.998 148.104 256.574 148.264 257.182 148.264C257.806 148.264 258.39 148.112 258.934 147.808C259.478 147.488 259.91 147.04 260.23 146.464C260.55 145.872 260.71 145.168 260.71 144.352ZM272.71 144.304C272.71 142.96 272.974 141.768 273.502 140.728C274.046 139.688 274.782 138.888 275.71 138.328C276.638 137.768 277.67 137.488 278.806 137.488C279.67 137.488 280.494 137.68 281.278 138.064C282.062 138.432 282.686 138.928 283.15 139.552V133.24H286.558V151H283.15V149.032C282.734 149.688 282.15 150.216 281.398 150.616C280.646 151.016 279.774 151.216 278.782 151.216C277.662 151.216 276.638 150.928 275.71 150.352C274.782 149.776 274.046 148.968 273.502 147.928C272.974 146.872 272.71 145.664 272.71 144.304ZM283.174 144.352C283.174 143.536 283.014 142.84 282.694 142.264C282.374 141.672 281.942 141.224 281.398 140.92C280.854 140.6 280.27 140.44 279.646 140.44C279.022 140.44 278.446 140.592 277.918 140.896C277.39 141.2 276.958 141.648 276.622 142.24C276.302 142.816 276.142 143.504 276.142 144.304C276.142 145.104 276.302 145.808 276.622 146.416C276.958 147.008 277.39 147.464 277.918 147.784C278.462 148.104 279.038 148.264 279.646 148.264C280.27 148.264 280.854 148.112 281.398 147.808C281.942 147.488 282.374 147.04 282.694 146.464C283.014 145.872 283.174 145.168 283.174 144.352ZM291.784 136.12C291.192 136.12 290.696 135.936 290.296 135.568C289.912 135.184 289.72 134.712 289.72 134.152C289.72 133.592 289.912 133.128 290.296 132.76C290.696 132.376 291.192 132.184 291.784 132.184C292.376 132.184 292.864 132.376 293.248 132.76C293.648 133.128 293.848 133.592 293.848 134.152C293.848 134.712 293.648 135.184 293.248 135.568C292.864 135.936 292.376 136.12 291.784 136.12ZM293.44 137.704V151H290.08V137.704H293.44ZM306.318 139.648C306.75 139.008 307.342 138.488 308.094 138.088C308.862 137.688 309.734 137.488 310.71 137.488C311.846 137.488 312.87 137.768 313.782 138.328C314.71 138.888 315.438 139.688 315.966 140.728C316.51 141.752 316.782 142.944 316.782 144.304C316.782 145.664 316.51 146.872 315.966 147.928C315.438 148.968 314.71 149.776 313.782 150.352C312.87 150.928 311.846 151.216 310.71 151.216C309.718 151.216 308.846 151.024 308.094 150.64C307.358 150.24 306.766 149.728 306.318 149.104V151H302.958V133.24H306.318V139.648ZM313.35 144.304C313.35 143.504 313.182 142.816 312.846 142.24C312.526 141.648 312.094 141.2 311.55 140.896C311.022 140.592 310.446 140.44 309.822 140.44C309.214 140.44 308.638 140.6 308.094 140.92C307.566 141.224 307.134 141.672 306.798 142.264C306.478 142.856 306.318 143.552 306.318 144.352C306.318 145.152 306.478 145.848 306.798 146.44C307.134 147.032 307.566 147.488 308.094 147.808C308.638 148.112 309.214 148.264 309.822 148.264C310.446 148.264 311.022 148.104 311.55 147.784C312.094 147.464 312.526 147.008 312.846 146.416C313.182 145.824 313.35 145.12 313.35 144.304ZM318.6 144.304C318.6 142.96 318.864 141.768 319.392 140.728C319.936 139.688 320.664 138.888 321.576 138.328C322.504 137.768 323.536 137.488 324.672 137.488C325.664 137.488 326.528 137.688 327.264 138.088C328.016 138.488 328.616 138.992 329.064 139.6V137.704H332.448V151H329.064V149.056C328.632 149.68 328.032 150.2 327.264 150.616C326.512 151.016 325.64 151.216 324.648 151.216C323.528 151.216 322.504 150.928 321.576 150.352C320.664 149.776 319.936 148.968 319.392 147.928C318.864 146.872 318.6 145.664 318.6 144.304ZM329.064 144.352C329.064 143.536 328.904 142.84 328.584 142.264C328.264 141.672 327.832 141.224 327.288 140.92C326.744 140.6 326.16 140.44 325.536 140.44C324.912 140.44 324.336 140.592 323.808 140.896C323.28 141.2 322.848 141.648 322.512 142.24C322.192 142.816 322.032 143.504 322.032 144.304C322.032 145.104 322.192 145.808 322.512 146.416C322.848 147.008 323.28 147.464 323.808 147.784C324.352 148.104 324.928 148.264 325.536 148.264C326.16 148.264 326.744 148.112 327.288 147.808C327.832 147.488 328.264 147.04 328.584 146.464C328.904 145.872 329.064 145.168 329.064 144.352ZM354.401 137.704L350.513 151H346.889L344.465 141.712L342.041 151H338.393L334.481 137.704H337.889L340.241 147.832L342.785 137.704H346.337L348.833 147.808L351.185 137.704H354.401ZM355.595 144.304C355.595 142.96 355.859 141.768 356.387 140.728C356.931 139.688 357.659 138.888 358.571 138.328C359.499 137.768 360.531 137.488 361.667 137.488C362.659 137.488 363.523 137.688 364.259 138.088C365.011 138.488 365.611 138.992 366.059 139.6V137.704H369.443V151H366.059V149.056C365.627 149.68 365.027 150.2 364.259 150.616C363.507 151.016 362.635 151.216 361.643 151.216C360.523 151.216 359.499 150.928 358.571 150.352C357.659 149.776 356.931 148.968 356.387 147.928C355.859 146.872 355.595 145.664 355.595 144.304ZM366.059 144.352C366.059 143.536 365.899 142.84 365.579 142.264C365.259 141.672 364.827 141.224 364.283 140.92C363.739 140.6 363.155 140.44 362.531 140.44C361.907 140.44 361.331 140.592 360.803 140.896C360.275 141.2 359.843 141.648 359.507 142.24C359.187 142.816 359.027 143.504 359.027 144.304C359.027 145.104 359.187 145.808 359.507 146.416C359.843 147.008 360.275 147.464 360.803 147.784C361.347 148.104 361.923 148.264 362.531 148.264C363.155 148.264 363.739 148.112 364.283 147.808C364.827 147.488 365.259 147.04 365.579 146.464C365.899 145.872 366.059 145.168 366.059 144.352ZM380.453 137.512C381.461 137.512 382.357 137.736 383.141 138.184C383.925 138.616 384.533 139.264 384.965 140.128C385.413 140.976 385.637 142 385.637 143.2V151H382.277V143.656C382.277 142.6 382.013 141.792 381.485 141.232C380.957 140.656 380.237 140.368 379.325 140.368C378.397 140.368 377.661 140.656 377.117 141.232C376.589 141.792 376.325 142.6 376.325 143.656V151H372.965V133.24H376.325V139.36C376.757 138.784 377.333 138.336 378.053 138.016C378.773 137.68 379.573 137.512 380.453 137.512ZM398.391 133.24V151H395.031V133.24H398.391ZM401.087 144.304C401.087 142.96 401.351 141.768 401.879 140.728C402.423 139.688 403.151 138.888 404.063 138.328C404.991 137.768 406.023 137.488 407.159 137.488C408.151 137.488 409.015 137.688 409.751 138.088C410.503 138.488 411.103 138.992 411.551 139.6V137.704H414.935V151H411.551V149.056C411.119 149.68 410.519 150.2 409.751 150.616C408.999 151.016 408.127 151.216 407.135 151.216C406.015 151.216 404.991 150.928 404.063 150.352C403.151 149.776 402.423 148.968 401.879 147.928C401.351 146.872 401.087 145.664 401.087 144.304ZM411.551 144.352C411.551 143.536 411.391 142.84 411.071 142.264C410.751 141.672 410.319 141.224 409.775 140.92C409.231 140.6 408.647 140.44 408.023 140.44C407.399 140.44 406.823 140.592 406.295 140.896C405.767 141.2 405.335 141.648 404.999 142.24C404.679 142.816 404.519 143.504 404.519 144.304C404.519 145.104 404.679 145.808 404.999 146.416C405.335 147.008 405.767 147.464 406.295 147.784C406.839 148.104 407.415 148.264 408.023 148.264C408.647 148.264 409.231 148.112 409.775 147.808C410.319 147.488 410.751 147.04 411.071 146.464C411.391 145.872 411.551 145.168 411.551 144.352ZM431.008 137.704V151H427.624V149.32C427.192 149.896 426.624 150.352 425.92 150.688C425.232 151.008 424.48 151.168 423.664 151.168C422.624 151.168 421.704 150.952 420.904 150.52C420.104 150.072 419.472 149.424 419.008 148.576C418.56 147.712 418.336 146.688 418.336 145.504V137.704H421.696V145.024C421.696 146.08 421.96 146.896 422.488 147.472C423.016 148.032 423.736 148.312 424.648 148.312C425.576 148.312 426.304 148.032 426.832 147.472C427.36 146.896 427.624 146.08 427.624 145.024V137.704H431.008ZM438.476 140.464V146.896C438.476 147.344 438.58 147.672 438.788 147.88C439.012 148.072 439.38 148.168 439.892 148.168H441.452V151H439.34C436.508 151 435.092 149.624 435.092 146.872V140.464H433.508V137.704H435.092V134.416H438.476V137.704H441.452V140.464H438.476ZM448.452 133.96L448.068 145.552H445.236L444.828 133.96H448.452ZM446.724 151.168C446.116 151.168 445.612 150.984 445.212 150.616C444.828 150.232 444.636 149.76 444.636 149.2C444.636 148.64 444.828 148.176 445.212 147.808C445.612 147.424 446.116 147.232 446.724 147.232C447.316 147.232 447.804 147.424 448.188 147.808C448.572 148.176 448.764 148.64 448.764 149.2C448.764 149.76 448.572 150.232 448.188 150.616C447.804 150.984 447.316 151.168 446.724 151.168Z" fill="black"/>
<path d="M0 15C0 6.71573 6.71573 0 15 0H286C294.284 0 301 6.71573 301 15V41C301 49.2843 294.284 56 286 56H15C6.71573 56 0 49.2843 0 41V15Z" fill="#9EBBA4"/>
<path d="M69.92 18.248V35H66.56V24.104L62.072 35H59.528L55.016 24.104V35H51.656V18.248H55.472L60.8 30.704L66.128 18.248H69.92ZM85.8419 28.064C85.8419 28.544 85.8099 28.976 85.7459 29.36H76.0259C76.1059 30.32 76.4419 31.072 77.0339 31.616C77.6259 32.16 78.3539 32.432 79.2179 32.432C80.4659 32.432 81.3539 31.896 81.8819 30.824H85.5059C85.1219 32.104 84.3859 33.16 83.2979 33.992C82.2099 34.808 80.8739 35.216 79.2899 35.216C78.0099 35.216 76.8579 34.936 75.8339 34.376C74.8259 33.8 74.0339 32.992 73.4579 31.952C72.8979 30.912 72.6179 29.712 72.6179 28.352C72.6179 26.976 72.8979 25.768 73.4579 24.728C74.0179 23.688 74.8019 22.888 75.8099 22.328C76.8179 21.768 77.9779 21.488 79.2899 21.488C80.5539 21.488 81.6819 21.76 82.6739 22.304C83.6819 22.848 84.4579 23.624 85.0019 24.632C85.5619 25.624 85.8419 26.768 85.8419 28.064ZM82.3619 27.104C82.3459 26.24 82.0339 25.552 81.4259 25.04C80.8179 24.512 80.0739 24.248 79.1939 24.248C78.3619 24.248 77.6579 24.504 77.0819 25.016C76.5219 25.512 76.1779 26.208 76.0499 27.104H82.3619ZM95.9024 21.512C97.4864 21.512 98.7664 22.016 99.7424 23.024C100.718 24.016 101.206 25.408 101.206 27.2V35H97.8464V27.656C97.8464 26.6 97.5824 25.792 97.0544 25.232C96.5264 24.656 95.8064 24.368 94.8944 24.368C93.9664 24.368 93.2304 24.656 92.6864 25.232C92.1584 25.792 91.8944 26.6 91.8944 27.656V35H88.5344V21.704H91.8944V23.36C92.3424 22.784 92.9104 22.336 93.5984 22.016C94.3024 21.68 95.0704 21.512 95.9024 21.512ZM109.85 21.488C110.842 21.488 111.714 21.688 112.466 22.088C113.218 22.472 113.81 22.976 114.242 23.6V21.704H117.626V35.096C117.626 36.328 117.378 37.424 116.882 38.384C116.386 39.36 115.642 40.128 114.65 40.688C113.658 41.264 112.458 41.552 111.05 41.552C109.162 41.552 107.61 41.112 106.394 40.232C105.194 39.352 104.514 38.152 104.354 36.632H107.69C107.866 37.24 108.242 37.72 108.818 38.072C109.41 38.44 110.122 38.624 110.954 38.624C111.93 38.624 112.722 38.328 113.33 37.736C113.938 37.16 114.242 36.28 114.242 35.096V33.032C113.81 33.656 113.21 34.176 112.442 34.592C111.69 35.008 110.826 35.216 109.85 35.216C108.73 35.216 107.706 34.928 106.778 34.352C105.85 33.776 105.114 32.968 104.57 31.928C104.042 30.872 103.778 29.664 103.778 28.304C103.778 26.96 104.042 25.768 104.57 24.728C105.114 23.688 105.842 22.888 106.754 22.328C107.682 21.768 108.714 21.488 109.85 21.488ZM114.242 28.352C114.242 27.536 114.082 26.84 113.762 26.264C113.442 25.672 113.01 25.224 112.466 24.92C111.922 24.6 111.338 24.44 110.714 24.44C110.09 24.44 109.514 24.592 108.986 24.896C108.458 25.2 108.026 25.648 107.69 26.24C107.37 26.816 107.21 27.504 107.21 28.304C107.21 29.104 107.37 29.808 107.69 30.416C108.026 31.008 108.458 31.464 108.986 31.784C109.53 32.104 110.106 32.264 110.714 32.264C111.338 32.264 111.922 32.112 112.466 31.808C113.01 31.488 113.442 31.04 113.762 30.464C114.082 29.872 114.242 29.168 114.242 28.352ZM133.507 28.064C133.507 28.544 133.475 28.976 133.411 29.36H123.691C123.771 30.32 124.107 31.072 124.699 31.616C125.291 32.16 126.019 32.432 126.883 32.432C128.131 32.432 129.019 31.896 129.547 30.824H133.171C132.787 32.104 132.051 33.16 130.963 33.992C129.875 34.808 128.539 35.216 126.955 35.216C125.675 35.216 124.523 34.936 123.499 34.376C122.491 33.8 121.699 32.992 121.123 31.952C120.563 30.912 120.283 29.712 120.283 28.352C120.283 26.976 120.563 25.768 121.123 24.728C121.683 23.688 122.467 22.888 123.475 22.328C124.483 21.768 125.643 21.488 126.955 21.488C128.219 21.488 129.347 21.76 130.339 22.304C131.347 22.848 132.123 23.624 132.667 24.632C133.227 25.624 133.507 26.768 133.507 28.064ZM130.027 27.104C130.011 26.24 129.699 25.552 129.091 25.04C128.483 24.512 127.739 24.248 126.859 24.248C126.027 24.248 125.323 24.504 124.747 25.016C124.187 25.512 123.843 26.208 123.715 27.104H130.027ZM144.072 35L139.56 29.336V35H136.2V17.24H139.56V27.344L144.024 21.704H148.392L142.536 28.376L148.44 35H144.072ZM155.543 35.216C154.455 35.216 153.479 35.024 152.615 34.64C151.751 34.24 151.063 33.704 150.551 33.032C150.055 32.36 149.783 31.616 149.735 30.8H153.119C153.183 31.312 153.431 31.736 153.863 32.072C154.311 32.408 154.863 32.576 155.519 32.576C156.159 32.576 156.655 32.448 157.007 32.192C157.375 31.936 157.559 31.608 157.559 31.208C157.559 30.776 157.335 30.456 156.887 30.248C156.455 30.024 155.759 29.784 154.799 29.528C153.807 29.288 152.991 29.04 152.351 28.784C151.727 28.528 151.183 28.136 150.719 27.608C150.271 27.08 150.047 26.368 150.047 25.472C150.047 24.736 150.255 24.064 150.671 23.456C151.103 22.848 151.711 22.368 152.495 22.016C153.295 21.664 154.231 21.488 155.303 21.488C156.887 21.488 158.151 21.888 159.095 22.688C160.039 23.472 160.559 24.536 160.655 25.88H157.439C157.391 25.352 157.167 24.936 156.767 24.632C156.383 24.312 155.863 24.152 155.207 24.152C154.599 24.152 154.127 24.264 153.791 24.488C153.471 24.712 153.311 25.024 153.311 25.424C153.311 25.872 153.535 26.216 153.983 26.456C154.431 26.68 155.127 26.912 156.071 27.152C157.031 27.392 157.823 27.64 158.447 27.896C159.071 28.152 159.607 28.552 160.055 29.096C160.519 29.624 160.759 30.328 160.775 31.208C160.775 31.976 160.559 32.664 160.127 33.272C159.711 33.88 159.103 34.36 158.303 34.712C157.519 35.048 156.599 35.216 155.543 35.216ZM167.134 23.624C167.566 23.016 168.158 22.512 168.91 22.112C169.678 21.696 170.55 21.488 171.526 21.488C172.662 21.488 173.686 21.768 174.598 22.328C175.526 22.888 176.254 23.688 176.782 24.728C177.326 25.752 177.598 26.944 177.598 28.304C177.598 29.664 177.326 30.872 176.782 31.928C176.254 32.968 175.526 33.776 174.598 34.352C173.686 34.928 172.662 35.216 171.526 35.216C170.55 35.216 169.686 35.016 168.934 34.616C168.198 34.216 167.598 33.712 167.134 33.104V41.336H163.774V21.704H167.134V23.624ZM174.166 28.304C174.166 27.504 173.998 26.816 173.662 26.24C173.342 25.648 172.91 25.2 172.366 24.896C171.838 24.592 171.262 24.44 170.638 24.44C170.03 24.44 169.454 24.6 168.91 24.92C168.382 25.224 167.95 25.672 167.614 26.264C167.294 26.856 167.134 27.552 167.134 28.352C167.134 29.152 167.294 29.848 167.614 30.44C167.95 31.032 168.382 31.488 168.91 31.808C169.454 32.112 170.03 32.264 170.638 32.264C171.262 32.264 171.838 32.104 172.366 31.784C172.91 31.464 173.342 31.008 173.662 30.416C173.998 29.824 174.166 29.12 174.166 28.304ZM183.639 17.24V35H180.279V17.24H183.639ZM193.103 35.216C191.823 35.216 190.671 34.936 189.647 34.376C188.623 33.8 187.815 32.992 187.223 31.952C186.647 30.912 186.359 29.712 186.359 28.352C186.359 26.992 186.655 25.792 187.247 24.752C187.855 23.712 188.679 22.912 189.719 22.352C190.759 21.776 191.919 21.488 193.199 21.488C194.479 21.488 195.639 21.776 196.679 22.352C197.719 22.912 198.535 23.712 199.127 24.752C199.735 25.792 200.039 26.992 200.039 28.352C200.039 29.712 199.727 30.912 199.103 31.952C198.495 32.992 197.663 33.8 196.607 34.376C195.567 34.936 194.399 35.216 193.103 35.216ZM193.103 32.288C193.711 32.288 194.279 32.144 194.807 31.856C195.351 31.552 195.783 31.104 196.103 30.512C196.423 29.92 196.583 29.2 196.583 28.352C196.583 27.088 196.247 26.12 195.575 25.448C194.919 24.76 194.111 24.416 193.151 24.416C192.191 24.416 191.383 24.76 190.727 25.448C190.087 26.12 189.767 27.088 189.767 28.352C189.767 29.616 190.079 30.592 190.703 31.28C191.343 31.952 192.143 32.288 193.103 32.288ZM206.103 23.768C206.535 23.064 207.095 22.512 207.783 22.112C208.487 21.712 209.287 21.512 210.183 21.512V25.04H209.295C208.239 25.04 207.439 25.288 206.895 25.784C206.367 26.28 206.103 27.144 206.103 28.376V35H202.743V21.704H206.103V23.768ZM211.823 28.304C211.823 26.96 212.087 25.768 212.615 24.728C213.159 23.688 213.887 22.888 214.799 22.328C215.727 21.768 216.759 21.488 217.895 21.488C218.887 21.488 219.751 21.688 220.487 22.088C221.239 22.488 221.839 22.992 222.287 23.6V21.704H225.671V35H222.287V33.056C221.855 33.68 221.255 34.2 220.487 34.616C219.735 35.016 218.863 35.216 217.871 35.216C216.751 35.216 215.727 34.928 214.799 34.352C213.887 33.776 213.159 32.968 212.615 31.928C212.087 30.872 211.823 29.664 211.823 28.304ZM222.287 28.352C222.287 27.536 222.127 26.84 221.807 26.264C221.487 25.672 221.055 25.224 220.511 24.92C219.967 24.6 219.383 24.44 218.759 24.44C218.135 24.44 217.559 24.592 217.031 24.896C216.503 25.2 216.071 25.648 215.735 26.24C215.415 26.816 215.255 27.504 215.255 28.304C215.255 29.104 215.415 29.808 215.735 30.416C216.071 31.008 216.503 31.464 217.031 31.784C217.575 32.104 218.151 32.264 218.759 32.264C219.383 32.264 219.967 32.112 220.511 31.808C221.055 31.488 221.487 31.04 221.807 30.464C222.127 29.872 222.287 29.168 222.287 28.352ZM234.28 35.216C233.192 35.216 232.216 35.024 231.352 34.64C230.488 34.24 229.8 33.704 229.288 33.032C228.792 32.36 228.52 31.616 228.472 30.8H231.856C231.92 31.312 232.168 31.736 232.6 32.072C233.048 32.408 233.6 32.576 234.256 32.576C234.896 32.576 235.392 32.448 235.744 32.192C236.112 31.936 236.296 31.608 236.296 31.208C236.296 30.776 236.072 30.456 235.624 30.248C235.192 30.024 234.496 29.784 233.536 29.528C232.544 29.288 231.728 29.04 231.088 28.784C230.464 28.528 229.92 28.136 229.456 27.608C229.008 27.08 228.784 26.368 228.784 25.472C228.784 24.736 228.992 24.064 229.408 23.456C229.84 22.848 230.448 22.368 231.232 22.016C232.032 21.664 232.968 21.488 234.04 21.488C235.624 21.488 236.888 21.888 237.832 22.688C238.776 23.472 239.296 24.536 239.392 25.88H236.176C236.128 25.352 235.904 24.936 235.504 24.632C235.12 24.312 234.6 24.152 233.944 24.152C233.336 24.152 232.864 24.264 232.528 24.488C232.208 24.712 232.048 25.024 232.048 25.424C232.048 25.872 232.272 26.216 232.72 26.456C233.168 26.68 233.864 26.912 234.808 27.152C235.768 27.392 236.56 27.64 237.184 27.896C237.808 28.152 238.344 28.552 238.792 29.096C239.256 29.624 239.496 30.328 239.512 31.208C239.512 31.976 239.296 32.664 238.864 33.272C238.448 33.88 237.84 34.36 237.04 34.712C236.256 35.048 235.336 35.216 234.28 35.216ZM244.214 20.12C243.622 20.12 243.126 19.936 242.726 19.568C242.342 19.184 242.15 18.712 242.15 18.152C242.15 17.592 242.342 17.128 242.726 16.76C243.126 16.376 243.622 16.184 244.214 16.184C244.806 16.184 245.294 16.376 245.678 16.76C246.078 17.128 246.278 17.592 246.278 18.152C246.278 18.712 246.078 19.184 245.678 19.568C245.294 19.936 244.806 20.12 244.214 20.12ZM245.87 21.704V35H242.51V21.704H245.87Z" fill="black"/>
</svg>
