<svg width="418" height="409" viewBox="0 0 418 409" fill="none" xmlns="http://www.w3.org/2000/svg">
<path d="M380.859 62.7599C394.842 62.7599 406.178 51.0621 406.178 36.6321C406.178 22.2022 394.842 10.5044 380.859 10.5044C366.875 10.5044 355.539 22.2022 355.539 36.6321C355.539 51.0621 366.875 62.7599 380.859 62.7599Z" fill="#EBEBEB"/>
<path d="M382.018 62.1469C395.361 62.1469 406.178 50.9847 406.178 37.2154C406.178 23.446 395.361 12.2838 382.018 12.2838C368.674 12.2838 357.857 23.446 357.857 37.2154C357.857 50.9847 368.674 62.1469 382.018 62.1469Z" fill="#DBDBDB"/>
<path d="M404.555 39.1332C405.581 26.281 396.317 15.0038 383.862 13.9449C371.407 12.886 360.479 22.4464 359.453 35.2986C358.426 48.1508 367.691 59.428 380.146 60.4869C392.601 61.5458 403.529 51.9855 404.555 39.1332Z" fill="white"/>
<path opacity="0.5" d="M404.138 32.2627C393.84 38.6982 376.902 49.2759 367.428 55.0689C364.755 52.738 362.64 49.8013 361.249 46.4881L392.556 16.5445C395.482 18.1323 398.035 20.3624 400.036 23.078C402.037 25.7936 403.437 28.9287 404.138 32.2627Z" fill="#EBEBEB"/>
<path opacity="0.5" d="M404.636 38.0754C404.557 40.675 404.052 43.2421 403.142 45.6676L374.919 59.4382C373.688 59.0246 372.496 58.4985 371.355 57.8664C379.882 52.7259 395.459 43.473 404.636 38.0754Z" fill="#EBEBEB"/>
<path d="M382.248 15.5559H381.807V19.0945H382.248V15.5559Z" fill="#C7C7C7"/>
<path d="M371.719 18.3265L371.337 18.5538L373.052 21.6185L373.434 21.3911L371.719 18.3265Z" fill="#C7C7C7"/>
<path d="M363.932 26.1663L363.712 26.5601L366.682 28.3296L366.903 27.9358L363.932 26.1663Z" fill="#C7C7C7"/>
<path d="M364.468 36.988H361.038V37.4427H364.468V36.988Z" fill="#C7C7C7"/>
<path d="M366.698 46.0601L363.728 47.8296L363.948 48.2234L366.918 46.4539L366.698 46.0601Z" fill="#C7C7C7"/>
<path d="M373.073 52.8132L371.359 55.8787L371.741 56.1059L373.454 53.0403L373.073 52.8132Z" fill="#C7C7C7"/>
<path d="M382.248 55.3357H381.807V58.8743H382.248V55.3357Z" fill="#C7C7C7"/>
<path d="M390.998 52.7901L390.616 53.0175L392.331 56.0821L392.713 55.8547L390.998 52.7901Z" fill="#C7C7C7"/>
<path d="M397.318 46.0553L397.098 46.4491L400.068 48.2185L400.288 47.8248L397.318 46.0553Z" fill="#C7C7C7"/>
<path d="M403.007 36.988H399.578V37.4427H403.007V36.988Z" fill="#C7C7C7"/>
<path d="M400.087 26.1751L397.118 27.9451L397.338 28.3388L400.308 26.5688L400.087 26.1751Z" fill="#C7C7C7"/>
<path d="M392.323 18.3467L390.61 21.4122L390.991 21.6394L392.705 18.5739L392.323 18.3467Z" fill="#C7C7C7"/>
<path d="M382.353 17.1574L383.1 38.7872L380.945 38.7575L381.769 17.1476L382.353 17.1574Z" fill="#C7C7C7"/>
<path d="M395.411 29.6726L381.309 38.9552L380.284 37.0177L395.133 29.1388L395.411 29.6726Z" fill="#A6A6A6"/>
<path d="M382.755 37.2153C382.755 37.3658 382.712 37.5129 382.631 37.6381C382.55 37.7633 382.435 37.8608 382.3 37.9184C382.165 37.976 382.017 37.9911 381.874 37.9617C381.731 37.9324 381.599 37.8599 381.496 37.7534C381.393 37.647 381.323 37.5114 381.294 37.3637C381.266 37.2161 381.281 37.0631 381.336 36.924C381.392 36.7849 381.487 36.6661 381.608 36.5824C381.729 36.4988 381.872 36.4542 382.018 36.4542C382.213 36.4542 382.401 36.5343 382.539 36.6771C382.678 36.8198 382.755 37.0134 382.755 37.2153Z" fill="#C7C7C7"/>
<path d="M296.853 272.671C296.853 272.671 311.855 269.162 320.074 261.352C328.294 253.543 332.883 239.535 332.883 239.535C327.182 240.659 321.561 242.181 316.06 244.092C314.001 246.279 312.285 248.784 310.973 251.516C310.847 249.749 310.847 247.975 310.973 246.208C309.055 247.064 307.259 248.189 305.637 249.549C298.778 255.708 296.853 272.671 296.853 272.671Z" fill="#DBDBDB"/>
<path d="M323.523 246.336C325.564 244.873 327.642 243.469 329.683 241.996C329.71 241.979 329.729 241.952 329.736 241.92C329.743 241.889 329.738 241.856 329.721 241.828C329.705 241.801 329.678 241.781 329.648 241.774C329.617 241.766 329.585 241.772 329.558 241.789C325.726 244.171 321.894 246.732 318.197 249.381C316.913 250.31 315.648 251.279 314.365 252.268L314.623 251.803C315.074 251.032 315.581 250.271 316.022 249.509C316.963 247.956 318.03 246.488 319.212 245.12C319.212 245.071 319.212 244.992 319.135 245.051C317.967 246.435 316.798 247.809 315.735 249.282C315.227 249.984 314.777 250.715 314.307 251.457C314.077 251.842 313.847 252.228 313.637 252.623L313.407 253.019C311.491 254.591 309.575 256.232 307.783 257.962C306.672 259.036 305.596 260.143 304.555 261.283C305.139 259.415 305.647 257.517 306.318 255.678C306.318 255.665 306.312 255.652 306.303 255.643C306.295 255.634 306.282 255.629 306.27 255.629C306.257 255.629 306.245 255.634 306.236 255.643C306.227 255.652 306.222 255.665 306.222 255.678C305.57 257.655 304.852 259.553 304.306 261.55C303.156 262.829 302.064 264.147 301.029 265.504C301.029 265.425 301.029 265.336 301.077 265.257C301.25 264.526 301.432 263.794 301.614 263.073C301.978 261.669 302.38 260.285 302.84 258.911C303.702 256.058 305.066 253.394 306.864 251.052C306.911 251.002 306.864 250.933 306.797 250.982C303.983 254.596 302.016 258.832 301.049 263.359C300.883 264.018 300.729 264.677 300.589 265.336C300.512 265.682 300.426 266.048 300.368 266.404C299.909 267.063 299.468 267.706 299.046 268.332C296.486 272.367 294.357 276.675 292.695 281.183C290.83 286.244 289.231 291.405 287.905 296.644C287.905 296.665 287.913 296.685 287.927 296.7C287.942 296.715 287.961 296.723 287.982 296.723C288.002 296.723 288.021 296.715 288.036 296.7C288.05 296.685 288.058 296.665 288.058 296.644C290.999 287.589 293.988 278.405 299.008 270.309C300.07 268.603 301.215 266.953 302.438 265.366C304.921 265.193 307.371 264.688 309.728 263.863C312.303 262.969 314.759 261.743 317.037 260.216C318.339 259.318 319.589 258.344 320.783 257.299C320.841 257.25 320.783 257.171 320.726 257.22C318.629 258.961 316.316 260.404 313.847 261.511C311.422 262.658 308.885 263.537 306.279 264.13C305.178 264.377 304.057 264.565 302.926 264.723C304.315 262.958 305.792 261.268 307.352 259.662C307.86 259.138 308.377 258.673 308.904 258.14C310.65 256.878 312.503 255.783 314.441 254.867C316.903 253.642 319.317 252.337 321.751 251.061C323.13 250.34 324.491 249.608 325.87 248.906C325.928 248.906 325.87 248.788 325.822 248.817C323.351 250.043 320.85 251.2 318.36 252.376C316.022 253.474 313.656 254.591 311.404 255.896L311.117 256.064C313.148 254.245 315.256 252.505 317.411 250.824C319.436 249.302 321.473 247.806 323.523 246.336Z" fill="#A6A6A6"/>
<path d="M322.67 254.314C321.444 254.867 320.208 255.352 319.001 255.935C317.794 256.518 316.578 257.24 315.399 257.961C315.351 257.961 315.399 258.06 315.447 258.04C316.645 257.447 317.852 256.894 319.04 256.281C320.228 255.668 321.454 254.976 322.699 254.413C322.757 254.393 322.728 254.284 322.67 254.314Z" fill="#A6A6A6"/>
<path d="M248.148 194.684C250.917 198.372 252.483 202.871 252.622 207.535C252.68 208.919 252.459 210.857 252.306 213.13C256.05 215.37 259.368 218.294 262.097 221.76C259.1 219.966 255.66 219.118 252.201 219.319C252.284 220.873 252.476 222.419 252.775 223.945C254.958 223.942 257.119 224.382 259.136 225.24C257.162 225.215 255.204 225.615 253.389 226.417C256.061 235.195 264.013 244.211 285.96 248.036C288.283 237.272 286.908 226.009 282.071 216.175C275.499 202.829 248.148 194.684 248.148 194.684Z" fill="#DBDBDB"/>
<path d="M293.548 285.592C293.177 281.842 292.705 278.105 292.13 274.382C291.02 266.921 289.543 259.524 287.704 252.218C286.851 248.788 285.799 245.414 284.552 242.115C284.619 241.514 284.648 240.91 284.638 240.306C284.638 239.574 284.638 238.853 284.638 238.121C284.638 236.678 284.562 235.225 284.437 233.781C284.213 230.917 283.761 228.077 283.086 225.29C282.684 223.678 282.224 222.087 281.764 220.495C281.764 220.482 281.759 220.469 281.75 220.46C281.741 220.451 281.729 220.446 281.716 220.446C281.704 220.446 281.691 220.451 281.682 220.46C281.673 220.469 281.668 220.482 281.668 220.495C282.394 223.278 282.935 226.108 283.287 228.967C283.677 231.786 283.923 234.623 284.025 237.469C284.025 238.25 284.025 239.021 284.025 239.802C284.025 240.128 284.025 240.464 284.025 240.79C282.952 238.08 281.72 235.438 280.337 232.882C278.104 228.835 275.591 224.959 272.817 221.286C272.812 220.858 272.754 220.433 272.644 220.02C272.539 219.516 272.433 219.032 272.318 218.508C272.095 217.473 271.846 216.445 271.571 215.424C271.025 213.367 270.307 211.39 269.655 209.364C269.655 209.351 269.65 209.338 269.641 209.329C269.632 209.32 269.62 209.314 269.607 209.314C269.595 209.314 269.582 209.32 269.573 209.329C269.564 209.338 269.559 209.351 269.559 209.364C270.144 211.341 270.517 213.447 270.968 215.483C271.188 216.472 271.408 217.46 271.619 218.518L271.935 220.04C271.932 220.076 271.932 220.113 271.935 220.149C271.044 218.992 270.144 217.856 269.215 216.738C265.028 211.667 260.43 206.991 255.803 202.345C255.237 201.772 254.653 201.218 254.078 200.655C254.03 200.605 253.963 200.655 254.011 200.734C258.428 205.489 262.777 210.303 266.896 215.335C267.854 216.531 268.812 217.747 269.77 218.973C269.272 218.617 268.812 218.281 268.276 217.984C267.002 217.124 265.708 216.284 264.377 215.513C263.045 214.742 261.704 213.99 260.334 213.298C258.964 212.606 257.46 211.983 256.061 211.173C256.004 211.173 255.956 211.242 256.013 211.262C257.4 211.927 258.738 212.693 260.018 213.555C261.349 214.376 262.691 215.196 263.994 216.056C265.296 216.916 266.58 217.727 267.825 218.587C268.898 219.309 269.943 220.09 271.054 220.742C273.597 224.119 275.945 227.648 278.086 231.31C279.411 233.615 280.622 235.987 281.716 238.418L280.931 238.062L278.919 237.142L275.039 235.393C272.577 234.295 270.077 233.277 267.663 232.061C266.302 231.404 264.986 230.651 263.725 229.807C263.668 229.807 263.62 229.857 263.677 229.896C268.17 233.099 273.257 235.353 278.201 237.627L280.356 238.615C280.95 238.882 281.544 239.189 282.157 239.426C283.631 242.828 284.87 246.333 285.864 249.915C287.833 257.125 289.432 264.437 290.654 271.821C291.909 279.216 292.762 286.65 293.423 294.143C293.5 295.072 293.586 296.011 293.682 296.941C293.682 297.019 293.712 297.095 293.766 297.15C293.82 297.206 293.893 297.237 293.969 297.237C294.045 297.237 294.118 297.206 294.172 297.15C294.226 297.095 294.256 297.019 294.256 296.941C294.314 293.125 293.931 289.368 293.548 285.592Z" fill="#A6A6A6"/>
<path d="M280.203 223.055C279.8 220.762 279.245 218.508 278.603 216.254C278.603 216.241 278.598 216.228 278.589 216.219C278.58 216.21 278.568 216.205 278.555 216.205C278.542 216.205 278.53 216.21 278.521 216.219C278.512 216.228 278.507 216.241 278.507 216.254C279.063 218.468 279.465 220.722 279.858 222.966C280.251 225.211 280.634 227.553 280.95 229.886H281.007C280.864 227.596 280.595 225.315 280.203 223.055Z" fill="#A6A6A6"/>
<path d="M270.747 229.302C269.214 228.269 267.613 227.344 265.957 226.535C265.153 226.11 264.338 225.705 263.534 225.299C262.729 224.894 261.828 224.528 261.005 224.103C260.947 224.103 260.89 224.163 260.957 224.192C261.752 224.607 262.518 225.111 263.304 225.556L265.737 226.93C267.316 227.877 268.94 228.742 270.604 229.52C270.632 229.54 270.666 229.547 270.699 229.541C270.732 229.534 270.762 229.514 270.781 229.485C270.8 229.457 270.807 229.421 270.801 229.387C270.794 229.352 270.775 229.322 270.747 229.302Z" fill="#A6A6A6"/>
<path opacity="0.1" d="M297.13 245.862C297.13 245.862 311.002 242.441 317.373 232.832C323.466 223.658 325.429 208.019 325.583 206.645C325.334 207.911 322.469 221.573 313.023 227.939C305.791 232.822 298.797 236.836 297.13 245.862Z" fill="#A6A6A6"/>
<path d="M309.939 221.118C307.471 223.46 305.697 226.477 304.823 229.817C304.823 229.817 304.823 229.817 304.823 229.817C305.846 226.558 307.61 223.599 309.967 221.187C310.054 221.147 309.987 221.068 309.939 221.118Z" fill="#A6A6A6"/>
<path d="M297.13 245.862C297.13 245.862 311.002 242.441 317.373 232.832C323.466 223.658 325.429 208.019 325.583 206.645C325.587 206.612 325.587 206.579 325.583 206.546C325.583 206.546 318.877 216.313 311.931 218.805C304.986 221.296 295.09 229.906 297.13 245.862Z" fill="#DBDBDB"/>
<path d="M323.14 211.934C321.898 214.567 320.464 217.099 318.848 219.506C317.217 221.795 315.282 223.834 313.1 225.566C311.184 227.108 309.268 228.532 307.352 230.025L307.4 229.956C307.754 229.402 308.138 228.878 308.54 228.354C309.326 227.306 310.197 226.318 311.069 225.339C312.793 223.411 314.556 221.513 316.099 219.408C316.959 218.251 317.707 217.009 318.331 215.7C318.331 215.641 318.264 215.611 318.235 215.7C315.984 220.544 311.481 223.609 308.281 227.721C307.823 228.301 307.394 228.904 306.998 229.53C306.678 229.986 306.408 230.477 306.193 230.994C304.437 232.449 302.849 234.107 301.46 235.936C301.582 234.998 301.768 234.07 302.016 233.159C302.337 231.883 302.834 230.661 303.491 229.53C303.491 229.471 303.434 229.412 303.405 229.471C302.731 230.605 302.188 231.816 301.786 233.079C301.493 234.085 301.323 235.125 301.278 236.174C300.596 237.121 299.972 238.111 299.41 239.139L299.583 238.22C299.851 236.796 300.158 235.373 300.541 233.959C301.194 231.092 302.322 228.363 303.875 225.893C303.875 225.893 303.827 225.784 303.788 225.833C302.2 228.276 300.955 230.939 300.091 233.742C299.65 235.146 299.295 236.579 298.989 238.012C298.836 238.724 298.692 239.426 298.567 240.138C298.5 240.504 298.424 240.879 298.366 241.255C296.991 244.374 295.916 247.626 295.157 250.963C293.802 256.935 292.82 262.991 292.216 269.093C291.494 275.474 291.174 281.897 291.258 288.32C291.258 289.121 291.315 289.932 291.354 290.732C291.354 290.94 291.67 290.97 291.679 290.732C291.813 287.549 291.89 284.376 292.072 281.203C292.254 278.029 292.522 274.846 292.858 271.683C293.48 265.46 294.439 259.279 295.732 253.167C296.853 247.938 298.309 242.659 301.087 238.072C302.468 235.791 304.154 233.725 306.097 231.933C308.013 230.134 310.169 228.552 312.219 226.881C314.296 225.253 316.183 223.382 317.842 221.306C319.535 218.991 321.011 216.515 322.249 213.911L323.207 211.934C323.255 211.934 323.169 211.875 323.14 211.934Z" fill="#A6A6A6"/>
<path d="M246.232 239.535C246.232 239.535 246.012 259.879 257.805 265.751C269.598 271.624 275.911 266.74 283.929 268.717C283.623 268.233 277.903 259.751 268.803 257.408C259.405 254.986 249.039 248.007 246.232 239.535Z" fill="#DBDBDB"/>
<path opacity="0.1" d="M246.232 239.535C246.232 239.535 246.012 259.879 257.805 265.751C269.598 271.624 275.911 266.74 283.929 268.717C279.696 266.632 275.169 265.254 270.517 264.634C263.045 263.695 248.838 258.693 246.232 239.535Z" fill="#A6A6A6"/>
<path d="M284.676 269.063C283.272 267.745 281.691 266.643 279.982 265.791C279.733 265.663 279.475 265.564 279.216 265.455C278.957 265.346 278.957 265.139 278.823 264.98C278.469 264.605 278.095 264.239 277.712 263.893C276.972 263.235 276.177 262.646 275.336 262.133C273.42 260.947 271.245 260.156 269.243 259.019C269.186 259.019 269.138 259.079 269.243 259.108C270.201 259.632 271.159 260.216 272.117 260.799C273.075 261.382 274.033 261.896 274.915 262.499C275.737 263.04 276.519 263.644 277.252 264.308C277.463 264.496 277.654 264.704 277.856 264.911C276.553 264.452 275.221 264.085 273.87 263.814C271.715 263.359 269.531 263.043 267.375 262.568C266.317 262.336 265.271 262.046 264.243 261.698C263.285 260.888 262.327 260.077 261.369 259.197C260.246 258.135 259.223 256.967 258.313 255.708C258.313 255.708 258.188 255.708 258.226 255.767C259.659 257.763 261.279 259.607 263.064 261.273C262.557 261.066 262.049 260.858 261.56 260.621C257.509 258.751 254.033 255.769 251.511 252.001C251.511 251.941 251.386 252.001 251.425 252.05C253.564 255.287 256.33 258.03 259.548 260.107C261.16 261.147 262.883 261.99 264.683 262.618C266.777 263.284 268.911 263.802 271.073 264.17C273.188 264.527 275.275 265.039 277.319 265.702C279.199 266.364 280.967 267.324 282.559 268.549C285.565 270.957 287.985 274.054 289.629 277.595C291.732 282.274 293.048 287.288 293.519 292.423C293.519 292.64 293.873 292.64 293.854 292.423C293.279 283.911 291.066 275.004 284.676 269.063Z" fill="#A6A6A6"/>
<path d="M270.987 262.479C270.372 261.529 269.54 260.752 268.563 260.215C267.449 259.611 266.47 258.772 265.689 257.754C265.689 257.695 265.565 257.754 265.603 257.803C266.312 258.736 267.175 259.532 268.151 260.156C269.223 260.745 270.168 261.552 270.929 262.528L270.987 262.479Z" fill="#A6A6A6"/>
<path d="M277.252 284.089L277.789 295.28L279.427 329.474H304.162L305.81 295.28L306.346 284.089H277.252Z" fill="#EBEBEB"/>
<path d="M277.252 284.089L277.789 295.28H305.81L306.346 284.089H277.252Z" fill="#DBDBDB"/>
<path d="M275.518 290.1H308.09V279.423H275.518V290.1Z" fill="#EBEBEB"/>
<path d="M44.0963 110.567L39.8428 120.245L42.7168 121.579C43.1286 121.777 43.4793 122.088 43.7296 122.479C43.9799 122.87 44.1202 123.325 44.1346 123.794C44.1346 124.318 44.2113 124.842 44.2879 125.375C44.3587 125.834 44.3069 126.304 44.1381 126.734C43.9692 127.164 43.6898 127.539 43.3299 127.817L40.7625 129.705L46.7595 138.345L49.3269 136.457C49.6954 136.186 50.1298 136.026 50.5814 135.994C51.0331 135.963 51.4843 136.062 51.8848 136.279C52.3391 136.526 52.806 136.747 53.2834 136.942C53.7068 137.108 54.0775 137.392 54.3547 137.761C54.6319 138.131 54.8049 138.573 54.8545 139.037L55.1611 142.28L65.402 141.232L65.0954 137.98C65.0542 137.515 65.139 137.049 65.3404 136.631C65.5417 136.214 65.8516 135.863 66.2355 135.617L66.8677 135.172C67.0689 135.024 67.2797 134.866 67.4713 134.698C67.8195 134.402 68.2404 134.213 68.687 134.15C69.1335 134.087 69.5882 134.154 70.0004 134.342L72.8743 135.696L77.1278 126.018L74.2538 124.674C73.8422 124.475 73.4914 124.163 73.2397 123.773C72.9879 123.382 72.845 122.928 72.8264 122.459C72.8071 121.933 72.7591 121.408 72.6827 120.887C72.6109 120.429 72.6622 119.959 72.8311 119.528C73 119.098 73.28 118.723 73.6407 118.446L76.2081 116.548L70.2111 107.908L67.6437 109.806C67.2743 110.075 66.8395 110.234 66.3879 110.264C65.9362 110.293 65.4855 110.193 65.0859 109.974C64.6337 109.735 64.1701 109.521 63.6968 109.331C63.2823 109.166 62.9195 108.888 62.6476 108.525C62.3757 108.163 62.2052 107.73 62.1544 107.275L61.8383 104.032L51.5974 105.08L51.9039 108.323C51.94 108.775 51.8567 109.229 51.6627 109.636C51.4687 110.044 51.1713 110.389 50.8022 110.636C50.5841 110.773 50.3731 110.921 50.17 111.081C49.9592 111.229 49.758 111.387 49.5569 111.545C49.2091 111.845 48.7869 112.038 48.3382 112.103C47.8895 112.168 47.4322 112.101 47.0182 111.911L44.0963 110.567ZM53.5708 116.053C54.925 115.044 56.5388 114.473 58.208 114.411C59.8772 114.349 61.5267 114.799 62.9476 115.705C64.3685 116.611 65.497 117.932 66.1901 119.5C66.8833 121.068 67.11 122.813 66.8415 124.514C66.573 126.216 65.8214 127.796 64.6819 129.056C63.5423 130.317 62.0661 131.199 60.44 131.593C58.8139 131.987 57.1112 131.874 55.5473 131.269C53.9835 130.664 52.6288 129.593 51.6549 128.193C50.3505 126.319 49.8206 123.988 50.1817 121.712C50.5428 119.435 51.7653 117.4 53.5804 116.053H53.5708Z" fill="#EBEBEB"/>
<path d="M385.141 207.891L378.895 211.608L379.997 213.585C380.155 213.87 380.234 214.194 380.224 214.523C380.213 214.851 380.115 215.17 379.939 215.443C379.748 215.75 379.566 216.076 379.403 216.432C379.262 216.726 379.045 216.973 378.776 217.148C378.507 217.322 378.197 217.417 377.879 217.421H375.667V224.864H377.879C378.197 224.869 378.507 224.963 378.776 225.137C379.045 225.312 379.262 225.56 379.403 225.853C379.564 226.193 379.743 226.523 379.939 226.842C380.115 227.115 380.213 227.434 380.224 227.762C380.234 228.091 380.155 228.415 379.997 228.7L378.895 230.677L385.141 234.394L386.252 232.417C386.414 232.135 386.648 231.905 386.929 231.751C387.209 231.598 387.526 231.527 387.843 231.547H388.369H388.906C389.22 231.528 389.534 231.598 389.813 231.749C390.091 231.901 390.324 232.129 390.487 232.407L391.598 234.384L397.844 230.667L396.742 228.69C396.583 228.405 396.505 228.08 396.517 227.751C396.529 227.422 396.63 227.104 396.809 226.832C397.006 226.513 397.185 226.183 397.346 225.843C397.485 225.548 397.702 225.299 397.971 225.125C398.24 224.95 398.551 224.856 398.869 224.855H401.072V217.411H398.869C398.551 217.409 398.24 217.315 397.971 217.141C397.702 216.966 397.485 216.717 397.346 216.422C397.183 216.096 397.001 215.78 396.809 215.434C396.631 215.163 396.53 214.846 396.518 214.519C396.506 214.192 396.584 213.868 396.742 213.585L397.844 211.608L391.598 207.891L390.496 209.868C390.334 210.15 390.1 210.381 389.82 210.534C389.539 210.688 389.223 210.758 388.906 210.738H388.369H387.843C387.526 210.758 387.209 210.688 386.929 210.534C386.648 210.381 386.414 210.15 386.252 209.868L385.141 207.891ZM388.369 215.009C389.539 215.009 390.682 215.366 391.654 216.037C392.627 216.708 393.384 217.661 393.831 218.776C394.278 219.891 394.395 221.118 394.166 222.302C393.937 223.485 393.373 224.572 392.546 225.424C391.718 226.277 390.664 226.857 389.517 227.091C388.369 227.326 387.181 227.203 386.101 226.74C385.021 226.277 384.098 225.494 383.45 224.489C382.802 223.485 382.457 222.305 382.459 221.098C382.461 220.296 382.617 219.502 382.918 218.762C383.219 218.023 383.658 217.351 384.211 216.787C384.764 216.223 385.419 215.778 386.139 215.476C386.859 215.174 387.63 215.022 388.408 215.028L388.369 215.009Z" fill="#EBEBEB"/>
<path d="M20.6926 91.7544L25.0706 97.6858L26.8237 96.3018C27.0756 96.1005 27.3775 95.977 27.6945 95.9455C28.0116 95.9141 28.3308 95.9759 28.6152 96.1239C28.9409 96.282 29.2762 96.4204 29.5732 96.5489C29.8725 96.6566 30.1373 96.8474 30.3384 97.1003C30.5395 97.3532 30.6692 97.6584 30.7132 97.9824L31.0006 100.246L38.1568 99.2576L37.8694 97.0037C37.8298 96.6781 37.8787 96.3476 38.0107 96.0491C38.1426 95.7506 38.3524 95.4958 38.6166 95.3132C38.9136 95.1056 39.1914 94.8783 39.4692 94.641C39.7082 94.4258 40.0004 94.2831 40.3133 94.229C40.6262 94.1749 40.9475 94.2115 41.2415 94.3346L43.282 95.2144L46.0506 88.2944L44.0388 87.5036C43.7485 87.3737 43.4984 87.1639 43.3159 86.8971C43.1334 86.6303 43.0256 86.3169 43.0042 85.9911C43.0042 85.8033 43.0042 85.6253 42.9467 85.4375C42.8892 85.2497 42.9467 85.0816 42.8701 84.9037C42.8054 84.5826 42.8295 84.2492 42.9396 83.9416C43.0497 83.634 43.2414 83.3645 43.4928 83.1638L45.2555 81.7699L40.8774 75.8385L39.1147 77.2225C38.8619 77.4216 38.5602 77.5438 38.2436 77.5752C37.9271 77.6067 37.6083 77.5461 37.3233 77.4005C37.0123 77.2396 36.6924 77.0977 36.3653 76.9754C36.066 76.8677 35.8012 76.6769 35.6001 76.424C35.3989 76.1712 35.2693 75.8659 35.2253 75.542L34.9379 73.2782L27.7817 74.2667L28.0691 76.5305C28.1075 76.855 28.059 77.184 27.929 77.482C27.799 77.78 27.5923 78.0356 27.3315 78.221C27.0353 78.4284 26.7507 78.6529 26.4789 78.8932C26.2378 79.1083 25.944 79.2507 25.6296 79.3048C25.3153 79.3588 24.9926 79.3225 24.697 79.1997L22.6565 78.3198L19.8879 85.2398L21.9284 86.1196C22.1974 86.2414 22.4313 86.4327 22.6075 86.6752C22.7838 86.9177 22.8963 87.203 22.9343 87.5036L22.9918 88.0473C22.9918 88.2351 23.0397 88.4131 23.078 88.591C23.1393 88.913 23.1126 89.2462 23.001 89.5535C22.8893 89.8607 22.6971 90.1299 22.4457 90.3309L20.6926 91.7544ZM27.1111 87.5234C26.9616 86.327 27.1592 85.1117 27.679 84.0312C28.1988 82.9507 29.0174 82.0536 30.0312 81.4531C31.0451 80.8527 32.2088 80.5759 33.375 80.6579C34.5413 80.7399 35.6579 81.1769 36.5835 81.9136C37.5091 82.6504 38.2022 83.6538 38.5752 84.7971C38.9482 85.9403 38.9843 87.172 38.679 88.3364C38.3737 89.5008 37.7406 90.5457 36.8598 91.3388C35.9791 92.132 34.8902 92.6378 33.7308 92.7924C32.9593 92.8963 32.1754 92.8416 31.4244 92.6317C30.6734 92.4217 29.97 92.0606 29.3548 91.5691C28.7395 91.0775 28.2246 90.4653 27.8395 89.7675C27.4544 89.0698 27.2069 88.3004 27.1111 87.5036V87.5234Z" fill="#EBEBEB"/>
<path d="M2.50037 329.474L53.6187 329.227L104.728 329.148L206.955 328.98L309.182 329.138L360.291 329.227L411.409 329.474L360.291 329.711L309.182 329.8L206.955 329.968L104.728 329.8L53.6187 329.711L2.50037 329.474Z" fill="#263238"/>
<path d="M338.286 371.389C382.311 371.389 418 365.538 418 358.321C418 351.103 382.311 345.252 338.286 345.252C294.261 345.252 258.571 351.103 258.571 358.321C258.571 365.538 294.261 371.389 338.286 371.389Z" fill="#EBEBEB"/>
<path d="M178.598 408.055C272.622 408.055 348.843 397.176 348.843 383.756C348.843 370.336 272.622 359.457 178.598 359.457C84.5747 359.457 8.3537 370.336 8.3537 383.756C8.3537 397.176 84.5747 408.055 178.598 408.055Z" fill="#EBEBEB"/>
<path d="M336.983 8.75458H76.7734V186.231H336.983V8.75458Z" fill="#EBEBEB"/>
<path d="M343.334 0.0552673H70.5848V8.74473H343.334V0.0552673Z" fill="#455A64"/>
<path d="M130.402 33.0634H89.3135V83.3022H130.402V33.0634Z" fill="white"/>
<path d="M111.338 36.4836C111.34 36.7875 111.254 37.085 111.091 37.3385C110.929 37.592 110.697 37.7899 110.425 37.907C110.154 38.0242 109.854 38.0554 109.565 37.9966C109.277 37.9378 109.011 37.7917 108.803 37.5768C108.595 37.362 108.453 37.0881 108.396 36.7899C108.339 36.4918 108.369 36.183 108.483 35.9026C108.596 35.6223 108.788 35.3831 109.034 35.2155C109.279 35.0479 109.568 34.9595 109.862 34.9614C110.056 34.9614 110.248 35.0008 110.427 35.0773C110.606 35.1538 110.769 35.2659 110.906 35.4073C111.043 35.5486 111.151 35.7164 111.225 35.9011C111.3 36.0858 111.338 36.2837 111.338 36.4836Z" fill="#455A64"/>
<path d="M97.1307 43.1269C101.288 42.8007 105.446 42.781 109.585 42.7315C113.723 42.6821 117.89 42.8007 122.038 43.1269C117.881 43.463 113.733 43.4828 109.585 43.5322C105.436 43.5817 101.288 43.463 97.1307 43.1269Z" fill="#EBEBEB"/>
<path d="M97.1307 47.1009C101.634 46.5606 106.183 46.5606 110.686 47.1009C106.182 47.6281 101.635 47.6281 97.1307 47.1009Z" fill="#EBEBEB"/>
<path d="M97.1307 51.0651C100.005 50.7586 102.879 50.6894 105.753 50.6697C108.627 50.6499 111.501 50.7586 114.375 51.0651C111.501 51.3814 108.627 51.4506 105.753 51.4703C102.879 51.4901 100.024 51.3814 97.1307 51.0651Z" fill="#EBEBEB"/>
<path d="M97.1307 55.0391C100.742 54.7327 104.354 54.6536 107.966 54.6437C111.577 54.6338 115.189 54.7228 118.791 55.0391C115.189 55.3554 111.577 55.4246 107.966 55.4345C104.354 55.4444 100.742 55.3455 97.1307 55.0391Z" fill="#EBEBEB"/>
<path d="M97.1307 59.0131C100.273 58.6968 103.406 58.6277 106.538 58.6079C109.671 58.5881 112.813 58.6968 115.955 59.0131C112.813 59.3195 109.68 59.3986 106.538 59.4085C103.396 59.4184 100.273 59.3195 97.1307 59.0131Z" fill="#EBEBEB"/>
<path d="M97.1307 62.9773C101.145 62.6511 105.159 62.6313 109.173 62.5819C113.187 62.5325 117.21 62.6511 121.224 62.9773C117.21 63.3133 113.196 63.3331 109.173 63.3825C105.149 63.4319 101.145 63.3133 97.1307 62.9773Z" fill="#EBEBEB"/>
<path d="M97.1307 66.9513C102.303 66.4109 107.516 66.4109 112.688 66.9513C107.515 67.4784 102.304 67.4784 97.1307 66.9513Z" fill="#EBEBEB"/>
<path d="M97.1307 70.9154C101.288 70.5893 105.446 70.5695 109.585 70.5201C113.723 70.4707 117.89 70.5893 122.038 70.9154C117.881 71.2515 113.733 71.2713 109.585 71.3207C105.436 71.3701 101.288 71.2515 97.1307 70.9154Z" fill="#EBEBEB"/>
<path d="M97.1307 74.8895C101.288 74.5633 105.446 74.5435 109.585 74.4941C113.723 74.4447 117.89 74.5534 122.038 74.8895C117.881 75.2255 113.733 75.2453 109.585 75.2848C105.436 75.3244 101.288 75.2156 97.1307 74.8895Z" fill="#EBEBEB"/>
<path d="M324.835 76.2241H292.666V115.559H324.835V76.2241Z" fill="white"/>
<path d="M309.862 79.6641C309.864 79.8913 309.8 80.114 309.679 80.3038C309.558 80.4937 309.386 80.6422 309.183 80.7305C308.98 80.8188 308.756 80.8429 308.54 80.7998C308.324 80.7567 308.125 80.6483 307.968 80.4883C307.812 80.3283 307.705 80.1241 307.662 79.9014C307.618 79.6787 307.639 79.4476 307.723 79.2376C307.807 79.0275 307.949 78.8478 308.132 78.7214C308.315 78.5949 308.531 78.5274 308.751 78.5274C308.896 78.5261 309.041 78.5546 309.175 78.6111C309.31 78.6676 309.433 78.7512 309.536 78.8568C309.639 78.9625 309.721 79.0883 309.777 79.2268C309.833 79.3654 309.862 79.514 309.862 79.6641Z" fill="#455A64"/>
<path d="M297.82 86.9499C300.044 86.6255 302.302 86.6255 304.526 86.9499C302.302 87.2744 300.044 87.2744 297.82 86.9499Z" fill="#EBEBEB"/>
<path d="M297.82 89.7575C300.723 89.4148 303.654 89.4148 306.557 89.7575C303.653 90.087 300.724 90.087 297.82 89.7575Z" fill="#EBEBEB"/>
<path d="M297.82 92.5551C300.509 92.2257 303.226 92.2257 305.915 92.5551C303.227 92.8977 300.508 92.8977 297.82 92.5551Z" fill="#EBEBEB"/>
<path d="M297.82 95.4121C300.509 95.0826 303.226 95.0826 305.915 95.4121C303.226 95.7415 300.509 95.7415 297.82 95.4121Z" fill="#EBEBEB"/>
<path d="M297.82 98.1702C300.152 97.8271 302.52 97.8271 304.852 98.1702C302.519 98.4997 300.153 98.4997 297.82 98.1702Z" fill="#EBEBEB"/>
<path d="M297.82 100.968C300.813 100.638 303.832 100.638 306.825 100.968C303.833 101.31 300.813 101.31 297.82 100.968Z" fill="#EBEBEB"/>
<path d="M297.82 103.775C300.288 103.446 302.786 103.446 305.254 103.775C302.786 104.105 300.288 104.105 297.82 103.775Z" fill="#EBEBEB"/>
<path d="M297.82 106.583C300.915 106.24 304.037 106.24 307.132 106.583C304.036 106.912 300.916 106.912 297.82 106.583Z" fill="#EBEBEB"/>
<path d="M297.82 109.38C300.916 109.051 304.036 109.051 307.132 109.38C304.037 109.723 300.915 109.723 297.82 109.38Z" fill="#EBEBEB"/>
<path d="M311.117 86.9499C314.053 86.6205 317.014 86.6205 319.95 86.9499C317.014 87.2794 314.053 87.2794 311.117 86.9499Z" fill="#EBEBEB"/>
<path d="M311.117 89.7574C313.038 89.4149 315.002 89.4149 316.922 89.7574C315.001 90.0868 313.039 90.0868 311.117 89.7574Z" fill="#EBEBEB"/>
<path d="M311.117 92.5551C313.88 92.2257 316.67 92.2257 319.432 92.5551C316.671 92.8978 313.879 92.8978 311.117 92.5551Z" fill="#EBEBEB"/>
<path d="M311.117 95.4121C313.803 95.0826 316.517 95.0826 319.203 95.4121C316.517 95.7416 313.803 95.7416 311.117 95.4121Z" fill="#EBEBEB"/>
<path d="M311.117 98.1702C314.052 97.8275 317.015 97.8275 319.95 98.1702C317.014 98.4996 314.053 98.4996 311.117 98.1702Z" fill="#EBEBEB"/>
<path d="M311.117 100.968C313.45 100.638 315.816 100.638 318.149 100.968C315.817 101.311 313.449 101.311 311.117 100.968Z" fill="#EBEBEB"/>
<path d="M311.117 103.775C313.88 103.446 316.67 103.446 319.432 103.775C316.67 104.105 313.88 104.105 311.117 103.775Z" fill="#EBEBEB"/>
<path d="M311.117 106.583C313.247 106.24 315.415 106.24 317.545 106.583C315.414 106.912 313.248 106.912 311.117 106.583Z" fill="#EBEBEB"/>
<path d="M311.117 109.38C313.161 109.051 315.242 109.051 317.286 109.38C315.243 109.723 313.16 109.723 311.117 109.38Z" fill="#EBEBEB"/>
<path d="M147.665 64.0252H122.948V89.5301H147.665V64.0252Z" fill="#F98787"/>
<path d="M136.782 66.615C136.782 66.9161 136.695 67.2104 136.533 67.4607C136.371 67.711 136.141 67.9061 135.871 68.0214C135.602 68.1366 135.305 68.1667 135.019 68.108C134.733 68.0492 134.47 67.9043 134.263 67.6914C134.057 67.4785 133.917 67.2073 133.86 66.912C133.803 66.6167 133.832 66.3106 133.944 66.0325C134.055 65.7543 134.244 65.5166 134.487 65.3493C134.73 65.1821 135.015 65.0928 135.307 65.0928C135.5 65.0928 135.692 65.1322 135.871 65.2087C136.05 65.2852 136.213 65.3973 136.35 65.5387C136.487 65.68 136.595 65.8478 136.67 66.0325C136.744 66.2172 136.782 66.4151 136.782 66.615Z" fill="#455A64"/>
<path d="M336.983 8.75458H76.7734V20.044H336.983V8.75458Z" fill="#DBDBDB"/>
<path d="M159.247 34.0322L200.967 33.9432L242.697 34.0322L200.967 34.1211L159.247 34.0322Z" fill="#C7C7C7"/>
<path d="M159.247 37.5416L200.967 37.4526L242.697 37.5416L200.967 37.6404L159.247 37.5416Z" fill="#C7C7C7"/>
<path d="M159.247 41.0608L200.967 40.962L242.697 41.0608L200.967 41.1498L159.247 41.0608Z" fill="#C7C7C7"/>
<path d="M159.247 44.5702L200.967 44.4714L242.697 44.5702L200.967 44.6592L159.247 44.5702Z" fill="#C7C7C7"/>
<path d="M159.247 48.0797L200.967 47.9907L242.697 48.0797L200.967 48.1686L159.247 48.0797Z" fill="#C7C7C7"/>
<path d="M159.247 51.589L200.967 51.5001L242.697 51.589L200.967 51.6879L159.247 51.589Z" fill="#C7C7C7"/>
<path d="M159.247 55.0985L200.967 55.0095L242.697 55.0985L200.967 55.1973L159.247 55.0985Z" fill="#C7C7C7"/>
<path d="M159.247 58.6177L200.967 58.5189L242.697 58.6177L200.967 58.7067L159.247 58.6177Z" fill="#C7C7C7"/>
<path d="M159.247 62.1271L200.967 62.0283L242.697 62.1271L200.967 62.2161L159.247 62.1271Z" fill="#C7C7C7"/>
<path d="M159.247 65.6366L200.967 65.5476L242.697 65.6366L200.967 65.7255L159.247 65.6366Z" fill="#C7C7C7"/>
<path d="M159.247 69.1459L200.967 69.057L242.697 69.1459L200.967 69.2448L159.247 69.1459Z" fill="#C7C7C7"/>
<path d="M159.247 72.6652L200.967 72.5664L242.697 72.6652L200.967 72.7541L159.247 72.6652Z" fill="#C7C7C7"/>
<path d="M159.247 76.1746L200.967 76.0758L242.697 76.1746L200.967 76.2636L159.247 76.1746Z" fill="#C7C7C7"/>
<path d="M159.247 79.684L200.967 79.5951L242.697 79.684L200.967 79.773L159.247 79.684Z" fill="#C7C7C7"/>
<path d="M159.247 83.1934L200.967 83.1045L242.697 83.1934L200.967 83.2923L159.247 83.1934Z" fill="#C7C7C7"/>
<path d="M174.402 58.6177H168.07V87.296H174.402V58.6177Z" fill="#AF342D"/>
<path d="M186.138 46.488H179.805V87.296H186.138V46.488Z" fill="white"/>
<path d="M197.883 40.9818H191.55V87.296H197.883V40.9818Z" fill="#AF342D"/>
<path d="M209.618 48.1587H203.286V87.2861H209.618V48.1587Z" fill="white"/>
<path d="M221.363 50.2941H215.031V87.2861H221.363V50.2941Z" fill="#AF342D"/>
<path d="M233.098 71.2615H226.766V87.296H233.098V71.2615Z" fill="white"/>
<path d="M161.508 31.5706L161.651 45.4995L161.747 59.4284C161.811 68.7209 161.843 78.0068 161.843 87.2861L161.508 86.95H181.807H202.098L222.398 87.0686L242.697 87.2663L222.398 87.4739L202.098 87.5926H181.807H161.508H161.172V87.2466C161.172 77.9607 161.204 68.6747 161.268 59.3888L161.364 45.46L161.508 31.5706Z" fill="#C7C7C7"/>
<path d="M174.402 90.232H168.07V90.8251H174.402V90.232Z" fill="#C7C7C7"/>
<path d="M186.138 90.232H179.805V90.8251H186.138V90.232Z" fill="#C7C7C7"/>
<path d="M197.883 90.232H191.55V90.8251H197.883V90.232Z" fill="#C7C7C7"/>
<path d="M209.618 90.232H203.286V90.8251H209.618V90.232Z" fill="#C7C7C7"/>
<path d="M221.363 90.232H215.031V90.8251H221.363V90.232Z" fill="#C7C7C7"/>
<path d="M233.098 90.232H226.766V90.8251H233.098V90.232Z" fill="#C7C7C7"/>
<path d="M125.305 163.91H100.177V166.134H125.305V163.91Z" fill="#C7C7C7"/>
<path d="M134.128 168.556H100.177V170.78H134.128V168.556Z" fill="#C7C7C7"/>
<path d="M118.197 173.212H100.177V175.436H118.197V173.212Z" fill="#C7C7C7"/>
<path d="M94.5729 163.91H89.3326V169.316H94.5729V163.91Z" fill="#AF342D"/>
<path d="M287.57 33.9333H262.442V36.1573H287.57V33.9333Z" fill="#C7C7C7"/>
<path d="M296.393 38.5796H262.442V40.8036H296.393V38.5796Z" fill="#C7C7C7"/>
<path d="M280.461 43.2357H262.442V45.4597H280.461V43.2357Z" fill="#C7C7C7"/>
<path d="M256.837 33.9333H251.597V39.3401H256.837V33.9333Z" fill="#AF342D"/>
<path d="M292.312 51.9351H262.442V54.159H292.312V51.9351Z" fill="#C7C7C7"/>
<path d="M286.066 56.5813H262.442V58.8053H286.066V56.5813Z" fill="#C7C7C7"/>
<path d="M296.393 61.2375H262.442V63.4614H296.393V61.2375Z" fill="#C7C7C7"/>
<path d="M256.837 51.9351H251.597V57.3419H256.837V51.9351Z" fill="white"/>
<path d="M201.935 106.79H89.3135V157.622H201.935V106.79Z" fill="#DBDBDB"/>
<path d="M195.957 113.206H95.3009V117.595H195.957V113.206Z" fill="white"/>
<path d="M146.764 113.206H95.3009V117.595H146.764V113.206Z" fill="#AF342D"/>
<path d="M195.957 121.609H95.3009V125.998H195.957V121.609Z" fill="white"/>
<path d="M187.632 121.609H95.3009V125.998H187.632V121.609Z" fill="#AF342D"/>
<path d="M195.957 130.012H95.3009V134.401H195.957V130.012Z" fill="white"/>
<path d="M125.085 130.012H95.3009V134.401H125.085V130.012Z" fill="#AF342D"/>
<path d="M195.957 138.415H95.3009V142.803H195.957V138.415Z" fill="white"/>
<path d="M174.402 138.415H95.3009V142.803H174.402V138.415Z" fill="#AF342D"/>
<path d="M195.957 146.817H95.3009V151.206H195.957V146.817Z" fill="white"/>
<path d="M153.461 146.817H95.3009V151.206H153.461V146.817Z" fill="#AF342D"/>
<path d="M274.915 134.49C274.564 139.354 273.057 144.053 270.527 148.172L263.15 143.773C264.913 140.981 266.016 137.802 266.369 134.49H274.915Z" fill="#455A64"/>
<path d="M274.972 132.197C274.972 132.523 274.972 132.839 274.972 133.185H266.446C266.446 132.869 266.446 132.552 266.446 132.197C266.448 128.689 265.605 125.235 263.991 122.148C262.377 119.06 260.043 116.436 257.201 114.511L261.474 106.889C265.608 109.592 269.014 113.329 271.374 117.754C273.733 122.178 274.971 127.146 274.972 132.197Z" fill="#A6A6A6"/>
<path d="M260.401 106.197L256.148 113.819C253.226 112.091 249.934 111.136 246.568 111.041V102.253C251.427 102.344 256.186 103.701 260.401 106.197Z" fill="#455A64"/>
<path d="M245.322 102.253V111.041C241.86 111.152 238.482 112.166 235.503 113.99C232.524 115.814 230.042 118.388 228.289 121.471L220.903 117.081C223.404 112.661 226.963 108.976 231.238 106.38C235.514 103.784 240.363 102.363 245.322 102.253Z" fill="#AF342D"/>
<path d="M227.667 122.637C226.258 125.487 225.504 128.632 225.463 131.831H216.947C216.984 127.089 218.128 122.427 220.28 118.238L227.667 122.637Z" fill="#A6A6A6"/>
<path d="M234.535 149.783L230.272 157.405C226.31 154.784 223.026 151.206 220.706 146.981C218.385 142.755 217.098 138.01 216.956 133.155H225.473C225.614 136.466 226.508 139.696 228.083 142.584C229.657 145.473 231.867 147.939 234.535 149.783Z" fill="#455A64"/>
<path d="M269.808 149.279C265.648 155.467 259.382 159.811 252.257 161.445C245.133 163.079 237.673 161.884 231.364 158.097L235.627 150.485C239.985 153.12 245.132 154.003 250.082 152.965C255.031 151.927 259.436 149.041 262.451 144.86L269.808 149.279Z" fill="#DBDBDB"/>
<path d="M261.148 133.155C261.146 135.882 260.366 138.548 258.906 140.821C257.446 143.093 255.371 144.873 252.938 145.938L247.679 133.155H261.148Z" fill="#AF342D"/>
<path d="M245.974 132.206L251.223 144.989C250.811 145.157 250.4 145.325 249.988 145.453C248.694 145.866 247.347 146.076 245.993 146.076C244.639 146.074 243.292 145.864 241.998 145.453C239.239 144.595 236.821 142.843 235.102 140.457C233.383 138.07 232.455 135.175 232.455 132.201C232.455 129.228 233.383 126.333 235.102 123.946C236.821 121.559 239.239 119.807 241.998 118.95C244.6 118.12 247.385 118.12 249.988 118.95C252.071 119.614 253.965 120.792 255.508 122.382C257.05 123.971 258.194 125.925 258.839 128.074C259.236 129.41 259.44 130.799 259.443 132.197L245.974 132.206Z" fill="#AF342D"/>
<path d="M245.974 132.206L251.224 144.989C250.812 145.157 250.4 145.325 249.988 145.453C248.694 145.866 247.347 146.076 245.993 146.076C243.123 146.081 240.328 145.136 238.017 143.379C235.706 141.623 234.002 139.148 233.156 136.319C232.339 133.635 232.339 130.758 233.156 128.074C234.004 125.247 235.709 122.774 238.019 121.02C240.33 119.265 243.124 118.321 245.993 118.327C249.55 118.327 252.961 119.785 255.477 122.381C257.992 124.976 259.405 128.496 259.405 132.167L245.974 132.206Z" fill="#DBDBDB"/>
<path d="M245.974 132.206L237.208 142.725C235.517 141.206 234.222 139.275 233.441 137.106C232.66 134.938 232.418 132.602 232.737 130.312C233.057 128.023 233.927 125.852 235.269 123.999C236.611 122.146 238.382 120.67 240.419 119.705C242.457 118.741 244.696 118.318 246.933 118.477C249.169 118.636 251.331 119.37 253.222 120.614C255.112 121.857 256.67 123.57 257.754 125.595C258.837 127.62 259.411 129.893 259.424 132.206H245.974Z" fill="#A6A6A6"/>
<path d="M284.495 165.304H265.747L242.525 141.341L242.87 140.995L265.948 164.809H284.495V165.304Z" fill="#263238"/>
<path d="M244.01 139.818H241.395V142.517H244.01V139.818Z" fill="#263238"/>
<path d="M284.495 146.768H263.371L253.341 136.418L253.676 136.062L263.562 146.274H284.495V146.768Z" fill="#263238"/>
<path d="M254.806 134.895H252.201V137.594H254.806V134.895Z" fill="#263238"/>
<path d="M284.495 128.42H252.546V128.914H284.495V128.42Z" fill="#263238"/>
<path d="M253.513 127.323H250.898V130.021H253.513V127.323Z" fill="#263238"/>
<path d="M317.852 125.969H292.724V128.193H317.852V125.969Z" fill="#DBDBDB"/>
<path d="M326.675 130.615H292.724V132.839H326.675V130.615Z" fill="#DBDBDB"/>
<path d="M310.743 135.271H292.724V137.495H310.743V135.271Z" fill="#DBDBDB"/>
<path d="M287.119 125.969H281.879V131.375H287.119V125.969Z" fill="#AF342D"/>
<path d="M322.594 143.97H292.724V146.194H322.594V143.97Z" fill="#DBDBDB"/>
<path d="M316.348 148.617H292.724V150.841H316.348V148.617Z" fill="#DBDBDB"/>
<path d="M326.675 153.273H292.724V155.497H326.675V153.273Z" fill="#DBDBDB"/>
<path d="M287.119 143.97H281.879V149.377H287.119V143.97Z" fill="#A6A6A6"/>
<path d="M322.594 161.972H292.724V164.196H322.594V161.972Z" fill="#DBDBDB"/>
<path d="M316.348 166.618H292.724V168.842H316.348V166.618Z" fill="#DBDBDB"/>
<path d="M326.675 171.274H292.724V173.498H326.675V171.274Z" fill="#DBDBDB"/>
<path d="M287.119 161.972H281.879V167.379H287.119V161.972Z" fill="#C7C7C7"/>
<path d="M212.626 278.909L214.484 290.446L227.12 360.822H229.151L219.964 290.446L218.613 278.909H212.626Z" fill="#DBDBDB"/>
<path d="M218.613 278.909H212.626L214.484 290.446H219.964L218.613 278.909Z" fill="#A6A6A6"/>
<path d="M172.965 360.822H175.006L187.632 290.446L189.5 278.909H183.513L182.152 290.446L172.965 360.822Z" fill="#DBDBDB"/>
<path d="M183.513 278.909L182.152 290.446H187.632L189.5 278.909H183.513Z" fill="#A6A6A6"/>
<path d="M135.096 360.822H137.127L149.753 290.446L151.621 278.909H145.634L144.273 290.446L135.096 360.822Z" fill="#DBDBDB"/>
<path d="M144.273 290.446H149.753L151.621 278.909H145.634L144.273 290.446Z" fill="#A6A6A6"/>
<path d="M138.315 284.337H230.847V274.273H196.216L184.567 204.382H141.85L138.315 284.337Z" fill="#DBDBDB"/>
<path d="M138.315 284.337H143.363L146.649 204.382H141.85L138.315 284.337Z" fill="#A6A6A6"/>
<path d="M348.594 337.264C351.947 336.691 356.018 337.314 358.528 339.824C358.624 339.923 358.528 340.061 358.375 340.022C355.208 338.888 351.932 338.109 348.603 337.699C348.547 337.7 348.493 337.679 348.453 337.639C348.412 337.599 348.389 337.544 348.388 337.487C348.386 337.429 348.407 337.373 348.446 337.331C348.485 337.29 348.538 337.265 348.594 337.264Z" fill="#263238"/>
<path d="M346.151 338.707C349.504 338.134 353.585 338.757 356.085 341.267C356.181 341.366 356.085 341.505 355.932 341.465C352.764 340.336 349.488 339.557 346.16 339.142C346.133 339.143 346.105 339.138 346.079 339.128C346.053 339.117 346.03 339.102 346.01 339.082C345.99 339.062 345.974 339.039 345.963 339.013C345.951 338.987 345.945 338.958 345.945 338.93C345.944 338.901 345.949 338.873 345.959 338.846C345.969 338.82 345.984 338.795 346.003 338.775C346.022 338.754 346.045 338.737 346.07 338.726C346.096 338.714 346.123 338.708 346.151 338.707Z" fill="#263238"/>
<path d="M343.708 340.151C347.061 339.587 351.142 340.2 353.642 342.711C353.738 342.81 353.642 342.948 353.499 342.918C350.329 341.779 347.05 340.994 343.718 340.576C343.67 340.566 343.627 340.541 343.596 340.503C343.565 340.465 343.548 340.417 343.546 340.367C343.545 340.318 343.561 340.269 343.59 340.23C343.62 340.19 343.661 340.162 343.708 340.151Z" fill="#263238"/>
<path d="M329.146 355.8C330.919 356.363 381.261 355.009 383.148 353.704C383.876 353.22 384.106 345.637 384.106 336.473V336.177L351.611 336.681V337.244C351.611 337.244 332.566 346.656 330.641 348.316C328.715 349.977 327.374 355.236 329.146 355.8Z" fill="#37474F"/>
<path d="M384.183 336.177V336.473C384.183 345.637 383.915 353.22 383.225 353.704C382.535 354.188 371.461 354.9 359.668 355.335C345.557 355.849 330.191 356.106 329.223 355.8C327.451 355.236 328.878 349.977 330.785 348.316C332.691 346.656 351.755 337.244 351.755 337.244V336.681L362.59 336.513L384.183 336.177Z" fill="#37474F"/>
<path d="M329.664 353.763C338.152 353.318 372.4 352.369 380.811 352.597C380.878 352.597 380.878 352.597 380.811 352.597C372.419 353.229 338.161 353.902 329.673 353.862C329.491 353.911 329.491 353.773 329.664 353.763Z" fill="#263238"/>
<path d="M362.484 336.513C361.689 342.128 360.482 350.402 359.611 355.296C345.499 355.81 330.133 356.067 329.166 355.76C327.393 355.197 328.821 349.938 330.727 348.277C332.633 346.616 351.697 337.205 351.697 337.205V336.641L362.484 336.513Z" fill="#263238"/>
<path d="M388.408 336.622L350.452 336.977C350.452 336.977 340.326 198.401 349.331 162.101H376.567C376.567 162.101 383.886 177.512 379.7 194.862L388.408 336.622Z" fill="#455A64"/>
<path d="M385.783 330.077C384.788 329.944 383.787 329.865 382.784 329.84C381.673 329.761 380.562 329.682 379.441 329.633C377.305 329.544 375.159 329.504 373.013 329.494C368.692 329.494 364.391 329.494 360.042 329.642C357.58 329.722 355.117 329.82 352.665 329.959C352.645 329.959 352.625 329.967 352.611 329.982C352.596 329.997 352.588 330.017 352.588 330.038C352.588 330.059 352.596 330.079 352.611 330.094C352.625 330.109 352.645 330.117 352.665 330.117C356.957 330.275 361.287 330.334 365.531 330.423C369.775 330.512 374.153 330.591 378.397 330.502C379.623 330.502 380.849 330.502 382.085 330.404C383.321 330.305 384.566 330.404 385.764 330.226C385.84 330.216 385.869 330.097 385.783 330.077Z" fill="#263238"/>
<path d="M353.269 296.288C352.838 286.165 352.531 276.042 352.253 265.91C351.717 245.664 351.576 225.405 351.832 205.133C351.975 193.764 352.263 182.396 352.598 171.037C352.598 170.909 352.406 170.919 352.397 171.037C351.353 191.372 350.96 211.756 350.941 232.13C350.922 252.505 351.324 272.662 352.291 292.897C352.838 304.256 353.508 315.634 354.543 326.944C354.543 327.042 354.696 327.042 354.696 326.944C354.255 316.732 353.69 306.51 353.269 296.288Z" fill="#263238"/>
<path d="M318.187 341.673C321.54 341.1 325.621 341.723 328.121 344.233C328.217 344.332 328.121 344.47 327.968 344.431C324.801 343.297 321.525 342.518 318.197 342.108C318.141 342.109 318.087 342.088 318.046 342.048C318.006 342.008 317.982 341.953 317.981 341.896C317.98 341.838 318.001 341.782 318.039 341.74C318.078 341.699 318.131 341.674 318.187 341.673Z" fill="#263238"/>
<path d="M315.744 343.116C319.097 342.553 323.178 343.166 325.678 345.677C325.774 345.775 325.678 345.914 325.535 345.874C322.363 344.742 319.085 343.961 315.754 343.542C315.706 343.532 315.664 343.506 315.633 343.468C315.601 343.43 315.584 343.383 315.583 343.333C315.582 343.283 315.597 343.235 315.626 343.195C315.656 343.156 315.697 343.128 315.744 343.116Z" fill="#263238"/>
<path d="M313.292 344.53C316.645 343.967 320.716 344.58 323.216 347.09C323.312 347.189 323.216 347.337 323.073 347.298C319.901 346.175 316.622 345.406 313.292 345.005C313.231 345.005 313.172 344.98 313.129 344.935C313.086 344.891 313.062 344.83 313.062 344.767C313.062 344.704 313.086 344.644 313.129 344.6C313.172 344.555 313.231 344.53 313.292 344.53Z" fill="#263238"/>
<path d="M298.74 360.209C300.512 360.772 350.854 359.418 352.742 358.113C353.47 357.629 353.7 350.046 353.7 340.882V340.576L321.205 341.07V341.634C321.205 341.634 302.16 351.045 300.234 352.706C298.309 354.366 297.006 359.645 298.74 360.209Z" fill="#37474F"/>
<path d="M299.257 358.172C307.745 357.737 341.993 356.778 350.404 357.006C350.471 357.006 350.471 357.055 350.404 357.055C342.012 357.688 307.754 358.36 299.267 358.32C299.085 358.37 299.085 358.182 299.257 358.172Z" fill="#263238"/>
<path d="M359.975 198.124C359.975 198.124 357.302 254.334 357.206 255.668C357.206 256.182 355.961 342.919 355.961 342.919L318.015 343.275C318.015 343.275 323.207 261.965 323.762 254.027C323.83 253.108 325.975 198.44 334.981 162.14H375.772C375.772 162.14 375.417 181.15 367.045 194.901C364.631 195.837 362.271 196.913 359.975 198.124Z" fill="#455A64"/>
<path d="M357.024 199.211C359.036 198.084 361.086 197.066 363.193 196.136C365.301 195.207 367.447 194.367 369.545 193.408C369.621 193.408 369.689 193.487 369.612 193.527C367.552 194.624 365.531 195.8 363.442 196.838C361.395 197.855 359.282 198.727 357.12 199.448C357.089 199.461 357.055 199.461 357.024 199.448C356.994 199.435 356.97 199.41 356.957 199.379C356.944 199.347 356.944 199.312 356.957 199.28C356.969 199.249 356.993 199.224 357.024 199.211Z" fill="#263238"/>
<path d="M359.821 198.065C359.821 197.985 359.956 198.005 359.946 198.065C358.576 208.603 356.727 333.844 356.411 336.839C356.411 336.886 356.393 336.932 356.36 336.965C356.328 336.998 356.284 337.017 356.238 337.017C356.193 337.017 356.149 336.998 356.117 336.965C356.084 336.932 356.066 336.886 356.066 336.839C355.999 331.54 356.238 233.109 359.821 198.065Z" fill="#263238"/>
<path d="M341.073 166.124C340.029 171.541 339.301 176.998 338.516 182.495C337.73 187.991 336.973 193.448 336.264 198.934C334.866 209.73 333.62 220.541 332.528 231.369C330.331 253.282 328.735 275.248 327.738 297.267C327.17 309.644 326.825 322.034 326.704 334.437C326.704 334.536 326.857 334.526 326.857 334.437C327.585 312.412 328.62 290.396 330.239 268.421C331.858 246.445 333.984 224.588 336.58 202.76C337.302 196.71 338.056 190.667 338.841 184.63C339.656 178.481 340.614 172.352 341.303 166.183C341.275 166.035 341.073 165.976 341.073 166.124Z" fill="#263238"/>
<path d="M353.901 337.511C352.906 337.374 351.905 337.292 350.902 337.264C349.791 337.185 348.68 337.106 347.569 337.057C345.423 336.968 343.286 336.928 341.14 336.928C336.81 336.928 332.519 336.928 328.16 337.076C325.707 337.155 323.245 337.254 320.783 337.393C320.687 337.393 320.697 337.541 320.783 337.541C325.065 337.699 329.357 337.768 333.649 337.847C337.941 337.926 342.223 338.015 346.505 337.936C347.741 337.936 348.967 337.936 350.194 337.828C351.42 337.719 352.684 337.828 353.882 337.65C353.958 337.61 353.987 337.521 353.901 337.511Z" fill="#263238"/>
<path d="M325.602 152.363C329.578 150.297 345.097 142.794 345.72 141.637C346.342 140.481 352.32 118.139 353.92 114.017C355.52 109.895 360.262 112.168 360.233 118.673C360.204 125.178 360.635 147.697 359.725 151.296C358.815 154.894 341.792 169.09 338.65 172.135C336.283 174.557 323.379 153.51 325.602 152.363Z" fill="#FFD3BA"/>
<path d="M341.821 169.119C339.644 171.363 337.327 173.457 334.885 175.387C332.902 176.83 327.068 180.814 325.305 178.708C324.107 177.275 327.221 174.527 329.453 172.52C330.612 171.472 331.79 169.426 331.091 168.675C329.884 167.36 326.933 170.148 325.113 172.322C321.578 176.524 317.286 183.345 313.828 181.991C312.525 181.476 313.177 179.47 314.384 177.305C312.18 180.112 309.69 182.653 308.214 182.139C307.83 182.009 307.509 181.731 307.32 181.362C307.13 180.993 307.087 180.563 307.199 180.162C306.902 180.456 306.526 180.653 306.12 180.727C305.714 180.801 305.296 180.749 304.919 180.577C303.683 179.915 303.645 178.303 304.143 176.455C303.965 176.497 303.78 176.495 303.604 176.449C303.427 176.402 303.264 176.313 303.127 176.188C300.196 173.835 306.959 161.695 310.044 159.698C316.221 155.879 322.877 152.955 329.827 151.009C334.77 152.858 341.83 169.11 341.821 169.119Z" fill="#FFD3BA"/>
<path d="M324.222 164.76C321.995 165.954 320.052 167.642 318.532 169.703C316.769 172.144 315.658 175.001 314.173 177.611C314.173 177.68 314.25 177.75 314.278 177.671C314.968 176.375 315.782 175.13 316.511 173.855C317.239 172.579 317.909 171.334 318.704 170.148C320.14 167.967 322.036 166.152 324.251 164.839C324.251 164.839 324.251 164.75 324.222 164.76Z" fill="#263238"/>
<path d="M320.956 161.102C318.544 162.667 316.297 164.486 314.25 166.529C312.075 168.833 310.772 171.808 309.46 174.685C308.674 176.418 307.93 178.165 307.228 179.924C307.228 180.003 307.295 180.063 307.333 179.984C308.645 177.018 310.034 174.052 311.51 171.235C312.867 168.558 314.723 166.183 316.97 164.246C318.264 163.148 319.624 162.14 320.994 161.152C321.013 161.132 320.956 161.082 320.956 161.102Z" fill="#263238"/>
<path d="M316.961 158.314C314.65 159.525 312.57 161.156 310.82 163.129C308.891 165.724 307.282 168.556 306.03 171.561C305.331 173.163 304.689 174.784 304.066 176.425C304.066 176.484 304.152 176.534 304.181 176.425C305.648 172.806 307.341 169.289 309.249 165.897C310.133 164.267 311.254 162.787 312.573 161.507C313.948 160.311 315.415 159.233 316.961 158.285C316.961 158.285 316.97 158.305 316.961 158.314Z" fill="#263238"/>
<path d="M328.294 148.844L347.559 168.843C347.559 168.843 359.227 157.207 360.482 151.335C361.737 145.463 361.776 122.874 360.482 116.073C359.189 109.272 354.936 107.038 352.081 116.409C349.226 125.781 345.758 140.461 345.49 141.005C345.222 141.548 328.294 148.844 328.294 148.844Z" fill="#74927A"/>
<path d="M350.912 162.634C349.703 161.222 348.424 159.876 347.08 158.601C345.777 157.276 344.436 156.011 343.085 154.736C340.384 152.195 337.605 149.724 334.76 147.351C334.674 147.272 334.54 147.351 334.626 147.48C337.184 150.218 339.838 152.887 342.539 155.467C343.88 156.743 345.231 158.008 346.62 159.234C347.951 160.492 349.345 161.677 350.797 162.783C350.893 162.812 350.979 162.684 350.912 162.634Z" fill="#263238"/>
<path d="M348.632 120.215C350.835 120.393 355.549 116.261 357.445 112.781C357.383 110.797 357.223 108.817 356.966 106.85C356.804 104.952 356.669 102.836 356.689 100.918C356.689 100.513 355.367 101.235 355.367 101.235L352.933 101.828L344.867 103.805C345.523 106.238 345.887 108.744 345.95 111.269C345.942 111.534 345.913 111.799 345.863 112.06C345.863 112.06 345.863 112.139 345.863 112.198C345.595 113.661 345.193 119.938 348.632 120.215Z" fill="#FFD3BA"/>
<path d="M345.863 112.02C345.863 112.02 345.863 112.099 345.863 112.158C346.267 112.213 346.673 112.236 347.08 112.228C355.022 112.109 356.095 101.689 356.095 101.689L352.953 101.808L344.886 103.785C345.542 106.218 345.906 108.725 345.969 111.249C345.953 111.508 345.918 111.766 345.863 112.02Z" fill="#263238"/>
<path d="M357.014 84.439C358.758 88.5811 357.972 101.245 355.28 104.349C351.448 108.857 344.465 110.063 340.575 105.13C336.81 100.355 338.171 83.8855 341.198 80.989C345.653 76.7184 354.485 78.3198 357.014 84.439Z" fill="#FFD3BA"/>
<path d="M338.784 87.9089C338.784 87.9089 337.826 92.654 336.868 97.3694L338.42 97.1618L338.065 99.2971C338.622 99.4268 339.199 99.434 339.759 99.3181C340.318 99.2023 340.848 98.9661 341.313 98.6249L338.784 87.9089Z" fill="#FFD3BA"/>
<path d="M340.451 93.0593C340.451 93.0593 340.518 93.0593 340.508 93.1384C340.393 93.9884 340.403 94.9769 341.121 95.3426C340.211 95.1548 340.211 93.8402 340.451 93.0593Z" fill="#263238"/>
<path d="M341.284 92.2487C342.616 92.2487 342.434 95.046 341.198 95.0065C339.962 94.967 340.163 92.219 341.284 92.2487Z" fill="#263238"/>
<path d="M342.415 91.2599C342.06 91.1413 341.744 90.9634 341.457 90.8151C341.076 90.708 340.74 90.4754 340.499 90.1528C340.444 90.0375 340.429 89.9067 340.455 89.7813C340.481 89.6558 340.547 89.543 340.642 89.4609C340.852 89.3205 341.094 89.2408 341.343 89.2304C341.593 89.22 341.841 89.2791 342.06 89.4016C342.539 89.5771 342.938 89.9292 343.181 90.3901C343.241 90.5036 343.265 90.6334 343.25 90.7616C343.234 90.8898 343.181 91.01 343.097 91.1055C343.013 91.201 342.902 91.2672 342.78 91.2949C342.657 91.3225 342.53 91.3103 342.415 91.2599Z" fill="#263238"/>
<path d="M341.543 98.4667C341.196 98.885 340.745 99.198 340.239 99.3721C339.732 99.5463 339.19 99.575 338.669 99.4552C338.611 99.4552 338.583 99.3761 338.602 99.3761C339.635 99.3554 340.637 99.0107 341.476 98.3877C341.572 98.3778 341.6 98.3778 341.543 98.4667Z" fill="#263238"/>
<path d="M339.704 83.8558C336.925 82.9957 334.99 76.6689 335.958 74.326C336.925 71.9832 339.205 75.6804 339.205 75.6804C339.205 75.6804 339.435 73.466 340.412 73.2189C341.39 72.9717 343.21 76.0165 343.21 76.0165C343.21 76.0165 352.541 76.6294 354.533 77.3708C356.526 78.1122 357.129 80.8802 357.129 80.8802C357.96 81.2606 358.701 81.824 359.298 82.5311C359.895 83.2381 360.336 84.0716 360.588 84.9729C361.546 88.1758 358.461 100.207 356.535 101.838C354.61 103.469 349.274 94.3148 349.274 94.3148C349.274 94.3148 347.837 94.5125 347.243 91.5468C346.371 87.1477 346.132 84.3501 344.014 83.9052C342.583 83.7399 341.138 83.7233 339.704 83.8558Z" fill="#263238"/>
<path d="M348.833 94.8387C348.833 94.8387 351.19 90.5681 353.048 91.3985C354.907 92.2289 353.384 98.2394 351.381 99.2378C351.134 99.3842 350.86 99.4774 350.576 99.5118C350.293 99.5462 350.006 99.5211 349.732 99.438C349.458 99.3548 349.203 99.2155 348.983 99.0282C348.763 98.8409 348.581 98.6096 348.45 98.3481L348.833 94.8387Z" fill="#FFD3BA"/>
<path d="M352.569 93.1088C352.569 93.1088 352.617 93.1088 352.569 93.1681C351.933 93.5746 351.387 94.1147 350.966 94.7533C350.545 95.3919 350.259 96.1147 350.126 96.8747C350.197 96.7153 350.299 96.5735 350.428 96.4592C350.556 96.3449 350.708 96.2608 350.871 96.2129C351.034 96.1649 351.205 96.1542 351.373 96.1814C351.54 96.2086 351.7 96.2732 351.841 96.3706V96.4596C351.579 96.3984 351.305 96.4237 351.057 96.5319C350.81 96.6401 350.602 96.8257 350.462 97.0625C350.224 97.4569 350.031 97.8781 349.887 98.3178C349.83 98.4661 349.59 98.4167 349.619 98.2486C349.398 96.3113 350.596 93.4943 352.569 93.1088Z" fill="#263238"/>
<path d="M348.115 124.377C340.776 138.948 327.796 155.319 315.141 161.428C307.429 165.135 301.729 163.139 299.439 160.183C296.115 155.942 302.591 128.687 307.582 120.472C309.211 117.813 333.333 124.792 331.714 127.708C330.095 130.625 337.462 121.896 345.423 115.342C353.594 108.57 352.569 115.579 348.115 124.377Z" fill="#FFD3BA"/>
<path d="M315.303 105.94C318.177 103.726 321.368 100.938 325.008 99.8606C328.648 98.7831 333.122 102.767 333.544 104.171C333.965 105.575 335.22 114.837 331.628 115.984C328.035 117.131 328.179 109.667 327.796 108.936C327.413 108.204 326.991 107.255 326.33 107.542C325.669 107.828 315.447 117.427 315.447 117.427L315.303 105.94Z" fill="#FFD3BA"/>
<path d="M315.687 106.385C315.888 106.326 324.414 99.2972 328.064 98.2196C331.714 97.1421 336.178 101.126 336.6 102.54C337.021 103.953 338.276 113.196 334.684 114.343C331.091 115.49 331.235 108.026 330.852 107.295C330.468 106.563 330.057 105.614 329.395 105.911C328.734 106.207 318.513 115.796 318.513 115.796L315.687 106.385Z" fill="#FFD3BA"/>
<path d="M333.285 114.264C332.707 113.727 332.271 113.047 332.02 112.287C331.706 111.513 331.512 110.692 331.446 109.855C331.446 109.12 331.388 108.386 331.273 107.66C331.06 106.97 330.685 106.345 330.181 105.841C329.74 105.406 329.223 105.752 328.859 106.069C328.261 106.543 327.694 107.058 327.163 107.611L325.42 109.351C324.8 109.931 324.218 110.552 323.676 111.209C323.676 111.259 323.676 111.338 323.753 111.298C324.304 110.85 324.832 110.371 325.334 109.865C325.921 109.311 326.515 108.768 327.115 108.234C327.671 107.73 328.208 107.196 328.773 106.701C328.974 106.524 329.357 106.128 329.645 106.098C329.932 106.069 330.286 106.741 330.411 106.949C330.765 107.57 330.932 108.286 330.89 109.005C330.894 109.733 330.971 110.458 331.12 111.17C331.253 111.842 331.5 112.484 331.848 113.068C332.244 113.564 332.694 114.012 333.189 114.402C333.256 114.432 333.352 114.313 333.285 114.264Z" fill="#263238"/>
<path d="M307.467 120.759C307.467 120.759 311.788 109.993 315.878 104.685C319.49 99.9792 324.136 96.2227 328.045 94.9376C331.953 93.6524 341.648 104.131 338.429 105.812C335.038 107.552 330.516 102.213 329.118 103.538C327.556 105.021 325.726 107.492 326.464 109.568C327.202 111.644 330.296 114.847 333.601 113.681C336.906 112.514 336.561 107.868 339.493 106.326C342.424 104.784 343.181 110.171 342.003 114.234C340.683 118.233 338.291 121.764 335.105 124.417C332.528 126.463 324.692 133.314 324.692 133.314L307.467 120.759Z" fill="#FFD3BA"/>
<path d="M337.155 106.148C335.878 106.199 334.611 105.895 333.486 105.268C332.403 104.649 331.283 104.101 330.133 103.627C330.021 103.584 329.9 103.568 329.781 103.58C329.661 103.592 329.546 103.632 329.443 103.696C329.208 103.864 328.99 104.056 328.792 104.27C328.37 104.723 327.985 105.213 327.642 105.733C326.991 106.721 326.359 107.977 326.684 109.054C327.044 110.224 327.707 111.27 328.6 112.079C329.472 112.93 330.582 113.473 331.771 113.631C332.364 113.668 332.957 113.594 333.524 113.414C334.095 113.195 334.617 112.859 335.057 112.425C335.945 111.523 336.629 110.429 337.059 109.222C336.749 110.506 336.148 111.695 335.306 112.692C334.847 113.18 334.292 113.561 333.678 113.809C333.066 114.049 332.416 114.167 331.762 114.155C330.432 114.049 329.176 113.481 328.198 112.544C327.172 111.668 326.402 110.514 325.975 109.212C325.797 108.505 325.854 107.756 326.138 107.087C326.387 106.456 326.708 105.858 327.096 105.308C327.469 104.762 327.886 104.249 328.342 103.775C328.584 103.527 328.851 103.305 329.137 103.113C329.311 103.023 329.5 102.97 329.694 102.956C329.888 102.943 330.083 102.969 330.267 103.034C330.877 103.272 331.461 103.573 332.011 103.934L333.639 104.922C334.693 105.629 335.902 106.051 337.155 106.148Z" fill="#263238"/>
<path d="M304.545 121.718L332.241 127.046L331.858 127.946C331.858 127.946 343.21 115.796 348.143 111.971C353.891 107.502 353.604 113.859 350.893 120.403C348.182 126.947 331.733 156.565 316.53 164.631C311.222 167.439 299.822 163.771 298.558 159.6C296.259 152.126 304.545 121.718 304.545 121.718Z" fill="#74927A"/>
<path d="M331.925 127.788C330.667 128.788 329.474 129.871 328.351 131.03C326.876 132.463 325.429 133.917 323.983 135.38C321.09 138.286 318.216 141.229 315.361 144.208C315.006 144.583 314.662 144.969 314.317 145.344C313.713 145.621 313.138 145.947 312.554 146.254C311.97 146.56 311.155 147.005 310.437 147.361C310.423 147.372 310.414 147.388 310.41 147.406C310.406 147.424 310.408 147.442 310.416 147.458C310.424 147.475 310.437 147.488 310.453 147.495C310.469 147.503 310.487 147.504 310.504 147.5C311.213 147.183 311.931 146.877 312.621 146.511C313.017 146.313 313.41 146.106 313.799 145.888C312.726 147.035 311.653 148.182 310.6 149.348C310.542 149.417 310.6 149.516 310.715 149.457C316.645 143.911 322.393 138.128 327.958 132.187C328.754 131.336 331.283 128.816 331.972 127.877C332.049 127.837 331.992 127.738 331.925 127.788Z" fill="#263238"/>
<path d="M327.278 131.712C325.533 131.16 323.762 130.701 321.971 130.338C320.189 129.913 318.398 129.547 316.606 129.201C313.014 128.489 309.393 127.886 305.772 127.392C305.647 127.392 305.599 127.55 305.772 127.58C309.335 128.568 312.947 129.369 316.558 130.11C318.35 130.476 320.141 130.832 321.952 131.099C323.722 131.454 325.51 131.711 327.307 131.87C327.365 131.899 327.365 131.741 327.278 131.712Z" fill="#263238"/>
<path d="M348.028 126.236C343.861 132.997 339.617 139.7 335.038 146.175C333.697 148.063 332.394 149.981 331.034 151.869C331.034 151.948 331.082 152.057 331.149 151.978C336.131 145.767 340.662 139.185 344.704 132.286C345.883 130.308 347.023 128.331 348.086 126.275L348.028 126.236Z" fill="#263238"/>
<path d="M382.669 179.549C382.545 179.687 330.286 180.725 329.798 180.181C329.118 179.41 337.663 125.346 345.969 113.562C348.048 110.596 355.462 108.619 358.547 111.585C367.495 120.255 369.372 127.531 371.7 133.482C373.969 139.908 375.869 146.467 377.391 153.124C380.514 165.837 383.091 179.035 382.669 179.549Z" fill="#74927A"/>
<path d="M342.118 122.874C340.585 126.997 339.244 131.208 338.008 135.439C336.772 139.67 335.67 143.862 334.856 148.162C334.626 149.378 334.406 150.594 334.205 151.81C334.003 153.026 333.841 154.34 333.534 155.576C333.534 155.675 333.659 155.705 333.678 155.576C334.051 153.418 334.55 151.286 335.172 149.19C335.718 147.035 336.293 144.89 336.82 142.725C337.835 138.474 338.956 134.253 340.144 130.051C340.834 127.649 341.562 125.267 342.28 122.874C342.309 122.805 342.156 122.776 342.118 122.874Z" fill="#263238"/>
<path d="M104.296 294.628L106.318 307.182L120.065 383.766H122.278L112.286 307.182L110.811 294.628H104.296Z" fill="#DBDBDB"/>
<path d="M110.811 294.628H104.296L106.318 307.182H112.286L110.811 294.628Z" fill="#A6A6A6"/>
<path d="M61.1389 383.766H63.3519L77.0991 307.182L79.1204 294.628H72.6061L71.1308 307.182L61.1389 383.766Z" fill="#DBDBDB"/>
<path d="M72.6061 294.628L71.1308 307.182H77.0991L79.1204 294.628H72.6061Z" fill="#A6A6A6"/>
<path d="M19.9262 383.766H22.1392L35.8767 307.182L37.9077 294.628H31.3933L29.918 307.182L19.9262 383.766Z" fill="#DBDBDB"/>
<path d="M29.918 307.182H35.8768L37.9077 294.628H31.3933L29.918 307.182Z" fill="#A6A6A6"/>
<path d="M23.4324 300.529H124.127V289.576H86.4299L73.7653 213.526H27.274L23.4324 300.529Z" fill="#DBDBDB"/>
<path d="M23.4324 300.529H28.9217L32.5046 213.526H27.274L23.4324 300.529Z" fill="#A6A6A6"/>
<path d="M231.795 374.948C229.927 375.611 176.548 375.798 174.508 374.474C173.722 373.98 173.243 365.952 172.936 356.245L145.432 322.881L186.358 322.643L207.357 356.017C207.357 356.017 227.82 365.379 229.918 367.079C232.016 368.78 233.654 374.306 231.795 374.948Z" fill="#F4BBB1"/>
<path d="M231.795 374.948C229.927 375.611 176.548 375.798 174.508 374.474C173.808 374.039 173.358 367.692 173.051 359.497C178.177 360.416 221.43 368.088 223.48 366.911C225.53 365.735 219.016 361.494 219.016 361.494H219.092C224.074 363.866 228.95 366.288 229.918 367.069C231.987 368.77 233.654 374.306 231.795 374.948Z" fill="#263238"/>
<path d="M203.295 365.398C203.295 365.398 208.784 358.825 219.016 361.494L203.295 365.398Z" fill="#263238"/>
<path d="M210.921 355.642L190.123 357.747L169.593 359.833C169.593 359.833 128.399 299.402 125.899 296.763C120.151 290.831 73.8898 281.203 61.4072 268.401C48.1869 254.848 53.954 237.706 53.954 237.706H88.4417C88.4417 237.706 92.8101 249.134 94.6495 249.727C114.566 256.113 141.093 264.14 149.715 271.989C165.177 286.096 210.921 355.642 210.921 355.642Z" fill="#263238"/>
<path d="M204.445 349.097C198.591 349.661 200.258 349.414 194.424 350.086C191.55 350.392 172.783 352.458 170.168 353.239C170.101 353.239 170.168 353.357 170.168 353.357C172.889 353.496 191.627 351.094 194.482 350.728C200.316 349.967 198.63 350.125 204.454 349.305C204.481 349.304 204.506 349.291 204.524 349.271C204.542 349.251 204.551 349.224 204.55 349.196C204.549 349.169 204.537 349.143 204.517 349.124C204.498 349.106 204.471 349.096 204.445 349.097Z" fill="#ECC46F"/>
<path d="M170.695 349.601C163.931 340.062 157.015 330.206 150.098 320.775L139.723 306.629C137.986 304.263 136.249 301.907 134.511 299.56C133.05 297.444 131.398 295.474 129.578 293.678C127.682 292.039 125.557 290.706 123.274 289.724C120.87 288.617 118.398 287.668 115.907 286.758C110.734 284.92 105.465 283.427 100.225 281.816C90.5014 278.85 80.6532 275.598 72.2804 269.548C64.7506 264.101 58.4662 256.014 56.6747 246.534C56.4531 245.331 56.3313 244.11 56.3107 242.886C56.3107 242.865 56.3026 242.845 56.2882 242.83C56.2739 242.815 56.2544 242.807 56.2341 242.807C56.2137 242.807 56.1942 242.815 56.1799 242.83C56.1655 242.845 56.1574 242.865 56.1574 242.886C56.3457 247.49 57.5029 251.997 59.5487 256.093C61.6957 260.287 64.5767 264.034 68.0461 267.145C75.5184 273.976 84.9738 277.921 94.3812 280.985C99.5927 282.676 104.919 284.139 110.102 285.78C112.755 286.62 115.38 287.5 117.977 288.488C120.466 289.377 122.89 290.451 125.229 291.701C127.504 292.972 129.531 294.668 131.206 296.703C132.979 298.849 134.55 301.182 136.188 303.436C139.637 308.161 143.095 312.88 146.563 317.592C153.528 327.092 160.444 336.641 167.514 346.062C168.396 347.239 169.287 348.395 170.168 349.562C170.407 349.938 170.982 350.007 170.695 349.601Z" fill="#ECC46F"/>
<path d="M143.785 386.386C141.917 387.009 88.5375 386.297 86.5257 384.933C85.7497 384.438 93.9214 330.789 93.9214 330.789L129.635 331.155L119.663 367.05C119.663 367.05 139.972 376.747 142.032 378.487C144.091 380.227 145.643 385.773 143.785 386.386Z" fill="#F4BBB1"/>
<path d="M143.785 386.386C141.917 387.009 88.5375 386.297 86.5257 384.933C86.2766 384.775 86.9568 379.061 88.001 371.399C90.1757 355.404 93.9118 330.789 93.9118 330.789L129.626 331.155L119.653 367.05C119.653 367.05 125.966 370.065 131.906 373.03C136.619 375.383 141.093 377.706 142.003 378.477C144.082 380.217 145.643 385.773 143.785 386.386Z" fill="#F4BBB1"/>
<path d="M143.785 386.386C141.917 387.009 88.5375 386.297 86.5257 384.933C86.2766 384.775 86.9568 379.061 88.001 371.399C93.27 372.329 105.858 374.533 116.894 376.263L118.178 376.461C127.566 377.904 135.537 378.942 136.38 378.438C138.497 377.212 132.27 373.238 131.925 373.03C136.638 375.383 141.112 377.706 142.022 378.477C144.082 380.217 145.643 385.773 143.785 386.386Z" fill="#263238"/>
<path d="M116.214 376.945C116.214 376.945 121.703 370.362 131.925 372.991L116.214 376.945Z" fill="#263238"/>
<path d="M122.096 366.565L84.6384 366.377C84.6384 366.377 102.179 297.89 101.336 292.72C100.943 290.327 59.3283 293.926 44.3837 277.753C31.5275 263.834 43.3682 237.765 43.3682 237.765L83.4505 236.777C83.4505 236.777 79.7527 247.967 77.2332 254.907C77.2332 254.907 132.193 258.911 138.363 271.347C144.944 284.633 122.096 366.565 122.096 366.565Z" fill="#263238"/>
<path d="M82.4159 239.525C82.0136 241.72 81.6687 243.924 81.1801 246.099C80.9502 247.087 80.7394 248.165 80.4425 249.173C80.3509 249.617 80.1141 250.015 79.7719 250.3C79.3666 250.535 78.9036 250.641 78.4403 250.607C78.2272 250.638 78.01 250.619 77.8053 250.551C77.6005 250.482 77.4137 250.366 77.2592 250.211C77.1048 250.057 76.9867 249.868 76.9141 249.658C76.8415 249.449 76.8163 249.226 76.8404 249.005C76.8404 246.969 78.1625 240.029 78.2391 239.456C78.2391 239.347 77.8942 239.298 77.8655 239.456C76.9075 243.815 75.5951 249.341 76.3998 250.439C76.8352 250.987 77.4466 251.357 78.1232 251.48C78.7998 251.603 79.4969 251.472 80.088 251.111C80.5976 250.684 80.9383 250.079 81.046 249.411C81.2855 248.422 81.4292 247.433 81.6016 246.514C82.004 244.221 82.4351 241.937 82.7225 239.594C82.7126 239.563 82.6951 239.535 82.6715 239.513C82.648 239.491 82.6193 239.476 82.5884 239.469C82.5574 239.462 82.5252 239.464 82.4949 239.473C82.4647 239.483 82.4375 239.501 82.4159 239.525Z" fill="#ECC46F"/>
<path d="M77.8176 251.407C77.7486 251.684 77.6942 251.965 77.6547 252.248C77.5972 252.534 77.5398 252.811 77.4727 253.088C77.4056 253.365 77.3482 253.651 77.2715 253.938C77.1949 254.224 77.1566 254.491 77.0991 254.778C77.0976 254.802 77.1037 254.825 77.1164 254.845C77.1291 254.865 77.1477 254.88 77.1694 254.888C77.1912 254.895 77.2148 254.896 77.2367 254.888C77.2586 254.881 77.2775 254.867 77.2907 254.847C77.4162 254.59 77.5281 254.326 77.626 254.056C77.7122 253.77 77.7984 253.493 77.875 253.206C77.9517 252.92 78.0092 252.643 78.0666 252.356C78.1485 252.07 78.1967 251.775 78.2103 251.477C78.2103 251.279 77.8846 251.2 77.8176 251.407Z" fill="#ECC46F"/>
<path d="M107.918 290.851C107.151 288.716 104.957 288.419 103.032 288.291C100.273 288.106 97.5171 287.866 94.7645 287.569C89.2656 286.976 83.7923 286.159 78.3445 285.117C73.1642 284.236 68.0444 283.011 63.0166 281.45C58.3723 280.061 54.0812 277.634 50.4478 274.342C47.0435 271.245 44.7965 267.017 44.0963 262.39C43.8391 259.571 43.9131 256.73 44.3167 253.928C44.6328 251.111 45.0256 248.313 45.5716 245.535C45.8495 244.161 46.156 242.807 46.5296 241.462C46.5242 241.447 46.5144 241.434 46.5015 241.425C46.4887 241.416 46.4734 241.411 46.4578 241.411C46.4421 241.411 46.4269 241.416 46.414 241.425C46.4012 241.434 46.3914 241.447 46.3859 241.462C44.9985 246.87 44.0374 252.384 43.512 257.952C43.2737 260.498 43.4715 263.068 44.0963 265.544C44.7204 267.675 45.6924 269.681 46.9703 271.475C52.6416 279.582 62.4035 282.518 71.4278 284.524C76.8309 285.73 82.2595 286.719 87.7136 287.49C90.3673 287.856 93.0305 288.182 95.6937 288.479C98.3569 288.775 101.087 288.894 103.779 289.141C104.354 289.123 104.926 289.229 105.458 289.452C105.991 289.675 106.473 290.01 106.873 290.436C107.163 290.931 107.355 291.48 107.439 292.052C107.523 292.623 107.497 293.206 107.362 293.767C107.161 295.062 106.787 296.338 106.481 297.613C106.174 298.888 105.82 300.332 105.523 301.686C104.143 307.347 102.773 313.018 101.413 318.699C98.7018 329.998 95.9236 341.298 93.3945 352.646C93.0784 354.05 92.7718 355.454 92.4844 356.868C92.4781 356.894 92.4821 356.921 92.4956 356.945C92.509 356.968 92.5309 356.985 92.5563 356.991C92.5817 356.998 92.6086 356.993 92.631 356.98C92.6535 356.966 92.6697 356.943 92.676 356.917C94.2663 351.312 95.55 345.618 96.9774 339.953C98.4048 334.289 99.7747 328.624 101.145 322.96C102.515 317.295 103.885 311.7 105.235 306.065C105.874 303.225 106.551 300.388 107.266 297.554C107.736 295.468 108.674 292.937 107.918 290.851Z" fill="#ECC46F"/>
<path d="M122.498 360.001C118.159 359.724 113.809 359.616 109.46 359.467C105.111 359.319 100.781 359.26 96.4409 359.339C93.9693 359.339 91.5073 359.556 89.0357 359.596C88.9399 359.596 88.9494 359.744 89.0357 359.744C93.3849 359.744 97.7246 360.1 102.074 360.12C106.423 360.139 110.753 360.12 115.093 360.12C117.555 360.12 120.027 360.209 122.498 360.189C122.652 360.169 122.652 360.011 122.498 360.001Z" fill="#ECC46F"/>
<path d="M61.9628 243.805C61.9094 244.001 61.8355 244.19 61.7425 244.369C61.7316 244.383 61.7257 244.4 61.7257 244.418C61.7257 244.436 61.7316 244.454 61.7425 244.468C60.8516 247.532 59.7307 250.686 57.125 252.623C55.7866 253.604 54.2965 254.343 52.7182 254.808C50.8789 255.362 48.9629 255.52 47.114 256.044C47.0737 256.063 47.0406 256.095 47.02 256.136C46.9993 256.177 46.9923 256.223 47 256.268C47.0076 256.313 47.0295 256.355 47.0623 256.386C47.095 256.416 47.1368 256.435 47.1811 256.439C49.2574 256.534 51.336 256.314 53.3505 255.787C55.0877 255.384 56.721 254.602 58.1405 253.493C61.0144 251.091 61.8287 247.473 62.2119 243.825C62.2023 243.697 62.0012 243.697 61.9628 243.805Z" fill="#ECC46F"/>
<path d="M137.251 269.291C135.517 266.888 132.969 265.593 130.267 264.684C112.066 258.515 89.7541 255.787 77.5781 254.749C77.4823 254.749 77.444 254.887 77.5781 254.897C90.7409 256.943 124.433 261.6 133.956 267.462C138.037 269.973 139.828 275.993 138.688 285.898C137.778 293.807 136.772 302.309 135.517 310.128C135.517 310.405 135.651 310.385 135.709 310.128C137.155 303.07 138.401 295.349 139.282 288.192C139.991 282.004 141.122 274.649 137.251 269.291Z" fill="#ECC46F"/>
<path d="M63.0358 157.474C58.7248 163.119 58.2458 171.581 58.2458 171.581C58.2458 171.581 54.5288 180.478 56.3298 184.857C56.8284 186.1 57.612 187.199 58.6132 188.06C59.6145 188.921 60.8034 189.518 62.0778 189.8L61.388 187.349C61.388 187.349 63.304 190.374 68.755 191.016C74.2059 191.659 80.9406 189.118 84.3415 186.775C86.3743 185.404 88.0253 183.51 89.1315 181.279L88.1735 185.085C89.8643 184.674 91.4303 183.838 92.7323 182.651C94.0344 181.464 95.0319 179.964 95.6362 178.283C98.012 172.293 88.3555 165.313 87.4166 163.672C86.4778 162.031 84.0541 149.496 71.4086 153.283C71.399 153.292 66.0055 153.599 63.0358 157.474Z" fill="#263238"/>
<path d="M60.248 189.711C58.6765 189.055 57.3386 187.916 56.4161 186.449C55.4315 185.029 54.9388 183.309 55.0174 181.565C55.2515 179.494 55.8488 177.484 56.7801 175.634C57.6231 173.657 58.6003 171.789 59.405 169.821C59.405 169.713 59.29 169.643 59.223 169.732C58.2452 171.267 57.3528 172.858 56.5502 174.497C55.6985 176.004 55.0232 177.61 54.5384 179.282C54.098 180.828 54.098 182.471 54.5384 184.017C54.9142 185.277 55.5855 186.421 56.4927 187.349C57.6162 188.342 58.859 189.183 60.1905 189.85C60.2672 189.879 60.3821 189.741 60.248 189.711Z" fill="#263238"/>
<path d="M96.0386 172.382C93.9501 167.913 89.5434 165.462 86.6023 161.715C85.0025 159.679 83.6805 157.375 81.7166 155.685C81.7166 155.635 81.592 155.685 81.6399 155.774C83.1426 157.406 84.4722 159.199 85.606 161.122C86.9289 162.945 88.4279 164.624 90.0798 166.134C93.0113 168.981 96.508 172.342 96.4409 176.84C96.4409 178.926 95.4829 181.328 93.5669 182.218C93.4903 182.218 93.5669 182.386 93.634 182.337C94.3957 181.906 95.064 181.319 95.5978 180.611C96.1316 179.904 96.5196 179.092 96.7379 178.224C97.1969 176.253 96.9484 174.178 96.0386 172.382Z" fill="#263238"/>
<path d="M96.3739 173.617C96.3142 171.826 95.7148 170.098 94.659 168.675C93.5207 167.35 92.1189 166.295 90.5493 165.58C88.8057 164.671 86.9855 163.84 85.7593 162.209C85.7593 162.14 85.6156 162.209 85.6635 162.298C87.637 164.987 90.8846 165.956 93.2604 168.131C95.9811 170.622 96.4505 174.675 95.1764 178.016C94.3552 180.088 93.0718 181.931 91.4306 183.394C91.4306 183.394 91.4306 183.463 91.4306 183.394C94.2759 181.061 96.5942 177.562 96.3739 173.617Z" fill="#263238"/>
<path d="M84.1403 202.177C91.2486 208.8 116.578 229.017 125.861 226.684C131.944 225.151 153.154 211.766 154.428 204.401C154.984 201.198 144.379 186.103 141.725 188.248C139.071 190.393 122.364 201.782 119.864 202.226C117.363 202.671 91.7371 191.352 83.3164 189.632C68.7933 186.587 80.3179 198.608 84.1403 202.177Z" fill="#F4BBB1"/>
<path d="M144.551 180.992C147.636 179.015 151.027 176.573 154.754 175.842C158.48 175.11 162.581 179.499 162.878 180.943C163.174 182.386 163.606 191.718 159.889 192.519C156.172 193.319 157.015 185.905 156.718 185.144C156.421 184.383 156.066 183.394 155.386 183.622C154.706 183.849 143.67 192.519 143.67 192.519L144.551 180.992Z" fill="#F4BBB1"/>
<path d="M144.896 181.467C145.107 181.467 154.217 175.229 157.944 174.497C161.671 173.766 165.771 178.155 166.058 179.608C166.346 181.061 166.786 190.374 163.079 191.174C159.371 191.975 160.205 184.561 159.898 183.8C159.592 183.038 159.256 182.05 158.567 182.277C157.877 182.505 146.86 191.174 146.86 191.174L144.896 181.467Z" fill="#F4BBB1"/>
<path d="M161.718 190.967C161.188 190.366 160.818 189.634 160.645 188.841C160.401 188.042 160.278 187.208 160.281 186.37C160.339 185.636 160.339 184.899 160.281 184.165C160.123 183.456 159.794 182.8 159.323 182.257C158.931 181.773 158.423 182.079 157.982 182.346C157.349 182.77 156.742 183.232 156.162 183.73C155.52 184.244 154.898 184.778 154.246 185.302C153.575 185.822 152.935 186.383 152.33 186.983C152.33 187.032 152.33 187.121 152.397 187.082C153.001 186.706 153.537 186.231 154.102 185.796C154.668 185.362 155.377 184.808 156.018 184.343C156.66 183.879 157.197 183.414 157.81 182.969C158.021 182.821 158.442 182.455 158.768 182.455C159.094 182.455 159.343 183.147 159.458 183.375C159.754 184.028 159.854 184.758 159.745 185.47C159.689 186.195 159.705 186.924 159.793 187.645C159.853 188.335 160.042 189.006 160.348 189.622C160.698 190.157 161.107 190.647 161.565 191.085C161.68 191.125 161.785 191.026 161.718 190.967Z" fill="#263238"/>
<path d="M135.172 194.051C135.172 194.051 143.478 182.188 145.231 179.786C148.738 175.011 165.272 163.485 167.735 162.664C170.197 161.844 172.189 166.974 161.029 175.16C155.147 179.48 154.773 183.552 155.281 185.638C155.788 187.724 158.595 191.253 161.987 190.413C165.378 189.573 166.604 183.889 169.65 182.623C172.697 181.358 171.825 187.813 170.292 191.758C168.627 195.617 165.932 198.908 162.523 201.248C159.774 203.047 151.372 209.156 151.372 209.156L135.172 194.051Z" fill="#F4BBB1"/>
<path d="M165.867 186.983C164.784 188.298 163.577 189.948 161.881 190.403C160.186 190.858 158.739 189.919 157.618 188.604C156.417 187.34 155.732 185.649 155.702 183.879C155.787 182.253 156.326 180.688 157.254 179.371C158.39 177.77 159.746 176.348 161.278 175.15C161.287 175.145 161.295 175.138 161.302 175.13C161.308 175.121 161.312 175.111 161.314 175.101C161.316 175.09 161.316 175.079 161.313 175.069C161.31 175.059 161.305 175.049 161.298 175.041C161.291 175.033 161.283 175.027 161.273 175.023C161.263 175.019 161.253 175.018 161.243 175.018C161.232 175.019 161.222 175.023 161.213 175.028C161.204 175.034 161.197 175.042 161.192 175.051C159.745 176.118 155.233 179.282 155.156 183.997C155.198 185.801 155.907 187.521 157.139 188.802C158.193 190.057 159.582 191.184 161.287 190.967C163.357 190.69 164.765 188.604 165.972 187.012C166.039 186.933 165.924 186.914 165.867 186.983Z" fill="#263238"/>
<path d="M134.425 190.443L146.601 215.028C146.601 215.028 130.526 227.207 121.559 227.979C110.677 228.967 83.9391 205.073 79.9156 200.981C73.3246 194.259 72.0696 188.94 76.9841 188.13C78.9001 187.803 81.7741 188.13 85.606 189.405C89.6009 190.7 113.388 200.071 120.017 200.882C123.657 201.327 134.425 190.443 134.425 190.443Z" fill="#ECC46F"/>
<path d="M134.416 190.443L146.601 215.028C146.601 215.028 143.938 217.005 140.164 219.487C134.674 223.046 126.867 227.514 121.559 227.969C110.686 228.957 83.9296 205.064 79.9156 200.971C75.1256 196.107 73.2096 191.975 74.3113 189.761C74.5989 189.288 74.9912 188.893 75.4559 188.607C75.9206 188.322 76.4444 188.155 76.9841 188.12C78.9001 187.803 81.7741 188.12 85.606 189.405C89.6009 190.7 113.388 200.071 120.017 200.882C123.657 201.327 134.416 190.443 134.416 190.443Z" fill="#ECC46F"/>
<path d="M146.601 215.028C146.601 215.028 143.938 217.005 140.164 219.487C137.759 221.039 134.933 222.769 132.049 224.262C128.332 226.179 124.548 227.712 121.512 227.969C110.638 228.957 83.8816 205.064 79.8677 200.971C75.0777 196.107 73.1617 191.975 74.2634 189.761C74.3989 189.486 74.5881 189.244 74.819 189.049C75.4227 188.534 76.1582 188.211 76.9362 188.12C78.8522 187.803 81.7262 188.12 85.5581 189.405C89.5529 190.7 113.34 200.071 119.969 200.882C123.657 201.337 134.416 190.453 134.416 190.453L146.601 215.028Z" fill="#ECC46F"/>
<path d="M141.629 216.205C139.713 212.626 132.452 197.709 131.091 194.367C130.996 194.14 131.091 194.021 131.245 194.249C137.203 204.816 140.068 212.517 141.783 216.126C141.811 216.215 141.677 216.294 141.629 216.205Z" fill="#263238"/>
<path d="M132.04 224.252C128.323 226.169 124.539 227.702 121.502 227.959C110.629 228.947 83.8721 205.054 79.8581 200.961C75.0681 196.097 73.1521 191.965 74.2538 189.751C74.3893 189.476 74.5785 189.234 74.8095 189.039L132.04 224.252Z" fill="#263238"/>
<path d="M39.0477 248.521C42.8796 249.094 52.0284 249.944 61.7712 250.795C77.3098 252.119 94.4387 253.404 94.4387 253.404L91.5647 222.759C91.5647 222.759 95.5404 216.828 94.8123 211.084C93.9693 204.599 83.9295 191.263 82.8566 190.235C79.2258 186.746 73.9856 184.67 68.9657 187.457C67.9158 188.047 66.9488 188.782 66.0917 189.642C66.0296 189.696 65.9719 189.756 65.9193 189.82C65.6415 190.097 65.3445 190.393 65.0667 190.72C52.5841 204.629 39.0477 248.521 39.0477 248.521Z" fill="#ECC46F"/>
<path d="M61.503 194.17C51.2525 208.563 37.9077 235.383 42.5923 239.644C52.8428 248.995 74.206 260.038 84.5235 260.947C87.5412 261.214 93.1455 240.84 91.1049 238.21C89.0644 235.581 63.3232 228.176 63.0933 226.15C62.94 224.993 66.3025 212.171 69.1957 199.795C72.5391 185.589 64.4345 190.047 61.503 194.17Z" fill="#F4BBB1"/>
<path d="M85.8072 236.717C85.8072 236.717 95.0326 236.451 101.068 236.569C104.431 236.638 110.198 237.281 112.65 238.497C116.319 240.316 130.526 250.36 128.246 253.958C126.177 257.22 115.026 247.038 115.026 247.038C115.026 247.038 127.164 256.311 123.974 259.781C120.783 263.25 109.68 249.964 109.68 249.964C109.68 249.964 121.943 259.791 118.101 262.816C115.227 265.109 104.488 253.671 104.488 253.671C104.488 253.671 114.988 262.173 112.114 264.664C108.904 267.422 98.3664 257.537 98.3664 257.537C90.0032 262.598 83.9966 261.491 79.8581 260.156C78.8522 259.791 85.8072 236.717 85.8072 236.717Z" fill="#F4BBB1"/>
<path d="M111.031 243.519C112.497 244.557 113.982 245.595 115.352 246.761C116.722 247.928 118.053 249.144 119.308 250.439C120.983 252.099 122.471 253.949 123.744 255.955C121.111 252.741 118.193 249.788 115.026 247.137C113.666 245.97 112.353 244.735 110.983 243.568L111.031 243.519Z" fill="#263238"/>
<path d="M106.854 248.541C108.674 249.954 110.523 251.279 112.276 252.772C114.03 254.264 115.553 255.816 117.191 257.418C117.316 257.546 117.191 257.576 117.076 257.418C115.38 255.886 113.685 254.601 111.97 253.088C110.255 251.576 108.588 249.984 106.816 248.541C106.797 248.56 106.826 248.521 106.854 248.541Z" fill="#263238"/>
<path d="M102.534 252.188C105.363 254.279 107.976 256.664 110.332 259.305C110.456 259.434 110.332 259.453 110.188 259.305C107.63 256.893 105.647 254.976 102.467 252.268C102.4 252.248 102.457 252.149 102.534 252.188Z" fill="#263238"/>
<path d="M74.2443 260.967L88.1639 235.581C88.1639 235.581 64.3961 227.01 63.8022 226.219C63.2082 225.428 67.9407 209.413 69.9333 198.875C71.9259 188.337 67.3084 185.826 59.7403 195.771C52.1722 205.716 38.243 232.012 40.5805 238.418C42.918 244.824 74.2443 260.967 74.2443 260.967Z" fill="#ECC46F"/>
<path d="M83.1056 235.323C82.5425 236.106 82.0335 236.929 81.5824 237.785L79.9922 240.474C78.9192 242.303 77.8846 244.151 76.8691 246.01C74.8669 249.697 72.8839 253.404 70.8721 257.082C70.8721 257.171 70.9488 257.24 71.0062 257.161C73.2096 253.582 75.3843 250.004 77.4822 246.356C78.5265 244.557 79.5323 242.738 80.4808 240.889C80.9597 239.96 81.4387 239.031 81.8986 238.101C82.3875 237.224 82.8164 236.312 83.1823 235.373C83.2014 235.323 83.1344 235.294 83.1056 235.323Z" fill="#263238"/>
<path d="M74.1485 260.779C69.7896 258.397 65.5266 255.836 61.2348 253.266C56.943 250.696 52.6128 248.106 48.5605 245.209C47.4109 244.389 46.2518 243.578 45.1213 242.728C43.9909 241.878 42.9563 240.948 41.7875 240.207C41.7013 240.148 41.6247 240.276 41.6917 240.336C42.5527 241.244 43.4852 242.077 44.4795 242.827C45.4375 243.637 46.4721 244.428 47.4876 245.209C49.4036 246.722 51.5016 248.175 53.5708 249.49C57.7285 252.238 62.0586 254.699 66.4558 257.013C68.9849 258.337 71.5619 259.573 74.1197 260.917C74.1335 260.914 74.1461 260.906 74.1559 260.896C74.1658 260.885 74.1726 260.872 74.1756 260.857C74.1786 260.843 74.1776 260.828 74.1728 260.814C74.1681 260.8 74.1596 260.788 74.1485 260.779Z" fill="#263238"/>
<path d="M88.1639 235.403C86.018 234.543 64.9709 226.268 64.0991 226.1C64.0991 225.428 65.9576 217.668 66.3696 215.869C66.4654 215.444 66.5516 215.028 66.6378 214.613C66.954 213.793 67.2605 212.962 67.5958 212.132C68.0275 211.007 68.5266 209.911 69.0903 208.85C69.1004 208.831 69.1031 208.81 69.0977 208.789C69.0923 208.769 69.0793 208.752 69.0615 208.741C69.0437 208.731 69.0227 208.728 69.0029 208.733C68.9831 208.739 68.9663 208.752 68.9562 208.771C68.4101 209.858 67.8545 210.955 67.3563 212.063L67.0977 212.646L67.5575 210.57C67.9503 208.731 68.4101 206.883 68.6688 205.014C68.6629 204.997 68.6519 204.982 68.6373 204.971C68.6227 204.96 68.6052 204.954 68.5873 204.954C68.5694 204.954 68.552 204.96 68.5374 204.971C68.5228 204.982 68.5118 204.997 68.5059 205.014C67.864 206.873 67.4138 208.8 66.9061 210.698C66.3983 212.596 63.4764 226.278 63.5818 226.367C64.3578 226.96 86.0755 234.79 88.1543 235.59C88.1639 235.581 88.2214 235.432 88.1639 235.403Z" fill="#263238"/>
<path d="M126.79 264.387H77.5493V266.671H126.79V264.387Z" fill="#8D897D"/>
<path opacity="0.1" d="M126.79 264.387H102.007V266.671H126.79V264.387Z" fill="black"/>
<path d="M104.68 266.661H152.665L158.94 233.03H110.945L104.68 266.661Z" fill="#8D897D"/>
<path d="M128.888 249.845C128.854 250.225 128.899 250.608 129.018 250.969C129.137 251.329 129.328 251.66 129.579 251.94C129.83 252.22 130.136 252.442 130.476 252.592C130.815 252.742 131.182 252.816 131.551 252.81C132.339 252.795 133.094 252.486 133.679 251.941C134.263 251.396 134.637 250.652 134.732 249.845C134.771 249.461 134.731 249.073 134.614 248.706C134.497 248.339 134.306 248.002 134.053 247.717C133.801 247.432 133.492 247.205 133.148 247.053C132.805 246.9 132.433 246.824 132.059 246.83C131.265 246.846 130.503 247.161 129.919 247.716C129.334 248.272 128.968 249.029 128.888 249.845Z" fill="white"/>
<path d="M70.4602 188.337C70.7572 189.118 75.2502 193.804 78.766 193.102C79.9156 192.865 78.9768 186.311 78.9768 186.311V185.806L79.5037 178.797L71.0638 174.843L69.8471 174.329C69.8471 174.329 69.8471 176.257 69.8471 178.659V179.005C69.8471 179.134 69.8471 179.262 69.8471 179.391C69.8471 179.746 69.8471 180.112 69.8471 180.478C69.8471 180.844 69.8471 181.032 69.8471 181.318C69.8471 181.605 69.8471 181.902 69.8471 182.188C69.9214 184.249 70.1262 186.303 70.4602 188.337Z" fill="#F4BBB1"/>
<path d="M69.8663 178.639C70.7945 180.449 72.0939 182.027 73.674 183.265C75.2541 184.503 77.0768 185.37 79.015 185.806L79.5419 178.797L71.1021 174.843L69.8854 174.329C69.8854 174.329 69.8663 176.237 69.8663 178.639Z" fill="#263238"/>
<path d="M86.9951 166.589C89.7637 178.59 83.1057 181.654 80.5958 182.267C78.3157 182.821 70.4985 184.422 66.542 172.777C62.5855 161.132 67.1168 155.972 72.29 154.449C77.4631 152.927 84.2266 154.607 86.9951 166.589Z" fill="#F4BBB1"/>
<path d="M85.424 164.611C85.1496 164.626 84.8746 164.626 84.6002 164.611C84.3078 164.638 84.015 164.565 83.7667 164.404C83.6983 164.339 83.6527 164.252 83.6371 164.157C83.6215 164.062 83.6367 163.965 83.6805 163.88C83.7901 163.729 83.9363 163.61 84.1044 163.535C84.2725 163.461 84.4567 163.433 84.6385 163.455C85.0252 163.447 85.401 163.588 85.6922 163.85C85.7443 163.913 85.7793 163.989 85.7937 164.07C85.808 164.151 85.8012 164.234 85.7739 164.312C85.7466 164.389 85.6998 164.458 85.6383 164.511C85.5768 164.563 85.5028 164.598 85.424 164.611Z" fill="#263238"/>
<path d="M77.8942 166.084C78.1549 165.997 78.4108 165.895 78.6606 165.778C78.9468 165.711 79.2031 165.548 79.3887 165.313C79.4348 165.227 79.4514 165.128 79.4358 165.031C79.4201 164.934 79.3731 164.845 79.3024 164.78C79.148 164.67 78.9681 164.605 78.7812 164.591C78.5943 164.577 78.4071 164.615 78.2391 164.701C77.8747 164.827 77.5657 165.082 77.3673 165.422C77.3259 165.503 77.3085 165.595 77.3174 165.686C77.3263 165.777 77.3611 165.863 77.4174 165.934C77.4737 166.005 77.5489 166.057 77.6338 166.083C77.7186 166.11 77.8092 166.111 77.8942 166.084Z" fill="#263238"/>
<path d="M79.9539 168.892C79.9539 168.892 79.906 168.892 79.906 168.981C80.088 169.801 80.1551 170.77 79.4845 171.185C80.3563 170.928 80.2509 169.643 79.9539 168.892Z" fill="#263238"/>
<path d="M79.0821 168.17C77.7793 168.319 78.1242 171.007 79.3791 170.859C80.6341 170.711 80.1742 168.042 79.0821 168.17Z" fill="#263238"/>
<path d="M78.584 168.388C78.3828 168.576 78.2008 168.882 77.9229 168.951C77.6451 169.02 77.3386 168.783 77.0895 168.546C77.1565 169.06 77.4248 169.534 77.9708 169.534C78.5169 169.534 78.7468 169.02 78.7947 168.487C78.7756 168.447 78.6798 168.319 78.584 168.388Z" fill="#263238"/>
<path d="M84.3319 167.874C84.3319 167.874 84.399 167.874 84.399 167.933C84.4852 168.773 84.7247 169.712 85.4911 169.91C84.6193 169.93 84.3319 168.674 84.3319 167.874Z" fill="#263238"/>
<path d="M84.9546 166.895C86.2383 166.608 86.7077 169.277 85.5198 169.544C84.3319 169.811 83.8816 167.142 84.9546 166.895Z" fill="#263238"/>
<path d="M85.5294 166.974C85.7593 167.073 86.0084 167.29 86.2479 167.261C86.4874 167.231 86.6981 166.905 86.8322 166.589C86.9376 167.093 86.8322 167.656 86.4107 167.844C85.9892 168.032 85.5964 167.636 85.3953 167.142C85.3953 167.083 85.4336 166.935 85.5294 166.974Z" fill="#263238"/>
<path d="M80.682 175.337C80.9023 175.515 81.1227 175.763 81.4196 175.753C81.7179 175.717 82.0053 175.616 82.2627 175.456C82.2627 175.456 82.3201 175.456 82.2627 175.456C82.1673 175.631 82.0279 175.775 81.8592 175.875C81.6905 175.974 81.4988 176.024 81.3047 176.02C81.1351 175.993 80.9771 175.915 80.8508 175.795C80.7245 175.675 80.6357 175.519 80.5958 175.347C80.5958 175.337 80.6532 175.318 80.682 175.337Z" fill="#263238"/>
<path d="M83.5751 171.779C83.7547 172.37 83.905 172.971 84.0253 173.578C84.0253 173.637 83.9008 173.677 83.7092 173.726C83.2371 173.898 82.7282 173.933 82.2382 173.827C81.7482 173.72 81.296 173.477 80.931 173.123C80.8831 173.074 80.931 173.004 81.0077 173.034C81.8092 173.418 82.7085 173.529 83.5751 173.35C83.5751 173.182 82.8949 171.294 82.9811 171.274C83.4269 171.242 83.8748 171.272 84.3127 171.363C83.6422 168.813 82.5692 166.421 81.9369 163.86C81.9354 163.844 81.9391 163.827 81.9473 163.812C81.9556 163.798 81.9681 163.787 81.983 163.78C81.998 163.774 82.0145 163.772 82.0303 163.776C82.0461 163.78 82.0604 163.788 82.071 163.801C83.284 166.351 84.2467 169.021 84.945 171.769C85.0504 172.085 83.8242 171.848 83.5751 171.779Z" fill="#263238"/>
<path d="M83.5942 173.281C83.3965 173.826 83.0667 174.309 82.6362 174.685C82.3865 174.878 82.0858 174.988 81.774 175.001C81.0939 175.001 80.9119 174.408 80.8927 173.864C80.8833 173.573 80.9058 173.281 80.9598 172.995C81.7873 173.372 82.7086 173.472 83.5942 173.281Z" fill="#263238"/>
<path d="M82.5884 174.685C82.3386 174.878 82.038 174.988 81.7262 175.001C81.046 175.001 80.864 174.408 80.8448 173.865C81.1826 173.778 81.5386 173.812 81.8551 173.961C82.1716 174.11 82.43 174.365 82.5884 174.685Z" fill="#FFA2BE"/>
<path d="M66.6378 172.846C67.979 172.54 70.8817 168.111 69.9141 161.359C69.9141 161.359 70.374 167.478 70.077 168.437C69.78 169.396 71.696 165.946 70.9871 160.529C72.8396 161.474 74.8141 162.14 76.85 162.506C79.4462 162.803 80.9598 162.506 81.1035 162.308C81.2472 162.111 77.4152 161.517 76.2369 160.509C76.2369 160.509 83.3452 162.555 86.4299 162.279C86.7844 162.279 86.018 154.706 80.7969 152.334C75.5759 149.961 68.6783 154.657 66.9923 156.99C66.9923 156.99 64.6931 157.741 62.71 161.765C60.727 165.788 65.1721 173.182 66.6378 172.846Z" fill="#263238"/>
<path d="M83.8337 168.566C83.4218 166.5 84.1595 164.612 85.4911 164.295C86.8227 163.979 88.2405 165.462 88.662 167.538C89.0835 169.614 88.3363 171.492 87.0047 171.818C85.6731 172.144 84.2553 170.592 83.8337 168.566ZM84.3223 168.467C84.6863 170.256 85.8455 171.532 86.8993 171.314C87.9531 171.097 88.5279 169.436 88.1735 167.637C87.819 165.837 86.6502 164.572 85.5869 164.799C84.5235 165.027 83.9679 166.589 84.3319 168.418L84.3223 168.467Z" fill="#8D897D"/>
<path d="M74.6754 170.483C74.5829 169.788 74.6893 169.081 74.9814 168.447C75.2736 167.814 75.7388 167.282 76.3198 166.918C76.9009 166.554 77.5724 166.373 78.2518 166.398C78.9312 166.422 79.5888 166.651 80.1438 167.056C80.6988 167.461 81.1269 168.025 81.3756 168.678C81.6242 169.331 81.6824 170.044 81.5432 170.731C81.4039 171.417 81.0732 172.047 80.5917 172.542C80.1102 173.037 79.4989 173.376 78.8331 173.518C77.8917 173.684 76.925 173.458 76.1453 172.888C75.3657 172.319 74.8369 171.454 74.6754 170.483ZM75.164 170.374C75.3265 170.948 75.6474 171.459 76.0873 171.848C76.5272 172.236 77.0672 172.483 77.6412 172.56C78.2153 172.636 78.7985 172.539 79.3197 172.279C79.8408 172.019 80.2773 171.608 80.5759 171.097C80.8744 170.585 81.022 169.995 81.0007 169.398C80.9794 168.801 80.7901 168.224 80.4559 167.736C80.1216 167.248 79.657 166.872 79.1187 166.652C78.5804 166.433 77.9918 166.38 77.4248 166.5C76.629 166.708 75.945 167.231 75.5215 167.957C75.0981 168.683 74.9696 169.551 75.164 170.374Z" fill="#8D897D"/>
<path d="M81.2472 168.724C82.9428 167.666 83.8912 168.111 83.9008 168.111L84.1212 167.656C84.1212 167.656 82.9428 167.063 80.9885 168.279L81.2472 168.724Z" fill="#8D897D"/>
<path d="M74.8478 170.098V169.554C74.5221 169.554 68.9849 169.633 68.1419 169.762C67.2988 169.89 65.517 171.472 65.3254 171.65L65.6511 172.035C66.3966 171.312 67.2507 170.718 68.1802 170.276C68.8604 170.197 72.0792 170.167 74.8478 170.098Z" fill="#8D897D"/>
<path d="M68.6017 173.271C68.6017 173.271 65.4691 169.861 63.9363 171.067C62.4035 172.273 65.1242 177.492 67.203 177.986C67.4648 178.065 67.7393 178.087 68.0098 178.053C68.2804 178.019 68.5414 177.929 68.7771 177.787C69.0127 177.646 69.218 177.456 69.3805 177.231C69.5431 177.005 69.6594 176.747 69.7225 176.474L68.6017 173.271Z" fill="#F4BBB1"/>
<path d="M64.7505 172.52C64.7505 172.52 64.7505 172.52 64.7505 172.579C65.4306 172.808 66.0566 173.181 66.588 173.675C67.1194 174.168 67.5444 174.772 67.8353 175.446C67.7352 175.315 67.6087 175.208 67.4646 175.133C67.3205 175.058 67.1622 175.016 67.0008 175.01C66.8394 175.005 66.6788 175.036 66.53 175.101C66.3813 175.165 66.2481 175.263 66.1397 175.387C66.1397 175.387 66.1397 175.466 66.1397 175.456C66.3701 175.336 66.6312 175.295 66.8858 175.338C67.1403 175.38 67.3754 175.505 67.5575 175.693C67.8594 175.992 68.1292 176.323 68.3622 176.681C68.4484 176.8 68.6592 176.681 68.5921 176.553C68.4005 174.764 66.6666 172.431 64.7505 172.52Z" fill="#263238"/>
<path d="M79.0342 186.271L77.7697 192.993L70.1632 186.142L68.0461 188.792C68.0461 188.792 76.8404 200.655 76.783 200.052L78.2678 194.179L82.5596 197.204L80.6915 188.752L79.0342 186.271Z" fill="#EBEBEB"/>
<path d="M80.7681 188.821C80.7681 188.772 80.6532 188.762 80.6628 188.821C80.8256 190.265 81.9752 195.326 82.2339 196.73C82.0519 196.592 78.287 194.1 78.2678 194.16C77.8846 195.148 76.7925 199.399 76.735 199.775C75.1926 198.015 69.6938 190.393 67.9598 188.782C67.9491 188.777 67.937 188.775 67.9253 188.777C67.9136 188.779 67.9028 188.785 67.8944 188.794C67.886 188.802 67.8804 188.813 67.8784 188.825C67.8764 188.838 67.8781 188.85 67.8832 188.861C69.301 190.759 76.7158 200.605 76.8021 200.556C77.4248 198.52 77.9397 196.451 78.3444 194.357C79.7774 195.537 81.2848 196.617 82.8566 197.59C82.6171 196.038 81.228 190.314 80.7681 188.821Z" fill="#263238"/>
</svg>
