<svg width="90" height="80" viewBox="0 0 90 80" fill="none" xmlns="http://www.w3.org/2000/svg">
<rect width="90" height="80" rx="35" fill="#E0EEE3"/>
<path d="M36.404 51.068C37.22 50.42 37.592 50.12 37.52 50.168C39.872 48.224 41.72 46.628 43.064 45.38C44.432 44.132 45.584 42.824 46.52 41.456C47.456 40.088 47.924 38.756 47.924 37.46C47.924 36.476 47.696 35.708 47.24 35.156C46.784 34.604 46.1 34.328 45.188 34.328C44.276 34.328 43.556 34.676 43.028 35.372C42.524 36.044 42.272 37.004 42.272 38.252H36.332C36.38 36.212 36.812 34.508 37.628 33.14C38.468 31.772 39.56 30.764 40.904 30.116C42.272 29.468 43.784 29.144 45.44 29.144C48.296 29.144 50.444 29.876 51.884 31.34C53.348 32.804 54.08 34.712 54.08 37.064C54.08 39.632 53.204 42.02 51.452 44.228C49.7 46.412 47.468 48.548 44.756 50.636H54.476V55.64H36.404V51.068Z" fill="#74927A"/>
</svg>
