<svg width="90" height="80" viewBox="0 0 90 80" fill="none" xmlns="http://www.w3.org/2000/svg">
<rect width="90" height="80" rx="35" fill="#E0EEE3"/>
<path d="M35.836 34.136C35.932 31.568 36.772 29.588 38.356 28.196C39.94 26.804 42.088 26.108 44.8 26.108C46.6 26.108 48.136 26.42 49.408 27.044C50.704 27.668 51.676 28.52 52.324 29.6C52.996 30.68 53.332 31.892 53.332 33.236C53.332 34.82 52.936 36.116 52.144 37.124C51.352 38.108 50.428 38.78 49.372 39.14V39.284C50.74 39.74 51.82 40.496 52.612 41.552C53.404 42.608 53.8 43.964 53.8 45.62C53.8 47.108 53.452 48.428 52.756 49.58C52.084 50.708 51.088 51.596 49.768 52.244C48.472 52.892 46.924 53.216 45.124 53.216C42.244 53.216 39.94 52.508 38.212 51.092C36.508 49.676 35.608 47.54 35.512 44.684H41.488C41.512 45.74 41.812 46.58 42.388 47.204C42.964 47.804 43.804 48.104 44.908 48.104C45.844 48.104 46.564 47.84 47.068 47.312C47.596 46.76 47.86 46.04 47.86 45.152C47.86 44 47.488 43.172 46.744 42.668C46.024 42.14 44.86 41.876 43.252 41.876H42.1V36.872H43.252C44.476 36.872 45.46 36.668 46.204 36.26C46.972 35.828 47.356 35.072 47.356 33.992C47.356 33.128 47.116 32.456 46.636 31.976C46.156 31.496 45.496 31.256 44.656 31.256C43.744 31.256 43.06 31.532 42.604 32.084C42.172 32.636 41.92 33.32 41.848 34.136H35.836Z" fill="#74927A"/>
</svg>
