<svg width="98" height="88" viewBox="0 0 98 88" fill="none" xmlns="http://www.w3.org/2000/svg">
<g filter="url(#filter0_d_49_20)">
<rect x="4" width="90" height="80" rx="35" fill="#E0EEE3"/>
<path d="M57.124 32.084H45.892V37.052C46.372 36.524 47.044 36.092 47.908 35.756C48.772 35.42 49.708 35.252 50.716 35.252C52.516 35.252 54.004 35.66 55.18 36.476C56.38 37.292 57.256 38.348 57.808 39.644C58.36 40.94 58.636 42.344 58.636 43.856C58.636 46.664 57.844 48.896 56.26 50.552C54.676 52.184 52.444 53 49.564 53C47.644 53 45.976 52.676 44.56 52.028C43.144 51.356 42.052 50.432 41.284 49.256C40.516 48.08 40.096 46.724 40.024 45.188H46.036C46.18 45.932 46.528 46.556 47.08 47.06C47.632 47.54 48.388 47.78 49.348 47.78C50.476 47.78 51.316 47.42 51.868 46.7C52.42 45.98 52.696 45.02 52.696 43.82C52.696 42.644 52.408 41.744 51.832 41.12C51.256 40.496 50.416 40.184 49.312 40.184C48.496 40.184 47.824 40.388 47.296 40.796C46.768 41.18 46.42 41.696 46.252 42.344H40.312V26.684H57.124V32.084Z" fill="#74927A"/>
</g>
<defs>
<filter id="filter0_d_49_20" x="0" y="0" width="98" height="88" filterUnits="userSpaceOnUse" color-interpolation-filters="sRGB">
<feFlood flood-opacity="0" result="BackgroundImageFix"/>
<feColorMatrix in="SourceAlpha" type="matrix" values="0 0 0 0 0 0 0 0 0 0 0 0 0 0 0 0 0 0 127 0" result="hardAlpha"/>
<feOffset dy="4"/>
<feGaussianBlur stdDeviation="2"/>
<feComposite in2="hardAlpha" operator="out"/>
<feColorMatrix type="matrix" values="0 0 0 0 0 0 0 0 0 0 0 0 0 0 0 0 0 0 0.25 0"/>
<feBlend mode="normal" in2="BackgroundImageFix" result="effect1_dropShadow_49_20"/>
<feBlend mode="normal" in="SourceGraphic" in2="effect1_dropShadow_49_20" result="shape"/>
</filter>
</defs>
</svg>
