<svg width="90" height="80" viewBox="0 0 90 80" fill="none" xmlns="http://www.w3.org/2000/svg">
<rect width="90" height="80" rx="35" fill="#E0EEE3"/>
<path d="M47.616 33.812C47.424 32.924 47.088 32.264 46.608 31.832C46.128 31.376 45.444 31.148 44.556 31.148C43.188 31.148 42.204 31.748 41.604 32.948C41.004 34.124 40.692 35.996 40.668 38.564C41.196 37.724 41.952 37.064 42.936 36.584C43.944 36.104 45.048 35.864 46.248 35.864C48.6 35.864 50.484 36.608 51.9 38.096C53.34 39.584 54.06 41.66 54.06 44.324C54.06 46.076 53.7 47.612 52.98 48.932C52.284 50.252 51.252 51.284 49.884 52.028C48.54 52.772 46.944 53.144 45.096 53.144C41.4 53.144 38.832 51.992 37.392 49.688C35.952 47.36 35.232 44.024 35.232 39.68C35.232 35.12 35.988 31.736 37.5 29.528C39.036 27.296 41.484 26.18 44.844 26.18C46.644 26.18 48.156 26.54 49.38 27.26C50.628 27.956 51.564 28.88 52.188 30.032C52.836 31.184 53.22 32.444 53.34 33.812H47.616ZM44.772 40.724C43.74 40.724 42.876 41.036 42.18 41.66C41.508 42.26 41.172 43.124 41.172 44.252C41.172 45.404 41.484 46.304 42.108 46.952C42.756 47.6 43.668 47.924 44.844 47.924C45.9 47.924 46.728 47.612 47.328 46.988C47.952 46.34 48.264 45.464 48.264 44.36C48.264 43.232 47.964 42.344 47.364 41.696C46.764 41.048 45.9 40.724 44.772 40.724Z" fill="#74927A"/>
</svg>
