<svg width="90" height="80" viewBox="0 0 90 80" fill="none" xmlns="http://www.w3.org/2000/svg">
<rect width="90" height="80" rx="35" fill="#E0EEE3"/>
<path d="M38.94 38.888C36.684 37.688 35.556 35.804 35.556 33.236C35.556 31.94 35.892 30.764 36.564 29.708C37.236 28.628 38.256 27.776 39.624 27.152C40.992 26.504 42.672 26.18 44.664 26.18C46.656 26.18 48.324 26.504 49.668 27.152C51.036 27.776 52.056 28.628 52.728 29.708C53.4 30.764 53.736 31.94 53.736 33.236C53.736 34.532 53.424 35.66 52.8 36.62C52.2 37.58 51.384 38.336 50.352 38.888C51.648 39.512 52.644 40.376 53.34 41.48C54.036 42.56 54.384 43.832 54.384 45.296C54.384 47 53.952 48.476 53.088 49.724C52.224 50.948 51.048 51.884 49.56 52.532C48.096 53.18 46.464 53.504 44.664 53.504C42.864 53.504 41.22 53.18 39.732 52.532C38.268 51.884 37.104 50.948 36.24 49.724C35.376 48.476 34.944 47 34.944 45.296C34.944 43.808 35.292 42.524 35.988 41.444C36.684 40.34 37.668 39.488 38.94 38.888ZM47.76 34.172C47.76 33.188 47.472 32.432 46.896 31.904C46.344 31.352 45.6 31.076 44.664 31.076C43.728 31.076 42.972 31.352 42.396 31.904C41.844 32.456 41.568 33.224 41.568 34.208C41.568 35.144 41.856 35.888 42.432 36.44C43.008 36.968 43.752 37.232 44.664 37.232C45.576 37.232 46.32 36.956 46.896 36.404C47.472 35.852 47.76 35.108 47.76 34.172ZM44.664 41.552C43.536 41.552 42.624 41.864 41.928 42.488C41.232 43.088 40.884 43.928 40.884 45.008C40.884 46.016 41.22 46.844 41.892 47.492C42.588 48.14 43.512 48.464 44.664 48.464C45.816 48.464 46.716 48.14 47.364 47.492C48.036 46.844 48.372 46.016 48.372 45.008C48.372 43.952 48.024 43.112 47.328 42.488C46.656 41.864 45.768 41.552 44.664 41.552Z" fill="#74927A"/>
</svg>
