<svg width="87" height="171" viewBox="0 0 87 171" fill="none" xmlns="http://www.w3.org/2000/svg">
<path d="M49.5062 87.7723C48.4214 91.7272 47.7079 95.7747 47.375 99.8621C47.4831 100.068 47.4634 100.844 47.375 100.609C47.375 101.267 46.3929 101.149 46.3929 100.501C46.3929 100.068 46.3929 99.6461 46.3929 99.2238C44.0358 96.2774 40.6082 94.4409 37.8289 91.8874C35.5989 89.8873 33.9757 87.301 33.1442 84.4233C30.846 76.4976 32.9968 68.1103 30.1978 60.2043C27.8211 53.3884 23.5489 47.4367 19.9249 41.2985C16.1044 34.7674 13.2956 27.9123 13.0501 20.2616C12.8242 14.3689 13.5215 6.61016 17.9606 2.2201C22.6846 -2.43513 28.5479 1.05137 32.1719 5.16644C42.6609 17.2072 47.5125 32.43 49.4768 47.9867C50.5571 56.5999 51.6865 65.2622 51.441 73.9539C51.2581 78.613 50.61 83.2421 49.5062 87.7723Z" fill="#ECC46F"/>
<path d="M47.4139 103.025C47.992 94.8987 47.8968 86.7389 47.1291 78.6288C47.1291 78.6288 47.1291 78.5797 47.1291 78.5404C47.2568 71.9406 47.7871 65.3702 47.5219 58.7704C47.1902 51.6272 46.204 44.5295 44.5756 37.5665C44.5756 37.4879 44.4283 37.5076 44.4479 37.5665C45.7303 44.41 46.4952 51.3405 46.7362 58.299C46.8737 62.031 46.8443 65.7532 46.6479 69.4853C46.5889 70.6933 46.4711 71.9111 46.3925 73.1289C43.6439 54.6126 36.945 36.9039 26.7502 21.2044C26.6127 20.9883 26.2296 21.2044 26.3671 21.4401C33.6389 33.3752 39.0254 46.3611 42.3364 59.9391C37.2883 50.5893 29.6671 42.9092 24.0199 33.9228C24.0199 33.9228 23.902 33.9228 23.9315 33.9719C29.0974 43.9895 37.5142 51.8759 42.8471 61.7757C43.7768 65.7958 44.5298 69.8454 45.1059 73.9244C45.8597 79.5182 46.2665 85.1532 46.3238 90.7972C43.2497 85.0518 40.0578 79.5618 37.5436 73.4825C37.4749 73.3155 37.2392 73.4334 37.2981 73.5905C39.4391 79.9055 42.3167 86.7018 46.3336 92.0838C46.3336 96.081 46.2452 100.078 46.0095 104.066C45.3809 114.722 43.5542 125.23 42.7194 135.847C42.7235 135.905 42.7478 135.959 42.7881 136C42.8283 136.042 42.8819 136.068 42.9394 136.074C42.9969 136.08 43.0546 136.065 43.1024 136.032C43.1502 136 43.1849 135.952 43.2006 135.896C45.3524 125.048 46.7601 114.065 47.4139 103.025Z" fill="#263238"/>
<path d="M36.1002 20.8705C36.1002 20.8017 35.9627 20.8705 35.9824 20.9294C37.9466 26.3114 39.027 31.7327 40.4412 37.2718C40.4477 37.3304 40.4772 37.3841 40.5233 37.4209C40.5693 37.4577 40.6281 37.4748 40.6867 37.4683C40.7453 37.4617 40.799 37.4322 40.8358 37.3862C40.8726 37.3401 40.8897 37.2813 40.8832 37.2227C40.2644 31.6148 38.2707 26.0364 36.1002 20.8705Z" fill="#263238"/>
<path d="M85.5104 43.4199C84.2165 46.5771 82.7206 49.6477 81.0319 52.6126C77.5356 58.9767 73.8821 64.8104 73.175 72.2549C72.8804 75.5646 72.7723 78.8842 71.7706 82.0761C70.8459 84.8154 69.5222 87.4033 67.8421 89.7562C64.0511 95.2953 59.2977 100.059 55.7817 105.794C52.1217 111.781 49.4178 118.302 47.7676 125.122C47.6793 125.495 47.0998 125.397 47.1784 125.024C47.1839 124.995 47.1839 124.965 47.1784 124.936C47.1723 124.923 47.1692 124.91 47.1692 124.896C47.1692 124.883 47.1723 124.869 47.1784 124.857C46.6186 108.976 47.8855 92.9677 52.7371 77.7155C54.8781 71.0091 57.4501 64.4479 60.4369 58.0731C63.0297 52.5536 66.2609 47.2698 70.8179 43.1253C73.7643 40.4638 80.1873 35.4157 84.4006 38.087C86.4532 39.4129 86.3059 41.4459 85.5104 43.4199Z" fill="#ECC46F"/>
<path d="M69.551 79.4537C66.7484 84.0615 63.6653 88.4926 60.3191 92.7221C58.7772 94.7355 57.2156 96.7194 55.6835 98.7327C54.9567 99.7148 54.1416 100.628 53.4738 101.679C53.8961 100.009 54.3085 98.3398 54.7309 96.6702C56.7835 88.6463 58.7477 80.5439 61.8021 72.8244C64.9299 65.3551 68.6167 58.1325 72.8313 51.2179C72.9393 51.0313 72.6447 50.9036 72.5366 51.0804C69.1778 56.5999 65.7699 62.1095 62.9512 67.9335C61.3886 71.178 60.0306 74.5172 58.8852 77.9315C60.1801 70.6886 61.9885 63.5469 64.2967 56.5606C64.2967 56.5017 64.2279 56.4526 64.1985 56.5606C61.1722 63.5956 59.2699 71.0623 58.5611 78.6877C57.8736 80.7501 57.2451 82.8322 56.6558 84.9339C54.1514 93.8221 51.9515 102.799 49.9185 111.814C49.8781 105.887 50.391 99.9686 51.4506 94.1364C51.4437 94.1144 51.43 94.0952 51.4115 94.0815C51.3929 94.0679 51.3705 94.0605 51.3475 94.0605C51.3244 94.0605 51.302 94.0679 51.2835 94.0815C51.2649 94.0952 51.2512 94.1144 51.2443 94.1364C49.6835 100.225 49.1622 106.534 49.7024 112.797C48.9364 116.227 48.1867 119.655 47.4534 123.079C45.8918 130.406 43.9767 137.86 43.0633 145.295C43.0568 145.334 43.0661 145.374 43.0891 145.406C43.1121 145.438 43.147 145.46 43.1861 145.467C43.2251 145.473 43.2652 145.464 43.2974 145.441C43.3297 145.418 43.3514 145.383 43.3579 145.344C44.4481 141.337 45.1061 137.183 45.99 133.126C46.8739 129.07 47.8069 124.985 48.7596 120.929C50.1345 115.036 51.5783 109.143 53.0514 103.25C54.0336 101.09 55.9389 99.1747 57.3629 97.3577C58.9245 95.3935 60.4959 93.4293 62.0182 91.3668C64.8673 87.6427 67.422 83.7023 69.659 79.5814C69.7376 79.4537 69.6001 79.3457 69.551 79.4537Z" fill="#263238"/>
<path d="M70.2286 72.6379C66.7322 77.1014 63.7044 81.913 61.1931 86.9964C61.1931 87.0554 61.2619 87.1241 61.3011 87.0652C64.3359 82.3019 67.3313 77.4994 70.3661 72.7263C70.4152 72.6477 70.2777 72.579 70.2286 72.6379Z" fill="#263238"/>
<path d="M2.58041 58.4855C4.64286 62.031 6.99012 66.2835 6.10621 70.5459C5.5464 73.2369 3.57235 75.4565 3.21879 78.177C2.42327 84.2465 8.47311 88.2535 12.8435 91.1213C23.7548 98.2809 38.7125 104.655 40.6964 119.269C40.7651 119.789 41.6785 119.662 41.5999 119.151C41.6036 119.118 41.6036 119.085 41.5999 119.053C41.5999 119.053 41.5999 119.053 41.5999 118.974C43.0347 111.595 42.9645 104.002 41.3937 96.6506C39.7732 89.1178 36.4831 82.351 32.6037 75.7315C26.0432 64.5354 19.0898 53.0643 9.16059 44.4806C6.50888 42.1333 0.832244 37.8414 -1.34806 43.2038C-3.47925 48.409 0.085835 54.1642 2.58041 58.4855Z" fill="#ECC46F"/>
<path d="M12.5882 82.2233C19.8166 90.0803 31.3171 94.4409 37.5438 103.211C34.063 89.8654 27.4925 77.5253 18.363 67.1871C18.3239 67.1318 18.3058 67.0643 18.312 66.9968C18.3181 66.9293 18.3482 66.8662 18.3967 66.8189C18.4452 66.7715 18.509 66.7431 18.5767 66.7386C18.6443 66.734 18.7113 66.7538 18.7657 66.7943C25.438 73.259 30.7769 80.9703 34.4796 89.491C32.7595 83.5429 30.5011 77.7638 27.7324 72.2254C27.7202 72.2041 27.7122 72.1806 27.7091 72.1563C27.7059 72.1319 27.7075 72.1072 27.7139 72.0835C27.7203 72.0598 27.7313 72.0376 27.7463 72.0181C27.7612 71.9986 27.7799 71.9823 27.8012 71.97C27.8224 71.9578 27.8459 71.9498 27.8703 71.9467C27.8946 71.9435 27.9194 71.9451 27.9431 71.9515C27.9668 71.9579 27.989 71.9689 28.0085 71.9839C28.0279 71.9988 28.0443 72.0175 28.0565 72.0388C31.4889 78.0832 33.9418 84.6333 35.3242 91.4454C43.5249 111.304 44.2909 134.59 42.5722 155.519C42.5722 155.813 42.091 155.823 42.1008 155.519C42.5722 139.029 42.307 122.245 38.3491 106.138C38.2705 105.794 38.1723 105.47 38.0938 105.156C31.3172 95.7078 19.8755 91.3374 12.5587 82.3707C12.4016 82.2626 12.5096 82.1448 12.5882 82.2233Z" fill="#263238"/>
<path d="M10.9089 75.5253C14.7097 79.002 18.4417 82.5671 22.2425 86.0536C22.2425 86.0536 22.2425 86.1518 22.2425 86.1223C17.9385 83.222 14.0637 79.7308 10.7321 75.7512C10.5553 75.5744 10.7518 75.3583 10.9089 75.5253Z" fill="#263238"/>
<path d="M10.3098 60.4105C13.6646 65.9205 17.465 71.1465 21.6729 76.036C21.6729 76.1047 21.6729 76.1931 21.5747 76.1342C16.8554 71.654 12.9712 66.3697 10.1036 60.5284C10.0447 60.4007 10.2313 60.2828 10.3098 60.4105Z" fill="#263238"/>
<path d="M27.3984 170.28H60.6529L56.1745 125.544H32.5251L27.3984 170.28Z" fill="#455A64"/>
<path d="M31.6907 132.812H56.9016L56.1748 125.544H32.5255L31.6907 132.812Z" fill="#263238"/>
<path d="M28.4494 127.725H59.6218V120.585H28.4494V127.725Z" fill="#455A64"/>
</svg>
