<svg width="424" height="414" viewBox="0 0 424 414" fill="none" xmlns="http://www.w3.org/2000/svg">
<path d="M18.7845 247.177H44.6914V236.229H18.7845V247.177Z" fill="#EBEBEB"/>
<path d="M33.2446 222.425L46.0807 222.151L52.5965 222.043C54.7783 221.994 56.9698 222.043 59.1515 221.994H59.582V222.434L59.6407 233.382V233.871H59.1711L46.2176 233.813C41.9031 233.813 37.5787 233.695 33.2642 233.646H32.9902V233.382C32.9902 231.523 33.0685 229.674 33.1174 227.854L33.2446 222.425ZM33.2446 222.425L33.3816 227.952C33.3816 229.782 33.4892 231.582 33.5088 233.372L33.2446 233.108C37.5592 233.059 41.8835 232.952 46.1981 232.942L59.1711 232.883L58.6819 233.372V222.425L59.1711 222.904C57.0383 222.904 54.9055 222.904 52.7628 222.845L46.3253 222.738L33.2446 222.425Z" fill="#EBEBEB"/>
<path d="M4.38307 222.425L17.2191 222.151L23.735 222.043C25.9167 221.994 28.0985 222.043 30.29 221.994H30.7205V222.434L30.7792 233.382V233.871H30.29L17.3365 233.813C13.0122 233.813 8.69763 233.695 4.38307 233.646H4.10913V233.382C4.10913 231.523 4.19718 229.674 4.23631 227.854L4.38307 222.425ZM4.38307 222.425L4.52004 227.952C4.52004 229.782 4.62766 231.582 4.64723 233.372L4.38307 233.108C8.69763 233.059 13.0122 232.952 17.3365 232.942L30.29 232.883L29.8008 233.372V222.425L30.2411 222.865C28.0985 222.865 25.9754 222.865 23.8328 222.806L17.3952 222.699L4.38307 222.425Z" fill="#EBEBEB"/>
<path d="M402.839 19.3469L390.003 19.6209L383.487 19.7285C381.305 19.7774 379.114 19.7285 376.932 19.7872H376.502V19.3469L376.443 8.39909V7.90991H376.932L389.886 7.9784C394.21 7.9784 398.524 8.08602 402.839 8.13493H403.113V8.39909C403.113 10.258 403.025 12.1071 402.986 13.9366L402.839 19.3469ZM402.839 19.3469L402.702 13.8192C402.702 11.9994 402.594 10.1993 402.575 8.39909L402.839 8.67303C398.524 8.67303 394.21 8.82957 389.886 8.82957L376.932 8.88827L377.421 8.39909L377.372 19.3469L376.932 18.9164C379.065 18.9164 381.198 18.9164 383.34 18.9164L389.778 19.0338L402.839 19.3469Z" fill="#EBEBEB"/>
<path d="M417.289 22.2036H391.382V33.1514H417.289V22.2036Z" fill="#EBEBEB"/>
<path d="M30.251 19.4055L17.4052 19.6697L10.8893 19.7871C8.70755 19.7871 6.52581 19.7871 4.34407 19.7871H3.90381V19.4055V8.4577V7.95874H4.38321L17.3367 8.01744C21.6512 8.01744 25.9658 8.12506 30.2901 8.17398H30.5543V8.43814C30.5543 10.2872 30.4662 12.1363 30.4271 13.9659L30.251 19.4055ZM30.251 19.4055L30.1042 13.868C30.1042 12.0483 29.9966 10.2481 29.9771 8.4577L30.251 8.72186C25.9267 8.77078 21.6121 8.8784 17.2975 8.8784L4.38321 8.90775L4.8626 8.41857L4.77455 19.4055L4.38321 18.9261C6.51603 18.9261 8.63906 18.9261 10.7817 18.9848L17.2193 19.0925L30.251 19.4055Z" fill="#EBEBEB"/>
<path d="M186.426 88.4287H212.333V77.4809H186.426V88.4287Z" fill="#EBEBEB"/>
<path d="M391.382 226.514L404.228 226.24L410.744 226.133C412.926 226.084 415.108 226.133 417.289 226.074H417.73V226.514L417.779 237.462V237.951H417.25L404.297 237.893C399.982 237.893 395.668 237.775 391.343 237.726H391.079V237.462C391.079 235.603 391.167 233.754 391.206 231.934L391.382 226.514ZM391.382 226.514L391.529 232.042C391.529 233.871 391.637 235.672 391.656 237.462L391.382 237.198C395.707 237.149 400.021 237.041 404.336 237.032L417.289 236.973L416.81 237.462L416.859 226.514L417.289 226.955C415.157 226.955 413.033 226.954 410.891 226.896L404.453 226.788L391.382 226.514Z" fill="#EBEBEB"/>
<path d="M221.99 328.42H247.896V317.472H221.99V328.42Z" fill="#EBEBEB"/>
<path d="M200.867 63.6764L213.752 63.4318L220.267 63.3242C222.449 63.3242 224.631 63.3242 226.822 63.3242H227.253V63.7645L227.302 74.7123V75.2015H226.813L213.859 75.1428C209.535 75.1428 205.22 75.0352 200.906 74.9765H200.632V74.7123C200.632 72.8534 200.72 71.0043 200.759 69.1846L200.867 63.6764ZM200.867 63.6764L201.013 69.2139C201.013 71.0337 201.121 72.8339 201.141 74.6243L200.876 74.3601C205.191 74.3601 209.506 74.2036 213.83 74.2036L226.783 74.1351L226.294 74.6243L226.343 63.6764L226.783 64.1167C224.641 64.1167 222.518 64.1167 220.375 64.058L213.938 63.9504L200.867 63.6764Z" fill="#EBEBEB"/>
<path d="M71.4202 317.805H38.5865L19.802 224.127L49.8572 210.312L71.4202 317.805Z" fill="#DBDBDB"/>
<path d="M165.401 317.805H71.4202L49.8572 210.312H143.838L165.401 317.805Z" fill="#EBEBEB"/>
<path d="M54.563 267.546H4.24609V370.793H54.563V267.546Z" fill="#DBDBDB"/>
<path d="M189.547 370.793H175.801L155.314 267.546H189.547V370.793Z" fill="#DBDBDB"/>
<path d="M82.2116 267.546H54.5632V370.793H82.2116V267.546Z" fill="#EBEBEB"/>
<path d="M217.195 267.546H189.547V370.793H217.195V267.546Z" fill="#EBEBEB"/>
<path d="M189.547 317.805H82.2114V370.783H189.547V317.805Z" fill="#EBEBEB"/>
<path d="M189.547 294.901H82.2114V318.02H189.547V294.901Z" fill="#EBEBEB"/>
<path d="M61.343 267.547L71.7821 267.361L82.2114 267.224H82.5245V267.547L82.6517 279.649V291.732C82.6517 299.783 82.7104 307.835 82.6517 315.897C82.593 323.959 82.6517 332.001 82.5147 340.062C82.3777 348.124 82.3386 356.166 82.1625 364.228C81.9929 356.166 81.8788 348.111 81.8201 340.062C81.7124 332.001 81.7026 323.949 81.6733 315.897C81.6439 307.845 81.6733 299.783 81.6733 291.732V279.649L81.7907 267.566L82.1038 267.879L71.6745 267.752L61.343 267.547Z" fill="#DBDBDB"/>
<path d="M189.547 267.546C189.762 275.628 189.86 283.709 189.948 291.8L190.065 316.053L189.948 340.307L189.801 352.439L189.547 364.56L189.292 352.439L189.146 340.307L189.028 316.053L189.146 291.8C189.234 283.709 189.292 275.628 189.547 267.546Z" fill="#DBDBDB"/>
<path d="M189.547 317.805C180.605 318.02 171.663 318.118 162.711 318.206L135.884 318.323L109.067 318.206L95.6541 318.059L82.2114 317.805L95.6345 317.55L109.048 317.404L135.884 317.286L162.711 317.404C171.682 317.492 180.605 317.589 189.547 317.805Z" fill="#DBDBDB"/>
<path d="M189.547 294.901C180.605 295.117 171.663 295.214 162.711 295.302L135.884 295.42L109.067 295.302L95.654 295.156L82.231 294.901L95.654 294.647L109.067 294.5L135.904 294.383L162.73 294.5C171.682 294.588 180.605 294.686 189.547 294.901Z" fill="#DBDBDB"/>
<path d="M23.373 370.783L22.6882 379.148L21.1032 398.48H13.8145L12.2295 379.148L11.5447 370.783H23.373Z" fill="#C7C7C7"/>
<path d="M11.5447 370.783H23.373L22.6882 379.148H12.2295L11.5447 370.783Z" fill="#A6A6A6"/>
<path d="M74.3064 370.783L73.6215 379.148L72.0366 398.48H64.7478L63.1629 379.148L62.478 370.783H74.3064Z" fill="#C7C7C7"/>
<path d="M62.478 370.783H74.3064L73.6215 379.148H63.1629L62.478 370.783Z" fill="#A6A6A6"/>
<path d="M158.778 370.783L158.102 379.148L156.518 398.48H149.229L147.644 379.148L146.959 370.783H158.778Z" fill="#C7C7C7"/>
<path d="M146.959 370.783H158.778L158.102 379.148H147.644L146.959 370.783Z" fill="#A6A6A6"/>
<path d="M209.731 370.783L209.046 379.148L207.461 398.48H200.172L198.587 379.148L197.902 370.783H209.731Z" fill="#C7C7C7"/>
<path d="M209.731 370.783L209.046 379.148H198.587L197.902 370.783H209.731Z" fill="#A6A6A6"/>
<path d="M192.15 69.2627H24.2144V76.4732H192.15V69.2627Z" fill="#EBEBEB"/>
<path d="M48.6343 104.855H42.089L39.467 76.4731H48.6343V104.855Z" fill="#EBEBEB"/>
<path d="M167.729 104.855H174.275L176.897 76.4731H167.729V104.855Z" fill="#EBEBEB"/>
<path d="M39.467 76.4731H48.6245V86.2469H40.3671L39.467 76.4731Z" fill="#DBDBDB"/>
<path d="M176.897 76.4731L175.997 86.2469H167.729V76.4731H176.897Z" fill="#DBDBDB"/>
<path d="M85.0292 26.0095C77.5741 36.0964 69.806 47.778 67.9177 60.4967C67.9171 60.536 67.9305 60.5744 67.9555 60.6048C67.9805 60.6352 68.0155 60.6558 68.0543 60.6628C68.093 60.6699 68.133 60.663 68.1672 60.6433C68.2013 60.6236 68.2273 60.5924 68.2406 60.5554C69.1 57.1067 70.2018 53.7229 71.5377 50.4294C76.4295 49.0792 81.243 47.9737 83.8161 43.1112C86.3891 38.2488 86.1054 31.596 85.6065 26.1465C85.5869 25.8236 85.176 25.8139 85.0292 26.0095Z" fill="#EBEBEB"/>
<path d="M71.6159 50.3022C74.8932 42.6084 79.3094 35.4515 84.7161 29.0718L84.7748 29.1305C81.3543 33.5316 78.3509 38.2415 75.8033 43.1993C78.2687 40.6947 80.969 38.4445 83.3073 35.7931C83.3073 35.7931 83.4247 35.7931 83.3855 35.8714C81.0668 38.6499 78.4938 41.673 75.5587 43.6982C74.7499 45.1984 73.9281 46.6985 73.0932 48.1987C73.2987 48.0813 73.5139 47.9834 73.7194 47.8758V47.9345L73.0247 48.277C72.6334 48.9814 72.242 49.6956 71.8409 50.4C71.7626 50.5957 71.5376 50.4587 71.6159 50.3022Z" fill="#A6A6A6"/>
<path d="M74.1009 47.6801C76.1037 46.5569 78.0171 45.2812 79.8243 43.8645C79.8243 43.8645 79.9417 43.8645 79.8928 43.933C78.142 45.4489 76.2253 46.7618 74.1791 47.8464C74.1682 47.8516 74.1564 47.8545 74.1443 47.8551C74.1323 47.8556 74.1202 47.8538 74.1089 47.8497C74.0975 47.8456 74.0871 47.8394 74.0782 47.8312C74.0692 47.8231 74.062 47.8133 74.0568 47.8024C74.0517 47.7915 74.0488 47.7796 74.0482 47.7676C74.0476 47.7555 74.0494 47.7435 74.0535 47.7321C74.0576 47.7208 74.0639 47.7103 74.072 47.7014C74.0801 47.6925 74.09 47.6852 74.1009 47.6801Z" fill="#A6A6A6"/>
<path d="M67.0958 60.3498C67.0958 60.5064 67.3698 60.4966 67.3698 60.3498C67.3698 56.182 67.3698 51.9947 67.4382 47.8073C68.5046 45.6549 70.794 44.4613 72.3887 42.7296C73.5242 41.4686 74.5092 40.0798 75.3238 38.5912C77.2409 35.0331 78.4127 31.1216 78.7676 27.0955C79.2079 22.6341 77.5153 7.92943 75.6369 8.43817C74.6585 8.70233 71.5082 15.9911 70.6766 18.3979C69.3292 22.3702 68.3468 26.4571 67.7415 30.6078C66.2251 40.4109 66.3523 50.4782 67.0958 60.3498Z" fill="#EBEBEB"/>
<path d="M67.0665 42.3676C67.4627 37.0676 68.3104 31.8111 69.6005 26.6552C70.7941 21.1373 72.1931 15.952 75.0303 11.0015C75.0303 10.9036 75.2162 11.0015 75.1673 11.0798C73.2778 14.9026 71.8145 18.9218 70.8038 23.0646C70.9995 22.7711 71.2245 22.4874 71.4202 22.2037C71.4985 22.0961 71.6844 22.2037 71.6061 22.3113C71.3556 22.7574 71.0606 23.177 70.7256 23.5636C69.7472 27.477 69.0428 31.5274 68.446 35.5485L68.583 35.3919C68.583 35.3919 68.6612 35.3919 68.6417 35.3919L68.4069 35.7931C68.1036 37.8281 67.8199 39.863 67.5361 41.8785C71.2633 38.8917 74.1801 35.0161 76.0185 30.6078C74.4667 35.3089 71.4623 39.3958 67.4383 42.2796C67.3698 42.8275 67.2915 43.3656 67.2133 43.9135C67.2133 44.0211 67.0176 43.9917 67.0176 43.9135C67.0176 43.4341 67.0176 42.9351 67.0176 42.4655C67.0163 42.4463 67.0201 42.4271 67.0287 42.4099C67.0373 42.3927 67.0504 42.3781 67.0665 42.3676Z" fill="#A6A6A6"/>
<path d="M68.7786 34.7267C71.6154 30.7143 74.0906 26.4581 76.175 22.0081C76.175 22.0081 76.2924 22.0081 76.2728 22.0081C74.6262 26.6895 72.147 31.0348 68.9547 34.8343C68.9476 34.8459 68.9383 34.856 68.9274 34.8639C68.9164 34.8719 68.904 34.8777 68.8908 34.8808C68.8777 34.884 68.864 34.8846 68.8506 34.8825C68.8372 34.8804 68.8244 34.8756 68.8128 34.8686C68.8013 34.8615 68.7912 34.8522 68.7832 34.8413C68.7752 34.8303 68.7695 34.8179 68.7663 34.8047C68.7631 34.7916 68.7626 34.7779 68.7647 34.7645C68.7668 34.7511 68.7715 34.7383 68.7786 34.7267Z" fill="#A6A6A6"/>
<path d="M72.467 20.9613C73.6215 18.9263 74.8249 16.95 75.9108 14.8759C75.9108 14.8172 76.0185 14.8759 75.9989 14.9248C75.1106 17.0905 73.9851 19.151 72.6431 21.0689C72.6259 21.0844 72.6041 21.094 72.581 21.0962C72.5579 21.0983 72.5347 21.0929 72.5149 21.0808C72.4951 21.0687 72.4797 21.0506 72.4711 21.029C72.4625 21.0075 72.461 20.9837 72.467 20.9613Z" fill="#A6A6A6"/>
<path d="M65.0414 49.6663C64.9862 52.4312 64.6584 55.1839 64.063 57.8845C64.063 58.178 64.1511 58.4715 64.1902 58.7846C65.0414 55.8009 65.5373 52.7272 65.6675 49.6272C65.6891 49.583 65.7003 49.5345 65.7003 49.4853C65.7003 49.4362 65.6891 49.3876 65.6675 49.3435C65.7862 45.1909 65.4781 41.0372 64.7479 36.9477C63.4564 29.2871 60.6388 21.9299 55.2969 16.1967C55.2522 16.1593 55.1996 16.1324 55.1432 16.118C55.0867 16.1035 55.0277 16.1018 54.9705 16.1131C54.9133 16.1243 54.8594 16.1482 54.8126 16.183C54.7658 16.2178 54.7274 16.2626 54.7001 16.3141C52.5477 21.7929 53.3011 28.3381 55.1404 33.8071C56.1356 36.7695 57.5631 39.5684 59.3767 42.1134C61.2356 44.6767 63.5738 46.8584 65.0414 49.6663Z" fill="#EBEBEB"/>
<path d="M55.9524 18.7501C61.0203 26.9683 64.5423 36.703 64.9728 46.4083C64.9728 46.5844 64.6891 46.6333 64.6598 46.4572C64.5423 45.5865 64.4152 44.7157 64.2684 43.8548C62.0711 41.9054 60.1402 39.6752 58.5254 37.2215C58.5254 37.2215 58.5254 37.1237 58.6037 37.2215C60.3438 39.3496 62.2058 41.3749 64.1804 43.2873C63.8151 41.148 63.3814 39.0347 62.8791 36.9476C62.7422 36.8008 62.615 36.6345 62.478 36.478C62.341 36.3214 62.5367 36.2236 62.6248 36.3312L62.752 36.4682C62.0402 33.6154 61.1547 30.8088 60.1006 28.0641C58.694 26.6308 57.4595 25.0384 56.422 23.319C56.422 23.319 56.422 23.231 56.4905 23.319C57.2196 24.3923 58.0033 25.4275 58.8385 26.4204C59.1712 26.8118 59.5527 27.1836 59.9049 27.5651C58.7359 24.5877 57.3494 21.7002 55.7567 18.9262C55.7333 18.9003 55.7212 18.8661 55.7231 18.8313C55.7249 18.7964 55.7405 18.7637 55.7665 18.7403C55.7924 18.717 55.8266 18.7049 55.8614 18.7067C55.8963 18.7086 55.929 18.7242 55.9524 18.7501Z" fill="#A6A6A6"/>
<path d="M56.9797 28.8858C58.6136 31.0871 60.4822 33.1905 61.9987 35.4603C61.9987 35.5288 61.9987 35.5973 61.891 35.5484C59.9555 33.5595 58.2701 31.3418 56.8721 28.9445C56.8232 28.876 56.9308 28.8173 56.9797 28.8858Z" fill="#A6A6A6"/>
<path d="M62.2339 35.9693L62.3027 36.048C62.3027 36.048 62.3027 36.1659 62.224 36.1168L62.1552 36.0381C62.1061 36.0381 62.1847 35.93 62.2339 35.9693Z" fill="#A6A6A6"/>
<path d="M47.2451 32.4667C47.836 37.0569 49.6847 41.3944 52.5869 44.9994C53.7767 46.4169 55.2497 47.5699 56.9113 48.3846C58.7897 49.314 60.7562 50.3413 62.6934 51.1435C63.6164 53.4929 64.3046 55.9278 64.7479 58.4127C64.8066 58.1975 64.8653 57.9823 64.9338 57.767C63.6815 47.0638 56.7645 37.9161 47.9006 32.046C47.8314 32.0026 47.7513 31.9798 47.6697 31.9802C47.588 31.9807 47.5082 32.0043 47.4394 32.0484C47.3707 32.0925 47.3159 32.1553 47.2815 32.2293C47.2471 32.3034 47.2345 32.3857 47.2451 32.4667Z" fill="#EBEBEB"/>
<path d="M50.4931 39.325C50.6118 39.3999 50.7261 39.4816 50.8355 39.5695C50.8355 39.5695 50.8355 39.638 50.8355 39.6282C50.7128 39.5693 50.595 39.5006 50.4833 39.4228C50.4757 39.4167 50.4698 39.4087 50.466 39.3997C50.4622 39.3907 50.4607 39.3809 50.4617 39.3712C50.4627 39.3615 50.4661 39.3522 50.4715 39.3441C50.477 39.336 50.4844 39.3294 50.4931 39.325Z" fill="#A6A6A6"/>
<path d="M75.8228 69.2627H57.5764L58.4765 57.3072L58.8189 53.4036H74.414L74.7662 57.3072L75.8228 69.2627Z" fill="#DBDBDB"/>
<path d="M74.7662 57.3072H58.4766L58.819 53.4036H74.414L74.7662 57.3072Z" fill="#C7C7C7"/>
<path d="M75.6565 50.2043H57.5764V54.2058H75.6565V50.2043Z" fill="#DBDBDB"/>
<path d="M120.143 69.243V25.8235H109.205V69.243H120.143Z" fill="#C7C7C7"/>
<path d="M120.152 28.2695V23.4951H109.214V28.2695H120.152Z" fill="#DBDBDB"/>
<path d="M120.143 36.1453V34.3745H109.205V36.1453H120.143Z" fill="#DBDBDB"/>
<path d="M120.143 63.5393V58.7649H109.205V63.5393H120.143Z" fill="#DBDBDB"/>
<path d="M127.783 69.2431V18.5935H120.142V69.2431H127.783Z" fill="#DBDBDB"/>
<path d="M126.228 42.8275V23.3484H121.639V42.8275H126.228Z" fill="#EBEBEB"/>
<path d="M182.198 63.7565L146.178 28.1487L140.806 33.5827L176.826 69.1905L182.198 63.7565Z" fill="#C7C7C7"/>
<path d="M172.694 56.4706L158.841 42.7764L155.615 46.0396L169.468 59.7338L172.694 56.4706Z" fill="#DBDBDB"/>
<path d="M140.766 69.2432V30.7742H127.793V69.2432H140.766Z" fill="#A6A6A6"/>
<path d="M140.756 65.1633V61.5825H127.783V65.1633H140.756Z" fill="#C7C7C7"/>
<path d="M140.766 59.2247V57.8354H127.793V59.2247H140.766Z" fill="#C7C7C7"/>
<path d="M95.5952 69.8105L109.694 36.5522L101.449 33.0572L87.3504 66.3155L95.5952 69.8105Z" fill="#A6A6A6"/>
<path d="M96.5329 65.7475L97.8604 62.6548L89.6251 59.1201L88.2977 62.2128L96.5329 65.7475Z" fill="#C7C7C7"/>
<path d="M105.019 45.995L106.346 42.9023L98.111 39.3676L96.7835 42.4603L105.019 45.995Z" fill="#C7C7C7"/>
<path d="M103.596 49.3187L104.113 48.114L95.8776 44.5793L95.3605 45.784L103.596 49.3187Z" fill="#C7C7C7"/>
<path d="M381.149 280.226H285.475V398.48H381.149V280.226Z" fill="#EBEBEB"/>
<path d="M385.777 275.315H280.838V280.226H385.777V275.315Z" fill="#DBDBDB"/>
<path d="M418.786 275.315H385.786V280.226H418.786V275.315Z" fill="#EBEBEB"/>
<path d="M413.562 280.226H381.149V398.48H413.562V280.226Z" fill="#DBDBDB"/>
<path d="M370.847 335.132H295.777V292.69H370.847V335.132ZM296.022 334.887H370.602V292.935H296.022V334.887Z" fill="#C7C7C7"/>
<path d="M337.455 305.096H322.838V313.5H337.455V305.096Z" fill="#C7C7C7"/>
<path d="M341.916 312.982H327.036V305.605H341.916V312.982ZM327.241 312.737H341.613V305.888H327.241V312.737Z" fill="#C7C7C7"/>
<path d="M370.847 388.432H295.777V345.991H370.847V388.432ZM296.022 388.188H370.602V346.236H296.022V388.188Z" fill="#C7C7C7"/>
<path d="M337.456 358.397H322.839V366.801H337.456V358.397Z" fill="#C7C7C7"/>
<path d="M341.916 366.282H327.036V358.896H341.916V366.282ZM327.241 366.038H341.613V359.189H327.241V366.038Z" fill="#C7C7C7"/>
<path d="M419.266 398.48L366.865 398.715L314.454 398.803L209.633 398.969L104.811 398.803L52.4106 398.715L0 398.48L52.4106 398.235L104.811 398.157L209.633 397.991L314.454 398.157L366.865 398.235L419.266 398.48Z" fill="#263238"/>
<path d="M394.64 398.48H400.246L360.985 191.009H347.023L394.64 398.48Z" fill="#455A64"/>
<path d="M347.023 191.009L354.068 221.69H366.786L360.994 191.038L360.985 191.009H347.023Z" fill="#37474F"/>
<path d="M337.367 398.48H342.973L341.721 191.009H327.77L337.367 398.48Z" fill="#455A64"/>
<path d="M327.77 191.009L329.188 221.69H341.907L341.721 191.038V191.009H327.77Z" fill="#37474F"/>
<path d="M285.7 398.48H280.104L311.01 191.009H324.971L285.7 398.48Z" fill="#455A64"/>
<path d="M306.441 221.69H319.16L324.971 191.009H311.01L311 191.038L306.441 221.69Z" fill="#37474F"/>
<path d="M297.196 313.646H378.664V309.596H297.196V313.646Z" fill="#455A64"/>
<path d="M418.818 114.17C421.679 56.2849 390.671 7.71202 349.559 5.67972C308.446 3.64741 272.798 48.9253 269.937 106.811C267.076 164.696 298.084 213.269 339.196 215.301C380.309 217.333 415.956 172.056 418.818 114.17Z" fill="#AF342D"/>
<path d="M333.297 4.64209L350.79 5.72807L337.465 215.204L319.962 214.118L333.297 4.64209Z" fill="#FFC727"/>
<g opacity="0.1">
<path opacity="0.1" d="M333.297 4.64209L350.79 5.72807L337.465 215.204L319.962 214.118L333.297 4.64209Z" fill="black"/>
</g>
<path d="M402.713 113.172C405.575 55.2861 374.566 6.71328 333.454 4.68097C292.342 2.64866 256.694 47.9265 253.832 105.812C250.971 163.697 281.979 212.27 323.092 214.302C364.204 216.335 399.852 171.057 402.713 113.172Z" fill="#AF342D"/>
<path d="M386.346 112.362C388.578 67.208 364.388 29.3178 332.315 27.7323C300.242 26.1469 272.432 61.4665 270.2 106.621C267.968 151.775 292.159 189.666 324.232 191.251C356.304 192.837 384.114 157.517 386.346 112.362Z" fill="white"/>
<path d="M370.135 111.561C371.744 79.0026 354.307 51.6823 331.187 50.5394C308.068 49.3965 288.021 74.8639 286.411 107.422C284.802 139.981 302.239 167.301 325.359 168.444C348.478 169.587 368.525 144.12 370.135 111.561Z" fill="#AF342D"/>
<path d="M353.758 110.752C354.738 90.9294 344.122 74.2963 330.048 73.6005C315.973 72.9048 303.769 88.4098 302.789 108.232C301.809 128.054 312.424 144.687 326.499 145.383C340.574 146.079 352.778 130.574 353.758 110.752Z" fill="white"/>
<path d="M339.588 107.458C340.195 116.263 335.616 124.237 329.354 125.381C323.093 126.526 317.546 120.372 316.949 111.616C316.352 102.86 320.921 94.8371 327.173 93.6827C333.424 92.5282 338.981 98.6527 339.588 107.458Z" fill="#AF342D"/>
<path opacity="0.4" d="M401.062 112.17C403.923 54.2849 372.915 5.71205 331.803 3.67975C290.69 1.64744 255.043 46.9253 252.181 104.811C249.32 162.696 280.328 211.269 321.44 213.301C362.553 215.333 398.201 170.056 401.062 112.17Z" fill="white"/>
<path d="M258.012 340.307C258.35 331.759 258.232 323.2 257.66 314.664C256.4 297.061 253.714 279.589 249.628 262.42C247.387 252.754 244.629 243.244 241.752 233.754C241.664 233.46 241.214 233.549 241.292 233.842C250.176 267.312 257.474 301.858 256.946 336.648C256.809 346.431 255.684 355.951 254.755 365.627C254.755 365.891 255.156 365.989 255.214 365.725C257.073 357.487 257.67 348.809 258.012 340.307Z" fill="#ECC46F"/>
<path d="M241.293 233.881C241.293 233.881 227.821 268.065 230.834 276.097C233.847 284.13 240.07 285.881 240.07 285.881C240.07 285.881 231.832 297.621 237.585 308.677C243.337 319.732 256.173 319.194 256.985 331.697C256.985 331.658 257.7 279.355 241.293 233.881Z" fill="#ECC46F"/>
<path d="M255.528 310.066C255.546 310.005 255.546 309.941 255.528 309.88C253.756 286.544 249.375 263.481 242.466 241.121C242.466 241.062 242.339 241.121 242.359 241.121C245.02 251.12 247.378 261.171 249.432 271.274C247.624 269.561 245.413 268.33 243.005 267.693C242.956 267.693 242.936 267.742 243.005 267.762C245.537 268.69 247.811 270.21 249.638 272.194C250.039 274.15 250.42 276.107 250.782 278.142C247.779 274.777 243.601 273.113 239.424 271.528C239.365 271.528 239.336 271.597 239.424 271.616C243.777 273.387 248.102 275.667 251.056 279.443C252.08 285.118 252.981 290.809 253.757 296.516C251.58 294.239 248.79 292.641 245.724 291.917C245.636 291.917 245.578 292.035 245.675 292.064C248.838 292.975 251.666 294.787 253.815 297.279H253.874C254.138 299.284 254.393 301.3 254.627 303.306C252.943 301.884 251.045 300.738 249.002 299.911C248.953 299.911 248.924 299.979 249.002 299.999C251.086 300.902 252.994 302.168 254.637 303.736C254.663 303.745 254.69 303.745 254.715 303.736C254.931 305.693 255.156 307.571 255.351 309.489C252.319 305.824 248.384 303.012 243.934 301.329C243.916 301.323 243.896 301.324 243.878 301.332C243.861 301.34 243.848 301.355 243.841 301.373C243.835 301.391 243.836 301.411 243.844 301.429C243.852 301.446 243.867 301.46 243.885 301.466C248.279 303.407 252.139 306.381 255.136 310.134C255.169 310.176 255.214 310.206 255.264 310.222C255.315 310.238 255.369 310.238 255.42 310.222C255.713 313.158 255.978 316.093 256.193 319.028C256.193 319.028 256.261 319.077 256.261 319.028C255.978 316.102 255.821 313.079 255.528 310.066Z" fill="#263238"/>
<path d="M244.707 264.328C242.268 262.812 239.484 261.943 236.616 261.803C236.603 261.803 236.59 261.809 236.581 261.818C236.572 261.827 236.567 261.839 236.567 261.852C236.567 261.865 236.572 261.878 236.581 261.887C236.59 261.896 236.603 261.901 236.616 261.901C239.385 262.421 242.076 263.299 244.619 264.514C244.717 264.562 244.805 264.396 244.707 264.328Z" fill="#263238"/>
<path d="M246.341 300.517C244.467 299.442 242.404 298.735 240.265 298.433C240.187 298.433 240.187 298.541 240.265 298.551C242.356 298.968 244.378 299.676 246.272 300.654C246.351 300.693 246.419 300.556 246.341 300.517Z" fill="#263238"/>
<path d="M293.409 276.655C287.718 280.593 282.489 285.161 277.824 290.274C273.018 295.69 269.307 301.986 266.896 308.814C261.78 323.05 259.031 338.028 258.756 353.153C258.578 361.527 259.383 369.894 261.153 378.081C261.165 378.144 261.201 378.199 261.253 378.235C261.305 378.27 261.37 378.284 261.432 378.272C261.494 378.26 261.549 378.225 261.585 378.172C261.621 378.12 261.634 378.056 261.623 377.993C259.419 363.545 259.502 348.84 261.867 334.417C264.176 320.27 267.816 304.89 276.797 293.395C281.689 287.143 287.794 282.222 293.83 277.134C294.143 276.86 293.742 276.42 293.409 276.655Z" fill="#ECC46F"/>
<path d="M260.713 342.968C263.956 337.725 267.769 332.855 272.081 328.449C278.813 321.708 284.487 316.924 285.368 312.473C286.248 308.021 278.617 304.734 278.617 304.734C278.617 304.734 287.941 306.407 290.484 302.493C293.028 298.58 294.271 275.921 294.271 275.921C294.271 275.921 277.345 288.033 269.43 305.008C261.515 321.982 260.713 342.968 260.713 342.968Z" fill="#ECC46F"/>
<path d="M288.234 297.181C287.117 297.02 285.985 296.98 284.859 297.063C284.832 297.071 284.809 297.087 284.792 297.109C284.776 297.131 284.767 297.158 284.767 297.186C284.767 297.213 284.776 297.24 284.792 297.262C284.809 297.284 284.832 297.3 284.859 297.308C285.974 297.308 287.099 297.249 288.215 297.308C288.228 297.305 288.241 297.298 288.251 297.288C288.26 297.278 288.267 297.265 288.269 297.251C288.271 297.237 288.269 297.223 288.263 297.211C288.256 297.198 288.247 297.188 288.234 297.181Z" fill="#263238"/>
<path d="M276.024 319.165C274.235 319.208 272.467 319.562 270.8 320.212C270.8 320.212 270.8 320.3 270.8 320.29C272.531 319.879 274.273 319.713 276.024 319.419C276.058 319.419 276.09 319.406 276.114 319.382C276.138 319.358 276.151 319.326 276.151 319.292C276.151 319.258 276.138 319.226 276.114 319.202C276.09 319.178 276.058 319.165 276.024 319.165Z" fill="#263238"/>
<path d="M272.365 311.572C271.62 311.564 270.876 311.63 270.144 311.768C270.076 311.768 270.076 311.905 270.144 311.905C270.886 311.943 271.63 311.907 272.365 311.797C272.502 311.778 272.502 311.572 272.365 311.572Z" fill="#263238"/>
<path d="M211.022 300.703C216.541 302.573 221.828 305.064 226.783 308.129C231.927 311.397 236.386 315.634 239.913 320.603C247.36 330.938 253.064 342.422 256.799 354.601C258.872 361.34 260.156 368.297 260.625 375.332C260.615 375.378 260.589 375.419 260.553 375.448C260.516 375.477 260.471 375.493 260.424 375.493C260.378 375.493 260.332 375.477 260.296 375.448C260.259 375.419 260.234 375.378 260.224 375.332C258.66 363.127 255.194 351.243 249.951 340.111C244.805 329.203 238.318 317.609 228.427 310.369C223.017 306.456 216.941 303.863 210.885 301.143C210.474 301.036 210.699 300.595 211.022 300.703Z" fill="#ECC46F"/>
<path d="M252.798 346.813C248.962 343.321 244.753 340.263 240.246 337.695C233.231 333.781 227.527 331.237 225.795 327.833C224.064 324.428 229.474 320.006 229.474 320.006C229.474 320.006 222.312 323.508 219.348 320.935C216.384 318.362 210.142 300.302 210.142 300.302C210.142 300.302 226.666 306.172 236.988 318.098C247.309 330.024 252.798 346.813 252.798 346.813Z" fill="#ECC46F"/>
<path d="M224.66 311.318C223.921 311.267 223.178 311.31 222.449 311.445C222.431 311.445 222.414 311.453 222.401 311.465C222.388 311.478 222.381 311.496 222.381 311.514C222.381 311.532 222.388 311.549 222.401 311.562C222.414 311.575 222.431 311.582 222.449 311.582C223.173 311.504 223.888 311.533 224.621 311.514C224.647 311.519 224.674 311.514 224.696 311.499C224.718 311.484 224.734 311.461 224.739 311.435C224.744 311.41 224.739 311.383 224.724 311.361C224.709 311.339 224.686 311.323 224.66 311.318Z" fill="#263238"/>
<path d="M274.107 398.108H236.812L242.124 359.15L243.484 349.171H267.424L268.784 359.15L274.107 398.108Z" fill="#455A64"/>
<path d="M268.784 359.15H242.124L243.484 349.171H267.424L268.784 359.15Z" fill="#263238"/>
<path d="M270.848 345.698H240.06V354.161H270.848V345.698Z" fill="#455A64"/>
<path d="M271.426 88.842L11.9431 104.076L14.6892 150.849L274.173 135.615L271.426 88.842Z" fill="#FFC727"/>
<path d="M270.673 76.0522L274.919 148.392L327.486 109.013L270.673 76.0522Z" fill="#FFC727"/>
<g opacity="0.5">
<path opacity="0.5" d="M327.486 109.013L274.919 148.382L274.165 135.615L14.6852 150.848L11.936 104.072L271.416 88.8394L270.663 76.0522L327.486 109.013Z" fill="white"/>
<path opacity="0.5" d="M12.3859 153.44L9.35303 101.783L268.823 86.55L267.962 71.6692L331.918 108.759L272.737 153.078L271.866 138.207L12.3859 153.44ZM14.5188 106.381L16.9842 148.275L276.464 133.022L277.09 143.696L323.073 109.267L273.373 80.4548L273.999 91.1385L14.5188 106.381Z" fill="#FFC727"/>
</g>
<path d="M144.122 348.584C144.122 348.584 143.144 387.337 143.144 387.366C143.144 394.527 143.32 400.809 143.701 403.998V404.057C143.714 404.825 143.898 405.58 144.239 406.268C146.382 407.706 203.635 409.203 205.651 408.577C207.666 407.951 206.052 402.159 203.88 400.329C201.708 398.5 180.057 388.246 180.057 388.246L180.683 349.513L144.122 348.584Z" fill="#FAAB9A"/>
<path d="M143.075 379.676C143.075 379.676 143.144 387.336 143.134 387.366C143.134 394.527 143.31 400.808 143.692 403.998V404.056C143.789 404.811 143.969 405.553 144.23 406.268C146.372 407.706 203.626 409.203 205.641 408.576C207.657 407.95 206.042 402.158 203.87 400.329C201.698 398.499 180.057 388.246 180.057 388.246V380.419L143.075 379.676Z" fill="white"/>
<path d="M183.559 388.246C179.753 387.62 175.116 388.305 172.269 391.074C172.161 391.181 172.318 391.328 172.435 391.289C176.041 390.04 179.77 389.181 183.559 388.726C183.614 388.714 183.664 388.684 183.7 388.641C183.736 388.597 183.755 388.542 183.755 388.486C183.755 388.43 183.736 388.375 183.7 388.331C183.664 388.287 183.614 388.257 183.559 388.246Z" fill="#263238"/>
<path d="M186.358 389.831C182.542 389.205 177.914 389.89 175.067 392.649C174.96 392.757 175.116 392.913 175.234 392.874C178.84 391.625 182.569 390.766 186.358 390.311C186.413 390.299 186.463 390.269 186.498 390.226C186.534 390.182 186.553 390.127 186.553 390.071C186.553 390.015 186.534 389.96 186.498 389.916C186.463 389.873 186.413 389.843 186.358 389.831Z" fill="#263238"/>
<path d="M189.116 391.426C185.301 390.8 180.673 391.475 177.826 394.244C177.718 394.351 177.826 394.508 177.992 394.469C181.595 393.219 185.321 392.36 189.106 391.905C189.162 391.895 189.212 391.866 189.249 391.823C189.286 391.78 189.306 391.726 189.307 391.67C189.309 391.613 189.29 391.558 189.255 391.514C189.22 391.469 189.171 391.438 189.116 391.426Z" fill="#263238"/>
<path d="M205.68 408.665C203.665 409.281 146.411 407.794 144.269 406.356C143.447 405.827 143.173 397.472 143.144 387.366V387.043L180.086 387.591V388.217C180.086 388.217 201.747 398.588 203.939 400.427C206.13 402.266 207.696 408.048 205.68 408.665Z" fill="#37474F"/>
<path d="M143.133 387.043V387.366C143.182 397.472 143.446 405.827 144.268 406.356C145.247 407.011 157.652 407.677 171.056 408.156C187.11 408.723 204.584 409.007 205.68 408.665C207.695 408.048 206.071 402.247 203.909 400.417C201.747 398.588 180.057 388.246 180.057 388.246V387.63L167.768 387.415L143.133 387.043Z" fill="#74927A"/>
<path d="M205.083 406.424C195.446 405.935 156.498 404.878 146.929 405.133C146.851 405.133 146.851 405.191 146.929 405.191C156.478 405.886 195.427 406.63 205.083 406.581C205.288 406.581 205.288 406.434 205.083 406.424Z" fill="#263238"/>
<path opacity="0.1" d="M167.769 387.415C168.669 393.598 170.048 402.716 171.056 408.156C187.111 408.723 204.584 409.007 205.68 408.665C207.695 408.048 206.071 402.247 203.909 400.417C201.747 398.588 180.057 388.246 180.057 388.246V387.63L167.769 387.415Z" fill="black"/>
<path d="M139.807 387.571L181.241 387.972C181.241 387.972 183.589 320.466 183.765 298.022C183.97 272.321 182.512 195.294 182.512 195.294H151.538C151.538 195.294 143.231 212.289 147.976 231.396L149.287 300.165L139.807 387.571Z" fill="#263238"/>
<path d="M142.879 380.322C143.973 380.174 145.073 380.086 146.176 380.057C147.399 379.969 148.622 379.881 149.845 379.832C152.203 379.725 154.561 379.686 156.919 379.676C161.683 379.676 166.438 379.676 171.193 379.842C173.903 379.93 176.603 380.038 179.304 380.194C179.411 380.194 179.401 380.361 179.304 380.361C174.588 380.537 169.862 380.605 165.147 380.703C160.431 380.801 155.715 380.879 151.009 380.791C149.65 380.791 148.299 380.791 146.949 380.674C145.599 380.556 144.22 380.674 142.899 380.478C142.821 380.468 142.781 380.341 142.879 380.322Z" fill="#37474F"/>
<path d="M178.256 343.085C178.736 331.932 179.098 320.769 179.401 309.616C180.008 287.29 180.167 264.96 179.88 242.628C179.724 230.105 179.391 217.582 179.02 205.059C179.02 204.912 179.225 204.922 179.235 205.059C180.419 227.473 180.878 249.936 180.898 272.379C180.918 294.823 180.487 317.051 179.352 339.328C178.736 351.842 177.973 364.374 176.799 376.848C176.799 376.956 176.623 376.956 176.623 376.848C177.131 365.607 177.767 354.356 178.256 343.085Z" fill="#37474F"/>
<path d="M188.441 354.738C188.441 354.738 188.754 392.199 188.754 392.228C188.754 399.39 188.921 405.671 189.302 408.909C189.296 408.925 189.296 408.942 189.302 408.958C189.303 409.728 189.488 410.486 189.84 411.169C189.836 411.185 189.836 411.202 189.84 411.218C191.973 412.656 249.227 414.153 251.242 413.517C253.258 412.881 251.653 407.109 249.471 405.28C247.29 403.45 225.619 393.079 225.619 393.079L224.954 355.638L188.441 354.738Z" fill="#FAAB9A"/>
<path d="M188.686 384.529C188.686 384.529 188.755 392.199 188.755 392.228C188.755 399.39 188.921 405.671 189.302 408.909C189.296 408.925 189.296 408.942 189.302 408.958C189.393 409.714 189.573 410.456 189.84 411.169C189.836 411.185 189.836 411.202 189.84 411.218C191.973 412.656 249.227 414.153 251.242 413.517C253.258 412.881 251.653 407.109 249.471 405.28C247.29 403.45 225.619 393.079 225.619 393.079L225.668 385.253L188.686 384.529Z" fill="white"/>
<path d="M229.18 393.138C225.365 392.512 220.737 393.187 217.89 395.956C217.782 396.063 217.89 396.22 218.056 396.181C221.659 394.931 225.385 394.072 229.17 393.618C229.226 393.607 229.276 393.579 229.313 393.536C229.35 393.493 229.37 393.438 229.371 393.382C229.373 393.325 229.354 393.27 229.319 393.226C229.284 393.181 229.235 393.15 229.18 393.138Z" fill="#263238"/>
<path d="M231.958 394.694C228.143 394.068 223.515 394.743 220.668 397.511C220.561 397.619 220.668 397.776 220.835 397.736C224.437 396.487 228.163 395.627 231.949 395.173C232.004 395.163 232.055 395.134 232.091 395.091C232.128 395.048 232.149 394.994 232.15 394.937C232.151 394.881 232.132 394.826 232.098 394.782C232.063 394.737 232.014 394.706 231.958 394.694Z" fill="#263238"/>
<path d="M234.737 396.289C230.922 395.662 226.284 396.289 223.447 399.106C223.329 399.214 223.447 399.37 223.613 399.331C227.216 398.082 230.942 397.222 234.727 396.768C234.783 396.758 234.833 396.729 234.87 396.686C234.907 396.643 234.927 396.589 234.928 396.532C234.93 396.476 234.911 396.421 234.876 396.376C234.841 396.332 234.792 396.301 234.737 396.289Z" fill="#263238"/>
<path d="M251.291 413.517C249.276 414.143 192.032 412.656 189.889 411.218C189.067 410.68 188.794 402.325 188.754 392.228C188.754 392.121 188.754 392.013 188.754 391.905L225.697 392.453V393.079C225.697 393.079 247.348 403.45 249.54 405.279C251.731 407.109 253.316 412.911 251.291 413.517Z" fill="#74927A"/>
<path d="M250.704 411.287C241.058 410.797 202.119 409.741 192.541 409.995C192.472 409.995 192.463 409.995 192.541 410.054C202.09 410.749 241.048 411.482 250.704 411.443C250.929 411.443 250.929 411.296 250.704 411.287Z" fill="#263238"/>
<path d="M169.51 234.898C169.51 234.898 186.504 288.473 186.817 298.316C187.072 306.71 186.005 392.845 186.005 392.845L229.053 393.099C229.053 393.099 225.423 305.262 224.748 296.515C223.496 280.157 209.163 235.251 198.92 195.246H152.506C152.506 195.246 152.907 216.202 162.437 231.347C162.437 231.347 166.79 233.343 169.51 234.898Z" fill="#263238"/>
<path d="M188.314 384.91C193.284 384.763 198.44 384.617 203.41 384.744C208.38 384.871 213.292 384.939 218.213 385.233C221.001 385.399 223.789 385.497 226.578 385.771C226.666 385.771 226.666 385.918 226.578 385.918C221.608 386.211 216.618 386.153 211.648 386.104C206.678 386.055 201.776 386.006 196.846 385.781C194.047 385.654 191.269 385.517 188.481 385.321C188.148 385.311 187.991 384.92 188.314 384.91Z" fill="#37474F"/>
<path d="M193.803 204.237C195.339 209.354 214.348 279.57 216.305 289.765C218.262 299.959 220.913 366.899 220.727 377.631C220.727 378.962 220.678 380.292 220.629 381.623C220.629 381.649 220.619 381.674 220.601 381.692C220.582 381.71 220.558 381.721 220.532 381.721C220.506 381.721 220.481 381.71 220.462 381.692C220.444 381.674 220.434 381.649 220.434 381.623C220.14 370.959 217.293 300.713 215.464 290.254C213.752 279.981 194.811 210.185 193.49 204.315C193.49 204.278 193.502 204.242 193.525 204.213C193.548 204.183 193.58 204.163 193.616 204.154C193.652 204.145 193.69 204.148 193.724 204.163C193.757 204.178 193.785 204.204 193.803 204.237Z" fill="#37474F"/>
<path d="M180.155 235.935C178.013 235.92 175.876 235.727 173.766 235.358C171.673 234.903 169.606 234.338 167.573 233.666C165.57 233.212 163.541 232.885 161.497 232.687C159.439 232.388 157.436 231.791 155.549 230.917C155.461 230.917 155.392 231.005 155.48 231.044C157.308 232.03 159.216 232.858 161.184 233.519C163.219 234.165 165.352 234.253 167.426 234.761C169.516 235.383 171.644 235.873 173.795 236.229C175.917 236.488 178.064 236.449 180.174 236.112C180.262 236.063 180.233 235.935 180.155 235.935Z" fill="#37474F"/>
<path d="M182.865 278.553C182.454 276.958 182.072 275.373 181.642 273.788C180.771 270.589 179.891 267.39 178.922 264.22C176.965 257.919 175.185 251.58 173.159 245.318C172.005 241.757 170.968 238.166 169.618 234.674C169.611 234.655 169.598 234.641 169.58 234.632C169.563 234.624 169.543 234.623 169.525 234.629C169.507 234.636 169.492 234.649 169.484 234.667C169.475 234.684 169.474 234.704 169.481 234.722C170.166 237.971 171.124 241.15 171.985 244.349C172.846 247.549 173.766 250.738 174.695 253.928C176.525 260.248 178.325 266.588 180.331 272.869C180.885 274.63 181.466 276.384 182.072 278.132C182.689 279.913 183.178 281.752 183.921 283.484C183.97 283.582 184.097 283.543 184.078 283.484C183.794 281.791 183.285 280.177 182.865 278.553Z" fill="#37474F"/>
<path d="M187.952 143.354C184.841 143.765 179.48 138.139 177.807 134.157C178.109 132.057 178.517 129.974 179.03 127.915C179.431 125.958 179.822 123.679 180.008 121.615L192.639 126.095C191.635 128.611 190.942 131.239 190.574 133.922C190.555 134.206 190.555 134.49 190.574 134.773C190.574 134.773 190.574 134.861 190.574 134.92C190.711 136.534 190.966 142.962 187.952 143.354Z" fill="#FAAB9A"/>
<path d="M177.934 133.13C184.567 135.36 189.371 131.623 191.562 129.334C192.1 127.475 192.668 126.095 192.668 126.095L180.037 121.615C179.822 123.679 179.43 125.919 179.059 127.915C178.589 130.107 178.139 132.014 177.934 133.13Z" fill="#263238"/>
<path d="M196.581 106.391C198.156 110.95 196.209 124.373 193.03 127.465C188.431 131.956 180.653 132.65 176.779 127.064C173.032 121.644 175.879 104.2 179.45 101.362C184.704 97.1849 194.253 99.6308 196.581 106.391Z" fill="#FAAB9A"/>
<path d="M183.364 114.932C183.364 114.932 183.432 114.981 183.423 115.02C183.276 115.92 183.266 116.977 184.049 117.388C184.049 117.388 184.049 117.447 184.049 117.388C183.051 117.173 183.08 115.764 183.364 114.932Z" fill="#263238"/>
<path d="M184.293 114.091C185.771 114.159 185.506 117.104 184.146 117.026C182.787 116.948 183.06 114.022 184.293 114.091Z" fill="#263238"/>
<path d="M178.257 114.472C178.257 114.472 178.178 114.472 178.178 114.541C178.178 115.461 177.914 116.498 177.063 116.723V116.781C178.08 116.723 178.354 115.343 178.257 114.472Z" fill="#263238"/>
<path d="M177.552 113.445C176.094 113.21 175.732 116.136 177.073 116.38C178.413 116.625 178.746 113.65 177.552 113.445Z" fill="#263238"/>
<path d="M185.575 112.848C185.183 112.711 184.841 112.516 184.469 112.349C184.097 112.183 183.686 112.036 183.491 111.616C183.433 111.491 183.418 111.35 183.448 111.216C183.478 111.081 183.551 110.96 183.657 110.872C183.895 110.735 184.165 110.662 184.44 110.662C184.714 110.662 184.984 110.735 185.222 110.872C185.749 111.073 186.182 111.464 186.436 111.968C186.488 112.089 186.503 112.223 186.479 112.353C186.455 112.483 186.393 112.603 186.301 112.697C186.208 112.792 186.09 112.856 185.961 112.883C185.831 112.91 185.697 112.898 185.575 112.848Z" fill="#263238"/>
<path d="M176.515 111.87C176.926 111.87 177.307 111.743 177.708 111.674C178.14 111.656 178.554 111.502 178.892 111.234C178.975 111.124 179.019 110.99 179.019 110.853C179.019 110.715 178.975 110.581 178.892 110.471C178.701 110.273 178.461 110.13 178.196 110.056C177.931 109.982 177.651 109.98 177.386 110.05C176.821 110.108 176.298 110.373 175.918 110.794C175.836 110.897 175.786 111.022 175.775 111.153C175.764 111.285 175.792 111.417 175.856 111.532C175.92 111.647 176.017 111.741 176.134 111.801C176.251 111.861 176.384 111.885 176.515 111.87Z" fill="#263238"/>
<path d="M182.884 120.479C182.624 120.819 182.295 121.101 181.919 121.307C181.544 121.512 181.129 121.637 180.702 121.673C180.329 121.727 179.95 121.727 179.577 121.673L179.372 121.624L179.166 121.575C179.121 121.561 179.081 121.532 179.053 121.493C179.025 121.454 179.009 121.408 179.01 121.36C179.005 121.331 179.005 121.301 179.01 121.272V121.154C179.059 120.45 179.215 119.393 179.215 119.393C178.951 119.501 177.591 119.971 177.64 119.609C178.003 116.457 178.682 113.35 179.665 110.334C179.671 110.317 179.682 110.302 179.697 110.291C179.712 110.28 179.73 110.275 179.748 110.275C179.767 110.275 179.784 110.28 179.799 110.291C179.814 110.302 179.825 110.317 179.831 110.334C179.518 113.269 178.697 116.087 178.335 119.012C178.815 118.832 179.32 118.723 179.831 118.689C179.929 118.689 179.489 120.734 179.489 121.047C180.058 121.154 180.644 121.146 181.21 121.024C181.776 120.901 182.312 120.666 182.786 120.333C182.884 120.342 182.943 120.411 182.884 120.479Z" fill="#263238"/>
<path d="M180.027 121.311C180.369 121.844 180.84 122.282 181.397 122.583C181.7 122.731 182.042 122.782 182.375 122.73C183.119 122.603 183.197 121.937 183.109 121.36C183.061 121.049 182.979 120.744 182.865 120.45C182.033 121.028 181.04 121.329 180.027 121.311Z" fill="#263238"/>
<path d="M181.397 122.583C181.7 122.731 182.042 122.782 182.375 122.73C183.119 122.602 183.197 121.937 183.109 121.36C182.728 121.342 182.352 121.453 182.041 121.675C181.731 121.897 181.504 122.217 181.397 122.583Z" fill="#FF98B9"/>
<path d="M193.078 115.284C192.345 112.496 194.223 108.044 192.941 106.733C190.182 103.886 183.804 108.543 179.665 108.289C175.527 108.035 174.49 105.354 175.439 102.155C176.388 98.9555 179.303 96.9597 183.852 96.5977C187.812 96.4147 191.711 97.6264 194.869 100.022C194.869 100.022 193.969 98.3294 194.389 97.85C194.81 97.3706 196.659 99.0729 197.207 99.8067C197.606 100.402 197.895 101.065 198.058 101.763C198.665 101.655 199.285 101.635 199.897 101.705C200.786 101.831 201.603 102.264 202.206 102.928C202.265 103.182 200.788 103.26 199.761 103.241C199.761 103.241 201.492 105.912 201.306 108.074C201.12 110.236 197.031 120.303 196.219 120.362C195.162 120.401 193.382 116.38 193.078 115.284Z" fill="#263238"/>
<path d="M199.389 102.928C199.389 102.928 199.301 102.928 199.33 102.928C200.271 103.797 200.949 104.912 201.287 106.147C201.602 107.634 201.51 109.178 201.023 110.618C200.042 113.353 198.772 115.977 197.237 118.444C197.232 118.453 197.229 118.462 197.228 118.471C197.227 118.481 197.228 118.49 197.231 118.499C197.234 118.509 197.238 118.517 197.244 118.524C197.25 118.532 197.258 118.538 197.266 118.542C197.274 118.547 197.284 118.55 197.293 118.551C197.302 118.552 197.312 118.551 197.321 118.548C197.33 118.545 197.339 118.541 197.346 118.535C197.353 118.529 197.359 118.521 197.364 118.513C199.16 115.933 200.54 113.087 201.453 110.08C202.099 107.575 201.708 104.522 199.389 102.928Z" fill="#263238"/>
<path d="M193.206 105.648C191.996 105.422 190.756 105.422 189.547 105.648C188.423 105.958 187.342 106.404 186.328 106.978C184.004 108.188 181.386 108.717 178.775 108.504V108.553C181.152 108.926 183.587 108.586 185.77 107.575C186.853 107.009 187.971 106.513 189.116 106.088C190.451 105.808 191.821 105.741 193.176 105.892C193.192 105.894 193.209 105.893 193.224 105.888C193.24 105.884 193.254 105.877 193.267 105.867C193.28 105.857 193.29 105.844 193.298 105.83C193.306 105.816 193.311 105.801 193.313 105.785C193.315 105.768 193.314 105.752 193.31 105.737C193.305 105.721 193.298 105.706 193.288 105.694C193.278 105.681 193.265 105.67 193.251 105.662C193.237 105.655 193.222 105.649 193.206 105.648Z" fill="#263238"/>
<path d="M192.482 98.6524C190.914 97.7273 189.22 97.0352 187.453 96.5979C185.773 96.1167 184.021 95.9346 182.277 96.0598C179.274 96.3337 176.407 98.0165 175.507 101.049C175.017 102.586 175.118 104.25 175.791 105.716C175.803 105.732 175.82 105.743 175.839 105.748C175.858 105.753 175.878 105.751 175.896 105.743C175.914 105.735 175.929 105.722 175.938 105.704C175.947 105.687 175.951 105.667 175.948 105.648C175.405 104.304 175.314 102.82 175.686 101.42C176.058 100.019 176.874 98.7771 178.012 97.8795C180.595 95.9228 184.019 96.0011 187.032 96.6957C188.909 97.1575 190.732 97.8132 192.472 98.6524C192.472 98.6524 192.492 98.6524 192.482 98.6524Z" fill="#263238"/>
<path d="M193.969 117.358C193.969 117.358 196.904 112.995 198.861 114.042C200.818 115.089 198.675 121.37 196.386 122.27C196.101 122.404 195.792 122.479 195.477 122.491C195.162 122.503 194.848 122.451 194.554 122.339C194.26 122.227 193.992 122.056 193.765 121.837C193.538 121.619 193.358 121.356 193.235 121.066L193.969 117.358Z" fill="#FAAB9A"/>
<path d="M144.376 205.89C144.503 206.056 204.056 211.447 204.663 210.88C205.494 210.087 201.943 150.495 191.308 138.325C188.696 135.321 179.45 131.721 176.408 133.589C168.512 138.481 163.64 149.449 160.519 155.837C158.2 160.573 155.226 168.722 152.467 177.097C147.918 190.902 143.936 205.293 144.376 205.89Z" fill="#74927A"/>
<path d="M180.301 151.112C180.462 152.128 180.765 153.116 181.201 154.047C181.622 154.984 182.169 155.859 182.825 156.649C182.67 155.632 182.367 154.644 181.925 153.714C181.505 152.777 180.959 151.901 180.301 151.112ZM190.32 190.139C190.482 191.155 190.788 192.143 191.23 193.074C191.641 194.019 192.188 194.899 192.854 195.686C192.511 193.649 191.637 191.739 190.32 190.148V190.139ZM165.587 188.27C165.748 189.287 166.055 190.275 166.497 191.205C166.905 192.151 167.456 193.028 168.13 193.807C167.969 192.789 167.66 191.8 167.211 190.872C166.796 189.932 166.249 189.056 165.587 188.27ZM148.642 200.578C150.674 200.224 152.579 199.347 154.169 198.034C152.135 198.381 150.229 199.259 148.642 200.578ZM188.979 169.701C189.995 169.54 190.983 169.237 191.914 168.801C192.856 168.384 193.733 167.834 194.517 167.167C193.5 167.329 192.512 167.635 191.582 168.077C190.64 168.488 189.763 169.035 188.979 169.701ZM172.993 139.518C174.009 139.358 174.997 139.055 175.928 138.618C176.873 138.202 177.752 137.651 178.54 136.984C176.508 137.342 174.602 138.215 173.003 139.518H172.993ZM190.007 143.96C190.608 143.128 191.089 142.216 191.435 141.25C191.68 140.582 191.87 139.895 192.002 139.195L191.729 138.824C191.311 139.501 190.963 140.219 190.691 140.966C190.318 141.925 190.087 142.934 190.007 143.96ZM166.262 168.419C166.863 167.584 167.344 166.668 167.69 165.699C168.06 164.742 168.29 163.737 168.375 162.715C167.776 163.548 167.295 164.46 166.947 165.425C166.576 166.392 166.345 167.407 166.262 168.439V168.419ZM162.554 207.553L163.112 207.602C163.193 207.219 163.245 206.829 163.268 206.438C162.996 206.811 162.757 207.207 162.554 207.622V207.553ZM199.36 209.852C199.961 209.021 200.442 208.108 200.788 207.142C201.162 206.183 201.392 205.175 201.473 204.149C200.287 205.835 199.559 207.8 199.36 209.852ZM151.821 179.064C152.056 179.174 152.291 179.272 152.526 179.357C153.486 179.726 154.494 179.957 155.519 180.042C154.686 179.44 153.77 178.962 152.8 178.623L152.056 178.369L151.821 179.064ZM176.926 202.72C178.61 203.91 180.577 204.639 182.63 204.834C181.798 204.235 180.885 203.758 179.92 203.415C178.961 203.039 177.952 202.805 176.926 202.72ZM174.969 179.24C175.803 179.843 176.719 180.324 177.689 180.668C178.63 181.036 179.618 181.267 180.624 181.353C178.94 180.163 176.973 179.434 174.92 179.24H174.969ZM196.288 153.166C196.786 153.55 197.324 153.878 197.892 154.145C197.833 153.89 197.765 153.646 197.706 153.391C197.23 153.281 196.746 153.212 196.258 153.186L196.288 153.166ZM164.237 148.402C165.089 148.715 165.982 148.906 166.888 148.969C166.188 148.451 165.421 148.03 164.608 147.717L164.237 148.402Z" fill="white"/>
<path d="M186.083 147.697C201.355 151.327 225.13 154.918 232.956 149.967C236.958 147.433 246.252 125.244 248.845 112.79C249.52 109.551 222.958 105.012 222.116 108.436C220.981 113.054 218.32 127.612 217.009 129.901C216.256 131.212 199.399 133.169 185.819 135.321C169.891 137.865 173.688 144.753 186.083 147.697Z" fill="#FAAB9A"/>
<path d="M226.47 80.3473C227.113 80.4112 227.73 80.6331 228.266 80.9933C228.802 81.3535 229.24 81.8408 229.542 82.4116C230.332 81.4124 231.446 80.7203 232.692 80.4549C234.913 80.0733 236.479 83.39 236.479 83.39C237.515 82.5164 238.79 81.9744 240.138 81.8344C242.3 81.6876 244.364 84.7694 244.364 84.7694C245.049 84.5551 245.773 84.5028 246.481 84.6166C247.189 84.7303 247.861 85.0071 248.444 85.425C252.563 88.8786 251.271 107.732 247.965 115.255L222.811 111.459C222.811 111.459 219.436 97.2533 219.993 92.8703C220.443 89.2601 222.557 79.9755 226.47 80.3473Z" fill="#FAAB9A"/>
<path d="M229.405 82.4704C228.118 86.3095 227.307 90.2917 226.988 94.3281C226.988 94.4162 227.115 94.4357 227.125 94.3281C227.536 90.4147 229.023 86.423 229.591 82.4998C229.64 82.4117 229.473 82.3726 229.405 82.4704Z" fill="#263238"/>
<path d="M236.156 83.4583C235.909 84.3472 235.784 85.2655 235.784 86.188C235.715 87.1663 235.676 88.1447 235.637 89.123C235.578 91.0798 235.562 93.0365 235.588 94.9932C235.588 95.0812 235.725 95.1008 235.735 94.9932C235.794 93.0365 235.892 91.0798 236.048 89.123C236.117 88.1447 236.205 87.1663 236.293 86.188C236.437 85.2792 236.48 84.357 236.42 83.4388C236.41 83.4102 236.391 83.3857 236.366 83.369C236.34 83.3524 236.31 83.3446 236.28 83.3468C236.25 83.349 236.221 83.3612 236.199 83.3814C236.176 83.4015 236.161 83.4286 236.156 83.4583Z" fill="#263238"/>
<path d="M244.335 84.8771C244.129 85.6816 244.059 86.5151 244.129 87.3426C244.129 88.2329 244.129 89.1232 244.129 90.0135C244.08 91.7941 244.041 93.5747 243.934 95.3455C243.934 95.4434 244.071 95.4532 244.071 95.3455C244.188 93.5454 244.325 91.7354 244.423 89.9352C244.472 89.0449 244.521 88.1546 244.56 87.2741C244.669 86.4658 244.636 85.6446 244.462 84.8478C244.462 84.8478 244.354 84.838 244.335 84.8771Z" fill="#263238"/>
<path d="M207.441 154.8L206.463 130.879C206.463 130.879 189.772 131.956 180.311 135.429C170.85 138.902 174.069 144.058 183.246 147.639C192.423 151.219 207.441 154.8 207.441 154.8Z" fill="#74927A"/>
<path d="M203.518 132.122C202.559 131.748 201.55 131.518 200.524 131.437C201.358 132.04 202.274 132.521 203.244 132.865C204.2 133.238 205.205 133.469 206.228 133.55C205.4 132.943 204.486 132.462 203.518 132.122ZM190.691 140.927C190.323 141.888 190.092 142.896 190.007 143.921C190.608 143.086 191.089 142.17 191.435 141.201C191.8 140.26 192.03 139.272 192.12 138.266C191.52 139.099 191.04 140.011 190.691 140.976V140.927ZM207.05 145.525C206.212 145.701 205.398 145.974 204.623 146.337C203.679 146.75 202.799 147.297 202.011 147.961C203.027 147.801 204.015 147.498 204.946 147.061C205.697 146.726 206.409 146.309 207.069 145.819L207.05 145.525ZM176.045 137.699C175.61 138.061 175.242 138.498 174.959 138.99C175.282 138.873 175.605 138.745 175.938 138.608C176.882 138.192 177.762 137.642 178.55 136.975C177.686 137.106 176.844 137.353 176.045 137.708V137.699Z" fill="white"/>
<path d="M202.168 132.288C202.056 139.075 202.406 145.86 203.214 152.599H203.371C203.42 147.042 202.676 135.967 202.393 132.288C202.402 132.22 202.168 132.22 202.168 132.288Z" fill="#263238"/>
<path d="M207.314 151.797C207.47 152.775 207.558 153.753 207.685 154.791V155.104L207.343 155.035C205.249 154.595 203.156 154.174 201.082 153.665C199.007 153.157 196.933 152.628 194.879 152.041C192.824 151.454 190.77 150.848 188.754 150.143C186.739 149.439 184.714 148.735 182.747 147.864L188.95 149.488C191.014 150.026 193.079 150.564 195.133 151.122L201.307 152.804C203.361 153.352 205.406 153.988 207.46 154.566L207.167 154.81C207.245 153.802 207.245 152.804 207.314 151.797Z" fill="#263238"/>
<path d="M188.187 149.723C187.426 149.908 186.637 149.958 185.859 149.869C185.078 149.799 184.32 149.573 183.628 149.204C184.019 149.204 184.401 149.253 184.782 149.282L185.907 149.38C186.673 149.453 187.434 149.567 188.187 149.723Z" fill="#263238"/>
<path d="M42.7151 387.376C39.3496 385.556 34.7904 384.705 31.239 386.397C31.102 386.456 31.239 386.652 31.3173 386.652C35.0892 386.638 38.8516 387.031 42.539 387.826C42.596 387.838 42.6555 387.83 42.7069 387.803C42.7584 387.775 42.7983 387.73 42.8196 387.676C42.8408 387.622 42.842 387.562 42.8228 387.506C42.8037 387.451 42.7655 387.405 42.7151 387.376Z" fill="#263238"/>
<path d="M44.7991 389.763C41.4336 387.943 36.8744 387.092 33.323 388.784C33.186 388.843 33.323 389.039 33.4012 389.039C37.1794 389.02 40.9484 389.411 44.6426 390.203C44.6948 390.205 44.7462 390.191 44.7895 390.161C44.8328 390.132 44.8656 390.09 44.8831 390.041C44.9006 389.991 44.9019 389.938 44.8868 389.888C44.8716 389.838 44.8409 389.794 44.7991 389.763Z" fill="#263238"/>
<path d="M46.8828 392.16C43.5173 390.34 38.9581 389.489 35.4067 391.181C35.2697 391.24 35.4067 391.436 35.4947 391.436C39.2707 391.427 43.0364 391.828 46.7263 392.629C46.7885 392.65 46.8565 392.645 46.9152 392.616C46.9739 392.587 47.0186 392.535 47.0393 392.473C47.0601 392.411 47.0553 392.343 47.0259 392.284C46.9966 392.225 46.9451 392.181 46.8828 392.16Z" fill="#263238"/>
<path d="M48.9766 394.537C45.6012 392.717 41.0519 391.866 37.4907 393.559C37.3537 393.618 37.4907 393.813 37.5787 393.813C41.3547 393.805 45.1204 394.205 48.8103 395.007C48.8725 395.029 48.941 395.025 49.0006 394.997C49.0603 394.968 49.1062 394.917 49.1282 394.855C49.1503 394.793 49.1467 394.724 49.1183 394.665C49.0898 394.605 49.0389 394.559 48.9766 394.537Z" fill="#263238"/>
<path d="M51.9899 381.212C51.2072 378.825 48.3015 378.854 46.4035 379.627C43.1707 381.023 40.3606 383.243 38.2537 386.065C38.2416 386.074 38.2317 386.086 38.2249 386.099C38.2181 386.113 38.2146 386.128 38.2146 386.143C38.2146 386.158 38.2181 386.173 38.2249 386.187C38.2317 386.2 38.2416 386.212 38.2537 386.221C38.1755 386.495 38.3222 386.867 38.6646 386.847C41.9813 386.701 45.5132 386.955 48.7026 385.8C50.5908 385.125 52.7334 383.472 51.9899 381.212ZM43.6836 385.605C42.0595 385.712 40.4453 385.742 38.7918 385.918C40.3866 384.666 41.9128 383.355 43.6836 382.259C44.5004 381.721 45.3536 381.24 46.2371 380.821C47.6166 380.194 52.4986 379.48 50.6006 383.208C49.544 385.311 45.6208 385.468 43.6836 385.605Z" fill="#263238"/>
<path d="M29.4485 382.21C32.002 384.411 35.4165 385.439 38.4592 386.75C38.5287 386.773 38.6028 386.779 38.6754 386.768C38.7479 386.757 38.8167 386.729 38.8761 386.686C38.9355 386.643 38.9837 386.586 39.0167 386.521C39.0497 386.455 39.0665 386.383 39.0658 386.309C39.0815 386.31 39.0972 386.307 39.1115 386.3C39.1258 386.294 39.1383 386.284 39.1479 386.271C39.1575 386.259 39.1639 386.244 39.1667 386.229C39.1694 386.213 39.1684 386.197 39.1636 386.182C38.1981 382.798 36.3592 379.728 33.8316 377.279C32.3347 375.87 29.6344 374.814 28.0495 376.77C26.4645 378.727 27.9614 380.918 29.4485 382.21ZM28.6561 379.138C28.206 374.98 32.5695 377.377 33.5478 378.453C34.2186 379.165 34.8459 379.916 35.4263 380.703C36.6395 382.337 37.608 384.108 38.6549 385.84C37.1971 385.106 35.7198 384.499 34.2131 383.824C32.4912 383.012 28.9007 381.398 28.6561 379.138Z" fill="#263238"/>
<path d="M4.97007 382.249C4.75483 383.55 4.53959 384.822 4.34392 386.055C3.05249 393.97 2.28937 400.075 2.88617 400.632C4.70592 402.364 59.3276 413.351 61.3724 413.077C63.4172 412.803 62.8204 406.992 61.0398 404.879C59.9538 403.597 52.4889 398.079 46.8047 393.96C43.1456 391.318 40.2301 389.235 40.2301 389.235L51.1877 353.818L14.4601 346.568C14.4601 346.568 5.36141 380.155 4.97007 382.249Z" fill="#F9A18E"/>
<path d="M61.3724 413.077C59.3276 413.322 4.70592 402.364 2.88617 400.632C2.28937 400.065 3.05249 393.97 4.34392 386.055C4.53959 384.832 4.74505 383.55 4.97007 382.249C5.09726 381.515 6.30064 376.937 7.79753 371.292C13.1198 372.348 34.4773 376.643 43.5369 378.463L40.2105 389.225C40.2105 389.225 43.1456 391.299 46.7851 393.95C52.4694 398.069 59.9342 403.577 61.0104 404.869C62.8106 406.992 63.4074 412.813 61.3724 413.077Z" fill="#EBEBEB"/>
<path d="M61.8224 413.429C60.4723 413.586 36.7863 408.88 19.6161 405.025C15.644 404.135 12.024 403.284 9.10852 402.56C5.08747 401.581 2.40677 400.779 2.02521 400.417C1.35992 399.771 5.54729 377.377 6.28106 374.784L42.5977 382.298L40.4649 389.01C40.4649 389.01 59.6994 402.863 61.5289 405.035C63.3585 407.207 63.9064 413.165 61.8224 413.429Z" fill="#D2C897"/>
<path d="M60.9712 410.925C51.6475 408.792 13.8731 400.965 4.50041 399.537C4.42214 399.537 4.41236 399.537 4.50041 399.595C13.6774 401.943 51.5203 409.438 60.9321 411.081C61.1278 411.111 61.1278 410.974 60.9712 410.925Z" fill="#263238"/>
<path d="M51.1388 373.708C51.5301 373.522 62.1747 327.833 67.0273 309.205C74.0324 282.32 80.8222 238.499 82.8572 229.371C87.0581 218.861 89.9115 207.862 91.3493 196.635H47.1862C47.1862 196.635 35.6123 218.775 41.5607 234.429C42.1086 235.867 33.8512 291.174 29.5758 300.165C25.8874 307.913 9.03027 364.658 9.03027 364.658L51.1388 373.708Z" fill="#37474F"/>
<path d="M50.9039 364.345C49.8278 363.954 48.6733 363.758 47.558 363.465C46.4426 363.171 45.2001 362.868 44.0163 362.604C41.6487 362.065 39.281 361.557 36.9134 361.038C32.1684 360.011 27.4136 359.081 22.6587 358.103C21.3543 357.836 20.0498 357.581 18.7453 357.34C17.4608 357.027 16.1513 356.827 14.8319 356.743C14.8196 356.75 14.8095 356.76 14.8023 356.772C14.7952 356.784 14.7915 356.798 14.7915 356.812C14.7915 356.826 14.7952 356.839 14.8023 356.851C14.8095 356.863 14.8196 356.873 14.8319 356.88C15.9091 357.283 17.0187 357.594 18.1485 357.81C19.3225 358.103 20.5064 358.377 21.6902 358.641C24.0187 359.169 26.3472 359.708 28.6854 360.216C33.3816 361.195 38.0875 362.281 42.8031 363.239C44.1435 363.504 45.4741 363.778 46.8242 364.003C48.1743 364.228 49.5049 364.58 50.855 364.678C50.9724 364.668 51.0996 364.414 50.9039 364.345Z" fill="#263238"/>
<path d="M71.3027 227.346C70.4516 231.944 69.7471 236.571 68.984 241.18C68.6025 243.537 68.0839 245.866 67.6926 248.214C67.3012 250.562 66.9393 252.832 66.5675 255.141C65.0673 264.435 63.5835 273.726 62.116 283.014C61.3854 287.632 60.6452 292.243 59.8951 296.848C59.2059 301.392 58.2751 305.895 57.1068 310.34C55.8936 314.781 54.4652 319.145 53.1053 323.557L48.9473 337.078C46.1981 346.04 46.5894 347.566 44.124 356.645C43.8207 357.771 43.5076 358.896 43.1456 360.021C43.1446 360.046 43.1523 360.07 43.1674 360.09C43.1824 360.11 43.2039 360.124 43.2282 360.13C43.2525 360.135 43.278 360.133 43.3004 360.122C43.3228 360.111 43.3407 360.092 43.351 360.07C46.3937 351.186 45.973 349.66 48.8005 340.698C51.628 331.736 54.5239 322.853 57.2144 313.891C58.5183 309.529 59.5604 305.092 60.3353 300.605C61.118 295.987 61.8029 291.36 62.5464 286.732C64.0074 277.444 65.4913 268.153 66.998 258.858C67.7219 254.299 68.5242 249.73 69.0916 245.161C69.6787 240.407 70.5005 235.681 71.2049 230.946C71.381 229.782 71.5473 228.627 71.7039 227.463C71.7039 227.199 71.3517 227.091 71.3027 227.346Z" fill="#263238"/>
<path d="M109.283 390.418C105.516 389.694 100.918 390.242 98.0217 392.903C97.9141 393.011 98.0217 393.167 98.188 393.128C101.789 391.989 105.502 391.241 109.263 390.898C109.319 390.889 109.37 390.861 109.408 390.819C109.445 390.776 109.467 390.722 109.47 390.666C109.472 390.609 109.455 390.554 109.42 390.509C109.386 390.463 109.338 390.432 109.283 390.418Z" fill="#263238"/>
<path d="M112.002 392.072C108.246 391.348 103.637 391.896 100.751 394.557C100.634 394.664 100.751 394.821 100.908 394.782C104.515 393.642 108.235 392.894 112.002 392.551C112.058 392.54 112.107 392.51 112.143 392.466C112.179 392.423 112.198 392.368 112.198 392.311C112.198 392.255 112.179 392.2 112.143 392.157C112.107 392.113 112.058 392.083 112.002 392.072Z" fill="#263238"/>
<path d="M114.683 393.725C110.926 393.001 106.328 393.549 103.432 396.21C103.324 396.318 103.432 396.474 103.598 396.435C107.199 395.296 110.912 394.548 114.673 394.204C114.729 394.194 114.779 394.165 114.816 394.123C114.852 394.08 114.873 394.025 114.874 393.969C114.875 393.912 114.857 393.857 114.822 393.813C114.787 393.768 114.738 393.737 114.683 393.725Z" fill="#263238"/>
<path d="M117.393 395.379C113.636 394.655 109.028 395.203 106.142 397.864C106.025 397.971 106.142 398.128 106.298 398.089C109.9 396.95 113.613 396.203 117.373 395.858C117.429 395.849 117.481 395.821 117.518 395.779C117.556 395.737 117.578 395.683 117.58 395.626C117.582 395.57 117.565 395.514 117.531 395.469C117.497 395.424 117.448 395.392 117.393 395.379Z" fill="#263238"/>
<path d="M116.278 381.77C114.81 379.725 112.051 380.615 110.476 381.926C107.8 384.221 105.775 387.18 104.606 390.506C104.6 390.52 104.597 390.536 104.598 390.551C104.599 390.566 104.603 390.581 104.611 390.595C104.618 390.608 104.629 390.619 104.642 390.628C104.654 390.636 104.669 390.642 104.684 390.643C104.684 390.927 104.949 391.24 105.271 391.123C108.392 389.988 111.856 389.166 114.527 387.112C116.121 385.918 117.667 383.697 116.278 381.77ZM109.674 388.442C108.158 389.029 106.622 389.548 105.125 390.193C106.269 388.53 107.336 386.818 108.647 385.302C109.264 384.541 109.934 383.825 110.652 383.159C111.777 382.181 116.229 380.009 115.544 384.137C115.153 386.368 111.484 387.728 109.674 388.442Z" fill="#263238"/>
<path d="M95.0769 389.469C98.1686 390.81 101.73 390.761 105.027 391.103C105.1 391.104 105.172 391.088 105.238 391.057C105.304 391.025 105.362 390.978 105.407 390.92C105.451 390.862 105.482 390.795 105.496 390.723C105.51 390.651 105.507 390.577 105.487 390.506C105.497 390.496 105.506 390.484 105.512 390.471C105.517 390.457 105.52 390.443 105.52 390.428C105.52 390.413 105.517 390.399 105.512 390.385C105.506 390.372 105.497 390.36 105.487 390.35C103.549 387.409 100.874 385.027 97.7283 383.443C95.8792 382.562 92.9833 382.357 92.0636 384.695C91.1439 387.033 93.267 388.687 95.0769 389.469ZM93.4137 386.779C91.7408 382.944 96.5738 383.941 97.9142 384.646C98.7717 385.116 99.5955 385.646 100.38 386.231C102.033 387.424 103.481 388.823 104.997 390.144C103.393 389.88 101.779 389.753 100.155 389.547C98.2077 389.322 94.3138 388.892 93.4137 386.779Z" fill="#263238"/>
<path d="M71.5963 386.084C71.5963 388.315 72.5747 410.631 73.2497 411.062C75.3728 412.412 131.09 412.568 133.037 411.932C134.984 411.296 133.282 405.681 131.08 403.959C129.769 402.902 121.385 398.94 115.006 396.005C110.907 394.116 107.639 392.649 107.639 392.649L107.815 386.104L108.324 356.332H71.5376C71.5376 356.332 71.3517 371.614 71.5963 386.084Z" fill="#F9A18E"/>
<path d="M133.047 411.933C131.09 412.568 75.3728 412.402 73.2595 411.062C72.5649 410.622 71.6256 388.315 71.5963 386.094C71.5963 384.617 71.5963 383.159 71.5376 381.652H107.923L107.844 386.094L107.659 392.62L115.026 395.985C121.395 398.92 129.779 402.902 131.1 403.949C133.282 405.681 134.984 411.287 133.047 411.933Z" fill="#EBEBEB"/>
<path d="M134.358 412.382C133.067 412.813 108.921 412.813 91.3102 412.382C87.2402 412.285 83.4833 412.157 80.5483 412.02C76.4098 411.815 73.6313 411.58 73.1812 411.287C72.3985 410.788 71.293 388.002 71.5082 385.321L108.314 385.507L108.451 392.522C108.451 392.522 130.219 402.433 132.44 404.203C134.661 405.974 136.354 411.727 134.358 412.382Z" fill="#D2C897"/>
<path d="M133.027 410.103C123.468 409.809 84.8918 409.526 75.4213 409.956C75.3528 409.956 75.343 410.015 75.4213 410.015C84.8918 410.514 123.468 410.484 133.027 410.259C133.232 410.25 133.232 410.103 133.027 410.103Z" fill="#263238"/>
<path d="M65.0412 236.141C65.0412 236.141 71.332 297.875 71.4299 299.323C71.4299 299.901 68.7296 375.342 68.7296 375.342H110.339C110.339 375.342 108.852 304.646 108.216 295.929C108.148 294.95 105.457 232.159 93.3451 196.635H47.1274C47.1274 196.635 47.5286 217.503 57.0186 232.599C59.7559 233.632 62.4342 234.814 65.0412 236.141Z" fill="#37474F"/>
<path d="M107.708 367.544C106.563 367.378 105.399 367.417 104.244 367.358C103.09 367.3 101.828 367.241 100.614 367.212C98.1881 367.163 95.7226 367.143 93.3355 367.114C88.4437 367.055 83.6301 367.114 78.7775 367.114H74.8054C73.4681 367.064 72.1291 367.133 70.8039 367.319C70.7354 367.319 70.7452 367.446 70.8039 367.466C71.9365 367.644 73.0817 367.729 74.2281 367.72C75.4413 367.769 76.6545 367.799 77.8676 367.818C80.2548 367.867 82.642 367.926 85.039 367.955C89.8427 368.014 94.6562 368.102 99.4698 368.082C100.839 368.082 102.199 368.082 103.569 368.033C104.939 367.984 106.308 368.033 107.659 367.877C107.835 367.848 107.913 367.574 107.708 367.544Z" fill="#263238"/>
<path d="M98.3053 302.777C97.2095 280.539 94.8713 258.399 91.9264 236.346C90.3219 224.264 88.4337 212.201 85.1659 200.441C85.1659 200.441 85.0779 200.441 85.0877 200.441C87.6357 211.199 89.5566 222.097 90.8404 233.079C92.2101 243.938 93.5211 254.818 94.6267 265.717C96.8671 287.828 97.865 310.017 98.002 332.245C98.0803 344.749 97.7476 350.638 97.3954 363.132C97.3954 363.249 97.5715 363.239 97.5813 363.132C99.3913 340.904 99.3619 325.044 98.3053 302.777Z" fill="#263238"/>
<path d="M96.0452 205.235C96.0452 205.217 96.038 205.199 96.0252 205.186C96.0123 205.173 95.9949 205.166 95.9767 205.166C95.9586 205.166 95.9412 205.173 95.9283 205.186C95.9155 205.199 95.9083 205.217 95.9083 205.235C96.0844 207.867 96.5344 210.733 95.3604 213.218C94.3331 215.4 92.3666 216.633 90.5566 218.11C90.5566 218.159 90.5566 218.247 90.6349 218.227C93.0319 217.503 95.4289 216.173 96.3779 213.707C97.4345 210.978 96.8573 207.974 96.0452 205.235Z" fill="#263238"/>
<path d="M76.0086 234.781C74.079 234.724 72.1478 234.79 70.2265 234.977C68.3448 235.076 66.4585 235.043 64.5814 234.879C63.6397 234.781 62.7052 234.624 61.7833 234.409C60.8049 234.184 59.9244 233.832 58.9754 233.568C58.1136 233.38 57.2182 233.413 56.3729 233.666C55.3946 233.891 54.4162 234.047 53.3498 234.184C51.0334 234.522 48.685 234.581 46.3546 234.36C46.2665 234.36 46.2274 234.487 46.3546 234.507C48.3141 234.917 50.3108 235.124 52.3128 235.123C53.3385 235.101 54.3615 235.009 55.375 234.849C56.3054 234.577 57.2726 234.452 58.2416 234.478C59.192 234.731 60.1264 235.042 61.0397 235.407C61.9703 235.668 62.9185 235.861 63.877 235.984C65.7967 236.239 67.7372 236.298 69.6688 236.16C71.8478 236.111 74.0113 235.783 76.1064 235.182C76.1596 235.169 76.2055 235.136 76.2339 235.089C76.2624 235.042 76.271 234.986 76.2581 234.933C76.2451 234.879 76.2115 234.834 76.1647 234.805C76.118 234.777 76.0618 234.768 76.0086 234.781Z" fill="#263238"/>
<path d="M70.4221 285.294C70.0568 281.295 69.6655 277.297 69.248 273.299C68.4066 265.296 67.6142 257.293 66.7924 249.29C66.3227 244.75 65.9901 240.172 65.2465 235.671C65.2465 235.554 65.0411 235.554 65.0509 235.671C65.1096 239.683 65.5401 243.694 65.8825 247.695C66.2249 251.697 66.5771 255.698 66.9489 259.7C67.7022 267.703 68.4164 275.716 69.3557 283.709C69.6231 285.972 69.9035 288.255 70.197 290.557C70.5003 292.827 70.9015 295.087 71.1754 297.357C71.1754 297.378 71.1836 297.397 71.1983 297.412C71.213 297.427 71.2329 297.435 71.2537 297.435C71.2744 297.435 71.2943 297.427 71.309 297.412C71.3237 297.397 71.3319 297.378 71.3319 297.357C70.9797 293.346 70.7938 289.295 70.4221 285.294Z" fill="#263238"/>
<path d="M70.745 146.455C71.0581 147.316 75.9988 152.54 80.0199 151.846C81.3309 151.621 80.4112 144.41 80.4112 144.41L80.4601 143.862L81.2135 136.202L71.7527 131.662L70.3928 131.075C70.3928 131.075 70.3243 133.188 70.2754 135.81C70.2754 135.938 70.2754 136.055 70.2754 136.192C70.2754 136.329 70.2754 136.476 70.2754 136.613V137.806C70.2754 138.119 70.2754 138.413 70.2754 138.726C70.2754 139.039 70.2754 139.362 70.2754 139.704C70.2728 141.963 70.4297 144.219 70.745 146.455Z" fill="#F9A18E"/>
<path d="M70.2754 135.83C71.2854 137.832 72.72 139.589 74.479 140.98C76.238 142.371 78.2791 143.361 80.4601 143.882L81.2134 136.221L71.7527 131.682L70.3928 131.095C70.3928 131.095 70.3243 133.188 70.2754 135.83Z" fill="#263238"/>
<path d="M92.9734 184.572L93.3452 196.635H47.1863C47.1863 196.635 52.626 160.876 64.7967 147.717C70.8821 141.103 77.3491 142.346 81.9082 146.964C83.0529 148.138 95.6639 164.574 97.1119 171.52C98.374 177.586 92.9734 184.572 92.9734 184.572Z" fill="#D2C897"/>
<path opacity="0.1" d="M93.2963 195.197H47.4309C47.4896 194.825 47.5679 194.394 47.6559 193.905H93.267L93.2963 195.197ZM93.1496 190.305H48.331C48.2429 190.755 48.1549 191.185 48.0766 191.596H93.1887L93.1496 190.305ZM93.042 186.695H49.0843C48.9865 187.135 48.8984 187.566 48.8104 187.986H93.0811L93.042 186.695ZM49.9062 183.075C49.8083 183.515 49.7007 183.946 49.6029 184.366H93.13C93.3159 184.122 93.629 183.672 94.0008 183.075H49.9062ZM50.7965 179.465L50.4736 180.756H95.302C95.5172 180.345 95.7129 179.915 95.9086 179.465H50.7965ZM51.7748 175.855L51.4226 177.146H96.7402C96.8576 176.725 96.9652 176.295 97.0532 175.855H51.7748ZM97.2489 172.244H52.8314C52.6945 172.675 52.5673 173.105 52.4401 173.536H97.3272C97.3226 173.101 97.2932 172.666 97.2391 172.235L97.2489 172.244ZM96.1727 168.634H53.9859C53.8392 169.065 53.7022 169.495 53.5554 169.926H96.6619C96.5249 169.505 96.3488 169.094 96.1629 168.625L96.1727 168.634ZM94.3725 165.014H55.2578C55.0915 165.445 54.9349 165.875 54.7784 166.316H95.0476C94.8421 165.875 94.6073 165.445 94.3921 165.005L94.3725 165.014ZM92.2495 161.404H56.696C56.5133 161.835 56.3372 162.265 56.1676 162.696H93.0322C92.7778 162.259 92.5137 161.825 92.2397 161.394L92.2495 161.404ZM89.921 157.794H58.3103C58.1048 158.225 57.8993 158.655 57.7037 159.086H90.7624L89.921 157.794ZM87.436 154.184H60.1985C59.9539 154.605 59.7093 155.035 59.4843 155.475H88.3165C88.023 155.025 87.7197 154.595 87.4262 154.174L87.436 154.184ZM84.8042 150.574H62.4683C62.165 150.995 61.8813 151.425 61.5975 151.865H85.7434L84.8042 150.574ZM81.9572 146.964H65.4718C65.2501 147.185 65.025 147.42 64.7968 147.668C64.5685 147.916 64.3924 148.112 64.2684 148.255H83.0138C82.505 147.57 82.1333 147.15 81.9474 146.954L81.9572 146.964ZM75.9696 143.344H71.5474C70.4529 143.611 69.4065 144.046 68.446 144.635H79.0514C78.0915 144.05 77.0495 143.611 75.9598 143.334L75.9696 143.344Z" fill="#030402"/>
<path d="M77.887 157.051C86.1542 160.221 116.963 167.275 123.449 161.884C133.634 153.421 141.598 138.256 145.707 125.821C147.125 121.497 119.976 117.77 118.489 122.652C116.532 129.011 111.64 140.585 110.339 142.571C109.038 144.557 90.6155 144.89 78.1903 146.054C67.8197 147.022 67.399 153.039 77.887 157.051Z" fill="#F9A18E"/>
<path d="M121.717 93.7606C122.46 93.5105 123.261 93.4936 124.013 93.7122C124.765 93.9309 125.432 94.3745 125.924 94.9835C126.73 93.9289 127.879 93.1885 129.172 92.8899C131.481 92.4789 133.145 95.913 133.145 95.913C134.207 94.9904 135.523 94.4106 136.921 94.2498C139.171 94.0737 141.343 97.3022 141.343 97.3022C142.788 96.9937 144.295 97.216 145.589 97.9284C148.965 99.9829 149.043 106.01 149.141 109.845C149.239 113.68 145.902 124.638 145.482 126.79L121.884 129.07C121.884 129.07 114.644 118.895 116.111 106C116.552 102.165 118.919 94.8074 121.717 93.7606Z" fill="#F9A18E"/>
<path d="M125.533 95.1499C124.085 99.0634 123.88 103.231 123.439 107.36C123.445 107.375 123.455 107.388 123.468 107.397C123.481 107.406 123.497 107.411 123.513 107.411C123.529 107.411 123.544 107.406 123.558 107.397C123.571 107.388 123.581 107.375 123.586 107.36C123.978 103.241 125.171 99.259 125.729 95.1695C125.748 95.0814 125.572 95.0423 125.533 95.1499Z" fill="#263238"/>
<path d="M132.822 95.9815C132.577 96.907 132.459 97.8614 132.469 98.8187C132.411 99.7971 132.372 100.844 132.342 101.852C132.342 103.877 132.342 105.912 132.342 107.937C132.342 108.025 132.479 108.045 132.479 107.937C132.531 105.915 132.619 103.893 132.743 101.871C132.809 100.86 132.887 99.8525 132.978 98.848C133.118 97.9025 133.151 96.9442 133.076 95.9912C133.064 95.9684 133.046 95.9491 133.024 95.9353C133.003 95.9215 132.978 95.9137 132.952 95.9127C132.926 95.9117 132.9 95.9175 132.877 95.9296C132.855 95.9417 132.835 95.9596 132.822 95.9815Z" fill="#263238"/>
<path d="M141.353 97.361C141.149 98.2025 141.086 99.0721 141.167 99.9341C141.167 100.864 141.167 101.783 141.167 102.713C141.167 104.562 141.118 106.401 141.03 108.25C141.03 108.348 141.167 108.358 141.167 108.25C141.275 106.372 141.402 104.493 141.48 102.625C141.48 101.646 141.559 100.776 141.588 99.8559C141.696 99.0173 141.657 98.1663 141.471 97.3415C141.468 97.3259 141.459 97.312 141.446 97.3028C141.434 97.2937 141.418 97.29 141.402 97.2926C141.386 97.2952 141.373 97.3038 141.363 97.3167C141.354 97.3295 141.351 97.3455 141.353 97.361Z" fill="#263238"/>
<path d="M112.785 135.83L134.749 153.704C134.749 153.704 126.394 163.146 121.854 164.114C117.315 165.083 92.7483 163.674 78.8067 158.039C64.8651 152.403 68.4263 146.934 78.611 145.741C88.7957 144.547 107.668 142.307 108.285 141.935C108.901 141.563 112.785 135.83 112.785 135.83Z" fill="#D2C897"/>
<path opacity="0.1" d="M80.8517 158.811C80.1603 158.57 79.4852 158.316 78.8265 158.048C78.1123 157.755 77.4372 157.471 76.811 157.187L69.7375 151.405C69.5884 150.872 69.6193 150.305 69.8256 149.791L80.8517 158.811ZM72.5063 147.335C72.0914 147.53 71.6952 147.763 71.3225 148.03L86.6338 160.543C87.6121 160.788 88.5905 161.023 89.5101 161.228L72.5063 147.335ZM76.6545 146.054C76.0871 146.161 75.5588 146.279 75.05 146.416L94.3921 162.246C95.2531 162.402 96.1141 162.549 96.975 162.686L76.6545 146.054ZM81.5463 145.408L79.7559 145.613L101.348 163.224C102.151 163.331 102.953 163.429 103.735 163.508L81.5463 145.408ZM86.5261 144.821L84.7553 145.036L107.913 163.958L110.153 164.134L86.5261 144.821ZM91.506 144.224L89.7352 144.439L114.086 164.339L116.19 164.398L91.506 144.224ZM96.4663 143.608L94.6954 143.833L119.79 164.378C120.4 164.356 121.008 164.294 121.61 164.192L96.4663 143.608ZM101.358 142.982L99.597 143.216L124.056 163.185C124.438 162.969 124.819 162.725 125.21 162.461L101.358 142.982ZM106.25 142.316L104.508 142.561L127.089 161.023C127.431 160.758 127.774 160.475 128.067 160.191L106.25 142.316ZM109.547 140.36C109.253 140.761 108.989 141.113 108.764 141.338L129.858 158.586L130.836 157.686L109.547 140.36ZM111.65 137.425L110.907 138.481L132.431 156.092L133.321 155.113L111.65 137.425Z" fill="#030402"/>
<path d="M129.74 155.916C123.87 150.74 117.922 145.574 111.562 140.996C111.549 140.987 111.533 140.983 111.518 140.986C111.502 140.989 111.488 140.997 111.479 141.01C111.47 141.023 111.466 141.039 111.469 141.055C111.472 141.071 111.481 141.084 111.494 141.093C117.207 146.445 123.43 151.259 129.632 156.023C129.711 156.082 129.809 155.974 129.74 155.916Z" fill="#263238"/>
<path d="M67.0663 114.805C66.6704 115.105 66.1954 115.282 65.6999 115.315C65.2045 115.348 64.7102 115.236 64.278 114.991C63.0452 114.502 61.4701 113.23 60.1297 114.12C58.6231 115.099 59.1514 117.28 59.8656 118.572C60.5569 119.659 61.1715 120.794 61.7049 121.967C62.1281 123.1 62.3468 124.299 62.3506 125.508C62.3506 127.945 61.02 130.195 61.1766 132.621C61.382 135.556 64.1117 137.669 66.4401 139C68.7686 140.331 71.6059 140.869 74.267 141.798C76.5008 142.653 78.4836 144.057 80.0326 145.879C81.5816 147.702 82.6471 149.885 83.1309 152.227C83.3958 153.378 83.5497 154.55 83.5908 155.73C83.5908 156.992 83.5027 158.264 83.5908 159.526C83.6297 160.241 83.8391 160.937 84.2017 161.555C84.5642 162.172 85.0692 162.695 85.6747 163.077C86.8307 163.685 88.0867 164.079 89.3826 164.242C89.4237 164.253 89.4607 164.276 89.4893 164.308C89.5178 164.339 89.5368 164.378 89.544 164.421C89.5511 164.463 89.5462 164.506 89.5298 164.545C89.5133 164.584 89.4861 164.618 89.4511 164.643C88.7453 165.13 88.0065 165.568 87.24 165.954C86.5788 166.336 85.8478 166.582 85.0901 166.678C84.3324 166.774 83.5632 166.717 82.8276 166.511C81.1644 165.924 80.1665 164.369 79.2566 162.96C78.2571 161.274 76.8511 159.864 75.1671 158.861C73.4281 157.941 71.5459 157.322 69.6002 157.031C65.8336 156.385 61.9788 156.581 58.2317 155.789C56.4149 155.466 54.682 154.78 53.137 153.771C51.5919 152.763 50.2666 151.452 49.2406 149.918C48.2333 148.36 47.5665 146.606 47.2839 144.772C47.0746 142.769 47.1802 140.745 47.597 138.775C48.382 134.551 48.6611 130.249 48.4286 125.958C48.2821 123.937 48.0274 121.926 47.6655 119.932C47.2849 118.071 47.098 116.176 47.1078 114.277C47.1473 112.631 47.6204 111.024 48.4793 109.619C49.3381 108.214 50.5524 107.06 51.9996 106.274C53.4232 105.44 55.0375 104.985 56.6874 104.954C58.3372 104.923 59.9673 105.317 61.4212 106.098C66.1369 108.788 67.6827 114.199 67.0663 114.805Z" fill="#263238"/>
<path d="M61.8127 134.763C62.351 136.065 63.1492 137.243 64.1586 138.226C65.1679 139.208 66.3672 139.974 67.6829 140.477C70.3734 141.455 73.328 141.514 76.0674 142.434C78.614 143.185 80.8835 144.668 82.5931 146.699C84.0397 148.73 84.7944 151.172 84.7455 153.665C84.8433 156.483 84.5596 159.291 84.8629 162.099C84.8629 162.148 84.7846 162.167 84.7748 162.099C83.7965 157.207 85.6847 151.728 82.6224 147.355C80.7546 144.93 78.1078 143.223 75.1282 142.522C72.5355 141.788 69.7374 141.72 67.2426 140.653C65.9904 140.083 64.8649 139.269 63.9324 138.257C62.9999 137.246 62.2792 136.058 61.8127 134.763Z" fill="#263238"/>
<path d="M46.8045 148.294C46.5528 146.652 46.6059 144.977 46.961 143.354C47.323 141.397 47.7829 139.44 48.2035 137.483C47.8611 139.156 47.5774 140.849 47.2839 142.542C46.9521 144.133 46.8435 145.763 46.961 147.384C47.1816 148.985 47.7596 150.515 48.6521 151.861C49.5447 153.208 50.7289 154.336 52.117 155.162C54.9347 156.894 58.1437 157.227 61.3722 157.236C64.2417 157.186 67.1114 157.326 69.9622 157.657C73.1575 158.008 76.2438 159.024 79.0218 160.641C79.0218 160.641 79.0218 160.739 79.0218 160.71C73.4256 157.432 67.0076 157.598 60.7461 157.608C57.6486 157.756 54.5734 157.016 51.8822 155.475C50.5861 154.694 49.4658 153.652 48.592 152.416C47.7181 151.18 47.1095 149.777 46.8045 148.294Z" fill="#263238"/>
<path d="M65.1098 117.946C65.2859 117.946 67.6731 115.441 67.9275 115.196C68.1819 114.952 70.706 112.614 70.7452 112.447C69.9271 111.627 68.9654 110.964 67.9079 110.491C67.272 110.354 65.374 111.939 65.0609 112.232C64.7478 112.526 63.1042 114.404 63.2607 115.05C63.6979 116.118 64.3243 117.099 65.1098 117.946Z" fill="#D2C897"/>
<path d="M91.1731 122.945C94.7148 135.987 87.3673 139.704 84.4812 140.34C81.8983 140.918 73.142 143.05 68.2795 130.439C63.4171 117.828 68.3578 112.066 74.1497 110.178C79.9416 108.289 87.6413 109.894 91.1731 122.945Z" fill="#F9A18E"/>
<path d="M89.7644 120.303C89.4513 120.303 89.1578 120.303 88.786 120.303C88.4471 120.351 88.1021 120.282 87.8076 120.108C87.7288 120.039 87.6747 119.946 87.6535 119.844C87.6323 119.741 87.6452 119.635 87.6902 119.54C87.8134 119.366 87.9805 119.227 88.1746 119.137C88.3687 119.048 88.583 119.011 88.7958 119.031C89.2296 119.013 89.655 119.156 89.9894 119.433C90.0546 119.496 90.1019 119.576 90.1264 119.664C90.1509 119.752 90.1517 119.845 90.1289 119.933C90.1061 120.021 90.0604 120.102 89.9964 120.167C89.9323 120.232 89.8523 120.279 89.7644 120.303Z" fill="#263238"/>
<path d="M81.3015 122.456C81.5918 122.351 81.8759 122.23 82.1527 122.094C82.4765 122.006 82.7621 121.813 82.9647 121.546C83.0114 121.452 83.0252 121.345 83.0039 121.242C82.9827 121.139 82.9275 121.046 82.8473 120.978C82.6654 120.87 82.4575 120.812 82.2456 120.812C82.0337 120.812 81.8258 120.87 81.6439 120.978C81.2229 121.114 80.8718 121.409 80.6656 121.8C80.6335 121.89 80.6271 121.986 80.6473 122.079C80.6674 122.172 80.7131 122.258 80.7793 122.326C80.8456 122.394 80.9296 122.443 81.0219 122.466C81.1142 122.488 81.211 122.485 81.3015 122.456Z" fill="#263238"/>
<path d="M83.8943 125.332C83.8943 125.332 83.8356 125.391 83.8943 125.43C84.1193 126.32 84.227 127.387 83.4834 127.856C83.4834 127.856 83.4834 127.915 83.4834 127.905C84.4128 127.553 84.2563 126.144 83.8943 125.332Z" fill="#263238"/>
<path d="M82.8863 124.579C81.4188 124.784 81.908 127.71 83.307 127.514C84.7061 127.318 84.119 124.393 82.8863 124.579Z" fill="#263238"/>
<path d="M82.3386 124.833C82.1135 125.049 81.9179 125.381 81.6146 125.469C81.3113 125.557 80.9395 125.313 80.6362 125.058C80.7341 125.626 81.0471 126.154 81.6146 126.135C82.182 126.115 82.4853 125.548 82.5245 124.951C82.544 124.882 82.4266 124.745 82.3386 124.833Z" fill="#263238"/>
<path d="M88.6687 123.953C88.6687 123.953 88.7469 123.953 88.7567 124.021C88.8839 124.931 89.1872 125.978 90.0579 126.115V126.164C89.0307 126.193 88.6491 124.833 88.6687 123.953Z" fill="#263238"/>
<path d="M89.3145 122.867C90.7625 122.495 91.3788 125.401 90.0483 125.743C88.7177 126.086 88.1111 123.17 89.3145 122.867Z" fill="#263238"/>
<path d="M89.9699 122.925C90.2243 123.033 90.5178 123.258 90.7917 123.219C91.0656 123.18 91.2809 122.808 91.4179 122.466C91.4179 122.466 91.4179 122.466 91.4766 122.466C91.6037 123.023 91.545 123.64 91.0363 123.855C90.5275 124.07 90.1069 123.659 89.8623 123.131C89.8134 123.053 89.8623 122.886 89.9699 122.925Z" fill="#263238"/>
<path d="M88.297 128.336C88.297 128.336 88.7373 129.647 88.8645 130.292C88.8645 130.351 88.7275 130.41 88.5123 130.468C87.9849 130.674 87.4114 130.73 86.8542 130.632C86.297 130.533 85.7774 130.284 85.3522 129.911C85.3423 129.899 85.3366 129.884 85.336 129.869C85.3354 129.854 85.34 129.839 85.349 129.826C85.3581 129.814 85.371 129.805 85.3857 129.801C85.4005 129.796 85.4162 129.797 85.4304 129.803C86.3557 130.203 87.3853 130.292 88.3655 130.058C88.3655 129.872 87.5241 127.837 87.622 127.807C88.1241 127.756 88.6308 127.773 89.1286 127.856C88.2775 125.097 86.9958 122.485 86.1936 119.726C86.1861 119.706 86.1864 119.683 86.1943 119.663C86.2023 119.643 86.2174 119.627 86.2368 119.617C86.2562 119.607 86.2785 119.605 86.2993 119.611C86.3202 119.616 86.3383 119.63 86.3501 119.648C87.8164 122.4 89.006 125.29 89.9015 128.277C89.97 128.619 88.571 128.394 88.297 128.336Z" fill="#263238"/>
<path d="M88.3653 129.96C88.1419 130.565 87.7682 131.104 87.2794 131.525C86.9994 131.747 86.6577 131.877 86.301 131.897C85.5379 131.897 85.3227 131.29 85.264 130.694C85.2245 130.369 85.2245 130.04 85.264 129.715C86.2436 130.132 87.3325 130.218 88.3653 129.96Z" fill="#263238"/>
<path d="M87.2791 131.545C86.9991 131.767 86.6574 131.897 86.3007 131.917C85.5376 131.917 85.3224 131.31 85.2637 130.713C85.6441 130.604 86.0506 130.626 86.4166 130.777C86.7826 130.928 87.0866 131.199 87.2791 131.545Z" fill="#FF98B9"/>
<path d="M70.2167 134.627C71.3614 134.421 70.2167 127.22 70.2167 127.22C70.2167 127.22 74.6976 124.823 74.903 118.014C75.1462 119.996 74.8062 122.005 73.9247 123.796C73.9247 123.796 81.7515 121.36 83.7767 114.013C83.7767 114.013 83.1114 117.681 82.0939 119.139C83.9969 118.12 85.4974 116.485 86.3498 114.502C86.3498 114.502 88.512 118.083 89.8034 118.934C89.8034 118.934 88.3261 105.354 74.0518 109.082C71.4873 109.705 69.1433 111.02 67.2763 112.886C65.4093 114.751 64.0912 117.094 63.466 119.658C62.4387 124.031 63.8965 129.226 65.6967 132.142C66.8218 133.873 70.2167 134.627 70.2167 134.627Z" fill="#263238"/>
<path d="M73.8465 128.306C73.8465 128.306 70.5299 124.393 68.7101 125.587C66.8904 126.78 69.6885 132.699 71.9779 133.325C72.2686 133.425 72.5765 133.466 72.8833 133.444C73.19 133.423 73.4893 133.34 73.7632 133.2C74.0372 133.06 74.2802 132.867 74.4777 132.631C74.6752 132.396 74.8232 132.123 74.9129 131.828L73.8465 128.306Z" fill="#F9A18E"/>
</svg>
